<svg height="2000" viewBox="0 0 2000 2000" width="2000" xmlns="http://www.w3.org/2000/svg"><g transform="translate(0 947.63784)"><path d="m429.65039 210c-214.71645 0-389.65039 174.196-389.65039 388.5v803c0 214.304 174.93394 388.5 389.65039 388.5h1140.69921c214.7165 0 389.6504-174.196 389.6504-388.5v-803c0-214.304-174.9339-388.5-389.6504-388.5zm0 120h1140.69921c150.537 0 269.6504 118.82603 269.6504 268.5v803c0 149.674-119.1134 268.5-269.6504 268.5h-1140.69921c-150.53703 0-269.65039-118.826-269.65039-268.5v-803c0-149.67397 119.11336-268.5 269.65039-268.5zm-71.91992 143.9082v759.8789h1012.22073v-759.8789zm43.10547 263.10547h926.01176v206.39063h-687.76762v-205.88086h-43.10547v205.88086h-195.13867zm0 249.4961h195.13867v204.17183h-195.13867zm238.24414 0h687.76762v204.17183h-687.76762z" transform="translate(0 -947.63784)"/><path d="m404.76179-425.0748v215.17488h921.64241v-215.17488z"/></g></svg>