<svg height="2048" width="2048" xmlns="http://www.w3.org/2000/svg"><path d="m1005.0195 99.369141c-447.58882.37686-859.06125 373.342879-901.28903 819.482319-45.313318 379.98794 168.53511 777.15464 517.56732 938.55884 324.1368 158.4228 740.17571 108.2877 1009.00961-135.6475 273.5261-236.6903 393.0393-640.13 272.8914-984.32077-114.257-351.14907-451.4602-619.97699-822.8404-636.25093-25.0791-1.639618-50.2143-1.947536-75.3389-1.821959zm18.334 289.732419c329.628-9.58502 631.8271 281.13572 635.6949 610.89788 14.2549 301.67316-212.3842 597.90786-513.0171 648.48456-290.91368 58.275-613.5633-109.8546-715.39041-392.2817-109.62202-279.28986 2.21738-632.47787 269.04431-779.06583 97.55911-57.28344 210.50666-88.1759 323.6683-88.03491zm.6485 175.85742c-146.99911 106.70241-293.99004 213.41607-440.98442 320.125 56.14556 172.65262 112.29391 345.30442 168.43945 517.95702h545.08597c56.1456-172.6526 112.2938-345.3044 168.4394-517.95702-146.9933-106.70862-293.9871-213.41638-440.9804-320.125z"/></svg>