<svg height="2000" viewBox="0 0 2000 2000" width="2000" xmlns="http://www.w3.org/2000/svg"><path d="m429.65039 210c-214.71645 0-389.65039 174.19599-389.65039 388.5v803c0 214.304 174.93394 388.5 389.65039 388.5h1140.69921c214.7165 0 389.6504-174.196 389.6504-388.5v-803c0-214.30401-174.9339-388.5-389.6504-388.5zm0 120h1140.69921c150.537 0 269.6504 118.82601 269.6504 268.5v803c0 149.674-119.1134 268.5-269.6504 268.5h-1140.69921c-150.53703 0-269.65039-118.826-269.65039-268.5v-803c0-149.67399 119.11336-268.5 269.65039-268.5zm265.84375 79.66797c-13.39574.32208-25.80322 5.36295-36.43555 12.21875l-.01757.01172-.01758.01172c-59.06684 38.24907-261.27523 178.57879-305.72461 209.08789l-.00195.00195h-.00196c-40.15266 27.56805-67.19996 69.17719-82.75 118.47461l-.00195.00977-.00195.00781c-16.18824 51.4705-14.11161 107.53949-13.95508 154.49804l.00195.01368v.01171c.15894 35.35859 1.001 66.21493 10.17188 103.63668.00062.0032.00328.0066.0039.0098 13.25657 54.4603 38.10466 97.7532 73.88281 127.084 35.77666 29.3296 81.74294 43.8716 133.70899 44.0332 182.31672.6844 364.74146.9292 547.15623 0h.0156.0157c19.6375-.1288 38.6829-7.644 50.9062-22.1758 12.2224-14.5307 17.1798-33.6885 17.4375-54.8672.1722-13.4811-1.6209-26.1934-5.8379-37.539h19.6035c20.1422 0 38.4971-6.6026 51.1426-18.9453 12.6413-12.3386 19.0251-28.4813 22.4375-45.25786.0003-.00125-.0002-.00266 0-.00391 4.9473-24.23919 2.3279-48.32773-7.5781-68.52343 22.7684-2.27725 41.9265-14.63427 52.625-31.29883 11.7772-18.3447 15.4421-39.97549 15.5098-61.49805.0714-22.47833-5.314-44.29739-17.6153-61.98828-12.3012-17.69089-33.2618-30.67067-57.4746-30.70508h-.0058-.0059c-8.835-.00737-18.3255-.03491-28.6406-.04687 6.4993-14.19039 9.3369-30.23737 9.2851-46.84571v-.03515-.03711c-.1421-22.31858-5.8991-43.21469-18.9746-59.30274-13.0752-16.08776-33.8563-25.83753-56.5762-25.83789-136.34705-.24436-254.15232 1.057-384.70308.70313-4.75835-.01397-7.23386-.06195-11.4375-.08399 6.16194-6.19657 12.15647-12.24923 18.74024-18.79687 20.26075-20.14956 39.7335-39.13715 49.79297-52.1543 24.04936-30.95283 27.63893-72.88917 7.39258-103.73633-10.67442-16.30735-26.32848-27.34017-43.13477-29.63671-2.10145-.28716-4.18335-.44929-6.24414-.49805-.9016-.02134-1.80031-.02147-2.69336 0zm1.68555 43.66406c.47909.00533.92618.03917 1.33984.0957 3.30925.4522 6.8528 1.63351 12.51953 10.29493l.00977.01757.00976.01563c7.91668 12.05514 7.56693 36.36726-5.3789 53.01367l-.02149.0293-.02148.02734c-4.70726 6.09405-25.85704 27.8311-46.04492 47.90821-20.1879 20.0771-39.38105 38.60748-48.87696 50.17578-9.19496 11.20172-5.74708 20.31685-3.33593 26.11328 2.41114 5.79642 5.05791 12.72532 17.88867 15.77344 3.75284.89151 3.95955.63571 5.16211.71874 1.20255.08305 2.4462.13998 3.9082.19336 145.74499 1.65188 299.16752-.25155 433.40431-.17382h.0195.0195c11.581 0 17.5407 3.37544 22.6915 9.71289 5.147 6.33297 9.0952 17.14961 9.1953 32.01172.0411 15.42815-3.8972 27.98599-9.291 35.39453-5.3983 7.41456-10.9988 10.92704-22.2598 10.95898-102.31988-.05473-204.63938-.27833-306.959-.51758v43.86524c133.8269.21333 267.6536.5556 401.4805.67968 10.1674.01446 15.9103 3.66039 21.6875 11.96876 5.7771 8.30836 9.8466 21.86109 9.7988 36.92187v.00195c-.0505 16.11428-3.4929 30.10758-8.5898 38.04688-5.097 7.93929-9.7577 11.6192-23.1329 11.71094-139.1349-.05826-273.2273-.3578-401.24605-.19336v43.83984c114.25945.00374 228.51814.16462 342.77735.04492 11.6128.30295 18.9308 5.39886 24.918 15.54883 6.1567 10.43751 9.1047 26.55943 5.5996 43.73047v.00976.00782c-2.3514 11.5672-6.1175 18.7883-10.1524 22.7266s-8.8914 6.5273-20.6426 6.5273h-342.5605c.04242 14.6801.08834 29.361.13282 44.041 86.66175.0315 173.32711-.5961 259.98438-.0625h.0059.0058c9.7538.0636 13.9349 2.49 17.8125 7.3789 3.8776 4.889 7.3879 14.3123 7.1953 29.2949v.0079.0078c-.1771 14.5988-3.6476 23.0815-7.1933 27.2968-3.5437 4.2129-7.6095 6.5479-17.7598 6.6172-182.22217.9282-364.51275.6842-546.75391 0h-.00781-.00781c-44.10818-.1346-78.95518-11.8165-106.18165-34.1367-27.22646-22.3201-47.57067-56.1048-59.14257-103.65038l-.00586-.01757-.00391-.01953c-8.02801-32.74318-8.769-58.64094-8.92578-93.44727v-.02539c-.15947-47.76219-1.07527-99.83224 11.94336-141.22461 13.34354-42.29217 34.92301-74.38541 65.81445-95.5957l.00196-.00196c44.98891-30.87944 248.40286-171.94648 304.71093-208.41211l.00196-.00195c5.28709-3.40872 9.66808-4.85905 12.92382-5.17969.54272-.05344 1.05411-.07563 1.53321-.07031z"/></svg>