<svg height="2000" viewBox="0 0 2000 2000" width="2000" xmlns="http://www.w3.org/2000/svg"><path d="m429.65039 210c-214.71645 0-389.65039 174.19599-389.65039 388.5v803c0 214.304 174.93394 388.5 389.65039 388.5h1140.69921c214.7165 0 389.6504-174.196 389.6504-388.5v-803c0-214.30401-174.9339-388.5-389.6504-388.5zm0 120h1140.69921c150.537 0 269.6504 118.82601 269.6504 268.5v803c0 149.674-119.1134 268.5-269.6504 268.5h-1140.69921c-150.53702 0-269.65039-118.826-269.65039-268.5v-803c0-149.67399 119.11337-268.5 269.65039-268.5zm-75.875 165.84961v694.62499h1052.97461v-694.62499zm108.98242 45.44336h835.00779l-417.50388 274.67187zm-63.54101 12.58984 481.04492 316.47657 481.04488-316.47657v591.15039h-962.0898z"/></svg>