<svg height="2000" viewBox="0 0 2000 2000" width="2000" xmlns="http://www.w3.org/2000/svg"><path d="m429.65039 210c-214.71645 0-389.65039 174.19599-389.65039 388.5v803c0 214.304 174.93394 388.5 389.65039 388.5h1140.69921c214.7165 0 389.6504-174.196 389.6504-388.5v-803c0-214.30401-174.9339-388.5-389.6504-388.5zm0 120h1140.69921c150.537 0 269.6504 118.82601 269.6504 268.5v803c0 149.674-119.1134 268.5-269.6504 268.5h-1140.69921c-150.53703 0-269.65039-118.826-269.65039-268.5v-803c0-149.67399 119.11336-268.5 269.65039-268.5zm179.375 184.59375-4.62695 2.74805-1.51172.89648c-65.42017 38.76909-110.44116 74.32034-140.16016 109.03516-29.76015 34.76286-44.14948 69.76512-44.55859 103.50781-.81416 67.15047 48.71676 117.47208 92.66211 162.47852 43.91192 44.97215 83.08282 87.38448 86.76953 122.48433 1.87909 17.8903-2.35053 35.8588-21.85742 60.4629-19.42482 24.5007-54.67916 53.8468-111.04297 86.7032l-83.21289 48.5039h513.57031l6.07813-3.5352.00585-.0059c59.73132-34.8195 99.97338-66.9878 125.61528-99.33 25.7183-32.4387 36.1805-66.3775 32.8339-98.2383-6.6307-63.1295-58.0554-109.13068-101.28902-153.40822-43.26718-44.31189-78.33879-86.10665-77.86133-125.48632.24109-19.88014 7.8822-42.05777 32.05078-70.28907 24.12719-28.18307 64.80779-61.15655 127.17187-98.11328v-.00195l81.6914-48.41211zm14.47461 52.04687h316.2832c-27.85557 20.76926-49.88108 40.8347-66.83008 60.63282-29.76012 34.76286-44.14751 69.76511-44.55664 103.50781-.81411 67.15104 48.71894 117.47234 92.66407 162.47852 43.91168 44.97187 83.07885 87.38381 86.76565 122.48433 1.8791 17.8904-2.3487 35.8588-21.8555 60.4629-18.70677 23.5949-52.34894 51.7499-105.18945 83.1602h-317.0918c21.99697-17.1554 39.47182-33.9655 52.83789-50.8242 25.71836-32.4387 36.18243-66.3756 32.83594-98.2364-6.63078-63.1294-58.05739-109.13258-101.29101-153.41012-43.26717-44.31188-78.33682-86.10468-77.85938-125.48437.24104-19.8801 7.88224-42.05776 32.05078-70.28906 23.31699-27.2366 62.32854-59.01093 121.23633-94.48243zm-74.00586 88.76954v24.04101h247.24609v-24.04101zm-9.1875 129.49218v24.04102h255.64063v-24.04102zm115.83398 129.48828v24.04102h247.57813v-24.04102zm35.4004 129.49218v24.0391h256.53906v-24.0391z"/></svg>