<svg height="2000" viewBox="0 0 2000 2000" width="2000" xmlns="http://www.w3.org/2000/svg"><path d="m429.65039 210c-214.71645 0-389.65039 174.19599-389.65039 388.5v803c0 214.304 174.93394 388.5 389.65039 388.5h1140.69921c214.7165 0 389.6504-174.196 389.6504-388.5v-803c0-214.30401-174.9339-388.5-389.6504-388.5zm0 120h1140.69921c150.537 0 269.6504 118.82601 269.6504 268.5v803c0 149.674-119.1134 268.5-269.6504 268.5h-1140.69921c-150.53703 0-269.65039-118.826-269.65039-268.5v-803c0-149.67399 119.11336-268.5 269.65039-268.5zm-82.79297 189.5957 499.92774 283 499.92574-283zm1.2461 104.72266v558.52144h999.85348v-558.52144l-501.17184 279.25976z"/></svg>