<svg height="2000" viewBox="0 0 2000 2000" width="2000" xmlns="http://www.w3.org/2000/svg"><path d="m429.65039 210c-214.71645 0-389.65039 174.19599-389.65039 388.5v803c0 214.304 174.93394 388.5 389.65039 388.5h1140.69921c214.7165 0 389.6504-174.196 389.6504-388.5v-803c0-214.30401-174.9339-388.5-389.6504-388.5zm0 120h1140.69921c150.537 0 269.6504 118.82601 269.6504 268.5v803c0 149.674-119.1134 268.5-269.6504 268.5h-1140.69921c-150.53703 0-269.65039-118.826-269.65039-268.5v-803c0-149.67399 119.11336-268.5 269.65039-268.5zm73.14063 100.86719c-.029 23.16793.00675 46.33803.0664 69.50586-19.75822 5.58977-37.81291 13.3895-54.86328 22.94531l-49.83398-49.23438-93.17969 93.72071 49.82812 49.22461c-9.62553 17.25239-17.14126 35.5876-22.38671 54.63086l-70.58594.1289v131.99219l71.32226-.25586c6.5223 25.86049 20.71775 49.10841 34.85547 69.89649v-113.85547l-62.3457.22265v-44.24804l62.03515-.11133 3.48243-17.64063c5.07807-25.72661 15.13518-50.25154 29.58398-72.19531l9.88477-15.01172-43.58594-43.05664 31.36914-31.55078 43.66406 43.13867 14.85938-9.91601c22.70793-14.98185 47.5452-25.02345 72.3125-30.25391l17.50781-3.63477-.1582-60.60547h45.06445l-.34766 60.28907h17.80078 100.44532c-11.09189-13.23987-57.05937-30.46883-74.20899-35.26953l.39844-68.85352c-49.09303-.00125-87.58233.0018-132.98437-.00195zm124.70898 126.27539.18164 69.50195c-19.75895 5.58977-37.81442 13.3904-54.86523 22.94727l-49.83399-49.23438-93.18164 93.7207 49.83008 49.22461c-9.62596 17.25334-17.14323 35.58672-22.38867 54.63086l-70.58399.12696v131.99414l71.32227-.25586c5.61403 19.5727 13.39624 37.44691 22.93359 54.32031l-51.02929 50.83006 94.21875 92.5996 50.84765-50.6113c17.41694 9.6713 35.9307 17.1805 55.125 22.4063l.03321 71.832c45.33069.3969 93.59252.1916 132.33398.1875v-72.6817c19.77359-5.5754 37.88508-13.4324 54.93945-22.9843l50.80664 50.0937 93.24219-93.6035-50.91211-50.17188c9.64765-17.29877 17.16457-35.6625 22.41602-54.72656l69.11715-.42773v-131.86524l-69.89254.42383c-5.6184-19.59148-13.28919-37.34286-22.95313-54.32812l48.29297-48.41602-94.16602-92.75781-48.23046 48.39648c-17.34555-9.59252-35.7847-17.0838-54.9043-22.3164l.39648-68.85547h-133.09375zm43.94727 43.83398h45.06445l-.34766 60.29102 17.79883 3.49219c25.84421 5.0715 50.61607 15.11631 72.64844 29.47656l14.91797 9.72461 42.08984-42.23242 31.69727 31.2207-42.15039 42.25781 10.14257 14.96875c14.88113 22.46311 24.75154 46.74626 30.32422 71.75l3.66602 17.53906 60.91601-.36914v44.20118l-60.57617.37304-3.47851 17.54102c-5.10956 25.75548-15.14566 50.27988-29.61914 72.26172l-9.89454 15.03125 44.6211 43.97269-31.36328 31.4843-44.625-44-14.83594 9.8555c-22.71504 14.8447-47.35354 25.1247-72.21289 30.1895l-17.625 3.5195v64.0058c-12.04845.0295-25.19108.01-44.68945-.0175l-.0293-63.5254-17.70313-3.4571c-25.88034-5.0538-50.60932-15.0522-72.60351-29.4726l-14.875-9.7539-44.79688 44.5918-31.70117-31.1563 44.85938-44.68551-10.23633-15.03125c-14.89499-22.41384-24.74788-46.72258-30.33008-71.69727l-3.66406-17.48633-62.34571.22266v-44.24609l62.03516-.11329 3.48242-17.63867c5.07811-25.7268 15.13538-50.25378 29.58399-72.19726l9.88476-15.01172-43.58594-43.05664 31.36719-31.55078 43.66602 43.13867 14.85937-9.91406c22.73674-14.88428 46.86454-24.76034 72.3125-30.25391l17.50782-3.63477zm23.27148 161.05664c-54.25711 0-98.71094 44.45573-98.71094 98.71289 0 54.25717 44.45383 98.70899 98.71094 98.70899s98.71094-44.45182 98.71094-98.70899c0-54.25716-44.45383-98.71289-98.71094-98.71289zm0 43.83399c30.56804 0 54.87891 24.31093 54.87891 54.8789 0 30.56798-24.31087 54.87696-54.87891 54.87696s-54.87695-24.30898-54.87695-54.87696c0-30.56797 24.30891-54.8789 54.87695-54.8789z"/></svg>