<svg height="2048" width="2048" xmlns="http://www.w3.org/2000/svg"><path d="m1015.4766 98.927734c-360.69746-1.197624-706.80251 231.866736-843.70121 565.263676-144.118831 330.15234-69.23697 740.28379 182.86133 997.77149 242.46368 260.9919 641.94922 356.7865 976.51948 234.6719 346.7398-118.0735 602.7236-458.5937 616.6387-825.0918 23.3394-360.13071-188.5353-719.42135-512.9531-876.293-127.0345-63.39405-268.8925-96.452982-410.8418-96.25-2.8419-.038544-5.6833-.062836-8.5234-.072266zm25.3515 99.972656c353.0725 1.93824 685.6047 257.35867 776.918 599.0293 97.0301 326.90761-34.2137 705.40551-315.9063 899.02541-292.6125 215.0744-726.54054 199.5138-1002.86324-36.1563-278.41406-221.9799-378.07183-632.5755-235.22656-958.18161 123.80746-301.01233 434.58782-507.43837 760.25-503.61719 5.6138-.09763 11.2238-.13038 16.8281-.09961z"/></svg>