<svg height="2048" width="2048" xmlns="http://www.w3.org/2000/svg"><path d="m1024 99.003906c-510.27067 0-925 414.720644-925 924.994094 0 510.2736 414.72866 925.004 925 925.004 510.2712 0 925-414.7304 925-925.004 0-510.27344-414.7294-924.994094-925-924.994094zm0 100.000004c456.2276 0 825 368.76437 825 824.99409 0 456.2299-368.773 825.004-825 825.004-456.22712 0-825-368.7741-825-825.004 0-456.22972 368.77221-824.99409 825-824.99409zm-8.2891 385.94531c-171.52852 1.21202-335.10028 113.88462-398.31832 273.28516-65.7902 155.80082-29.41908 347.56962 88.88476 468.44142 115.0263 123.8297 304.55446 169.4641 463.30666 111.4277 166.3595-56.6747 288.5728-221.2307 292.9765-397.1894 8.8625-170.94524-93.8743-339.96923-248.5585-412.56644-59.0266-28.5789-124.5452-43.4576-190.1172-43.3711-2.7264-.03718-5.4512-.04658-8.1739-.02734zm15.6426 79.97266c156.7062.70105 303.7146 116.51969 340.2578 269.17578 40.6988 149.01854-27.8705 318.93594-161.3613 397.01564-136.3004 85.5433-328.47043 62.7447-440.39453-53.1094-118.11394-113.9435-139.14739-311.08537-48.53125-447.73437 64.1785-101.9465 182.05034-166.46657 302.56058-165.29297 2.4918-.04719 4.9813-.06581 7.4687-.05468zm105.9512 102.07226c-39.9674 72.5091-79.935 145.01824-119.9024 217.52734-37.03237 3.9378-45.82998 60.12112-11.6621 75.10552 22.5699 15.6663 40.2472-10.3922 60.793-9.4942h183.293v-50h-183.9375c38.4017-69.66799 76.8034-139.33589 115.2051-209.00389-14.5964-8.0449-29.1927-16.08987-43.7891-24.13477z"/></svg>