<svg height="2048" width="2048" xmlns="http://www.w3.org/2000/svg"><path d="m1024 99c-363.757-4.933641-714.24892 229.17005-852.22557 565.19216-144.118834 330.15234-69.23634 740.28314 182.86195 997.77084 242.46368 260.9919 641.95021 356.7855 976.52052 234.6709 346.7397-118.0735 602.7227-458.5932 616.6378-825.0913 23.3394-360.13067-188.5355-719.42128-512.9533-876.29294-127.0345-63.39404-268.8921-96.452643-410.8414-96.24966zm0 100c359.2827-6.24861 700.9839 251.83638 793.7466 598.93035 97.0301 326.90765-34.2142 705.40425-315.9068 899.02415-292.6125 215.0744-726.53965 199.5143-1002.86235-36.1558-278.41405-221.9799-378.07351-632.5757-235.22824-958.18185 123.80746-301.01232 434.5886-507.43803 760.25079-503.61685zm0 365.95312c-146.99589 106.7066-293.98803 213.41837-440.98247 320.12696 56.14648 172.65562 112.29297 345.31122 168.43945 517.96682h545.08202c56.1465-172.6556 112.293-345.3112 168.4395-517.96682-146.9908-106.70899-293.9837-213.41797-440.9765-320.12696zm0 61.77735c127.3926 92.47982 254.7852 184.95963 382.1778 277.43945-48.6589 149.63478-97.3177 299.26948-145.9766 448.90428-157.4661 0-314.93228 0-472.39842 0-48.66085-149.6348-97.31971-299.2695-145.97856-448.90428 127.39126-92.47982 254.78252-184.95963 382.17378-277.43945z"/></svg>