<svg height="2048" width="2048" xmlns="http://www.w3.org/2000/svg"><path d="m1024 99c-363.757-4.933641-714.24892 229.17005-852.22557 565.19216-144.118834 330.15234-69.23634 740.28314 182.86195 997.77084 242.46368 260.9919 641.95021 356.7855 976.52052 234.6709 346.7397-118.0735 602.7227-458.5932 616.6378-825.0913 23.3394-360.13067-188.5355-719.42128-512.9533-876.29294-127.0345-63.39404-268.8921-96.452643-410.8414-96.24966zm0 100c359.2827-6.24861 700.9839 251.83638 793.7466 598.93035 97.0301 326.90765-34.2142 705.40425-315.9068 899.02415-292.6125 215.0744-726.53965 199.5143-1002.86235-36.1558-278.41405-221.9799-378.07351-632.5757-235.22824-958.18185 123.80746-301.01232 434.5886-507.43803 760.25079-503.61685zm-419.625 504.95117v640.09763h839.25c0-213.3659 0-426.73175 0-640.09763-279.75 0-559.5 0-839.25 0zm186.43359 100.00391h466.31441c-82.5961 50.82446-165.1995 162.39824-247.7853 174.57168-72.84035-58.19392-145.68497-116.38251-218.52911-174.57168zm552.93751 58.87304v381.21678c-213.1641 0-426.32813 0-639.49219 0 0-127.0625 0-254.12499 0-381.18748 106.55077 85.15235 213.09674 170.31068 319.65229 255.45708 106.6181-85.1562 213.2266-170.32429 319.8399-255.48638z"/></svg>