<svg height="2048" width="2048" xmlns="http://www.w3.org/2000/svg"><path d="m441.30078 273.61133c-174.72603 0-316.95117 142.22513-316.95117 316.95117v866.877c0 174.726 142.22514 316.9511 316.95117 316.9511h1165.39842c174.7261 0 316.9512-142.2251 316.9512-316.9511v-866.877c0-174.72604-142.2251-316.95117-316.9512-316.95117zm0 100h1165.39842c121.0558 0 216.9512 95.89541 216.9512 216.95117v866.877c0 121.0557-95.8954 216.9511-216.9512 216.9511h-236.2422v-630.7461h-692.91403v31.7364 599.0097h-236.24219c-121.05576 0-216.95117-95.8954-216.95117-216.9511v-866.877c0-121.05576 95.89541-216.95117 216.95117-216.95117zm299.71484 733.50587h565.96878v565.9687h-565.96878zm235.50586 80.5019v47.4805 110.2207h-110.2246-47.48047v94.9629h47.48047 110.2246v110.2266 47.4746h94.95702v-47.4746-110.2266h110.2246 47.4805v-94.9629h-47.4805-110.2246v-110.2207-47.4805z"/></svg>