<svg height="2048" width="2048" xmlns="http://www.w3.org/2000/svg"><path d="m441.21484 273.59961c-174.72602 0-316.90429 142.16853-316.90429 316.89453v867.00196c0 174.7261 142.17827 316.9043 316.90429 316.9043h1165.57036c174.7261 0 316.9043-142.1782 316.9043-316.9043v-867.00196c0-174.726-142.1782-316.89453-316.9043-316.89453zm0 99.96484h1165.57036c121.0558 0 216.9375 95.88219 216.9375 216.92969v867.00196c0 121.0573-95.8817 216.9394-216.9375 216.9394h-236.3282v-597.4667-31.7442h-31.7441-629.42579-31.74414v31.7442 597.4667h-236.32813c-121.05575 0-216.9375-95.8821-216.9375-216.9394v-867.00196c0-121.0475 95.88175-216.92969 216.9375-216.92969zm299.79688 735.14845h565.97658v565.7226h-565.97658zm75.11328 224.7285v96.207h415.748v-96.207z"/></svg>