<svg height="2000" viewBox="0 0 2000 2000" width="2000" xmlns="http://www.w3.org/2000/svg"><path d="m991.75 365c-177.27739 0-304.09741 136.28069-304.45312 291.51367v.0449.043c.0112 46.94485 12.71406 96.48986 32.56054 141.17774 14.33025 32.26709 32.14702 61.93151 53.85742 85.69531-129.02891 44.14326-280.19262 116.79528-356.59765 260.05468l-4.11719 7.7207v463.75h1157.5v-463.75l-4.1172-7.7207c-75.3061-141.1989-223.1988-213.74978-350.9805-258.07618 62.3794-63.43263 80.7808-145.30578 80.8008-228.85156v-.043-.0449c-.3557-155.23296-127.1757-291.51366-304.4531-291.51366zm-121.04102 165.29883c8.19443.0206 17.19117.29432 27.10938.8789 79.02308 4.65771 105.61894 18.88222 126.06254 32.37305 20.4435 13.49083 34.8553 26.33317 88.8828 27.9082h.016.018c42.1017-1.5748 62.3491-9.0811 76.8691-17.58398 5.8837-3.44545 10.8241-7.02722 15.8867-10.44727 13.3814 28.68227 20.5671 60.38893 20.6485 93.20313-.028 93.43999-16.0919 158.87652-101.7676 212.42383l8.3809 63.16992c17.8327 5.41537 36.2658 11.35733 54.9746 17.87305 2.6128 10.90011 5.6316 25.19633 7.6621 40.39453 2.1271 15.92241 2.9637 32.48881 1.6523 44.92771s-5.1734 19.1539-5.8515 19.8321c-43.5469 43.5468-120.8464 68.9433-199.252 68.9433-78.40557 0-155.70507-25.3965-199.25195-68.9433-.67811-.6782-4.54017-7.3932-5.85157-19.8321-1.31139-12.4389-.47481-29.0053 1.65235-44.92771 2.04162-15.28211 5.08445-29.66261 7.70703-40.58399 18.52194-6.44112 36.76978-12.32071 54.42969-17.68359l4.99609-67.6875c-4.068-5.21708-8.21297-8.67324-13.16016-12.38477-19.12128-14.34532-42.30994-45.90379-58.68945-82.78515-16.37367-36.86821-26.51791-79.00946-26.5332-112.74414.10174-40.44431 10.98577-79.211 30.97656-112.69727 3.57689-1.33139 7.34871-2.73853 11.58789-4.13281 14.90781-4.90324 35.33655-9.58342 70.8457-9.49414zm-151.34765 449.55664c-.0629.45883-.13379.90664-.19531 1.36719-2.58689 19.36354-4.10696 40.44054-1.88282 61.53714s7.79068 43.8102 25.96875 61.9882c62.04773 62.0478 155.95092 89.4473 248.74805 89.4473 92.7971 0 186.7003-27.3995 248.748-89.4473 18.1781-18.178 23.7447-40.8916 25.9688-61.9882 2.2241-21.0967.7041-42.1736-1.8828-61.53714-.051-.38161-.1102-.75238-.1621-1.13282 94.3337 41.36896 185.5148 100.61546 235.8281 189.07426v375.8359h-167.5v-265h-70v265h-544v-265h-70v265h-166v-375.8359c50.40811-88.6256 141.83798-147.9292 236.36133-189.30863zm-121.1991-1081.51253c-373.7471 0-678.246597 303.21498-678.246597 676.24416v1397.7453c0 373.0292 304.499497 676.2442 678.246597 676.2442h1985.56287c373.7472 0 678.2466-303.215 678.2466-676.2442v-1397.7453c0-373.02918-304.4994-676.24416-678.2466-676.24416h-1985.56287zm0 208.87851h1985.56287c262.0329 0 469.3681 206.83499 469.3681 467.36565v1397.7453c0 260.5307-207.3352 467.3657-469.3681 467.3657h-1985.56287c-262.03292 0-469.36809-206.835-469.36809-467.3657v-1397.7453c0-260.53066 207.33517-467.36565 469.36809-467.36565z" fill-rule="evenodd" transform="matrix(.57449664 0 0 .57449664 86.0082 268.40081)"/></svg>