<?xml version="1.0" encoding="UTF-8" standalone="no"?>
<svg
   xmlns:dc="http://purl.org/dc/elements/1.1/"
   xmlns:cc="http://creativecommons.org/ns#"
   xmlns:rdf="http://www.w3.org/1999/02/22-rdf-syntax-ns#"
   xmlns:svg="http://www.w3.org/2000/svg"
   xmlns="http://www.w3.org/2000/svg"
   version="1.1"
   id="svg2"
   xml:space="preserve"
   width="2245.04"
   height="1587.4"
   viewBox="0 0 2245.04 1587.4"><metadata
     id="metadata8"><rdf:RDF><cc:Work
         rdf:about=""><dc:format>image/svg+xml</dc:format><dc:type
           rdf:resource="http://purl.org/dc/dcmitype/StillImage" /></cc:Work></rdf:RDF></metadata><defs
     id="defs6"><clipPath
       clipPathUnits="userSpaceOnUse"
       id="clipPath118"><path
         d="M 0,1190.55 H 1683.78 V 0 H 0 Z"
         id="path116" /></clipPath><clipPath
       clipPathUnits="userSpaceOnUse"
       id="clipPath158"><path
         d="M 0,1190.55 H 1683.78 V 0 H 0 Z"
         id="path156" /></clipPath><clipPath
       clipPathUnits="userSpaceOnUse"
       id="clipPath188"><path
         d="m 673.237,256.212 c 4.277,-11.069 8.553,-22.138 17.108,-22.138 v 0 c 8.553,0 12.829,11.069 17.105,22.138 v 0 c -4.276,11.07 -8.552,22.138 -17.105,22.138 v 0 c -8.555,10e-4 -12.831,-11.068 -17.108,-22.138"
         id="path186" /></clipPath><clipPath
       clipPathUnits="userSpaceOnUse"
       id="clipPath224"><path
         d="M 0,1190.55 H 1683.78 V 0 H 0 Z"
         id="path222" /></clipPath><clipPath
       clipPathUnits="userSpaceOnUse"
       id="clipPath248"><path
         d="M 0,1190.55 H 1683.78 V 0 H 0 Z"
         id="path246" /></clipPath><clipPath
       clipPathUnits="userSpaceOnUse"
       id="clipPath274"><path
         d="M 0,1190.55 H 1683.78 V 0 H 0 Z"
         id="path272" /></clipPath><clipPath
       clipPathUnits="userSpaceOnUse"
       id="clipPath362"><path
         d="M 0,1190.55 H 1683.78 V 0 H 0 Z"
         id="path360" /></clipPath><clipPath
       clipPathUnits="userSpaceOnUse"
       id="clipPath388"><path
         d="M 0,1190.55 H 1683.78 V 0 H 0 Z"
         id="path386" /></clipPath><clipPath
       clipPathUnits="userSpaceOnUse"
       id="clipPath404"><path
         d="m 1559.12,59.9983 h 28.47 V 31.533 h -28.47 z"
         id="path402" /></clipPath><clipPath
       clipPathUnits="userSpaceOnUse"
       id="clipPath408"><path
         d="m 1559.119,31.533 h 28.467 v 28.465 h -28.467 z"
         id="path406" /></clipPath></defs><g
     id="g10"
     transform="matrix(1.3333333,0,0,-1.3333333,0,1587.4)"><path
       d="m 41.388,75.825 h 1612.877 v 925.227 H 41.388 Z"
       style="fill:none;stroke:#15141b;stroke-width:3;stroke-linecap:butt;stroke-linejoin:miter;stroke-miterlimit:10;stroke-dasharray:none;stroke-opacity:1"
       id="path12" /><path
       d="M 339.024,939.128 H 41.386 v 61.972 h 297.638 z"
       style="fill:none;stroke:#15141b;stroke-width:3;stroke-linecap:butt;stroke-linejoin:miter;stroke-miterlimit:10;stroke-dasharray:none;stroke-opacity:1"
       id="path14" /><text
       transform="matrix(1,0,0,-1,126.6118,959.8276)"
       style="font-variant:normal;font-weight:bold;font-stretch:normal;font-size:28.0145px;font-family:'Akkurat Pro';-inkscape-font-specification:AkkuratPro-Bold;writing-mode:lr-tb;fill:#231f20;fill-opacity:1;fill-rule:nonzero;stroke:none"
       id="text18"><tspan
         x="0 17.901266 35.494373 51.210506 69.111771 89.6464 105.36253 111.21757"
         y="0"
         id="tspan16">ACTANT 1</tspan></text><text
       transform="matrix(1,0,0,-1,107.5977,486.0371)"
       style="font-variant:normal;font-weight:normal;font-stretch:normal;font-size:21.3px;font-family:'Akkurat Pro';-inkscape-font-specification:AkkuratPro-Regular;writing-mode:lr-tb;fill:#231f20;fill-opacity:1;fill-rule:nonzero;stroke:none"
       id="text22"><tspan
         x="0 10.0536 23.408701 36.721199 50.8218 64.347298 77.7024 91.0149 104.5191 115.9785 122.1768 134.50951 147.82201"
         y="0"
         id="tspan20">“PERSPECTIVE”</tspan></text><text
       transform="matrix(1,0,0,-1,129.1304,465.0371)"
       style="font-variant:normal;font-weight:300;font-stretch:normal;font-size:21px;font-family:'Akkurat Light Pro';-inkscape-font-specification:AkkuratLightPro-Regular;writing-mode:lr-tb;fill:#231f20;fill-opacity:1;fill-rule:nonzero;stroke:none"
       id="text26"><tspan
         x="0 11.466 23.709 28.224001 35.993999 48.237 59.556 64.070999 69.530998 80.282997 91.035004 103.278"
         y="0"
         id="tspan24">on the issue</tspan></text><path
       d="M 339.024,75.855 H 41.386 v 863.618 h 297.638 z"
       style="fill:none;stroke:#15141b;stroke-width:3;stroke-linecap:butt;stroke-linejoin:miter;stroke-miterlimit:10;stroke-dasharray:none;stroke-opacity:1"
       id="path28" /><g
       id="g30"
       transform="translate(41.3849,939.4724)"><path
         d="M 0,0 0.721,-1.028"
         style="fill:none;stroke:#100f0e;stroke-width:2;stroke-linecap:butt;stroke-linejoin:miter;stroke-miterlimit:10;stroke-dasharray:none;stroke-opacity:1"
         id="path32" /></g><g
       id="g34"
       transform="translate(44.9805,934.3362)"><path
         d="M 0,0 291.885,-416.979"
         style="fill:none;stroke:#15141b;stroke-width:2;stroke-linecap:butt;stroke-linejoin:miter;stroke-miterlimit:10;stroke-dasharray:2.507, 5.015;stroke-dashoffset:0;stroke-opacity:1"
         id="path36" /></g><g
       id="g38"
       transform="translate(338.3038,515.304)"><path
         d="M 0,0 0.72,-1.028"
         style="fill:none;stroke:#100f0e;stroke-width:2;stroke-linecap:butt;stroke-linejoin:miter;stroke-miterlimit:10;stroke-dasharray:none;stroke-opacity:1"
         id="path40" /></g><g
       id="g42"
       transform="translate(339.0235,939.4729)"><path
         d="M 0,0 -0.721,-1.028"
         style="fill:none;stroke:#100f0e;stroke-width:2;stroke-linecap:butt;stroke-linejoin:miter;stroke-miterlimit:10;stroke-dasharray:none;stroke-opacity:1"
         id="path44" /></g><g
       id="g46"
       transform="translate(335.4278,934.3367)"><path
         d="M 0,0 -291.885,-416.979"
         style="fill:#15141b;fill-opacity:1;fill-rule:nonzero;stroke:#15141b;stroke-width:2;stroke-linecap:butt;stroke-linejoin:miter;stroke-miterlimit:10;stroke-dasharray:2.507, 5.015;stroke-dashoffset:0;stroke-opacity:1"
         id="path48" /></g><g
       id="g50"
       transform="translate(42.1055,515.304)"><path
         d="M 0,0 -0.721,-1.028"
         style="fill:none;stroke:#100f0e;stroke-width:2;stroke-linecap:butt;stroke-linejoin:miter;stroke-miterlimit:10;stroke-dasharray:none;stroke-opacity:1"
         id="path52" /></g><path
       d="M 636.665,939.128 H 339.023 v 61.972 h 297.642 z"
       style="fill:none;stroke:#15141b;stroke-width:3;stroke-linecap:butt;stroke-linejoin:miter;stroke-miterlimit:10;stroke-dasharray:none;stroke-opacity:1"
       id="path54" /><text
       transform="matrix(1,0,0,-1,424.2495,959.8276)"
       style="font-variant:normal;font-weight:bold;font-stretch:normal;font-size:28.0145px;font-family:'Akkurat Pro';-inkscape-font-specification:AkkuratPro-Bold;writing-mode:lr-tb;fill:#231f20;fill-opacity:1;fill-rule:nonzero;stroke:none"
       id="text60"><tspan
         x="0 17.901266 35.494373 51.210506 69.111771 89.6464 105.36253 111.21757"
         y="0"
         id="tspan56">ACTANT 2</tspan><tspan
         x="231.17566"
         y="203.10513"
         id="tspan58">+</tspan></text><text
       transform="matrix(1,0,0,-1,409.7314,486.0371)"
       style="font-variant:normal;font-weight:normal;font-stretch:normal;font-size:21.3px;font-family:'Akkurat Pro';-inkscape-font-specification:AkkuratPro-Regular;writing-mode:lr-tb;fill:#231f20;fill-opacity:1;fill-rule:nonzero;stroke:none"
       id="text64"><tspan
         x="0 10.0536 23.408701 36.721199 50.8218 64.347298 77.7024 91.0149 104.5191 115.9785 122.1768 134.50951 147.82201"
         y="0"
         id="tspan62">“PERSPECTIVE”</tspan></text><text
       transform="matrix(1,0,0,-1,431.2637,465.0371)"
       style="font-variant:normal;font-weight:300;font-stretch:normal;font-size:21px;font-family:'Akkurat Light Pro';-inkscape-font-specification:AkkuratLightPro-Regular;writing-mode:lr-tb;fill:#231f20;fill-opacity:1;fill-rule:nonzero;stroke:none"
       id="text68"><tspan
         x="0 11.466 23.709 28.224001 35.993999 48.237 59.556 64.070999 69.530998 80.282997 91.035004 103.278"
         y="0"
         id="tspan66">on the issue</tspan></text><path
       d="M 636.661,75.855 H 339.023 v 863.618 h 297.638 z"
       style="fill:none;stroke:#15141b;stroke-width:3;stroke-linecap:butt;stroke-linejoin:miter;stroke-miterlimit:10;stroke-dasharray:none;stroke-opacity:1"
       id="path70" /><g
       id="g72"
       transform="translate(339.0235,939.4724)"><path
         d="M 0,0 0.719,-1.028"
         style="fill:none;stroke:#100f0e;stroke-width:2;stroke-linecap:butt;stroke-linejoin:miter;stroke-miterlimit:10;stroke-dasharray:none;stroke-opacity:1"
         id="path74" /></g><g
       id="g76"
       transform="translate(342.6192,934.3362)"><path
         d="M 0,0 291.885,-416.979"
         style="fill:none;stroke:#15141b;stroke-width:2;stroke-linecap:butt;stroke-linejoin:miter;stroke-miterlimit:10;stroke-dasharray:2.507, 5.015;stroke-dashoffset:0;stroke-opacity:1"
         id="path78" /></g><g
       id="g80"
       transform="translate(635.9414,515.304)"><path
         d="M 0,0 0.72,-1.028"
         style="fill:none;stroke:#100f0e;stroke-width:2;stroke-linecap:butt;stroke-linejoin:miter;stroke-miterlimit:10;stroke-dasharray:none;stroke-opacity:1"
         id="path82" /></g><g
       id="g84"
       transform="translate(636.6613,939.4729)"><path
         d="M 0,0 -0.72,-1.028"
         style="fill:none;stroke:#100f0e;stroke-width:2;stroke-linecap:butt;stroke-linejoin:miter;stroke-miterlimit:10;stroke-dasharray:none;stroke-opacity:1"
         id="path86" /></g><g
       id="g88"
       transform="translate(633.0656,934.3367)"><path
         d="M 0,0 -291.885,-416.979"
         style="fill:#15141b;fill-opacity:1;fill-rule:nonzero;stroke:#15141b;stroke-width:2;stroke-linecap:butt;stroke-linejoin:miter;stroke-miterlimit:10;stroke-dasharray:2.507, 5.015;stroke-dashoffset:0;stroke-opacity:1"
         id="path90" /></g><g
       id="g92"
       transform="translate(339.7422,515.304)"><path
         d="M 0,0 -0.719,-1.028"
         style="fill:none;stroke:#100f0e;stroke-width:2;stroke-linecap:butt;stroke-linejoin:miter;stroke-miterlimit:10;stroke-dasharray:none;stroke-opacity:1"
         id="path94" /></g><g
       id="g96"
       transform="translate(655.8789,738.2126)"><path
         d="M 0,0 H 974.79"
         style="fill:none;stroke:#15141b;stroke-width:2;stroke-linecap:butt;stroke-linejoin:miter;stroke-miterlimit:10;stroke-dasharray:2.51, 5.02;stroke-dashoffset:0;stroke-opacity:1"
         id="path98" /></g><g
       id="g100"
       transform="translate(1624.2919,730.033)"><path
         d="M 0,0 -1.364,1.465 5.859,8.178 -1.364,14.893 0,16.357 8.796,8.178 Z"
         style="fill:#100f0e;fill-opacity:1;fill-rule:nonzero;stroke:none"
         id="path102" /></g><g
       id="g104"
       transform="translate(1624.2919,730.033)"><path
         d="M 0,0 -1.364,1.465 5.859,8.178 -1.364,14.893 0,16.357 8.796,8.178 Z"
         style="fill:none;stroke:#15141b;stroke-width:1;stroke-linecap:butt;stroke-linejoin:miter;stroke-miterlimit:10;stroke-dasharray:none;stroke-opacity:1"
         id="path106" /></g><g
       id="g108"
       transform="translate(656.1299,969.7244)"><path
         d="M 0,0 H 1.42"
         style="fill:none;stroke:#100f0e;stroke-width:0.71;stroke-linecap:butt;stroke-linejoin:miter;stroke-miterlimit:10;stroke-dasharray:none;stroke-opacity:1"
         id="path110" /></g><g
       id="g112"><g
         id="g114"
         clip-path="url(#clipPath118)"><g
           id="g120"
           transform="translate(720.2639,491.7181)"><path
             d="M 0,0 C -17.107,0 -17.107,-44.277 -34.214,-44.277 -51.321,-44.277 -51.321,0 -68.429,0"
             style="fill:none;stroke:#c2c3c1;stroke-width:2.84;stroke-linecap:butt;stroke-linejoin:miter;stroke-miterlimit:10;stroke-dasharray:none;stroke-opacity:1"
             id="path122" /></g><g
           id="g124"
           transform="translate(720.2639,447.4409)"><path
             d="M 0,0 C -17.107,0 -17.107,44.277 -34.214,44.277 -51.321,44.277 -51.321,0 -68.429,0"
             style="fill:none;stroke:#c2c3c1;stroke-width:2.84;stroke-linecap:butt;stroke-linejoin:miter;stroke-miterlimit:10;stroke-dasharray:none;stroke-opacity:1"
             id="path126" /></g><g
           id="g128"
           transform="translate(655.6672,458.2474)"><path
             d="M 0,0 9.941,24.047"
             style="fill:none;stroke:#15141b;stroke-width:2.84;stroke-linecap:butt;stroke-linejoin:miter;stroke-miterlimit:10;stroke-dasharray:none;stroke-opacity:1"
             id="path130" /></g><g
           id="g132"
           transform="translate(669.0598,479.5229)"><path
             d="M 0,0 -1.114,8.422 -7.852,3.246 Z"
             style="fill:#15141b;fill-opacity:1;fill-rule:nonzero;stroke:none"
             id="path134" /></g><g
           id="g136"
           transform="translate(704.1145,487.937)"><path
             d="M 0,0 9.974,-24.034"
             style="fill:none;stroke:#15141b;stroke-width:2.84;stroke-linecap:butt;stroke-linejoin:miter;stroke-miterlimit:10;stroke-dasharray:none;stroke-opacity:1"
             id="path138" /></g><g
           id="g140"
           transform="translate(709.6878,463.4232)"><path
             d="M 0,0 6.744,-5.167 7.848,3.256 Z"
             style="fill:#15141b;fill-opacity:1;fill-rule:nonzero;stroke:none"
             id="path142" /></g></g></g><text
       transform="matrix(1,0,0,-1,740.7783,465.2559)"
       style="font-variant:normal;font-weight:300;font-stretch:normal;font-size:21px;font-family:'Akkurat Light Pro';-inkscape-font-specification:AkkuratLightPro-Regular;writing-mode:lr-tb;fill:#231f20;fill-opacity:1;fill-rule:nonzero;stroke:none"
       id="text146"><tspan
         x="0 18.101999 30.344999 42.125999 49.896 54.410999 72.786003 84.567001 95.822998 107.142 117.894 122.409 130.179 142.422 153.741 158.256 169.575 179.487 191.75101 203.07001 211.071 216.53101 227.85001 240.093 250.845 262.164 266.67899 277.431 289.67401 301.45499 313.698 324.89099 336.20999"
         y="0"
         id="tspan144">What makes the experience change?</tspan></text><text
       transform="matrix(1,0,0,-1,740.7783,957.9619)"
       style="font-variant:normal;font-weight:normal;font-stretch:normal;font-size:24px;font-family:'Akkurat Pro';-inkscape-font-specification:AkkuratPro-Regular;writing-mode:lr-tb;fill:#231f20;fill-opacity:1;fill-rule:nonzero;stroke:none"
       id="text150"><tspan
         x="0 15 29.016001 44.063999 59.063999 74.952003 81.935997 96.935997 114.552 129.76801 144.76801 150.28799 166.368 180.26401 195.26401 211.15199 216.672 229.584 236.56799 257.68799 272.68799"
         y="0"
         id="tspan148">EXPERIENCE OVER TIME </tspan></text><g
       id="g152"><g
         id="g154"
         clip-path="url(#clipPath158)"><g
           id="g160"
           transform="translate(724.3079,937.571)"><path
             d="m 0,0 c -11.404,0 -11.404,42.292 -22.808,42.292 -11.405,0 -11.405,-32.85 -22.81,-32.85 -11.405,0 -11.405,27.869 -22.811,27.869"
             style="fill:none;stroke:#15141b;stroke-width:2.84;stroke-linecap:butt;stroke-linejoin:miter;stroke-miterlimit:10;stroke-dasharray:none;stroke-opacity:1"
             id="path162" /></g><g
           id="g164"
           transform="translate(724.3079,970.4143)"><path
             d="m 0,0 c -11.404,0 -11.404,-34.829 -22.808,-34.829 -11.405,0 -11.405,33.878 -22.81,33.878 -11.405,0 -11.405,-31.892 -22.811,-31.892"
             style="fill:none;stroke:#c2c3c1;stroke-width:2.84;stroke-linecap:butt;stroke-linejoin:miter;stroke-miterlimit:10;stroke-dasharray:none;stroke-opacity:1"
             id="path166" /></g><g
           id="g168"
           transform="translate(660.1507,957.7244)"><path
             d="M 0,0 H 61.311"
             style="fill:none;stroke:#100f0e;stroke-width:0.71;stroke-linecap:butt;stroke-linejoin:miter;stroke-miterlimit:10;stroke-dasharray:2.852, 2.852;stroke-dashoffset:0;stroke-opacity:1"
             id="path170" /></g><g
           id="g172"
           transform="translate(722.887,957.7244)"><path
             d="M 0,0 H 1.421"
             style="fill:none;stroke:#100f0e;stroke-width:0.71;stroke-linecap:butt;stroke-linejoin:miter;stroke-miterlimit:10;stroke-dasharray:none;stroke-opacity:1"
             id="path174" /></g></g></g><text
       transform="matrix(1,0,0,-1,740.7783,931.9487)"
       style="font-variant:normal;font-weight:300;font-stretch:normal;font-size:21px;font-family:'Akkurat Light Pro';-inkscape-font-specification:AkkuratLightPro-Regular;writing-mode:lr-tb;fill:#231f20;fill-opacity:1;fill-rule:nonzero;stroke:none"
       id="text180"><tspan
         x="0 13.986 21.987 33.768002 49.433998 53.949001 61.719002 73.961998 85.280998 89.795998 100.548 112.791 120.792 130.599 141.918 152.67 157.185 164.556 176.022 184.02299 188.53799 200.802 212.26801 220.03799 232.28101 236.79601 248.577 259.32901 267.099 278.88 291.12299 298.89301"
         y="0"
         id="tspan176">Draw the curves for both actants</tspan><tspan
         x="837.10199 844.87201 850.33197 868.70697"
         y="180.74699"
         id="tspan178">time</tspan></text><g
       id="g182"><g
         id="g184"
         clip-path="url(#clipPath188)"><g
           id="g190"
           transform="translate(673.2365,278.3499)"><path
             d="M 0,0 V -44.276"
             style="fill:none;stroke:#15141b;stroke-width:1.42;stroke-linecap:butt;stroke-linejoin:miter;stroke-miterlimit:10;stroke-dasharray:none;stroke-opacity:1"
             id="path192" /></g><g
           id="g194"
           transform="translate(678.9395,278.3499)"><path
             d="M 0,0 V -44.276"
             style="fill:none;stroke:#15141b;stroke-width:1.42;stroke-linecap:butt;stroke-linejoin:miter;stroke-miterlimit:10;stroke-dasharray:none;stroke-opacity:1"
             id="path196" /></g><g
           id="g198"
           transform="translate(684.6416,278.3499)"><path
             d="M 0,0 V -44.276"
             style="fill:none;stroke:#15141b;stroke-width:1.42;stroke-linecap:butt;stroke-linejoin:miter;stroke-miterlimit:10;stroke-dasharray:none;stroke-opacity:1"
             id="path200" /></g><g
           id="g202"
           transform="translate(690.3438,278.3499)"><path
             d="M 0,0 V -44.276"
             style="fill:none;stroke:#15141b;stroke-width:1.42;stroke-linecap:butt;stroke-linejoin:miter;stroke-miterlimit:10;stroke-dasharray:none;stroke-opacity:1"
             id="path204" /></g><g
           id="g206"
           transform="translate(696.0469,278.3499)"><path
             d="M 0,0 V -44.276"
             style="fill:none;stroke:#15141b;stroke-width:1.42;stroke-linecap:butt;stroke-linejoin:miter;stroke-miterlimit:10;stroke-dasharray:none;stroke-opacity:1"
             id="path208" /></g><g
           id="g210"
           transform="translate(701.7491,278.3499)"><path
             d="M 0,0 V -44.276"
             style="fill:none;stroke:#15141b;stroke-width:1.42;stroke-linecap:butt;stroke-linejoin:miter;stroke-miterlimit:10;stroke-dasharray:none;stroke-opacity:1"
             id="path212" /></g><g
           id="g214"
           transform="translate(707.4512,278.3499)"><path
             d="M 0,0 V -44.276"
             style="fill:none;stroke:#15141b;stroke-width:1.42;stroke-linecap:butt;stroke-linejoin:miter;stroke-miterlimit:10;stroke-dasharray:none;stroke-opacity:1"
             id="path216" /></g></g></g><g
       id="g218"><g
         id="g220"
         clip-path="url(#clipPath224)"><g
           id="g226"
           transform="translate(673.2368,256.2119)"><path
             d="m 0,0 c 4.277,-11.069 8.554,-22.138 17.108,-22.138 8.553,0 12.83,11.069 17.106,22.138 C 29.938,11.07 25.661,22.138 17.108,22.138 8.554,22.139 4.277,11.07 0,0"
             style="fill:none;stroke:#15141b;stroke-width:1;stroke-linecap:butt;stroke-linejoin:miter;stroke-miterlimit:10;stroke-dasharray:none;stroke-opacity:1"
             id="path228" /></g><g
           id="g230"
           transform="translate(724.5587,278.3499)"><path
             d="M 0,0 C -17.107,0 -17.107,-44.276 -34.214,-44.276 -51.321,-44.276 -51.321,0 -68.429,0"
             style="fill:none;stroke:#c2c3c1;stroke-width:2.84;stroke-linecap:butt;stroke-linejoin:miter;stroke-miterlimit:10;stroke-dasharray:none;stroke-opacity:1"
             id="path232" /></g><g
           id="g234"
           transform="translate(724.5587,234.0735)"><path
             d="M 0,0 C -17.107,0 -17.107,44.276 -34.214,44.276 -51.321,44.276 -51.321,0 -68.429,0"
             style="fill:none;stroke:#c2c3c1;stroke-width:2.84;stroke-linecap:butt;stroke-linejoin:miter;stroke-miterlimit:10;stroke-dasharray:none;stroke-opacity:1"
             id="path236" /></g></g></g><text
       transform="matrix(1,0,0,-1,740.7783,250.9961)"
       style="font-variant:normal;font-weight:300;font-stretch:normal;font-size:21px;font-family:'Akkurat Light Pro';-inkscape-font-specification:AkkuratLightPro-Regular;writing-mode:lr-tb;fill:#231f20;fill-opacity:1;fill-rule:nonzero;stroke:none"
       id="text240"><tspan
         x="0 18.101999 30.344999 42.125999 49.896 54.410999 65.730003 75.641998 87.905998 93.764999 105.546 111.006 123.249 134.00101 138.51601 146.286 158.52901 169.84801 174.36301 186.627 192.08701 199.45799 206.82899 218.14799 226.149 237.468 249.711 260.46301 271.78201 282.534 287.04901 299.31299 310.63199 318.40201 334.06799 345.38699 356.70599 368.94901 373.46399 381.23401 393.47699 404.79599 409.311 420.06299 432.306 440.30701 450.11401 461.43301 472.185"
         y="0"
         id="tspan238">What explains the differences between the curves?</tspan></text><g
       id="g242"><g
         id="g244"
         clip-path="url(#clipPath248)"><g
           id="g250"
           transform="translate(636.6613,514.2424)"><path
             d="M 0,0 H 1017.604"
             style="fill:none;stroke:#15141b;stroke-width:3;stroke-linecap:butt;stroke-linejoin:miter;stroke-miterlimit:10;stroke-dasharray:none;stroke-opacity:1"
             id="path252" /></g><path
           d="m 673.009,715.427 h -16.165 v 2.989 h 16.165 z"
           style="fill:#231f20;fill-opacity:1;fill-rule:nonzero;stroke:none"
           id="path254" /><path
           d="M 338.301,451.934 H 40.663 v 61.972 h 297.638 z"
           style="fill:none;stroke:#15141b;stroke-width:3;stroke-linecap:butt;stroke-linejoin:miter;stroke-miterlimit:10;stroke-dasharray:none;stroke-opacity:1"
           id="path256" /><path
           d="M 635.942,451.934 H 338.3 v 61.972 h 297.642 z"
           style="fill:none;stroke:#15141b;stroke-width:3;stroke-linecap:butt;stroke-linejoin:miter;stroke-miterlimit:10;stroke-dasharray:none;stroke-opacity:1"
           id="path258" /></g></g><text
       transform="matrix(1,0,0,-1,184.4277,1099.6309)"
       style="font-variant:normal;font-weight:bold;font-stretch:normal;font-size:55.4844px;font-family:'Akkurat Pro';-inkscape-font-specification:AkkuratPro-Bold;writing-mode:lr-tb;fill:#231f20;fill-opacity:1;fill-rule:nonzero;stroke:none"
       id="text262"><tspan
         x="0 38.228752 75.847176 109.74815 147.9769 191.42117 225.32214 263.16251 277.53296 329.02249 367.25125"
         y="0"
         id="tspan260">ACTANTS MAP</tspan></text><text
       transform="matrix(1,0,0,-1,185.8906,1042.7656)"
       style="font-variant:normal;font-weight:300;font-stretch:normal;font-size:37.963px;font-family:'Akkurat Light Pro';-inkscape-font-specification:AkkuratLightPro-Regular;writing-mode:lr-tb;fill:#231f20;fill-opacity:1;fill-rule:nonzero;stroke:none"
       id="text266"><tspan
         x="0 20.727798 30.598179 50.035233 64.081543 84.543602 106.67603 116.54641 138.67883 158.91312 167.07516 181.12148 201.84927 210.01132 224.05763 246.19005 266.6521 274.81415 298.42715 316.61142 336.04846 350.09479 370.55685"
         y="0"
         id="tspan264">Listening to the System</tspan></text><g
       id="g268"><g
         id="g270"
         clip-path="url(#clipPath274)"><g
           id="g276"
           transform="translate(1360.651,1137.2609)"><path
             d="m 0,0 c -6.262,6.262 -16.416,6.262 -22.678,0 -6.263,-6.262 -6.263,-16.416 0,-22.678 6.262,-6.263 16.416,-6.263 22.678,0 C 6.262,-16.416 6.262,-6.262 0,0"
             style="fill:none;stroke:#34b75b;stroke-width:1.775;stroke-linecap:butt;stroke-linejoin:miter;stroke-miterlimit:10;stroke-dasharray:none;stroke-opacity:1"
             id="path278" /></g><g
           id="g280"
           transform="translate(1414.881,1137.2609)"><path
             d="m 0,0 c -6.262,6.262 -16.416,6.262 -22.678,0 -6.263,-6.262 -6.263,-16.416 0,-22.678 6.262,-6.263 16.416,-6.263 22.678,0 C 6.262,-16.416 6.262,-6.262 0,0"
             style="fill:none;stroke:#15141b;stroke-width:1.775;stroke-linecap:butt;stroke-linejoin:miter;stroke-miterlimit:10;stroke-dasharray:none;stroke-opacity:1"
             id="path282" /></g><g
           id="g284"
           transform="translate(1499.939,1114.6398)"><path
             d="m 0,0 c 6.262,-6.262 16.416,-6.262 22.678,0 6.263,6.262 6.263,16.416 0,22.678 C 16.416,28.941 6.262,28.941 0,22.678 -6.262,16.416 -6.262,6.262 0,0"
             style="fill:none;stroke:#15141b;stroke-width:1.775;stroke-linecap:butt;stroke-linejoin:miter;stroke-miterlimit:10;stroke-dasharray:none;stroke-opacity:1"
             id="path286" /></g><g
           id="g288"
           transform="translate(1576.4894,1137.2609)"><path
             d="m 0,0 c -6.262,6.262 -16.416,6.262 -22.678,0 -6.263,-6.262 -6.263,-16.416 0,-22.678 6.262,-6.263 16.416,-6.263 22.678,0 C 6.262,-16.416 6.262,-6.262 0,0"
             style="fill:none;stroke:#15141b;stroke-width:1.775;stroke-linecap:butt;stroke-linejoin:miter;stroke-miterlimit:10;stroke-dasharray:none;stroke-opacity:1"
             id="path290" /></g><g
           id="g292"
           transform="translate(1631.0797,1137.2609)"><path
             d="m 0,0 c -6.262,6.262 -16.416,6.262 -22.678,0 -6.263,-6.262 -6.263,-16.416 0,-22.678 6.262,-6.263 16.416,-6.263 22.678,0 C 6.263,-16.416 6.263,-6.262 0,0"
             style="fill:none;stroke:#15141b;stroke-width:1.775;stroke-linecap:butt;stroke-linejoin:miter;stroke-miterlimit:10;stroke-dasharray:none;stroke-opacity:1"
             id="path294" /></g><g
           id="g296"
           transform="translate(1468.8406,1137.2609)"><path
             d="m 0,0 c -6.262,6.262 -16.416,6.262 -22.678,0 -6.263,-6.262 -6.263,-16.416 0,-22.678 6.262,-6.263 16.416,-6.263 22.678,0 C 6.262,-16.416 6.262,-6.262 0,0"
             style="fill:none;stroke:#15141b;stroke-width:1.775;stroke-linecap:butt;stroke-linejoin:miter;stroke-miterlimit:10;stroke-dasharray:none;stroke-opacity:1"
             id="path298" /></g><g
           id="g300"
           transform="translate(1291.6084,1142.1967)"><path
             d="m 0,0 c -3.28,-0.55 -6.427,-2.09 -8.958,-4.621 -6.467,-6.468 -6.467,-16.955 10e-4,-23.423 6.467,-6.467 16.954,-6.467 23.422,0 2.54,2.54 4.082,5.7 4.627,8.992 l -19.092,0 z"
             style="fill:none;stroke:#15141b;stroke-width:1.775;stroke-linecap:butt;stroke-linejoin:miter;stroke-miterlimit:10;stroke-dasharray:none;stroke-opacity:1"
             id="path302" /></g><g
           id="g304"
           transform="translate(1291.6084,1142.1967)"><path
             d="m 0,0 c 5.102,0.856 10.528,-0.685 14.465,-4.621 3.928,-3.929 5.47,-9.339 4.627,-14.431 h 4.731 V 4.771 L 0,4.771 Z"
             style="fill:none;stroke:#15141b;stroke-width:1.775;stroke-linecap:butt;stroke-linejoin:miter;stroke-miterlimit:10;stroke-dasharray:none;stroke-opacity:1"
             id="path306" /></g><g
           id="g308"
           transform="translate(1306.0731,1137.5752)"><path
             d="M 0,0 C -3.937,3.937 -9.363,5.477 -14.465,4.621 V -14.43 H 4.627 C 5.47,-9.338 3.928,-3.928 0,0 Z"
             style="fill:none;stroke:#15141b;stroke-width:1.775;stroke-linecap:butt;stroke-linejoin:miter;stroke-miterlimit:10;stroke-dasharray:none;stroke-opacity:1"
             id="path310" /></g><g
           id="g312"
           transform="translate(1306.0731,1137.5752)"><path
             d="M 0,0 C -3.937,3.937 -9.363,5.477 -14.465,4.621 V -14.43 H 4.627 C 5.47,-9.338 3.928,-3.928 0,0 Z"
             style="fill:none;stroke:#15141b;stroke-width:1.775;stroke-linecap:butt;stroke-linejoin:miter;stroke-miterlimit:10;stroke-dasharray:none;stroke-opacity:1"
             id="path314" /></g><g
           id="g316"
           transform="translate(1336.0393,1146.3741)"><path
             d="M 0,0 4.117,-7.317 13.312,-23.66 22.48,-7.365 26.624,0 Z"
             style="fill:none;stroke:#34b75b;stroke-width:1.775;stroke-linecap:butt;stroke-linejoin:miter;stroke-miterlimit:10;stroke-dasharray:none;stroke-opacity:1"
             id="path318" /></g><g
           id="g320"
           transform="translate(1423.9518,1134.4413)"><path
             d="m 0,0 c 0,6.602 -5.352,11.955 -11.955,11.955 -6.602,0 -11.954,-5.353 -11.954,-11.955 0,-6.602 5.352,-11.955 11.954,-11.955 C -5.352,-11.955 0,-6.602 0,0 Z"
             style="fill:none;stroke:#15141b;stroke-width:1.775;stroke-linecap:butt;stroke-linejoin:miter;stroke-miterlimit:10;stroke-dasharray:none;stroke-opacity:1"
             id="path322" /></g><g
           id="g324"
           transform="translate(1475.9845,1144.4354)"><path
             d="m 0,0 c -2.611,2.611 -6.845,2.611 -9.457,0 -0.334,-0.334 -0.625,-0.695 -0.874,-1.076 l -1.711,-2.7 -14.312,-22.579 22.6,14.329 2.775,1.76 c 0.345,0.234 0.673,0.504 0.979,0.809 2.611,2.612 2.611,6.846 0,9.457 z"
             style="fill:none;stroke:#15141b;stroke-width:1.775;stroke-linecap:butt;stroke-linejoin:miter;stroke-miterlimit:10;stroke-dasharray:none;stroke-opacity:1"
             id="path326" /></g><g
           id="g328"
           transform="translate(1505.2371,1114.9376)"><path
             d="m 0,0 19.588,19.588 6.804,6.804 -5.094,5.094 -6.78,-6.781 L -5.094,5.094 Z"
             style="fill:none;stroke:#15141b;stroke-width:1.775;stroke-linecap:butt;stroke-linejoin:miter;stroke-miterlimit:10;stroke-dasharray:none;stroke-opacity:1"
             id="path330" /></g><g
           id="g332"
           transform="translate(1565.0947,1146.1671)"><path
             d="M 0,0 H -0.005 V -20.402 H 20.426 C 20.413,-9.132 11.273,0 0,0 Z"
             style="fill:none;stroke:#15141b;stroke-width:1.775;stroke-linecap:butt;stroke-linejoin:miter;stroke-miterlimit:10;stroke-dasharray:none;stroke-opacity:1"
             id="path334" /></g><g
           id="g336"
           transform="translate(1612.1406,1122.2516)"><path
             d="m 0,0 c -0.023,0 -0.046,0 -0.07,0 l 0.032,7.118 c 1.703,-0.007 3.306,0.496 4.902,1.539 1.785,1.167 3.272,2.612 4.418,4.295 l 2.202,3.232 c 0.885,1.299 2.366,3.473 5.097,5.143 2.915,1.782 6.623,2.656 11.336,2.67 L 27.939,16.88 C 24.613,16.869 22.041,16.322 20.294,15.254 18.975,14.447 18.219,13.427 17.367,12.177 L 15.165,8.944 C 13.488,6.483 11.332,4.382 8.758,2.699 6.018,0.908 3.072,0 0,0 Z"
             style="fill:none;stroke:#15141b;stroke-width:1.775;stroke-linecap:butt;stroke-linejoin:miter;stroke-miterlimit:10;stroke-dasharray:none;stroke-opacity:1"
             id="path338" /></g><g
           id="g340"
           transform="translate(127.8238,1114.4116)"><path
             d="m 0,0 c -19.353,19.353 -50.732,19.353 -70.085,0 -19.354,-19.353 -19.354,-50.732 0,-70.085 19.353,-19.354 50.732,-19.354 70.085,0 C 19.354,-50.732 19.354,-19.353 0,0"
             style="fill:none;stroke:#34b75b;stroke-width:3.403;stroke-linecap:butt;stroke-linejoin:miter;stroke-miterlimit:10;stroke-dasharray:none;stroke-opacity:1"
             id="path342" /></g><g
           id="g344"
           transform="translate(51.7633,1142.5752)"><path
             d="M 0,0 12.723,-22.614 41.14,-73.12 69.474,-22.76 82.279,0 Z"
             style="fill:none;stroke:#34b75b;stroke-width:3.403;stroke-linecap:butt;stroke-linejoin:miter;stroke-miterlimit:10;stroke-dasharray:none;stroke-opacity:1"
             id="path346" /></g></g></g><text
       transform="matrix(1,0,0,-1,40.5752,28.5547)"
       style="font-variant:normal;font-weight:bold;font-stretch:normal;font-size:16.8151px;font-family:'Akkurat Pro';-inkscape-font-specification:AkkuratPro-Bold;writing-mode:lr-tb;fill:#231f20;fill-opacity:1;fill-rule:nonzero;stroke:none"
       id="text350"><tspan
         x="0 12.897182 25.794363 38.691544 43.551109 52.244514 61.08926 69.849922 76.49189 85.941978 100.8906 105.76698 114.77987 124.96983 134.41991 143.24783 148.12422 157.4566 167.47839 174.12036 183.78905 193.45772 198.61996 208.38954 213.26591 220.39552 225.08693 234.75562 241.33032"
         y="0"
         id="tspan348">www.systemicdesigntoolkit.org</tspan></text><text
       transform="matrix(1,0,0,-1,772.83917,28.352919)"
       style="font-variant:normal;font-weight:300;font-stretch:normal;font-size:16.8151px;font-family:'Akkurat Light Pro';-inkscape-font-specification:AkkuratLightPro-Regular;writing-mode:lr-tb;fill:#231f20;fill-opacity:1;fill-rule:nonzero;stroke:none"
       id="text354"><tspan
         x="0 10.963446 20.110859 28.787451 38.05257 52.833046 67.613518 76.760933 86.631393 96.518677 105.66609 115.57018 119.25269 127.9461 132.38528 140.59105 149.73846 153.60594 157.28845 168.01648"
         y="0"
         id="tspan352">Recommended size: A2</tspan></text><g
       id="g356"><g
         id="g358"
         clip-path="url(#clipPath362)"><g
           id="g364"
           transform="translate(1210.8965,36.563)"><path
             d="m 0,0 -2.204,0.929 c -1.435,0.621 -2.152,1.488 -2.152,3.196 0,2.14 1.269,3.008 2.784,3.008 2.371,0 2.701,-1.954 2.701,-3.412 V 3.256 h 1.046 v 0.497 c 0,1.984 -0.55,4.435 -3.747,4.435 -2.289,0 -3.941,-1.489 -3.941,-4.189 0,-2.076 0.909,-3.255 2.699,-4.063 l 2.123,-0.96 c 1.601,-0.714 2.152,-1.769 2.152,-3.32 0,-1.798 -0.882,-3.379 -3.004,-3.379 -2.399,0 -3.226,1.674 -3.226,3.969 v 0.528 h -1.046 v -0.433 c 0,-1.894 0.273,-5.119 4.272,-5.119 2.287,0 4.161,1.737 4.161,4.464 C 2.618,-2.11 1.736,-0.745 0,0 M 10.002,8.436 C 8.267,8.436 6.832,7.444 6.421,5.769 H 6.364 v 7.133 H 4.71 V -8.407 H 6.364 V 2.667 c 0,2.543 1.297,4.217 3.226,4.217 1.682,0 2.508,-1.115 2.508,-3.379 V -8.407 h 1.655 v 12.44 c 0,3.1 -1.518,4.403 -3.751,4.403 m 6.861,-16.843 h 2.314 V 8.049 h -2.314 z m 0,18.517 h 2.314 v 2.788 H 16.863 Z M 23.035,9.599 V 8.05 H 20.967 V 5.318 h 2.068 V -8.407 h 2.979 V 5.318 h 2.424 V 8.05 h -2.424 v 1.456 c 0,1.116 0.494,1.584 1.598,1.584 h 0.826 v 2.572 c -0.441,0.063 -0.992,0.092 -1.625,0.092 -2.426,0 -3.778,-0.992 -3.778,-4.155 M 36.321,5.318 V 8.05 h -2.205 v 4.011 H 30.31 V -4.187 c 0,-3.384 0.552,-4.406 3.528,-4.406 0.884,0 1.656,0.094 2.483,0.186 v 2.979 c -0.248,-0.031 -0.552,-0.061 -0.855,-0.061 -1.103,0 -1.35,0.525 -1.35,1.83 v 8.977 z"
             style="fill:#231f20;fill-opacity:1;fill-rule:evenodd;stroke:none"
             id="path366" /></g><g
           id="g368"
           transform="translate(1254.666,55.1106)"><path
             d="m 0,0 c -3.154,-0.467 -5.424,-3.431 -5.424,-6.765 v -6.46 h 6.171 c 3.186,0 6.02,2.377 6.464,5.68 C 7.806,-3.117 4.23,0.626 0,0 M 3.717,-10.425 H 1.122 v 4.567 c 0,0.575 -0.173,0.743 -0.508,0.743 -0.351,0 -0.522,-0.309 -0.522,-0.743 v -4.567 h -2.599 v 7.131 h 2.52 v -0.869 h 0.025 c 0.39,0.744 1.044,1.066 1.915,1.066 0.924,0 1.764,-0.533 1.764,-1.922 z"
             style="fill:#231f20;fill-opacity:1;fill-rule:evenodd;stroke:none"
             id="path370" /></g></g></g><text
       transform="matrix(1,0,0,-1,1594.2607,49.1621)"
       style="font-variant:normal;font-weight:bold;font-stretch:normal;font-size:9.6414px;font-family:'Akkurat Pro';-inkscape-font-specification:AkkuratPro-Bold;writing-mode:lr-tb;fill:#231f20;fill-opacity:1;fill-rule:nonzero;stroke:none"
       id="text376"><tspan
         x="0 5.8619714 11.63717 17.547348 22.956173 29.010973 37.47612 40.339619"
         y="0"
         id="tspan372">SYSTEMIC</tspan><tspan
         x="0 6.5947175 12.610951 18.704315 21.567812 28.162529"
         y="13.951106"
         id="tspan374">DESIGN</tspan></text><text
       transform="matrix(1,0,0,-1,1594.2607,21.259888)"
       style="font-variant:normal;font-weight:300;font-stretch:normal;font-size:9.6414px;font-family:'Akkurat Light Pro';-inkscape-font-specification:AkkuratLightPro-Regular;writing-mode:lr-tb;fill:#231f20;fill-opacity:1;fill-rule:nonzero;stroke:none"
       id="text380"><tspan
         x="0 4.9074726 11.251513 17.595554 22.85976 29.174877 31.768414"
         y="0"
         id="tspan378">TOOLKIT</tspan></text><g
       id="g382"><g
         id="g384"
         clip-path="url(#clipPath388)"><g
           id="g390"
           transform="translate(1575.6901,48.1018)"><path
             d="m 0,0 c 5.591,-5.591 5.591,-14.655 0,-20.246 -5.59,-5.591 -14.655,-5.591 -20.246,0 -5.591,5.591 -5.591,14.655 0,20.246 C -14.655,5.59 -5.59,5.59 0,0 m 5.451,5.451 c -8.602,8.601 -22.547,8.601 -31.148,0 -8.601,-8.602 -8.601,-22.546 0,-31.148 8.601,-8.602 22.546,-8.602 31.148,0 8.601,8.601 8.601,22.546 0,31.148"
             style="fill:#f8c717;fill-opacity:1;fill-rule:nonzero;stroke:none"
             id="path392" /></g><g
           id="g394"
           transform="translate(1570.2393,42.6508)"><path
             d="m 0,0 c 2.58,-2.58 2.58,-6.764 0,-9.344 -2.58,-2.581 -6.764,-2.581 -9.344,0 -2.581,2.58 -2.581,6.764 0,9.344 2.58,2.58 6.764,2.58 9.344,0 m 5.451,5.451 c -5.591,5.591 -14.655,5.591 -20.246,0 -5.591,-5.591 -5.591,-14.655 0,-20.246 5.591,-5.591 14.655,-5.591 20.246,0 5.591,5.591 5.591,14.655 0,20.246"
             style="fill:#e2067f;fill-opacity:1;fill-rule:nonzero;stroke:none"
             id="path396" /></g><g
           id="g398"><g
             id="g400" /><g
             id="g420"><g
               clip-path="url(#clipPath404)"
               id="g418"><g
                 id="g416"><g
                   clip-path="url(#clipPath408)"
                   id="g414"><g
                     transform="translate(1581.1407,53.5526)"
                     id="g412"><path
                       d="m 0,0 c 5.764,-5.763 7.659,-13.925 5.698,-21.272 -7.347,-1.961 -15.508,-0.066 -21.272,5.698 -5.764,5.764 -7.659,13.925 -5.698,21.272 C -13.925,7.659 -5.763,5.763 0,0"
                       style="fill:#489bda;fill-opacity:1;fill-rule:nonzero;stroke:none"
                       id="path410" /></g></g></g></g></g></g><g
           id="g422"
           transform="translate(1305.3167,58.5432)"><path
             d="m 0,0 c -9.799,0.001 -17.763,-7.947 -17.77,-17.734 -0.007,-9.804 7.94,-17.784 17.714,-17.79 9.834,-0.005 17.807,7.935 17.81,17.734 C 17.756,-7.965 9.809,-0.001 0,0"
             style="fill:#ffffff;fill-opacity:1;fill-rule:nonzero;stroke:none"
             id="path424" /></g><g
           id="g426"
           transform="translate(1303.054,40.5636)"><path
             d="m 0,0 c -0.043,0.01 -0.076,0.013 -0.106,0.024 -0.581,0.23 -1.182,0.276 -1.793,0.179 -0.799,-0.127 -1.416,-0.505 -1.703,-1.3 -0.16,-0.447 -0.164,-0.91 -0.083,-1.371 0.131,-0.749 0.505,-1.325 1.247,-1.583 0.787,-0.273 1.537,-0.153 2.241,0.282 0.06,0.037 0.12,0.074 0.194,0.119 0.006,-0.143 0.012,-0.265 0.018,-0.391 h 2.128 c 0.009,0.035 0.017,0.055 0.017,0.073 0,1.489 0.023,2.979 -0.01,4.467 C 2.126,1.608 1.505,2.371 0.479,2.578 -0.816,2.84 -2.071,2.658 -3.273,2.112 -3.294,2.102 -3.311,2.08 -3.336,2.058 -3.14,1.563 -2.948,1.075 -2.75,0.575 -2.657,0.618 -2.585,0.649 -2.515,0.684 -1.926,0.982 -1.3,1.079 -0.648,1.026 -0.262,0.993 -0.037,0.787 -0.002,0.424 0.011,0.287 0,0.148 0,0 M 18.56,3.855 C 18.474,3.914 18.406,3.966 18.335,4.01 16.953,4.858 15.454,5.073 13.889,4.751 12.542,4.474 11.67,3.576 11.583,2.325 c -0.08,-1.147 0.281,-1.961 1.31,-2.465 0.112,-0.055 0.225,-0.116 0.344,-0.151 0.633,-0.188 1.269,-0.362 1.901,-0.552 0.264,-0.08 0.525,-0.176 0.778,-0.287 0.187,-0.082 0.301,-0.236 0.279,-0.458 -0.024,-0.238 -0.175,-0.363 -0.392,-0.415 -0.122,-0.03 -0.248,-0.046 -0.372,-0.055 -1.004,-0.074 -1.898,0.264 -2.75,0.75 -0.06,0.034 -0.121,0.068 -0.192,0.109 -0.399,-0.646 -0.787,-1.275 -1.182,-1.913 0.07,-0.046 0.122,-0.086 0.178,-0.119 1.4,-0.814 2.907,-1.098 4.505,-0.896 0.582,0.073 1.135,0.25 1.625,0.591 0.931,0.648 1.188,1.763 0.964,2.89 -0.152,0.765 -0.657,1.271 -1.347,1.555 -0.632,0.261 -1.299,0.435 -1.951,0.646 -0.326,0.105 -0.656,0.197 -0.978,0.316 -0.188,0.07 -0.292,0.218 -0.269,0.435 0.025,0.232 0.195,0.382 0.5,0.426 0.597,0.085 1.177,0 1.73,-0.223 0.377,-0.152 0.733,-0.356 1.121,-0.548 0.381,0.615 0.773,1.246 1.175,1.894 M 3.315,4.727 v -8.784 h 0.211 c 0.655,0 1.31,0.007 1.965,-0.004 0.196,-0.003 0.243,0.06 0.241,0.247 -0.009,0.84 -0.002,1.681 -0.007,2.521 -10e-4,0.144 0.04,0.204 0.19,0.196 0.192,-0.01 0.384,-0.009 0.576,0 0.137,0.007 0.211,-0.043 0.271,-0.171 0.405,-0.854 0.826,-1.699 1.224,-2.555 0.087,-0.188 0.191,-0.242 0.389,-0.239 0.742,0.012 1.482,0.005 2.223,0.005 h 0.258 c -0.595,1.138 -1.173,2.241 -1.751,3.349 0.059,0.033 0.104,0.059 0.149,0.084 0.052,0.029 0.104,0.058 0.155,0.088 0.617,0.369 1.029,0.898 1.164,1.602 0.074,0.386 0.097,0.789 0.078,1.182 C 10.598,3.356 9.985,4.163 8.925,4.496 8.508,4.626 8.061,4.713 7.626,4.723 6.243,4.753 4.86,4.738 3.478,4.74 3.427,4.74 3.376,4.732 3.315,4.727 M -9.12,-0.113 c -0.031,0.084 -0.065,0.206 -0.116,0.32 -0.657,1.472 -1.313,2.944 -1.978,4.412 -0.028,0.06 -0.139,0.115 -0.212,0.116 -0.642,0.009 -1.284,0.006 -1.926,0.005 -0.05,0 -0.1,-0.012 -0.153,-0.019 v -8.764 h 2.27 v 4.224 c 0.693,-1.49 1.397,-3.004 2.099,-4.517 h 0.061 c 0.705,1.515 1.409,3.031 2.098,4.515 v -4.222 h 2.271 V 4.74 H -4.939 C -5.521,4.74 -6.104,4.732 -6.686,4.745 -6.867,4.75 -6.952,4.691 -7.025,4.528 -7.72,2.974 -8.424,1.424 -9.12,-0.113 M 2.262,17.98 c 9.81,-0.001 17.757,-7.965 17.754,-17.79 -0.002,-9.8 -7.976,-17.74 -17.809,-17.734 -9.775,0.005 -17.722,7.986 -17.714,17.79 0.006,9.786 7.971,17.734 17.769,17.734"
             style="fill:#231f20;fill-opacity:1;fill-rule:nonzero;stroke:none"
             id="path428" /></g><g
           id="g430"
           transform="translate(1293.9338,40.451)"><path
             d="M 0,0 C 0.696,1.536 1.4,3.087 2.095,4.641 2.168,4.803 2.253,4.862 2.435,4.858 3.016,4.845 3.599,4.853 4.181,4.853 H 4.415 V -3.931 H 2.143 V 0.291 C 1.454,-1.193 0.75,-2.708 0.046,-4.223 h -0.062 c -0.702,1.513 -1.406,3.026 -2.099,4.517 V -3.93 h -2.27 v 8.764 c 0.054,0.007 0.103,0.018 0.153,0.018 0.642,10e-4 1.284,0.005 1.925,-0.004 C -2.233,4.846 -2.122,4.792 -2.094,4.731 -1.429,3.264 -0.772,1.792 -0.116,0.319 -0.065,0.205 -0.03,0.085 0,0"
             style="fill:#ffffff;fill-opacity:1;fill-rule:nonzero;stroke:none"
             id="path432" /></g><g
           id="g434"
           transform="translate(1308.7941,41.4069)"><path
             d="M 0,0 C 0.479,0 0.947,-0.003 1.415,0.002 1.546,0.003 1.679,0.017 1.808,0.046 2.07,0.103 2.286,0.233 2.4,0.493 2.718,1.218 2.306,1.875 1.518,1.889 1.095,1.897 0.672,1.892 0.249,1.892 c -0.082,0 -0.165,0 -0.249,0 z m -2.424,3.884 c 0.059,0.005 0.111,0.013 0.162,0.013 C -0.879,3.895 0.503,3.91 1.885,3.879 2.321,3.87 2.768,3.783 3.185,3.652 4.246,3.32 4.859,2.512 4.911,1.404 4.93,1.012 4.907,0.608 4.833,0.223 4.698,-0.481 4.286,-1.011 3.669,-1.379 3.619,-1.41 3.566,-1.438 3.514,-1.467 3.469,-1.493 3.423,-1.518 3.364,-1.552 3.944,-2.66 4.52,-3.762 5.116,-4.9 H 4.858 c -0.741,0 -1.482,0.007 -2.223,-0.004 -0.197,-0.004 -0.302,0.05 -0.389,0.237 -0.398,0.856 -0.819,1.703 -1.224,2.556 -0.06,0.128 -0.134,0.177 -0.272,0.17 -0.191,-0.009 -0.384,-0.01 -0.575,0 -0.15,0.009 -0.191,-0.051 -0.19,-0.196 0.005,-0.84 -0.002,-1.68 0.007,-2.52 0.002,-0.186 -0.045,-0.251 -0.241,-0.247 -0.655,0.011 -1.31,0.004 -1.965,0.004 h -0.21 z"
             style="fill:#ffffff;fill-opacity:1;fill-rule:nonzero;stroke:none"
             id="path436" /></g><g
           id="g438"
           transform="translate(1321.6134,44.4187)"><path
             d="m 0,0 c -0.401,-0.647 -0.793,-1.28 -1.174,-1.894 -0.388,0.191 -0.744,0.395 -1.121,0.548 -0.553,0.222 -1.134,0.308 -1.731,0.222 -0.305,-0.043 -0.474,-0.192 -0.499,-0.424 -0.023,-0.218 0.08,-0.367 0.269,-0.436 0.321,-0.119 0.651,-0.21 0.978,-0.316 0.651,-0.211 1.319,-0.386 1.95,-0.646 0.69,-0.285 1.196,-0.79 1.348,-1.555 0.225,-1.127 -0.034,-2.243 -0.965,-2.891 -0.489,-0.34 -1.043,-0.517 -1.624,-0.59 -1.599,-0.203 -3.106,0.082 -4.505,0.896 -0.056,0.033 -0.108,0.072 -0.178,0.119 0.394,0.638 0.782,1.266 1.182,1.913 0.07,-0.04 0.131,-0.075 0.192,-0.11 0.852,-0.485 1.745,-0.824 2.749,-0.749 0.125,0.009 0.251,0.025 0.372,0.054 0.217,0.053 0.368,0.178 0.392,0.416 0.023,0.222 -0.091,0.376 -0.278,0.458 -0.253,0.111 -0.515,0.207 -0.779,0.287 -0.632,0.19 -1.268,0.364 -1.901,0.552 -0.119,0.035 -0.231,0.096 -0.344,0.151 -1.028,0.504 -1.389,1.318 -1.31,2.464 0.087,1.252 0.96,2.149 2.307,2.426 1.565,0.323 3.064,0.108 4.445,-0.741 C -0.153,0.11 -0.086,0.059 0,0"
             style="fill:#ffffff;fill-opacity:1;fill-rule:nonzero;stroke:none"
             id="path440" /></g><g
           id="g442"
           transform="translate(1303.0583,38.7408)"><path
             d="M 0,0 C 0,0.085 -0.012,0.174 0.002,0.257 0.031,0.424 -0.048,0.51 -0.198,0.53 -0.49,0.569 -0.784,0.619 -1.078,0.619 -1.407,0.62 -1.591,0.404 -1.631,0.041 -1.672,-0.329 -1.517,-0.616 -1.224,-0.71 -0.959,-0.795 -0.7,-0.745 -0.446,-0.666 -0.028,-0.535 0,-0.491 0,-0.06 Z m -0.004,1.822 c 0,0.149 0.011,0.288 -0.002,0.426 -0.036,0.362 -0.26,0.569 -0.646,0.6 C -1.305,2.902 -1.93,2.805 -2.52,2.507 -2.589,2.472 -2.661,2.441 -2.754,2.398 c -0.199,0.5 -0.391,0.988 -0.587,1.483 0.026,0.022 0.042,0.044 0.063,0.054 1.203,0.546 2.458,0.727 3.753,0.466 1.026,-0.207 1.646,-0.97 1.671,-2.08 0.032,-1.488 0.009,-2.977 0.01,-4.466 0,-0.019 -0.009,-0.037 -0.017,-0.072 H 0.01 c -0.006,0.125 -0.011,0.247 -0.017,0.39 -0.074,-0.045 -0.134,-0.082 -0.194,-0.119 -0.704,-0.435 -1.455,-0.556 -2.241,-0.282 -0.742,0.259 -1.116,0.833 -1.248,1.582 -0.081,0.462 -0.077,0.925 0.084,1.371 0.286,0.796 0.904,1.174 1.702,1.301 0.611,0.097 1.213,0.051 1.794,-0.179 0.029,-0.012 0.062,-0.015 0.106,-0.025"
             style="fill:#ffffff;fill-opacity:1;fill-rule:nonzero;stroke:none"
             id="path444" /></g><g
           id="g446"
           transform="translate(1308.7941,41.4069)"><path
             d="m 0,0 v 1.892 c 0.084,0 0.167,0 0.249,0 0.423,0 0.846,0.005 1.269,-0.003 C 2.306,1.875 2.718,1.218 2.4,0.493 2.286,0.233 2.07,0.103 1.808,0.046 1.679,0.017 1.546,0.003 1.415,0.002 0.947,-0.003 0.479,0 0,0"
             style="fill:#231f20;fill-opacity:1;fill-rule:nonzero;stroke:none"
             id="path448" /></g><g
           id="g450"
           transform="translate(1303.0583,38.7408)"><path
             d="M 0,0 V -0.06 C 0,-0.491 -0.028,-0.535 -0.446,-0.666 -0.7,-0.745 -0.959,-0.795 -1.224,-0.71 c -0.293,0.094 -0.448,0.381 -0.407,0.751 0.04,0.363 0.224,0.579 0.553,0.578 0.294,0 0.588,-0.05 0.88,-0.089 0.15,-0.02 0.229,-0.106 0.2,-0.273 C -0.012,0.174 0,0.085 0,0"
             style="fill:#231f20;fill-opacity:1;fill-rule:nonzero;stroke:none"
             id="path452" /></g><path
           d="m 1445.331,41.626 h 73.003 V 28.689 h -73.003 z"
           style="fill:#ffffff;fill-opacity:1;fill-rule:nonzero;stroke:none"
           id="path454" /><g
           id="g456"
           transform="translate(1446.6998,40.3207)"><path
             d="m 0,0 v -10.35 h 18.555 c 1.194,1.51 2,3.265 2,5.174 0,1.899 -0.791,3.672 -1.971,5.176 z"
             style="fill:#231f20;fill-opacity:1;fill-rule:nonzero;stroke:none"
             id="path458" /></g><g
           id="g460"
           transform="translate(1462.6997,35.157)"><path
             d="m 0,0 c 0.001,-3.226 -2.764,-5.844 -6.178,-5.845 -3.413,-0.002 -6.183,2.611 -6.185,5.838 V 0 c -0.002,3.226 2.764,5.844 6.178,5.846 C -2.772,5.847 -0.002,3.233 0,0.006 Z"
             style="fill:#231f20;fill-opacity:1;fill-rule:nonzero;stroke:none"
             id="path462" /></g><g
           id="g464"
           transform="translate(1459.5763,35.8086)"><path
             d="m 0,0 c -0.177,0.366 -0.437,0.548 -0.779,0.548 -0.638,0 -0.956,-0.398 -0.956,-1.193 0,-0.795 0.318,-1.192 0.956,-1.192 0.413,0 0.703,0.193 0.868,0.581 l 0.886,-0.436 c -0.413,-0.694 -1.031,-1.04 -1.856,-1.04 -0.637,0 -1.145,0.185 -1.528,0.554 -0.382,0.368 -0.575,0.878 -0.575,1.526 0,0.637 0.195,1.144 0.583,1.518 0.389,0.376 0.883,0.563 1.485,0.563 0.872,0 1.497,-0.325 1.872,-0.976 z m -4.075,0 c -0.178,0.366 -0.443,0.548 -0.796,0.548 -0.625,0 -0.937,-0.398 -0.937,-1.193 0,-0.795 0.312,-1.192 0.937,-1.192 0.413,0 0.707,0.193 0.884,0.581 l 0.866,-0.436 c -0.412,-0.694 -1.032,-1.04 -1.858,-1.04 -0.636,0 -1.148,0.185 -1.531,0.554 -0.384,0.368 -0.575,0.878 -0.575,1.526 0,0.637 0.198,1.144 0.593,1.518 0.395,0.376 0.888,0.563 1.478,0.563 0.873,0 1.498,-0.325 1.876,-0.976 z m -3.05,3.236 c -1.159,-1.107 -1.738,-2.404 -1.738,-3.89 0,-1.485 0.573,-2.771 1.721,-3.855 1.147,-1.083 2.512,-1.626 4.096,-1.626 1.584,0 2.961,0.548 4.132,1.643 1.112,1.018 1.667,2.296 1.667,3.838 0,1.53 -0.564,2.83 -1.694,3.897 -1.128,1.068 -2.498,1.601 -4.105,1.601 -1.608,0 -2.967,-0.536 -4.079,-1.608 m 9.092,0.87 c 1.37,-1.295 2.057,-2.881 2.057,-4.758 0,-1.876 -0.674,-3.447 -2.022,-4.709 -1.43,-1.329 -3.12,-1.994 -5.068,-1.994 -1.927,0 -3.588,0.66 -4.982,1.978 -1.394,1.318 -2.092,2.893 -2.092,4.725 0,1.832 0.698,3.419 2.092,4.758 1.36,1.297 3.02,1.945 4.982,1.945 1.985,0 3.663,-0.648 5.033,-1.945"
             style="fill:#ffffff;fill-opacity:1;fill-rule:nonzero;stroke:none"
             id="path466" /></g><g
           id="g468"
           transform="translate(1503.7612,37.7443)"><path
             d="m 0,0 h 1.5 c 0.836,0 1.46,-0.057 1.868,-0.17 0.412,-0.111 0.764,-0.3 1.055,-0.568 0.259,-0.234 0.452,-0.503 0.576,-0.808 0.127,-0.305 0.19,-0.65 0.19,-1.037 0,-0.39 -0.063,-0.739 -0.19,-1.046 C 4.875,-3.934 4.682,-4.203 4.423,-4.437 4.129,-4.705 3.774,-4.896 3.361,-5.008 2.947,-5.12 2.327,-5.176 1.5,-5.176 H 0 V 0 m 1.422,-1.009 v -3.158 h 0.509 c 0.581,0 1.025,0.136 1.329,0.407 0.307,0.27 0.462,0.662 0.462,1.177 0,0.514 -0.152,0.905 -0.457,1.173 -0.305,0.268 -0.75,0.401 -1.334,0.401 H 1.422 M -6.335,0 h 1.587 l 2.004,-3.549 V 0 h 1.348 v -5.176 h -1.588 l -2.004,3.55 v -3.55 H -6.335 V 0 m -3.431,-2.628 h 2.32 v -1.008 h -2.32 z M -10.84,-4.89 c -0.262,-0.129 -0.534,-0.224 -0.817,-0.288 -0.282,-0.065 -0.578,-0.098 -0.884,-0.098 -0.92,0 -1.648,0.241 -2.184,0.721 -0.538,0.484 -0.805,1.138 -0.805,1.962 0,0.828 0.267,1.482 0.805,1.962 0.536,0.483 1.264,0.726 2.184,0.726 0.306,0 0.602,-0.034 0.884,-0.099 0.283,-0.065 0.555,-0.161 0.817,-0.287 v -1.072 c -0.264,0.169 -0.524,0.293 -0.78,0.372 -0.257,0.078 -0.526,0.118 -0.809,0.118 -0.506,0 -0.906,-0.153 -1.196,-0.458 -0.291,-0.306 -0.435,-0.726 -0.435,-1.262 0,-0.534 0.144,-0.953 0.435,-1.258 0.29,-0.304 0.69,-0.457 1.196,-0.457 0.283,0 0.552,0.039 0.809,0.118 0.256,0.078 0.516,0.203 0.78,0.369 V -4.89 M -21.548,0 h 1.587 l 2.005,-3.549 V 0 h 1.347 v -5.176 h -1.587 l -2.005,3.55 v -3.55 h -1.347 V 0 m -3.43,-2.628 h 2.318 v -1.008 h -2.318 z M -29.834,0 h 1.554 l 1.256,-1.844 1.255,1.844 h 1.559 l -2.102,-2.995 v -2.181 h -1.422 v 2.181 L -29.834,0 m -0.836,-2.407 c 0.305,-0.082 0.541,-0.235 0.708,-0.461 0.168,-0.223 0.252,-0.498 0.252,-0.824 0,-0.498 -0.181,-0.871 -0.539,-1.115 -0.36,-0.246 -0.907,-0.369 -1.64,-0.369 h -2.359 V 0 h 2.134 c 0.765,0 1.319,-0.108 1.662,-0.326 0.344,-0.217 0.516,-0.565 0.516,-1.042 0,-0.253 -0.063,-0.468 -0.188,-0.646 -0.125,-0.175 -0.309,-0.306 -0.546,-0.393 m -1.322,-1.859 c 0.285,0 0.499,0.056 0.642,0.169 0.145,0.113 0.218,0.284 0.218,0.513 0,0.224 -0.072,0.392 -0.214,0.503 -0.143,0.113 -0.358,0.169 -0.646,0.169 h -0.835 v -1.354 h 0.835 m -0.049,2.263 c 0.225,0 0.395,0.046 0.51,0.137 0.115,0.093 0.173,0.229 0.173,0.411 0,0.177 -0.058,0.313 -0.173,0.404 -0.115,0.095 -0.285,0.144 -0.51,0.144 h -0.786 v -1.096 z"
             style="fill:#231f20;fill-opacity:1;fill-rule:nonzero;stroke:none"
             id="path470" /></g><path
           d="m 1446.7,40.332 h 70.265 V 29.983 H 1446.7 Z"
           style="fill:none;stroke:#231f20;stroke-width:0.701;stroke-linecap:butt;stroke-linejoin:miter;stroke-miterlimit:10;stroke-dasharray:none;stroke-opacity:1"
           id="path472" /><path
           d="m 1445.331,41.626 h 73.003 V 28.689 h -73.003 z"
           style="fill:none;stroke:#231f20;stroke-width:0.701;stroke-linecap:butt;stroke-linejoin:miter;stroke-miterlimit:4;stroke-dasharray:none;stroke-opacity:1"
           id="path474" /><g
           id="g476"
           transform="translate(1166.4847,41.0846)"><path
             d="m 0,0 c 0.231,0.128 0.564,0.205 0.82,0.231 0.616,-0.718 1.077,-1.257 1.872,-1.923 1.282,1.231 2.744,2 4.462,2 1.615,0 3.051,-0.539 3.871,-1.821 0.488,-0.795 0.616,-2.179 0.616,-3.384 0,-1.898 -0.051,-3.154 -0.051,-4.103 0,-1.154 -0.026,-2.154 0.077,-3.82 -0.488,-0.052 -1,-0.052 -1.488,-0.052 -0.487,0 -0.948,0 -1.487,0.052 -0.102,1.538 -0.102,2.897 -0.077,4.205 0,0.641 0.026,0.923 0.052,3.564 0,1.077 -0.154,2.025 -0.411,2.487 -0.487,0.846 -1.307,1.231 -2.256,1.231 -1,0 -2.103,-0.411 -3.026,-1.18 V -12.82 c -0.513,-0.052 -1.051,-0.052 -1.564,-0.052 -0.513,0 -1,0 -1.41,0.052 z m -15.462,5.385 c 1.026,0.692 1.359,0.948 2.206,1.615 0.205,-0.026 0.563,-0.128 0.769,-0.256 v -8.231 c 1.205,1.128 2.615,1.795 4.23,1.795 1.616,0 3.052,-0.539 3.872,-1.821 0.487,-0.795 0.616,-2.179 0.616,-3.384 0,-1.898 -0.052,-3.154 -0.052,-4.103 0,-1.154 -0.025,-2.154 0.077,-3.82 -0.487,-0.052 -1,-0.052 -1.487,-0.052 -0.487,0 -0.948,0 -1.487,0.052 -0.103,1.538 -0.103,2.897 -0.077,4.205 0,0.641 0.026,0.923 0.051,3.564 0,1.077 -0.154,2.025 -0.41,2.487 -0.487,0.846 -1.308,1.231 -2.256,1.231 -1.001,0 -2.103,-0.411 -3.026,-1.18 V -12.82 c -0.513,-0.052 -1.051,-0.052 -1.564,-0.052 -0.513,0 -1,0 -1.41,0.052 z m -8.82,-16.846 c 0.718,0.025 1.436,0.358 2.128,0.974 -0.051,0.641 -0.077,1.256 -0.077,1.949 0,0.666 0.026,1.512 0.051,2.359 -0.641,-0.359 -1.307,-0.693 -1.948,-1.026 -0.949,-0.487 -1.565,-0.744 -1.898,-1.282 -0.205,-0.308 -0.307,-0.692 -0.307,-1.18 0,-1.179 0.871,-1.82 2.051,-1.794 m -3.744,4 c 0.718,0.461 1.667,0.743 2.641,1.051 1.077,0.333 2.154,0.718 3.205,1.179 l 0.026,0.616 c 0.051,0.948 -0.154,1.692 -0.513,2.205 -0.487,0.692 -1.307,1.025 -2.077,1.025 -0.871,0 -1.743,-0.359 -2.846,-1.025 -0.256,0.179 -0.461,0.461 -0.538,0.666 1.487,1.385 3.179,2.026 4.666,2.026 1.282,0 2.488,-0.487 3.283,-1.436 0.666,-0.795 1.051,-1.948 0.999,-3.41 -0.051,-1.564 -0.102,-3.051 -0.102,-4.615 0,-1.026 0.025,-2.462 0.128,-3.641 -0.179,-0.103 -0.538,-0.206 -0.795,-0.206 -0.769,0.513 -1.307,1.026 -1.897,1.718 -1.154,-1.23 -2.692,-1.897 -4.128,-1.897 -1.949,0 -3.565,1 -3.565,3.026 0,1.077 0.59,2.128 1.513,2.718 M -52.385,0 c 0.257,0.154 0.513,0.205 0.821,0.231 0.564,-0.667 1.025,-1.18 1.718,-1.795 1.256,1.179 2.666,1.872 4.333,1.872 1.616,0 3.026,-0.564 3.872,-1.821 l 0.103,-0.154 c 1.256,1.231 2.717,1.975 4.435,1.975 1.616,0 3.052,-0.539 3.872,-1.821 0.487,-0.795 0.616,-2.179 0.616,-3.384 0,-1.898 -0.052,-3.154 -0.052,-4.103 0,-1.154 -0.026,-2.154 0.077,-3.82 -0.487,-0.052 -1,-0.052 -1.487,-0.052 -0.487,0 -0.949,0 -1.487,0.052 -0.103,1.538 -0.103,2.897 -0.077,4.205 0,0.641 0.026,0.923 0.051,3.307 0,1.077 -0.154,2.026 -0.41,2.488 -0.487,0.846 -1.308,1.23 -2.256,1.23 -1.001,0 -2.052,-0.205 -3,-0.974 0.179,-0.718 0.23,-1.539 0.23,-2.333 0,-1.898 -0.051,-3.154 -0.051,-4.103 0,-1.154 -0.026,-2.154 0.077,-3.82 -0.487,-0.052 -1,-0.052 -1.487,-0.052 -0.487,0 -0.949,0 -1.487,0.052 -0.103,1.538 -0.103,2.897 -0.077,4.205 0,0.641 0.025,1.179 0.051,3.307 0.026,1.077 -0.154,2.026 -0.41,2.488 -0.488,0.846 -1.308,1.23 -2.257,1.23 -0.897,0 -1.871,-0.333 -2.743,-0.974 V -12.82 c -0.513,-0.052 -1.052,-0.052 -1.564,-0.052 -0.513,0 -1,0 -1.411,0.052 z m -8.871,-11.461 c 0.717,0.025 1.435,0.358 2.128,0.974 -0.052,0.641 -0.077,1.256 -0.077,1.949 0,0.666 0.025,1.512 0.051,2.359 -0.641,-0.359 -1.308,-0.693 -1.949,-1.026 -0.948,-0.487 -1.564,-0.744 -1.897,-1.282 -0.205,-0.308 -0.308,-0.692 -0.308,-1.18 0,-1.179 0.872,-1.82 2.052,-1.794 m -3.744,4 c 0.718,0.461 1.667,0.743 2.641,1.051 1.077,0.333 2.154,0.718 3.205,1.179 l 0.026,0.616 c 0.051,0.948 -0.154,1.692 -0.513,2.205 -0.487,0.692 -1.308,1.025 -2.077,1.025 -0.872,0 -1.744,-0.359 -2.846,-1.025 -0.257,0.179 -0.462,0.461 -0.539,0.666 1.488,1.385 3.18,2.026 4.667,2.026 1.282,0 2.487,-0.487 3.282,-1.436 0.667,-0.795 1.051,-1.948 1,-3.41 -0.051,-1.564 -0.102,-3.051 -0.102,-4.615 0,-1.026 0.025,-2.462 0.128,-3.641 -0.18,-0.103 -0.539,-0.206 -0.795,-0.206 -0.77,0.513 -1.308,1.026 -1.898,1.718 -1.153,-1.23 -2.692,-1.897 -4.128,-1.897 -1.948,0 -3.564,1 -3.564,3.026 0,1.077 0.59,2.128 1.513,2.718 M -81.231,0 c 0.231,0.128 0.564,0.205 0.821,0.231 0.615,-0.718 1.077,-1.257 1.871,-1.923 1.283,1.231 2.744,2 4.462,2 1.615,0 3.051,-0.539 3.872,-1.821 0.487,-0.795 0.615,-2.179 0.615,-3.384 0,-1.898 -0.051,-3.154 -0.051,-4.103 0,-1.154 -0.026,-2.154 0.077,-3.82 -0.487,-0.052 -1,-0.052 -1.487,-0.052 -0.488,0 -0.949,0 -1.488,0.052 -0.102,1.538 -0.102,2.897 -0.076,4.205 0,0.641 0.025,0.923 0.051,3.564 0,1.077 -0.154,2.025 -0.41,2.487 -0.488,0.846 -1.308,1.231 -2.257,1.231 -1,0 -2.102,-0.411 -3.025,-1.18 V -12.82 c -0.513,-0.052 -1.052,-0.052 -1.565,-0.052 -0.512,0 -0.999,0 -1.41,0.052 z"
             style="fill:#231f20;fill-opacity:1;fill-rule:nonzero;stroke:none"
             id="path478" /></g><g
           id="g480"
           transform="translate(1355.7509,47.1172)"><path
             d="m 0,0 c -0.48,-0.47 -1.225,-0.696 -1.97,-0.696 -0.842,0 -1.519,0.235 -1.989,0.667 C -4.4,0.382 -4.704,0.98 -4.704,1.637 h 0.912 c 0,-0.412 0.205,-0.824 0.49,-1.098 0.313,-0.304 0.842,-0.431 1.332,-0.431 0.53,0 0.98,0.107 1.294,0.402 0.216,0.195 0.353,0.44 0.353,0.813 0,0.539 -0.343,0.99 -1.167,1.117 l -1.097,0.167 c -1.039,0.156 -1.852,0.735 -1.852,1.842 0,0.519 0.235,1.019 0.607,1.372 0.481,0.451 1.098,0.686 1.823,0.686 0.676,0 1.343,-0.226 1.803,-0.667 C 0.216,5.439 0.441,4.939 0.461,4.351 H -0.451 C -0.47,4.694 -0.598,4.998 -0.794,5.223 -1.058,5.527 -1.48,5.703 -2.019,5.703 -2.518,5.703 -2.95,5.566 -3.253,5.223 -3.43,5.017 -3.537,4.782 -3.537,4.468 -3.537,3.841 -3.018,3.557 -2.499,3.489 -2.107,3.44 -1.725,3.371 -1.342,3.312 -0.186,3.146 0.588,2.44 0.588,1.342 0.588,0.764 0.343,0.333 0,0"
             style="fill:#231f20;fill-opacity:1;fill-rule:nonzero;stroke:none"
             id="path482" /></g><g
           id="g484"
           transform="translate(1360.9689,49.371)"><path
             d="M 0,0 V -2.822 H -0.882 V 0 l -2.332,4.126 h 0.98 l 1.822,-3.303 1.813,3.303 h 0.931 z"
             style="fill:#00adef;fill-opacity:1;fill-rule:nonzero;stroke:none"
             id="path486" /></g><g
           id="g488"
           transform="translate(1369.2753,47.1172)"><path
             d="m 0,0 c -0.48,-0.47 -1.225,-0.696 -1.97,-0.696 -0.842,0 -1.519,0.235 -1.989,0.667 C -4.4,0.382 -4.704,0.98 -4.704,1.637 h 0.912 c 0,-0.412 0.205,-0.824 0.49,-1.098 0.313,-0.304 0.842,-0.431 1.332,-0.431 0.53,0 0.98,0.107 1.294,0.402 0.216,0.195 0.353,0.44 0.353,0.813 0,0.539 -0.343,0.99 -1.167,1.117 l -1.097,0.167 c -1.039,0.156 -1.852,0.735 -1.852,1.842 0,0.519 0.235,1.019 0.607,1.372 0.481,0.451 1.098,0.686 1.823,0.686 0.676,0 1.343,-0.226 1.803,-0.667 C 0.216,5.439 0.441,4.939 0.461,4.351 H -0.451 C -0.47,4.694 -0.598,4.998 -0.794,5.223 -1.058,5.527 -1.48,5.703 -2.019,5.703 -2.518,5.703 -2.95,5.566 -3.253,5.223 -3.43,5.017 -3.537,4.782 -3.537,4.468 -3.537,3.841 -3.018,3.557 -2.499,3.489 -2.107,3.44 -1.725,3.371 -1.342,3.312 -0.186,3.146 0.588,2.44 0.588,1.342 0.588,0.764 0.343,0.333 0,0"
             style="fill:#231f20;fill-opacity:1;fill-rule:nonzero;stroke:none"
             id="path490" /></g><g
           id="g492"
           transform="translate(1374.3048,52.6832)"><path
             d="M 0,0 V -6.134 H -0.882 V 0 H -2.95 V 0.813 H 2.068 L 2.068,0 Z"
             style="fill:#231f20;fill-opacity:1;fill-rule:nonzero;stroke:none"
             id="path494" /></g><g
           id="g496"
           transform="translate(1378.0667,46.5487)"><path
             d="M 0,0 V 6.948 H 4.645 V 6.144 H 0.872 V 4.028 H 4.184 V 3.204 H 0.872 v -2.4 H 4.645 V 0 Z"
             style="fill:#231f20;fill-opacity:1;fill-rule:nonzero;stroke:none"
             id="path498" /></g><g
           id="g500"
           transform="translate(1390.7595,46.5487)"><path
             d="M 0,0 V 5.86 L -2.156,0.098 H -2.842 L -4.998,5.909 V 0 h -0.833 v 6.948 h 1.255 l 2.097,-5.654 2.087,5.654 H 0.833 L 0.833,0 Z"
             style="fill:#231f20;fill-opacity:1;fill-rule:nonzero;stroke:none"
             id="path502" /></g><path
           d="m 1394.09,53.497 h 0.892 v -6.948 h -0.892 z"
           style="fill:#231f20;fill-opacity:1;fill-rule:nonzero;stroke:none"
           id="path504" /><g
           id="g506"
           transform="translate(1401.5494,47.1564)"><path
             d="m 0,0 c -0.421,-0.421 -1.107,-0.745 -1.862,-0.745 -0.696,0 -1.382,0.255 -1.881,0.745 -0.755,0.735 -0.873,1.754 -0.873,2.861 0,1.108 0.118,2.127 0.873,2.862 0.499,0.49 1.185,0.745 1.881,0.745 0.755,0 1.431,-0.294 1.852,-0.716 C 0.392,5.341 0.647,4.811 0.676,4.165 h -0.901 c -0.01,0.382 -0.157,0.715 -0.383,0.97 -0.274,0.304 -0.725,0.51 -1.254,0.51 -0.47,0 -0.931,-0.187 -1.264,-0.53 -0.568,-0.588 -0.588,-1.528 -0.588,-2.254 0,-0.725 0.02,-1.666 0.588,-2.254 0.333,-0.342 0.794,-0.529 1.264,-0.529 0.529,0 0.99,0.226 1.264,0.529 0.226,0.255 0.373,0.618 0.382,1 H 0.686 C 0.657,0.96 0.402,0.412 0,0"
             style="fill:#231f20;fill-opacity:1;fill-rule:nonzero;stroke:none"
             id="path508" /></g><g
           id="g510"
           transform="translate(1354.7808,42.9566)"><path
             d="m 0,0 c -0.323,0.323 -0.784,0.48 -1.235,0.48 h -1.548 v -5.34 h 1.548 c 0.451,0 0.912,0.156 1.235,0.48 0.549,0.558 0.598,1.45 0.598,2.195 C 0.598,-1.44 0.549,-0.568 0,0 m 0.588,-4.968 c -0.49,-0.471 -1.147,-0.696 -1.823,-0.696 h -2.42 v 6.948 h 2.42 c 0.676,0 1.333,-0.235 1.823,-0.706 0.764,-0.725 0.892,-1.764 0.892,-2.763 0,-1 -0.138,-2.058 -0.892,-2.783"
             style="fill:#231f20;fill-opacity:1;fill-rule:nonzero;stroke:none"
             id="path512" /></g><g
           id="g514"
           transform="translate(1358.2053,37.2925)"><path
             d="M 0,0 V 6.948 H 4.645 V 6.144 H 0.872 V 4.028 H 4.184 V 3.204 H 0.872 v -2.4 H 4.645 V 0 Z"
             style="fill:#00adef;fill-opacity:1;fill-rule:nonzero;stroke:none"
             id="path516" /></g><g
           id="g518"
           transform="translate(1369.2753,37.8609)"><path
             d="m 0,0 c -0.48,-0.47 -1.225,-0.696 -1.97,-0.696 -0.842,0 -1.519,0.235 -1.989,0.667 C -4.4,0.382 -4.704,0.98 -4.704,1.637 h 0.912 c 0,-0.412 0.205,-0.824 0.49,-1.098 0.313,-0.304 0.842,-0.431 1.332,-0.431 0.53,0 0.98,0.107 1.294,0.402 0.216,0.195 0.353,0.44 0.353,0.813 0,0.539 -0.343,0.99 -1.167,1.117 l -1.097,0.167 c -1.039,0.156 -1.852,0.735 -1.852,1.842 0,0.519 0.235,1.019 0.607,1.372 0.481,0.451 1.098,0.686 1.823,0.686 0.676,0 1.343,-0.226 1.803,-0.667 C 0.216,5.439 0.441,4.939 0.461,4.351 H -0.451 C -0.47,4.694 -0.598,4.998 -0.794,5.223 -1.058,5.527 -1.48,5.703 -2.019,5.703 -2.518,5.703 -2.95,5.566 -3.253,5.223 -3.43,5.017 -3.537,4.782 -3.537,4.468 -3.537,3.841 -3.018,3.557 -2.499,3.489 -2.107,3.44 -1.725,3.371 -1.342,3.312 -0.186,3.146 0.588,2.44 0.588,1.342 0.588,0.764 0.343,0.333 0,0"
             style="fill:#231f20;fill-opacity:1;fill-rule:nonzero;stroke:none"
             id="path520" /></g><path
           d="m 1373.418,44.24 h 0.892 v -6.948 h -0.892 z"
           style="fill:#231f20;fill-opacity:1;fill-rule:nonzero;stroke:none"
           id="path522" /><g
           id="g524"
           transform="translate(1382.4911,37.2925)"><path
             d="m 0,0 -0.147,0.833 c -0.343,-0.568 -1.107,-0.97 -1.891,-0.97 -0.696,0 -1.372,0.225 -1.872,0.715 -0.706,0.686 -0.902,1.646 -0.902,2.891 0,1.107 0.147,2.126 0.902,2.861 0.5,0.49 1.176,0.745 1.872,0.745 0.784,0 1.509,-0.274 1.989,-0.784 C 0.284,5.939 0.519,5.497 0.549,4.939 H -0.363 C -0.392,5.262 -0.5,5.488 -0.676,5.703 -0.99,6.076 -1.47,6.252 -2.038,6.252 -2.509,6.252 -2.969,6.066 -3.302,5.723 -3.871,5.135 -3.91,4.194 -3.91,3.469 c 0,-0.696 0.049,-1.695 0.627,-2.283 0.333,-0.343 0.774,-0.5 1.245,-0.5 0.49,0 0.95,0.167 1.264,0.48 0.46,0.451 0.598,1.127 0.598,1.764 H -2.038 V 3.743 H 0.608 L 0.608,0 Z"
             style="fill:#231f20;fill-opacity:1;fill-rule:nonzero;stroke:none"
             id="path526" /></g><g
           id="g528"
           transform="translate(1389.1818,37.2925)"><path
             d="M 0,0 -3.41,5.586 V 0 h -0.843 v 6.948 h 0.98 L 0.137,1.342 V 6.948 H 0.98 V 0 Z"
             style="fill:#231f20;fill-opacity:1;fill-rule:nonzero;stroke:none"
             id="path530" /></g><g
           id="g532"
           transform="translate(1353.6683,34.112)"><path
             d="m 0,0 -1.225,-3.606 h 2.46 z M 2.087,-6.076 1.519,-4.429 H -1.499 L -2.058,-6.076 H -2.94 l 2.45,6.948 h 1.019 l 2.46,-6.948 z"
             style="fill:#231f20;fill-opacity:1;fill-rule:nonzero;stroke:none"
             id="path534" /></g><g
           id="g536"
           transform="translate(1362.5858,28.6047)"><path
             d="m 0,0 c -0.48,-0.47 -1.225,-0.696 -1.97,-0.696 -0.843,0 -1.519,0.235 -1.989,0.667 C -4.4,0.382 -4.704,0.98 -4.704,1.637 h 0.912 c 0,-0.412 0.205,-0.824 0.49,-1.098 0.313,-0.304 0.842,-0.431 1.332,-0.431 0.529,0 0.98,0.107 1.294,0.402 0.215,0.195 0.353,0.44 0.353,0.813 0,0.539 -0.343,0.99 -1.167,1.117 l -1.097,0.167 c -1.039,0.156 -1.852,0.735 -1.852,1.842 0,0.519 0.235,1.019 0.607,1.372 0.481,0.451 1.098,0.686 1.823,0.686 0.676,0 1.343,-0.226 1.803,-0.667 C 0.216,5.439 0.441,4.939 0.461,4.351 h -0.912 c -0.019,0.343 -0.147,0.647 -0.343,0.872 -0.264,0.304 -0.686,0.48 -1.225,0.48 -0.499,0 -0.931,-0.137 -1.234,-0.48 -0.177,-0.206 -0.285,-0.441 -0.285,-0.755 0,-0.627 0.52,-0.911 1.039,-0.979 C -2.107,3.44 -1.725,3.371 -1.343,3.312 -0.186,3.146 0.588,2.44 0.588,1.342 0.588,0.764 0.343,0.333 0,0"
             style="fill:#00adef;fill-opacity:1;fill-rule:nonzero;stroke:none"
             id="path538" /></g><g
           id="g540"
           transform="translate(1369.2753,28.6047)"><path
             d="m 0,0 c -0.48,-0.47 -1.225,-0.696 -1.97,-0.696 -0.842,0 -1.519,0.235 -1.989,0.667 C -4.4,0.382 -4.704,0.98 -4.704,1.637 h 0.912 c 0,-0.412 0.205,-0.824 0.49,-1.098 0.313,-0.304 0.842,-0.431 1.332,-0.431 0.53,0 0.98,0.107 1.294,0.402 0.216,0.195 0.353,0.44 0.353,0.813 0,0.539 -0.343,0.99 -1.167,1.117 l -1.097,0.167 c -1.039,0.156 -1.852,0.735 -1.852,1.842 0,0.519 0.235,1.019 0.607,1.372 0.481,0.451 1.098,0.686 1.823,0.686 0.676,0 1.343,-0.226 1.803,-0.667 C 0.216,5.439 0.441,4.939 0.461,4.351 H -0.451 C -0.47,4.694 -0.598,4.998 -0.794,5.223 -1.058,5.527 -1.48,5.703 -2.019,5.703 -2.518,5.703 -2.95,5.566 -3.253,5.223 -3.43,5.017 -3.537,4.782 -3.537,4.468 -3.537,3.841 -3.018,3.557 -2.499,3.489 -2.107,3.44 -1.725,3.371 -1.342,3.312 -0.186,3.146 0.588,2.44 0.588,1.342 0.588,0.764 0.343,0.333 0,0"
             style="fill:#231f20;fill-opacity:1;fill-rule:nonzero;stroke:none"
             id="path542" /></g><g
           id="g544"
           transform="translate(1375.1279,33.7592)"><path
             d="m 0,0 c -0.333,0.343 -0.794,0.519 -1.264,0.519 -0.471,0 -0.931,-0.176 -1.264,-0.519 -0.569,-0.588 -0.598,-1.529 -0.598,-2.254 0,-0.725 0.029,-1.666 0.598,-2.254 0.333,-0.343 0.793,-0.519 1.264,-0.519 0.47,0 0.931,0.176 1.264,0.519 0.568,0.588 0.598,1.529 0.598,2.254 C 0.598,-1.529 0.568,-0.588 0,0 m 0.608,-5.115 c -0.5,-0.49 -1.176,-0.745 -1.872,-0.745 -0.696,0 -1.372,0.255 -1.872,0.745 -0.755,0.735 -0.892,1.754 -0.892,2.861 0,1.107 0.137,2.127 0.892,2.861 0.5,0.49 1.176,0.745 1.872,0.745 0.696,0 1.372,-0.255 1.872,-0.745 0.754,-0.734 0.891,-1.754 0.891,-2.861 0,-1.107 -0.137,-2.126 -0.891,-2.861"
             style="fill:#231f20;fill-opacity:1;fill-rule:nonzero;stroke:none"
             id="path546" /></g><g
           id="g548"
           transform="translate(1382.354,28.6439)"><path
             d="m 0,0 c -0.421,-0.421 -1.108,-0.745 -1.862,-0.745 -0.696,0 -1.382,0.255 -1.882,0.745 -0.754,0.735 -0.872,1.754 -0.872,2.861 0,1.108 0.118,2.127 0.872,2.862 0.5,0.49 1.186,0.745 1.882,0.745 0.754,0 1.431,-0.294 1.852,-0.716 C 0.392,5.341 0.647,4.811 0.676,4.165 h -0.901 c -0.01,0.382 -0.157,0.715 -0.383,0.97 -0.274,0.304 -0.725,0.51 -1.254,0.51 -0.47,0 -0.931,-0.187 -1.264,-0.53 -0.568,-0.588 -0.588,-1.528 -0.588,-2.254 0,-0.725 0.02,-1.666 0.588,-2.254 0.333,-0.342 0.794,-0.529 1.264,-0.529 0.529,0 0.99,0.226 1.264,0.529 0.225,0.255 0.373,0.618 0.382,1 H 0.686 C 0.656,0.96 0.402,0.412 0,0"
             style="fill:#231f20;fill-opacity:1;fill-rule:nonzero;stroke:none"
             id="path550" /></g><path
           d="m 1384.929,34.984 h 0.892 v -6.948 h -0.892 z"
           style="fill:#231f20;fill-opacity:1;fill-rule:nonzero;stroke:none"
           id="path552" /><g
           id="g554"
           transform="translate(1390.4785,34.112)"><path
             d="m 0,0 -1.225,-3.606 h 2.46 z M 2.087,-6.076 1.519,-4.429 H -1.499 L -2.058,-6.076 H -2.94 l 2.45,6.948 h 1.019 l 2.46,-6.948 z"
             style="fill:#231f20;fill-opacity:1;fill-rule:nonzero;stroke:none"
             id="path556" /></g><g
           id="g558"
           transform="translate(1396.2391,34.1708)"><path
             d="M 0,0 V -6.134 H -0.882 V 0 H -2.95 V 0.813 H 2.068 L 2.068,0 Z"
             style="fill:#231f20;fill-opacity:1;fill-rule:nonzero;stroke:none"
             id="path560" /></g><path
           d="m 1399.949,34.984 h 0.892 v -6.948 h -0.892 z"
           style="fill:#231f20;fill-opacity:1;fill-rule:nonzero;stroke:none"
           id="path562" /><g
           id="g564"
           transform="translate(1406.6237,33.7592)"><path
             d="m 0,0 c -0.333,0.343 -0.794,0.519 -1.264,0.519 -0.471,0 -0.931,-0.176 -1.264,-0.519 -0.569,-0.588 -0.598,-1.529 -0.598,-2.254 0,-0.725 0.029,-1.666 0.598,-2.254 0.333,-0.343 0.793,-0.519 1.264,-0.519 0.47,0 0.931,0.176 1.264,0.519 0.568,0.588 0.598,1.529 0.598,2.254 C 0.598,-1.529 0.568,-0.588 0,0 m 0.608,-5.115 c -0.5,-0.49 -1.176,-0.745 -1.872,-0.745 -0.696,0 -1.372,0.255 -1.872,0.745 -0.754,0.735 -0.892,1.754 -0.892,2.861 0,1.107 0.138,2.127 0.892,2.861 0.5,0.49 1.176,0.745 1.872,0.745 0.696,0 1.372,-0.255 1.872,-0.745 0.754,-0.734 0.891,-1.754 0.891,-2.861 0,-1.107 -0.137,-2.126 -0.891,-2.861"
             style="fill:#231f20;fill-opacity:1;fill-rule:nonzero;stroke:none"
             id="path566" /></g><g
           id="g568"
           transform="translate(1414.0798,28.0363)"><path
             d="M 0,0 -3.41,5.586 V 0 h -0.843 v 6.948 h 0.98 L 0.137,1.342 V 6.948 H 0.98 V 0 Z"
             style="fill:#231f20;fill-opacity:1;fill-rule:nonzero;stroke:none"
             id="path570" /></g></g></g></g></svg>
