<?xml version="1.0" encoding="UTF-8" standalone="no"?>
<svg
   xmlns:dc="http://purl.org/dc/elements/1.1/"
   xmlns:cc="http://creativecommons.org/ns#"
   xmlns:rdf="http://www.w3.org/1999/02/22-rdf-syntax-ns#"
   xmlns:svg="http://www.w3.org/2000/svg"
   xmlns="http://www.w3.org/2000/svg"
   viewBox="0 0 3178.5867 4493.8535"
   height="4493.8535"
   width="3178.5867"
   xml:space="preserve"
   id="svg2"
   version="1.1"><metadata
     id="metadata8"><rdf:RDF><cc:Work
         rdf:about=""><dc:format>image/svg+xml</dc:format><dc:type
           rdf:resource="http://purl.org/dc/dcmitype/StillImage" /></cc:Work></rdf:RDF></metadata><defs
     id="defs6"><clipPath
       id="clipPath30"
       clipPathUnits="userSpaceOnUse"><path
         id="path28"
         d="M 0,3370.39 H 2383.94 V 0 H 0 Z" /></clipPath><clipPath
       id="clipPath38"
       clipPathUnits="userSpaceOnUse"><path
         id="path36"
         d="M 481.892,3177.46 H 1160.4 v -107.3 H 481.892 Z" /></clipPath><clipPath
       id="clipPath54"
       clipPathUnits="userSpaceOnUse"><path
         id="path52"
         d="M 0,3370.39 H 2383.94 V 0 H 0 Z" /></clipPath><clipPath
       id="clipPath62"
       clipPathUnits="userSpaceOnUse"><path
         id="path60"
         d="M 483.892,3070.16 H 1085.73 V 2962.87 H 483.892 Z" /></clipPath><clipPath
       id="clipPath82"
       clipPathUnits="userSpaceOnUse"><path
         id="path80"
         d="M 0,3370.39 H 2383.94 V 0 H 0 Z" /></clipPath><clipPath
       id="clipPath186"
       clipPathUnits="userSpaceOnUse"><path
         id="path184"
         d="M 0,3370.39 H 2383.94 V 0 H 0 Z" /></clipPath><clipPath
       id="clipPath438"
       clipPathUnits="userSpaceOnUse"><path
         id="path436"
         d="M 0,3370.39 H 2383.94 V 0 H 0 Z" /></clipPath><clipPath
       id="clipPath534"
       clipPathUnits="userSpaceOnUse"><path
         id="path532"
         d="M 0,3370.39 H 2383.94 V 0 H 0 Z" /></clipPath><clipPath
       id="clipPath560"
       clipPathUnits="userSpaceOnUse"><path
         id="path558"
         d="M 0,3370.39 H 2383.94 V 0 H 0 Z" /></clipPath><clipPath
       id="clipPath576"
       clipPathUnits="userSpaceOnUse"><path
         id="path574"
         d="m 2185.66,100.347 h 40.63 V 59.719 h -40.63 z" /></clipPath><clipPath
       id="clipPath580"
       clipPathUnits="userSpaceOnUse"><path
         id="path578"
         d="m 2185.663,59.719 h 40.63 v 40.628 h -40.63 z" /></clipPath></defs><g
     transform="matrix(1.3333333,0,0,-1.3333333,0,4493.8533)"
     id="g10"><text
       id="text14"
       style="font-variant:normal;font-weight:normal;font-stretch:normal;font-size:31px;font-family:'Akkurat Pro';-inkscape-font-specification:AkkuratPro-Regular;writing-mode:lr-tb;fill:#231f20;fill-opacity:1;fill-rule:nonzero;stroke:none"
       transform="matrix(0,1,1,0,1171.001,411.3252)"><tspan
         id="tspan12"
         y="0"
         x="0 19.437 36.735001 60.512001 77.593002">Power</tspan></text>
<g
       transform="translate(1189.9688,2547.7896)"
       id="g16"><path
         id="path18"
         style="fill:none;stroke:#15141b;stroke-width:5.52899981;stroke-linecap:butt;stroke-linejoin:miter;stroke-miterlimit:10;stroke-dasharray:none;stroke-opacity:1"
         d="M 0,0 V -2171.372" /></g><g
       transform="translate(1160.0537,2539.7236)"
       id="g20"><path
         id="path22"
         style="fill:#15141b;fill-opacity:1;fill-rule:nonzero;stroke:none"
         d="M 0,0 29.912,47.737 59.83,0 Z" /></g><g
       id="g24"><g
         clip-path="url(#clipPath30)"
         id="g26"><g
           id="g32"><g
             id="g34" /><g
             id="g42"><g
               style="opacity:0.5"
               id="g40"
               clip-path="url(#clipPath38)" /></g></g></g></g><text
       id="text46"
       style="font-variant:normal;font-weight:bold;font-stretch:normal;font-size:92.20210266px;font-family:'Akkurat Pro';-inkscape-font-specification:AkkuratPro-Bold;writing-mode:lr-tb;fill:#231f20;fill-opacity:1;fill-rule:nonzero;stroke:none"
       transform="matrix(1,0,0,-1,501.5835,3140.9316)"><tspan
         id="tspan44"
         y="0"
         x="0 63.527248 126.04027 182.37575 248.85347 314.13257 377.01437 400.80252 486.36609 549.89331">ACTORS MAP</tspan></text>
<g
       id="g48"><g
         clip-path="url(#clipPath54)"
         id="g50"><g
           id="g56"><g
             id="g58" /><g
             id="g66"><g
               style="opacity:0.5"
               id="g64"
               clip-path="url(#clipPath62)" /></g></g></g></g><text
       id="text70"
       style="font-variant:normal;font-weight:300;font-stretch:normal;font-size:63.08570099px;font-family:'Akkurat Light Pro';-inkscape-font-specification:AkkuratLightPro-Regular;writing-mode:lr-tb;fill:#231f20;fill-opacity:1;fill-rule:nonzero;stroke:none"
       transform="matrix(1,0,0,-1,503.3945,3049.9277)"><tspan
         id="tspan68"
         y="0"
         x="0 36.715878 60.75153 96.142609 151.34259 167.74487 204.52383 238.14851 251.71194 275.05365 311.83261 345.83582 359.39923 398.63855 428.8566 461.15646 484.49817 518.50134">Framing the System</tspan></text>
<g
       transform="translate(1184.9012,2536.7805)"
       id="g72"><path
         id="path74"
         style="fill:#00adef;fill-opacity:1;fill-rule:nonzero;stroke:none"
         d="M 0,0 H 0.007 0.014 L 0.007,0.012 Z" /></g><g
       id="g76"><g
         clip-path="url(#clipPath82)"
         id="g78"><g
           transform="translate(1971.7075,2265.7712)"
           id="g84"><path
             id="path86"
             style="fill:none;stroke:#15141b;stroke-width:6;stroke-linecap:butt;stroke-linejoin:miter;stroke-miterlimit:10;stroke-dasharray:none;stroke-opacity:1"
             d="m 0,0 c 431.784,-420.684 431.785,-1120.457 0,-1563.478 -426.162,-437.252 -1131.735,-431.742 -1563.478,0 -431.743,431.742 -431.743,1131.735 0,1563.478 C -1131.735,431.743 -437.327,426.085 0,0 Z" /></g><g
           transform="translate(598.2549,2075.7458)"
           id="g88"><path
             id="path90"
             style="fill:none;stroke:#15141b;stroke-width:6;stroke-linecap:butt;stroke-linejoin:miter;stroke-miterlimit:10;stroke-dasharray:none;stroke-opacity:1"
             d="m 0,0 c 326.794,326.794 856.633,326.794 1183.427,0 326.794,-326.794 326.794,-856.632 0,-1183.427 C 856.633,-1510.221 326.794,-1510.221 0,-1183.427 -326.794,-856.632 -326.794,-326.794 0,0 Z" /></g><g
           transform="translate(788.2808,1885.72)"
           id="g92"><path
             id="path94"
             style="fill:none;stroke:#15141b;stroke-width:6;stroke-linecap:butt;stroke-linejoin:miter;stroke-miterlimit:10;stroke-dasharray:none;stroke-opacity:1"
             d="m 0,0 c 221.846,221.846 581.529,221.846 803.375,0 221.847,-221.846 221.847,-581.529 0,-803.376 C 581.529,-1025.222 221.846,-1025.222 0,-803.376 -221.846,-581.529 -221.846,-221.846 0,0 Z" /></g><g
           transform="translate(978.3062,1695.6946)"
           id="g96"><path
             id="path98"
             style="fill:none;stroke:#15141b;stroke-width:6;stroke-linecap:butt;stroke-linejoin:miter;stroke-miterlimit:10;stroke-dasharray:none;stroke-opacity:1"
             d="m 0,0 c 116.898,116.897 306.427,116.897 423.325,0 116.897,-116.898 116.897,-306.427 0,-423.324 C 306.427,-540.223 116.898,-540.223 0,-423.324 -116.897,-306.427 -116.897,-116.898 0,0 Z" /></g><g
           transform="translate(1949.1304,2243.1941)"
           id="g100"><path
             id="path102"
             style="fill:#ffffff;fill-opacity:1;fill-rule:nonzero;stroke:none"
             d="m 0,0 c 50.692,-50.692 95.237,-105.202 133.671,-162.59 l 53.105,35.484 C 146.056,-66.305 98.862,-8.553 45.154,45.154 -8.553,98.862 -66.305,146.056 -127.106,186.776 L -162.59,133.671 C -105.202,95.237 -50.692,50.692 0,0" /></g><g
           transform="translate(1949.1304,2243.1941)"
           id="g104"><path
             id="path106"
             style="fill:none;stroke:#15141b;stroke-width:6;stroke-linecap:butt;stroke-linejoin:miter;stroke-miterlimit:10;stroke-dasharray:none;stroke-opacity:1"
             d="m 0,0 c 50.692,-50.692 95.237,-105.202 133.671,-162.59 l 53.105,35.484 C 146.056,-66.305 98.862,-8.553 45.154,45.154 -8.553,98.862 -66.305,146.056 -127.106,186.776 L -162.59,133.671 C -105.202,95.237 -50.692,50.692 0,0 Z" /></g><g
           transform="translate(430.8066,724.8704)"
           id="g108"><path
             id="path110"
             style="fill:#ffffff;fill-opacity:1;fill-rule:nonzero;stroke:none"
             d="m 0,0 c -50.692,50.692 -95.236,105.202 -133.671,162.59 l -53.105,-35.484 C -146.056,66.305 -98.862,8.553 -45.154,-45.154 8.553,-98.862 66.305,-146.056 127.106,-186.776 l 35.484,53.105 C 105.202,-95.236 50.693,-50.692 0,0" /></g><g
           transform="translate(430.8066,724.8704)"
           id="g112"><path
             id="path114"
             style="fill:none;stroke:#15141b;stroke-width:6;stroke-linecap:butt;stroke-linejoin:miter;stroke-miterlimit:10;stroke-dasharray:none;stroke-opacity:1"
             d="m 0,0 c -50.692,50.692 -95.236,105.202 -133.671,162.59 l -53.105,-35.484 C -146.056,66.305 -98.862,8.553 -45.154,-45.154 8.553,-98.862 66.305,-146.056 127.106,-186.776 l 35.484,53.105 C 105.202,-95.236 50.693,-50.692 0,0 Z" /></g><g
           transform="translate(617.0693,911.1331)"
           id="g116"><path
             id="path118"
             style="fill:#ffffff;fill-opacity:1;fill-rule:nonzero;stroke:none"
             d="m 0,0 c -38.255,38.255 -71.87,79.391 -100.875,122.698 l -44.254,-29.57 c 30.909,-46.151 66.733,-89.989 107.5,-130.757 40.768,-40.767 84.605,-76.591 130.757,-107.5 l 29.57,44.254 C 79.391,-71.87 38.255,-38.255 0,0" /></g><g
           transform="translate(617.0693,911.1331)"
           id="g120"><path
             id="path122"
             style="fill:none;stroke:#15141b;stroke-width:6;stroke-linecap:butt;stroke-linejoin:miter;stroke-miterlimit:10;stroke-dasharray:none;stroke-opacity:1"
             d="m 0,0 c -38.255,38.255 -71.87,79.391 -100.875,122.698 l -44.254,-29.57 c 30.909,-46.151 66.733,-89.989 107.5,-130.757 40.768,-40.767 84.605,-76.591 130.757,-107.5 l 29.57,44.254 C 79.391,-71.87 38.255,-38.255 0,0 Z" /></g><g
           transform="translate(1762.8677,2056.9314)"
           id="g124"><path
             id="path126"
             style="fill:#ffffff;fill-opacity:1;fill-rule:nonzero;stroke:none"
             d="m 0,0 c 38.255,-38.255 71.87,-79.391 100.875,-122.698 l 44.254,29.57 c -30.909,46.152 -66.733,89.989 -107.5,130.757 -40.768,40.767 -84.605,76.59 -130.757,107.5 l -29.57,-44.254 C -79.39,71.87 -38.255,38.255 0,0" /></g><g
           transform="translate(1762.8677,2056.9314)"
           id="g128"><path
             id="path130"
             style="fill:none;stroke:#15141b;stroke-width:6;stroke-linecap:butt;stroke-linejoin:miter;stroke-miterlimit:10;stroke-dasharray:none;stroke-opacity:1"
             d="m 0,0 c 38.255,-38.255 71.87,-79.391 100.875,-122.698 l 44.254,29.57 c -30.909,46.152 -66.733,89.989 -107.5,130.757 -40.768,40.767 -84.605,76.59 -130.757,107.5 l -29.57,-44.254 C -79.39,71.87 -38.255,38.255 0,0 Z" /></g><g
           transform="translate(1576.605,1870.6687)"
           id="g132"><path
             id="path134"
             style="fill:#ffffff;fill-opacity:1;fill-rule:nonzero;stroke:none"
             d="m 0,0 c 25.817,-25.817 48.503,-53.579 68.078,-82.806 l 35.403,23.656 C 82.383,-27.647 57.931,2.275 30.103,30.103 2.275,57.93 -27.647,82.383 -59.15,103.481 L -82.806,68.078 C -53.579,48.503 -25.817,25.817 0,0" /></g><g
           transform="translate(1576.605,1870.6687)"
           id="g136"><path
             id="path138"
             style="fill:none;stroke:#15141b;stroke-width:6;stroke-linecap:butt;stroke-linejoin:miter;stroke-miterlimit:10;stroke-dasharray:none;stroke-opacity:1"
             d="m 0,0 c 25.817,-25.817 48.503,-53.579 68.078,-82.806 l 35.403,23.656 C 82.383,-27.647 57.931,2.275 30.103,30.103 2.275,57.93 -27.647,82.383 -59.15,103.481 L -82.806,68.078 C -53.579,48.503 -25.817,25.817 0,0 Z" /></g><g
           transform="translate(803.332,1097.3958)"
           id="g140"><path
             id="path142"
             style="fill:#ffffff;fill-opacity:1;fill-rule:nonzero;stroke:none"
             d="M 0,0 C -25.817,25.817 -48.503,53.579 -68.078,82.807 L -103.481,59.15 c 21.098,-31.503 45.551,-61.425 73.378,-89.253 27.828,-27.828 57.75,-52.28 89.253,-73.378 l 23.656,35.403 C 53.579,-48.503 25.817,-25.817 0,0" /></g><g
           transform="translate(803.332,1097.3958)"
           id="g144"><path
             id="path146"
             style="fill:none;stroke:#15141b;stroke-width:6;stroke-linecap:butt;stroke-linejoin:miter;stroke-miterlimit:10;stroke-dasharray:none;stroke-opacity:1"
             d="M 0,0 C -25.817,25.817 -48.503,53.579 -68.078,82.807 L -103.481,59.15 c 21.098,-31.503 45.551,-61.425 73.378,-89.253 27.828,-27.828 57.75,-52.28 89.253,-73.378 l 23.656,35.403 C 53.579,-48.503 25.817,-25.817 0,0 Z" /></g><g
           transform="translate(989.5947,1283.6584)"
           id="g148"><path
             id="path150"
             style="fill:#ffffff;fill-opacity:1;fill-rule:nonzero;stroke:none"
             d="M 0,0 C -13.38,13.38 -25.126,27.773 -35.271,42.921 L -61.823,25.18 C -50.535,8.325 -37.465,-7.689 -22.577,-22.577 -7.689,-37.465 8.326,-50.535 25.18,-61.822 l 17.741,26.551 C 27.773,-25.127 13.38,-13.38 0,0" /></g><g
           transform="translate(989.5947,1283.6584)"
           id="g152"><path
             id="path154"
             style="fill:none;stroke:#15141b;stroke-width:6;stroke-linecap:butt;stroke-linejoin:miter;stroke-miterlimit:10;stroke-dasharray:none;stroke-opacity:1"
             d="M 0,0 C -13.38,13.38 -25.126,27.773 -35.271,42.921 L -61.823,25.18 C -50.535,8.325 -37.465,-7.689 -22.577,-22.577 -7.689,-37.465 8.326,-50.535 25.18,-61.822 l 17.741,26.551 C 27.773,-25.127 13.38,-13.38 0,0 Z" /></g><g
           transform="translate(1390.3423,1684.406)"
           id="g156"><path
             id="path158"
             style="fill:#ffffff;fill-opacity:1;fill-rule:nonzero;stroke:none"
             d="m 0,0 c 13.38,-13.38 25.127,-27.773 35.271,-42.92 l 26.552,17.741 C 50.535,-8.326 37.465,7.689 22.577,22.577 7.689,37.465 -8.325,50.535 -25.18,61.823 L -42.92,35.271 C -27.773,25.127 -13.38,13.38 0,0" /></g><g
           transform="translate(1390.3423,1684.406)"
           id="g160"><path
             id="path162"
             style="fill:none;stroke:#15141b;stroke-width:6;stroke-linecap:butt;stroke-linejoin:miter;stroke-miterlimit:10;stroke-dasharray:none;stroke-opacity:1"
             d="m 0,0 c 13.38,-13.38 25.127,-27.773 35.271,-42.92 l 26.552,17.741 C 50.535,-8.326 37.465,7.689 22.577,22.577 7.689,37.465 -8.325,50.535 -25.18,61.823 L -42.92,35.271 C -27.773,25.127 -13.38,13.38 0,0 Z" /></g></g></g><text
       id="text166"
       style="font-variant:normal;font-weight:normal;font-stretch:normal;font-size:21.122612px;font-family:'Akkurat Pro';-inkscape-font-specification:AkkuratPro-Regular;writing-mode:lr-tb;fill:#231f20;fill-opacity:1;fill-rule:nonzero;stroke:none"
       transform="matrix(0.75509128,-0.65561968,-0.65561968,-0.75509128,1375.8396,1708.2225)"><tspan
         id="tspan164"
         y="0"
         x="0">U</tspan></text>
<text
       id="text170"
       style="font-variant:normal;font-weight:normal;font-stretch:normal;font-size:21.1225071px;font-family:'Akkurat Pro';-inkscape-font-specification:AkkuratPro-Regular;writing-mode:lr-tb;fill:#231f20;fill-opacity:1;fill-rule:nonzero;stroke:none"
       transform="matrix(0.72260361,-0.69126263,-0.69126263,-0.72260361,1386.457,1698.968)"><tspan
         id="tspan168"
         y="0"
         x="0">S</tspan></text>
<text
       id="text174"
       style="font-variant:normal;font-weight:normal;font-stretch:normal;font-size:21.1225872px;font-family:'Akkurat Pro';-inkscape-font-specification:AkkuratPro-Regular;writing-mode:lr-tb;fill:#231f20;fill-opacity:1;fill-rule:nonzero;stroke:none"
       transform="matrix(0.69009067,-0.72372292,-0.72372292,-0.69009067,1396.0248,1689.7823)"><tspan
         id="tspan172"
         y="0"
         x="0">E</tspan></text>
<text
       id="text178"
       style="font-variant:normal;font-weight:normal;font-stretch:normal;font-size:21.12265587px;font-family:'Akkurat Pro';-inkscape-font-specification:AkkuratPro-Regular;writing-mode:lr-tb;fill:#231f20;fill-opacity:1;fill-rule:nonzero;stroke:none"
       transform="matrix(0.65523959,-0.75542113,-0.75542113,-0.65523959,1404.9639,1680.3624)"><tspan
         id="tspan176"
         y="0"
         x="0">R</tspan></text>
<g
       id="g180"><g
         clip-path="url(#clipPath186)"
         id="g182"><g
           transform="translate(85.4922,1484.0315)"
           id="g188"><path
             id="path190"
             style="fill:none;stroke:#15141b;stroke-width:6;stroke-linecap:butt;stroke-linejoin:miter;stroke-miterlimit:10;stroke-dasharray:none;stroke-opacity:1"
             d="M 0,0 H 2166.999" /></g><g
           transform="translate(2243.7373,1454.1165)"
           id="g192"><path
             id="path194"
             style="fill:#15141b;fill-opacity:1;fill-rule:nonzero;stroke:none"
             d="M 0,0 51.808,29.912 0,59.83 Z" /></g></g></g><text
       id="text198"
       style="font-variant:normal;font-weight:normal;font-stretch:normal;font-size:30.96100044px;font-family:'Akkurat Pro';-inkscape-font-specification:AkkuratPro-Regular;writing-mode:lr-tb;fill:#231f20;fill-opacity:1;fill-rule:nonzero;stroke:none"
       transform="matrix(1,0,0,-1,127.2363,1502.752)"><tspan
         id="tspan196"
         y="0"
         x="0 20.496181 38.608368 55.884605 79.631691 88.641342 105.70085 124.12265 140.84158">Knowledge</tspan></text>
<text
       id="text202"
       style="font-variant:normal;font-weight:normal;font-stretch:normal;font-size:26.0001297px;font-family:'Akkurat Pro';-inkscape-font-specification:AkkuratPro-Regular;writing-mode:lr-tb;fill:#231f20;fill-opacity:1;fill-rule:nonzero;stroke:none"
       transform="matrix(0.80611523,-0.5917586,-0.5917586,-0.80611523,1516.4755,1937.4739)"><tspan
         id="tspan200"
         y="0"
         x="0">O</tspan></text>
<text
       id="text206"
       style="font-variant:normal;font-weight:normal;font-stretch:normal;font-size:26.00011063px;font-family:'Akkurat Pro';-inkscape-font-specification:AkkuratPro-Regular;writing-mode:lr-tb;fill:#231f20;fill-opacity:1;fill-rule:nonzero;stroke:none"
       transform="matrix(0.78704663,-0.61689351,-0.61689351,-0.78704663,1530.403,1927.2505)"><tspan
         id="tspan204"
         y="0"
         x="0">R</tspan></text>
<text
       id="text210"
       style="font-variant:normal;font-weight:normal;font-stretch:normal;font-size:26.00008011px;font-family:'Akkurat Pro';-inkscape-font-specification:AkkuratPro-Regular;writing-mode:lr-tb;fill:#231f20;fill-opacity:1;fill-rule:nonzero;stroke:none"
       transform="matrix(0.76708609,-0.64154417,-0.64154417,-0.76708609,1543.8567,1916.7122)"><tspan
         id="tspan208"
         y="0"
         x="0">G</tspan></text>
<text
       id="text214"
       style="font-variant:normal;font-weight:normal;font-stretch:normal;font-size:26.00017357px;font-family:'Akkurat Pro';-inkscape-font-specification:AkkuratPro-Regular;writing-mode:lr-tb;fill:#231f20;fill-opacity:1;fill-rule:nonzero;stroke:none"
       transform="matrix(0.7470835,-0.6647302,-0.6647302,-0.7470835,1557.3171,1905.4418)"><tspan
         id="tspan212"
         y="0"
         x="0">A</tspan></text>
<text
       id="text218"
       style="font-variant:normal;font-weight:normal;font-stretch:normal;font-size:26.00010872px;font-family:'Akkurat Pro';-inkscape-font-specification:AkkuratPro-Regular;writing-mode:lr-tb;fill:#231f20;fill-opacity:1;fill-rule:nonzero;stroke:none"
       transform="matrix(0.72566236,-0.68805098,-0.68805098,-0.72566236,1569.2754,1894.8359)"><tspan
         id="tspan216"
         y="0"
         x="0">N</tspan></text>
<text
       id="text222"
       style="font-variant:normal;font-weight:normal;font-stretch:normal;font-size:26.00018311px;font-family:'Akkurat Pro';-inkscape-font-specification:AkkuratPro-Regular;writing-mode:lr-tb;fill:#231f20;fill-opacity:1;fill-rule:nonzero;stroke:none"
       transform="matrix(0.71868342,-0.69533743,-0.69533743,-0.71868342,1582.9904,1881.6656)"><tspan
         id="tspan220"
         y="0"
         x="0">I</tspan></text>
<text
       id="text226"
       style="font-variant:normal;font-weight:normal;font-stretch:normal;font-size:26.00012398px;font-family:'Akkurat Pro';-inkscape-font-specification:AkkuratPro-Regular;writing-mode:lr-tb;fill:#231f20;fill-opacity:1;fill-rule:nonzero;stroke:none"
       transform="matrix(0.69365824,-0.72030427,-0.72030427,-0.69365824,1588.3528,1876.4752)"><tspan
         id="tspan224"
         y="0"
         x="0">S</tspan></text>
<text
       id="text230"
       style="font-variant:normal;font-weight:normal;font-stretch:normal;font-size:26.00018692px;font-family:'Akkurat Pro';-inkscape-font-specification:AkkuratPro-Regular;writing-mode:lr-tb;fill:#231f20;fill-opacity:1;fill-rule:nonzero;stroke:none"
       transform="matrix(0.67225287,-0.74032161,-0.74032161,-0.67225287,1599.6997,1864.6919)"><tspan
         id="tspan228"
         y="0"
         x="0">A</tspan></text>
<text
       id="text234"
       style="font-variant:normal;font-weight:normal;font-stretch:normal;font-size:26.00011635px;font-family:'Akkurat Pro';-inkscape-font-specification:AkkuratPro-Regular;writing-mode:lr-tb;fill:#231f20;fill-opacity:1;fill-rule:nonzero;stroke:none"
       transform="matrix(0.65182018,-0.75837356,-0.75837356,-0.65182018,1610.4832,1852.7968)"><tspan
         id="tspan232"
         y="0"
         x="0">T</tspan></text>
<text
       id="text238"
       style="font-variant:normal;font-weight:normal;font-stretch:normal;font-size:26.00010872px;font-family:'Akkurat Pro';-inkscape-font-specification:AkkuratPro-Regular;writing-mode:lr-tb;fill:#231f20;fill-opacity:1;fill-rule:nonzero;stroke:none"
       transform="matrix(0.63690888,-0.77093909,-0.77093909,-0.63690888,1619.5105,1842.2474)"><tspan
         id="tspan236"
         y="0"
         x="0">I</tspan></text>
<text
       id="text242"
       style="font-variant:normal;font-weight:normal;font-stretch:normal;font-size:26.0001545px;font-family:'Akkurat Pro';-inkscape-font-specification:AkkuratPro-Regular;writing-mode:lr-tb;fill:#231f20;fill-opacity:1;fill-rule:nonzero;stroke:none"
       transform="matrix(0.61925788,-0.78518767,-0.78518767,-0.61925788,1624.3052,1836.5334)"><tspan
         id="tspan240"
         y="0"
         x="0">O</tspan></text>
<text
       id="text246"
       style="font-variant:normal;font-weight:normal;font-stretch:normal;font-size:26.00012398px;font-family:'Akkurat Pro';-inkscape-font-specification:AkkuratPro-Regular;writing-mode:lr-tb;fill:#231f20;fill-opacity:1;fill-rule:nonzero;stroke:none"
       transform="matrix(0.59280485,-0.80534614,-0.80534614,-0.59280485,1635.0149,1822.9803)"><tspan
         id="tspan244"
         y="0"
         x="0">N</tspan></text>
<text
       id="text250"
       style="font-variant:normal;font-weight:normal;font-stretch:normal;font-size:26.00008583px;font-family:'Akkurat Pro';-inkscape-font-specification:AkkuratPro-Regular;writing-mode:lr-tb;fill:#231f20;fill-opacity:1;fill-rule:nonzero;stroke:none"
       transform="matrix(0.59461727,-0.80400889,-0.80400889,-0.59461727,722.2427,1145.0114)"><tspan
         id="tspan248"
         y="0"
         x="0">O</tspan></text>
<text
       id="text254"
       style="font-variant:normal;font-weight:normal;font-stretch:normal;font-size:26.00009346px;font-family:'Akkurat Pro';-inkscape-font-specification:AkkuratPro-Regular;writing-mode:lr-tb;fill:#231f20;fill-opacity:1;fill-rule:nonzero;stroke:none"
       transform="matrix(0.61898239,-0.78540487,-0.78540487,-0.61898239,732.5276,1131.104)"><tspan
         id="tspan252"
         y="0"
         x="0">R</tspan></text>
<text
       id="text258"
       style="font-variant:normal;font-weight:normal;font-stretch:normal;font-size:26.00013351px;font-family:'Akkurat Pro';-inkscape-font-specification:AkkuratPro-Regular;writing-mode:lr-tb;fill:#231f20;fill-opacity:1;fill-rule:nonzero;stroke:none"
       transform="matrix(0.6428544,-0.76598839,-0.76598839,-0.6428544,743.0983,1117.6827)"><tspan
         id="tspan256"
         y="0"
         x="0">G</tspan></text>
<text
       id="text262"
       style="font-variant:normal;font-weight:normal;font-stretch:normal;font-size:26.00016594px;font-family:'Akkurat Pro';-inkscape-font-specification:AkkuratPro-Regular;writing-mode:lr-tb;fill:#231f20;fill-opacity:1;fill-rule:nonzero;stroke:none"
       transform="matrix(0.66533036,-0.74654907,-0.74654907,-0.66533036,754.3918,1104.2411)"><tspan
         id="tspan260"
         y="0"
         x="0">A</tspan></text>
<text
       id="text266"
       style="font-variant:normal;font-weight:normal;font-stretch:normal;font-size:26.00010681px;font-family:'Akkurat Pro';-inkscape-font-specification:AkkuratPro-Regular;writing-mode:lr-tb;fill:#231f20;fill-opacity:1;fill-rule:nonzero;stroke:none"
       transform="matrix(0.68797792,-0.72573161,-0.72573161,-0.68797792,765.0165,1092.2825)"><tspan
         id="tspan264"
         y="0"
         x="0">N</tspan></text>
<text
       id="text270"
       style="font-variant:normal;font-weight:normal;font-stretch:normal;font-size:26.00018311px;font-family:'Akkurat Pro';-inkscape-font-specification:AkkuratPro-Regular;writing-mode:lr-tb;fill:#231f20;fill-opacity:1;fill-rule:nonzero;stroke:none"
       transform="matrix(0.69533743,-0.71868342,-0.71868342,-0.69533743,778.2396,1078.5043)"><tspan
         id="tspan268"
         y="0"
         x="0">I</tspan></text>
<text
       id="text274"
       style="font-variant:normal;font-weight:normal;font-stretch:normal;font-size:26.00013924px;font-family:'Akkurat Pro';-inkscape-font-specification:AkkuratPro-Regular;writing-mode:lr-tb;fill:#231f20;fill-opacity:1;fill-rule:nonzero;stroke:none"
       transform="matrix(0.71991924,-0.69405784,-0.69405784,-0.71991924,783.7267,1072.8461)"><tspan
         id="tspan272"
         y="0"
         x="0">S</tspan></text>
<text
       id="text278"
       style="font-variant:normal;font-weight:normal;font-stretch:normal;font-size:26.00013733px;font-family:'Akkurat Pro';-inkscape-font-specification:AkkuratPro-Regular;writing-mode:lr-tb;fill:#231f20;fill-opacity:1;fill-rule:nonzero;stroke:none"
       transform="matrix(0.73940765,-0.673258,-0.673258,-0.73940765,795.5291,1061.4685)"><tspan
         id="tspan276"
         y="0"
         x="0">A</tspan></text>
<text
       id="text282"
       style="font-variant:normal;font-weight:normal;font-stretch:normal;font-size:26.00009346px;font-family:'Akkurat Pro';-inkscape-font-specification:AkkuratPro-Regular;writing-mode:lr-tb;fill:#231f20;fill-opacity:1;fill-rule:nonzero;stroke:none"
       transform="matrix(0.75693188,-0.65349379,-0.65349379,-0.75693188,807.3895,1050.6863)"><tspan
         id="tspan280"
         y="0"
         x="0">T</tspan></text>
<text
       id="text286"
       style="font-variant:normal;font-weight:normal;font-stretch:normal;font-size:26.00012016px;font-family:'Akkurat Pro';-inkscape-font-specification:AkkuratPro-Regular;writing-mode:lr-tb;fill:#231f20;fill-opacity:1;fill-rule:nonzero;stroke:none"
       transform="matrix(0.76917723,-0.63903552,-0.63903552,-0.76917723,817.93,1041.6251)"><tspan
         id="tspan284"
         y="0"
         x="0">I</tspan></text>
<text
       id="text290"
       style="font-variant:normal;font-weight:normal;font-stretch:normal;font-size:26.00008011px;font-family:'Akkurat Pro';-inkscape-font-specification:AkkuratPro-Regular;writing-mode:lr-tb;fill:#231f20;fill-opacity:1;fill-rule:nonzero;stroke:none"
       transform="matrix(0.78307068,-0.62193272,-0.62193272,-0.78307068,823.6426,1036.807)"><tspan
         id="tspan288"
         y="0"
         x="0">O</tspan></text>
<text
       id="text294"
       style="font-variant:normal;font-weight:normal;font-stretch:normal;font-size:26.0001297px;font-family:'Akkurat Pro';-inkscape-font-specification:AkkuratPro-Regular;writing-mode:lr-tb;fill:#231f20;fill-opacity:1;fill-rule:nonzero;stroke:none"
       transform="matrix(0.80272675,-0.59634702,-0.59634702,-0.80272675,837.1572,1026.0533)"><tspan
         id="tspan292"
         y="0"
         x="0">N</tspan></text>
<text
       id="text298"
       style="font-variant:normal;font-weight:normal;font-stretch:normal;font-size:38.00021362px;font-family:'Akkurat Pro';-inkscape-font-specification:AkkuratPro-Regular;writing-mode:lr-tb;fill:#231f20;fill-opacity:1;fill-rule:nonzero;stroke:none"
       transform="matrix(0.77751671,-0.62886228,-0.62886228,-0.77751671,1704.5885,2126.9319)"><tspan
         id="tspan296"
         y="0"
         x="0">I</tspan></text>
<text
       id="text302"
       style="font-variant:normal;font-weight:normal;font-stretch:normal;font-size:38.00015259px;font-family:'Akkurat Pro';-inkscape-font-specification:AkkuratPro-Regular;writing-mode:lr-tb;fill:#231f20;fill-opacity:1;fill-rule:nonzero;stroke:none"
       transform="matrix(0.7620654,-0.64750006,-0.64750006,-0.7620654,1713.1267,2120.1594)"><tspan
         id="tspan300"
         y="0"
         x="0">N</tspan></text>
<text
       id="text306"
       style="font-variant:normal;font-weight:normal;font-stretch:normal;font-size:38.0001564px;font-family:'Akkurat Pro';-inkscape-font-specification:AkkuratPro-Regular;writing-mode:lr-tb;fill:#231f20;fill-opacity:1;fill-rule:nonzero;stroke:none"
       transform="matrix(0.74015223,-0.67243935,-0.67243935,-0.74015223,1734.2064,2102.2295)"><tspan
         id="tspan304"
         y="0"
         x="0">D</tspan></text>
<text
       id="text310"
       style="font-variant:normal;font-weight:normal;font-stretch:normal;font-size:38.00014877px;font-family:'Akkurat Pro';-inkscape-font-specification:AkkuratPro-Regular;writing-mode:lr-tb;fill:#231f20;fill-opacity:1;fill-rule:nonzero;stroke:none"
       transform="matrix(0.71868405,-0.69533678,-0.69533678,-0.71868405,1753.1053,2085.0574)"><tspan
         id="tspan308"
         y="0"
         x="0">U</tspan></text>
<text
       id="text314"
       style="font-variant:normal;font-weight:normal;font-stretch:normal;font-size:38.00014877px;font-family:'Akkurat Pro';-inkscape-font-specification:AkkuratPro-Regular;writing-mode:lr-tb;fill:#231f20;fill-opacity:1;fill-rule:nonzero;stroke:none"
       transform="matrix(0.69533678,-0.71868405,-0.71868405,-0.69533678,1771.4889,2067.2871)"><tspan
         id="tspan312"
         y="0"
         x="0">S</tspan></text>
<text
       id="text318"
       style="font-variant:normal;font-weight:normal;font-stretch:normal;font-size:38.00018311px;font-family:'Akkurat Pro';-inkscape-font-specification:AkkuratPro-Regular;writing-mode:lr-tb;fill:#231f20;fill-opacity:1;fill-rule:nonzero;stroke:none"
       transform="matrix(0.67689672,-0.73607801,-0.73607801,-0.67689672,1788.1558,2050.064)"><tspan
         id="tspan316"
         y="0"
         x="0">T</tspan></text>
<text
       id="text322"
       style="font-variant:normal;font-weight:normal;font-stretch:normal;font-size:38.00016785px;font-family:'Akkurat Pro';-inkscape-font-specification:AkkuratPro-Regular;writing-mode:lr-tb;fill:#231f20;fill-opacity:1;fill-rule:nonzero;stroke:none"
       transform="matrix(0.6558892,-0.75485718,-0.75485718,-0.6558892,1801.8855,2035.1874)"><tspan
         id="tspan320"
         y="0"
         x="0">R</tspan></text>
<text
       id="text326"
       style="font-variant:normal;font-weight:normal;font-stretch:normal;font-size:38.00014496px;font-family:'Akkurat Pro';-inkscape-font-specification:AkkuratPro-Regular;writing-mode:lr-tb;fill:#231f20;fill-opacity:1;fill-rule:nonzero;stroke:none"
       transform="matrix(0.63372919,-0.77355498,-0.77355498,-0.63372919,1818.2531,2016.3141)"><tspan
         id="tspan324"
         y="0"
         x="0">Y</tspan></text>
<text
       id="text330"
       style="font-variant:normal;font-weight:normal;font-stretch:normal;font-size:49.90027618px;font-family:'Akkurat Pro';-inkscape-font-specification:AkkuratPro-Regular;writing-mode:lr-tb;fill:#231f20;fill-opacity:1;fill-rule:nonzero;stroke:none"
       transform="matrix(0.75559902,-0.65503445,-0.65503445,-0.75559902,1891.4436,2315.708)"><tspan
         id="tspan328"
         y="0"
         x="0">P</tspan></text>
<text
       id="text334"
       style="font-variant:normal;font-weight:normal;font-stretch:normal;font-size:49.90028px;font-family:'Akkurat Pro';-inkscape-font-specification:AkkuratPro-Regular;writing-mode:lr-tb;fill:#231f20;fill-opacity:1;fill-rule:nonzero;stroke:none"
       transform="matrix(0.73541272,-0.67761946,-0.67761946,-0.73541272,1914.9052,2295.395)"><tspan
         id="tspan332"
         y="0"
         x="0">O</tspan></text>
<text
       id="text338"
       style="font-variant:normal;font-weight:normal;font-stretch:normal;font-size:49.9002533px;font-family:'Akkurat Pro';-inkscape-font-specification:AkkuratPro-Regular;writing-mode:lr-tb;fill:#231f20;fill-opacity:1;fill-rule:nonzero;stroke:none"
       transform="matrix(0.71868371,-0.69533713,-0.69533713,-0.71868371,1939.2684,2272.8184)"><tspan
         id="tspan336"
         y="0"
         x="0">L</tspan></text>
<text
       id="text342"
       style="font-variant:normal;font-weight:normal;font-stretch:normal;font-size:49.9002533px;font-family:'Akkurat Pro';-inkscape-font-specification:AkkuratPro-Regular;writing-mode:lr-tb;fill:#231f20;fill-opacity:1;fill-rule:nonzero;stroke:none"
       transform="matrix(0.69533713,-0.71868371,-0.71868371,-0.69533713,1958.5421,2254.1194)"><tspan
         id="tspan340"
         y="0"
         x="0">I</tspan></text>
<text
       id="text346"
       style="font-variant:normal;font-weight:normal;font-stretch:normal;font-size:49.90026474px;font-family:'Akkurat Pro';-inkscape-font-specification:AkkuratPro-Regular;writing-mode:lr-tb;fill:#231f20;fill-opacity:1;fill-rule:nonzero;stroke:none"
       transform="matrix(0.68697029,-0.72668551,-0.72668551,-0.68697029,1968.693,2243.8647)"><tspan
         id="tspan344"
         y="0"
         x="0">C</tspan></text>
<text
       id="text350"
       style="font-variant:normal;font-weight:normal;font-stretch:normal;font-size:49.90026855px;font-family:'Akkurat Pro';-inkscape-font-specification:AkkuratPro-Regular;writing-mode:lr-tb;fill:#231f20;fill-opacity:1;fill-rule:nonzero;stroke:none"
       transform="matrix(0.66638119,-0.74561123,-0.74561123,-0.66638119,1990.2524,2221.0295)"><tspan
         id="tspan348"
         y="0"
         x="0">Y</tspan></text>
<text
       id="text354"
       style="font-variant:normal;font-weight:normal;font-stretch:normal;font-size:38.00018311px;font-family:'Akkurat Pro';-inkscape-font-specification:AkkuratPro-Regular;writing-mode:lr-tb;fill:#231f20;fill-opacity:1;fill-rule:nonzero;stroke:none"
       transform="matrix(0.6103997,-0.79209356,-0.79209356,-0.6103997,513.9807,967.6951)"><tspan
         id="tspan352"
         y="0"
         x="0">I</tspan></text>
<text
       id="text358"
       style="font-variant:normal;font-weight:normal;font-stretch:normal;font-size:38.00017548px;font-family:'Akkurat Pro';-inkscape-font-specification:AkkuratPro-Regular;writing-mode:lr-tb;fill:#231f20;fill-opacity:1;fill-rule:nonzero;stroke:none"
       transform="matrix(0.62884183,-0.77753325,-0.77753325,-0.62884183,520.5732,958.9756)"><tspan
         id="tspan356"
         y="0"
         x="0">N</tspan></text>
<text
       id="text362"
       style="font-variant:normal;font-weight:normal;font-stretch:normal;font-size:38.00021362px;font-family:'Akkurat Pro';-inkscape-font-specification:AkkuratPro-Regular;writing-mode:lr-tb;fill:#231f20;fill-opacity:1;fill-rule:nonzero;stroke:none"
       transform="matrix(0.6528279,-0.75750626,-0.75750626,-0.6528279,538.0109,937.4573)"><tspan
         id="tspan360"
         y="0"
         x="0">S</tspan></text>
<text
       id="text366"
       style="font-variant:normal;font-weight:normal;font-stretch:normal;font-size:38.00016785px;font-family:'Akkurat Pro';-inkscape-font-specification:AkkuratPro-Regular;writing-mode:lr-tb;fill:#231f20;fill-opacity:1;fill-rule:nonzero;stroke:none"
       transform="matrix(0.67281018,-0.73981515,-0.73981515,-0.67281018,553.6856,919.3041)"><tspan
         id="tspan364"
         y="0"
         x="0">T</tspan></text>
<text
       id="text370"
       style="font-variant:normal;font-weight:normal;font-stretch:normal;font-size:38.00018692px;font-family:'Akkurat Pro';-inkscape-font-specification:AkkuratPro-Regular;writing-mode:lr-tb;fill:#231f20;fill-opacity:1;fill-rule:nonzero;stroke:none"
       transform="matrix(0.68654927,-0.72708328,-0.72708328,-0.68654927,567.3687,904.3216)"><tspan
         id="tspan368"
         y="0"
         x="0">I</tspan></text>
<text
       id="text374"
       style="font-variant:normal;font-weight:normal;font-stretch:normal;font-size:38.00014877px;font-family:'Akkurat Pro';-inkscape-font-specification:AkkuratPro-Regular;writing-mode:lr-tb;fill:#231f20;fill-opacity:1;fill-rule:nonzero;stroke:none"
       transform="matrix(0.69533678,-0.71868405,-0.71868405,-0.69533678,574.9445,896.3326)"><tspan
         id="tspan372"
         y="0"
         x="0">T</tspan></text>
<text
       id="text378"
       style="font-variant:normal;font-weight:normal;font-stretch:normal;font-size:38.0001564px;font-family:'Akkurat Pro';-inkscape-font-specification:AkkuratPro-Regular;writing-mode:lr-tb;fill:#231f20;fill-opacity:1;fill-rule:nonzero;stroke:none"
       transform="matrix(0.71995493,-0.69402082,-0.69402082,-0.71995493,589.5607,881.2848)"><tspan
         id="tspan376"
         y="0"
         x="0">U</tspan></text>
<text
       id="text382"
       style="font-variant:normal;font-weight:normal;font-stretch:normal;font-size:38.0002327px;font-family:'Akkurat Pro';-inkscape-font-specification:AkkuratPro-Regular;writing-mode:lr-tb;fill:#231f20;fill-opacity:1;fill-rule:nonzero;stroke:none"
       transform="matrix(0.73876391,-0.67396431,-0.67396431,-0.73876391,608.0037,863.5533)"><tspan
         id="tspan380"
         y="0"
         x="0">T</tspan></text>
<text
       id="text386"
       style="font-variant:normal;font-weight:normal;font-stretch:normal;font-size:38.00019836px;font-family:'Akkurat Pro';-inkscape-font-specification:AkkuratPro-Regular;writing-mode:lr-tb;fill:#231f20;fill-opacity:1;fill-rule:nonzero;stroke:none"
       transform="matrix(0.75131715,-0.65994131,-0.65994131,-0.75131715,623.043,849.8911)"><tspan
         id="tspan384"
         y="0"
         x="0">I</tspan></text>
<text
       id="text390"
       style="font-variant:normal;font-weight:normal;font-stretch:normal;font-size:38.00017929px;font-family:'Akkurat Pro';-inkscape-font-specification:AkkuratPro-Regular;writing-mode:lr-tb;fill:#231f20;fill-opacity:1;fill-rule:nonzero;stroke:none"
       transform="matrix(0.76558582,-0.64333378,-0.64333378,-0.76558582,631.1959,842.6229)"><tspan
         id="tspan388"
         y="0"
         x="0">O</tspan></text>
<text
       id="text394"
       style="font-variant:normal;font-weight:normal;font-stretch:normal;font-size:38.00018311px;font-family:'Akkurat Pro';-inkscape-font-specification:AkkuratPro-Regular;writing-mode:lr-tb;fill:#231f20;fill-opacity:1;fill-rule:nonzero;stroke:none"
       transform="matrix(0.78584098,-0.61842862,-0.61842862,-0.78584098,650.5225,826.3524)"><tspan
         id="tspan392"
         y="0"
         x="0">N</tspan></text>
<text
       id="text398"
       style="font-variant:normal;font-weight:normal;font-stretch:normal;font-size:49.90025711px;font-family:'Akkurat Pro';-inkscape-font-specification:AkkuratPro-Regular;writing-mode:lr-tb;fill:#231f20;fill-opacity:1;fill-rule:nonzero;stroke:none"
       transform="matrix(0.61931546,-0.78514226,-0.78514226,-0.61931546,300.045,798.8074)"><tspan
         id="tspan396"
         y="0"
         x="0">E</tspan></text>
<text
       id="text402"
       style="font-variant:normal;font-weight:normal;font-stretch:normal;font-size:49.90024948px;font-family:'Akkurat Pro';-inkscape-font-specification:AkkuratPro-Regular;writing-mode:lr-tb;fill:#231f20;fill-opacity:1;fill-rule:nonzero;stroke:none"
       transform="matrix(0.64154388,-0.76708634,-0.76708634,-0.64154388,319.2102,774.5004)"><tspan
         id="tspan400"
         y="0"
         x="0">C</tspan></text>
<text
       id="text406"
       style="font-variant:normal;font-weight:normal;font-stretch:normal;font-size:49.90027618px;font-family:'Akkurat Pro';-inkscape-font-specification:AkkuratPro-Regular;writing-mode:lr-tb;fill:#231f20;fill-opacity:1;fill-rule:nonzero;stroke:none"
       transform="matrix(0.66393821,-0.74778744,-0.74778744,-0.66393821,339.3484,750.3959)"><tspan
         id="tspan404"
         y="0"
         x="0">O</tspan></text>
<text
       id="text410"
       style="font-variant:normal;font-weight:normal;font-stretch:normal;font-size:49.90016937px;font-family:'Akkurat Pro';-inkscape-font-specification:AkkuratPro-Regular;writing-mode:lr-tb;fill:#231f20;fill-opacity:1;fill-rule:nonzero;stroke:none"
       transform="matrix(0.68563295,-0.72794743,-0.72794743,-0.68563295,361.368,725.6094)"><tspan
         id="tspan408"
         y="0"
         x="0">S</tspan></text>
<text
       id="text414"
       style="font-variant:normal;font-weight:normal;font-stretch:normal;font-size:49.90018463px;font-family:'Akkurat Pro';-inkscape-font-specification:AkkuratPro-Regular;writing-mode:lr-tb;fill:#231f20;fill-opacity:1;fill-rule:nonzero;stroke:none"
       transform="matrix(0.6953361,-0.71868471,-0.71868471,-0.6953361,383.1767,702.7681)"><tspan
         id="tspan412"
         y="0"
         x="0">Y</tspan></text>
<text
       id="text418"
       style="font-variant:normal;font-weight:normal;font-stretch:normal;font-size:49.90021896px;font-family:'Akkurat Pro';-inkscape-font-specification:AkkuratPro-Regular;writing-mode:lr-tb;fill:#231f20;fill-opacity:1;fill-rule:nonzero;stroke:none"
       transform="matrix(0.72444973,-0.68932764,-0.68932764,-0.72444973,403.4048,682.1288)"><tspan
         id="tspan416"
         y="0"
         x="0">S</tspan></text>
<text
       id="text422"
       style="font-variant:normal;font-weight:normal;font-stretch:normal;font-size:49.90026855px;font-family:'Akkurat Pro';-inkscape-font-specification:AkkuratPro-Regular;writing-mode:lr-tb;fill:#231f20;fill-opacity:1;fill-rule:nonzero;stroke:none"
       transform="matrix(0.74241682,-0.66993825,-0.66993825,-0.74241682,426.2285,660.4516)"><tspan
         id="tspan420"
         y="0"
         x="0">T</tspan></text>
<text
       id="text426"
       style="font-variant:normal;font-weight:normal;font-stretch:normal;font-size:49.90029144px;font-family:'Akkurat Pro';-inkscape-font-specification:AkkuratPro-Regular;writing-mode:lr-tb;fill:#231f20;fill-opacity:1;fill-rule:nonzero;stroke:none"
       transform="matrix(0.75978315,-0.65017657,-0.65017657,-0.75978315,445.9722,642.5927)"><tspan
         id="tspan424"
         y="0"
         x="0">E</tspan></text>
<text
       id="text430"
       style="font-variant:normal;font-weight:normal;font-stretch:normal;font-size:49.9002037px;font-family:'Akkurat Pro';-inkscape-font-specification:AkkuratPro-Regular;writing-mode:lr-tb;fill:#231f20;fill-opacity:1;fill-rule:nonzero;stroke:none"
       transform="matrix(0.78157196,-0.62381509,-0.62381509,-0.78157196,469.3869,622.4056)"><tspan
         id="tspan428"
         y="0"
         x="0">M</tspan></text>
<g
       id="g432"><g
         clip-path="url(#clipPath438)"
         id="g434"><g
           transform="translate(198.486,3201.6628)"
           id="g440"><path
             id="path442"
             style="fill:none;stroke:#ec138d;stroke-width:10;stroke-linecap:butt;stroke-linejoin:miter;stroke-miterlimit:10;stroke-dasharray:none;stroke-opacity:1"
             d="m 0,0 c -28.818,-4.833 -56.461,-18.366 -78.697,-40.602 -56.824,-56.824 -56.824,-148.954 0.001,-205.778 56.823,-56.823 148.954,-56.823 205.777,0 22.313,22.314 35.86,50.072 40.65,78.998 H 0 Z" /></g><g
           transform="translate(198.486,3201.6628)"
           id="g444"><path
             id="path446"
             style="fill:none;stroke:#ec138d;stroke-width:10;stroke-linecap:butt;stroke-linejoin:miter;stroke-miterlimit:10;stroke-dasharray:none;stroke-opacity:1"
             d="m 0,0 c 44.825,7.518 92.493,-6.015 127.081,-40.602 34.51,-34.511 48.057,-82.043 40.65,-126.78 h 41.57 V 41.919 L 0,41.919 Z" /></g><g
           transform="translate(325.5667,3161.0605)"
           id="g448"><path
             id="path450"
             style="fill:none;stroke:#ec138d;stroke-width:10;stroke-linecap:butt;stroke-linejoin:miter;stroke-miterlimit:10;stroke-dasharray:none;stroke-opacity:1"
             d="M 0,0 C -34.587,34.587 -82.256,48.12 -127.081,40.602 V -126.78 H 40.65 C 48.057,-82.042 34.511,-34.51 0,0 Z" /></g><g
           transform="translate(325.5667,3161.0605)"
           id="g452"><path
             id="path454"
             style="fill:none;stroke:#ec138d;stroke-width:10;stroke-linecap:butt;stroke-linejoin:miter;stroke-miterlimit:10;stroke-dasharray:none;stroke-opacity:1"
             d="M 0,0 C -34.587,34.587 -82.256,48.12 -127.081,40.602 V -126.78 H 40.65 C 48.057,-82.042 34.511,-34.51 0,0 Z" /></g><g
           transform="translate(1740.7992,3269.7302)"
           id="g456"><path
             id="path458"
             style="fill:none;stroke:#15141b;stroke-width:2.5;stroke-linecap:butt;stroke-linejoin:miter;stroke-miterlimit:10;stroke-dasharray:none;stroke-opacity:1"
             d="M 0,0 C -12.423,12.423 -32.565,12.423 -44.988,0 -57.41,-12.423 -57.41,-32.564 -44.987,-44.988 -32.564,-57.41 -12.423,-57.41 0,-44.988 12.423,-32.565 12.423,-12.423 0,0" /></g><g
           transform="translate(1848.377,3269.7302)"
           id="g460"><path
             id="path462"
             style="fill:none;stroke:#15141b;stroke-width:2.5;stroke-linecap:butt;stroke-linejoin:miter;stroke-miterlimit:10;stroke-dasharray:none;stroke-opacity:1"
             d="M 0,0 C -12.423,12.423 -32.565,12.423 -44.988,0 -57.41,-12.423 -57.41,-32.564 -44.987,-44.988 -32.564,-57.41 -12.423,-57.41 0,-44.988 12.423,-32.565 12.423,-12.423 0,0" /></g><g
           transform="translate(2017.1093,3224.856)"
           id="g464"><path
             id="path466"
             style="fill:none;stroke:#15141b;stroke-width:2.5;stroke-linecap:butt;stroke-linejoin:miter;stroke-miterlimit:10;stroke-dasharray:none;stroke-opacity:1"
             d="M 0,0 C 12.423,-12.423 32.565,-12.423 44.988,0 57.411,12.423 57.411,32.564 44.987,44.988 32.565,57.41 12.423,57.41 0,44.988 -12.423,32.565 -12.423,12.423 0,0" /></g><g
           transform="translate(2168.9648,3269.7302)"
           id="g468"><path
             id="path470"
             style="fill:none;stroke:#15141b;stroke-width:2.5;stroke-linecap:butt;stroke-linejoin:miter;stroke-miterlimit:10;stroke-dasharray:none;stroke-opacity:1"
             d="M 0,0 C -12.423,12.423 -32.564,12.423 -44.988,0 -57.41,-12.423 -57.41,-32.564 -44.987,-44.988 -32.564,-57.41 -12.423,-57.41 0,-44.988 12.423,-32.565 12.423,-12.423 0,0" /></g><g
           transform="translate(2277.2578,3269.7302)"
           id="g472"><path
             id="path474"
             style="fill:none;stroke:#15141b;stroke-width:2.5;stroke-linecap:butt;stroke-linejoin:miter;stroke-miterlimit:10;stroke-dasharray:none;stroke-opacity:1"
             d="m 0,0 c -12.423,12.423 -32.565,12.423 -44.988,0 -12.423,-12.423 -12.423,-32.564 0,-44.988 12.424,-12.422 32.565,-12.422 44.988,0 C 12.423,-32.565 12.423,-12.423 0,0" /></g><g
           transform="translate(1955.4183,3269.7302)"
           id="g476"><path
             id="path478"
             style="fill:none;stroke:#15141b;stroke-width:2.5;stroke-linecap:butt;stroke-linejoin:miter;stroke-miterlimit:10;stroke-dasharray:none;stroke-opacity:1"
             d="M 0,0 C -12.423,12.423 -32.565,12.423 -44.988,0 -57.41,-12.423 -57.41,-32.564 -44.987,-44.988 -32.564,-57.41 -12.423,-57.41 0,-44.988 12.423,-32.565 12.423,-12.423 0,0" /></g><g
           transform="translate(1603.8372,3279.5215)"
           id="g480"><path
             id="path482"
             style="fill:none;stroke:#ec138d;stroke-width:2.5;stroke-linecap:butt;stroke-linejoin:miter;stroke-miterlimit:10;stroke-dasharray:none;stroke-opacity:1"
             d="m 0,0 c -6.507,-1.091 -12.749,-4.147 -17.769,-9.168 -12.831,-12.83 -12.831,-33.633 0,-46.463 12.83,-12.831 33.633,-12.831 46.463,0 5.038,5.038 8.097,11.306 9.179,17.837 H 0 Z" /></g><g
           transform="translate(1603.8372,3279.5215)"
           id="g484"><path
             id="path486"
             style="fill:none;stroke:#ec138d;stroke-width:2.5;stroke-linecap:butt;stroke-linejoin:miter;stroke-miterlimit:10;stroke-dasharray:none;stroke-opacity:1"
             d="m 0,0 c 10.121,1.698 20.884,-1.358 28.694,-9.168 7.792,-7.792 10.851,-18.524 9.179,-28.626 h 9.386 V 9.465 L 0,9.465 Z" /></g><g
           transform="translate(1632.5313,3270.3538)"
           id="g488"><path
             id="path490"
             style="fill:none;stroke:#ec138d;stroke-width:2.5;stroke-linecap:butt;stroke-linejoin:miter;stroke-miterlimit:10;stroke-dasharray:none;stroke-opacity:1"
             d="M 0,0 C -7.81,7.81 -18.573,10.865 -28.694,9.168 V -28.626 H 9.178 C 10.851,-18.525 7.792,-7.792 0,0 Z" /></g><g
           transform="translate(1632.5313,3270.3538)"
           id="g492"><path
             id="path494"
             style="fill:none;stroke:#ec138d;stroke-width:2.5;stroke-linecap:butt;stroke-linejoin:miter;stroke-miterlimit:10;stroke-dasharray:none;stroke-opacity:1"
             d="M 0,0 C -7.81,7.81 -18.573,10.865 -28.694,9.168 V -28.626 H 9.178 C 10.851,-18.525 7.792,-7.792 0,0 Z" /></g><g
           transform="translate(1691.9762,3287.8083)"
           id="g496"><path
             id="path498"
             style="fill:none;stroke:#15141b;stroke-width:2.5;stroke-linecap:butt;stroke-linejoin:miter;stroke-miterlimit:10;stroke-dasharray:none;stroke-opacity:1"
             d="M 0,0 8.167,-14.516 26.407,-46.936 44.595,-14.61 52.815,0 Z" /></g><g
           transform="translate(1866.3711,3264.1367)"
           id="g500"><path
             id="path502"
             style="fill:none;stroke:#15141b;stroke-width:2.5;stroke-linecap:butt;stroke-linejoin:miter;stroke-miterlimit:10;stroke-dasharray:none;stroke-opacity:1"
             d="M 0,0 C 0,13.097 -10.617,23.715 -23.715,23.715 -36.812,23.715 -47.43,13.097 -47.43,0 c 0,-13.097 10.618,-23.715 23.715,-23.715 C -10.617,-23.715 0,-13.097 0,0 Z" /></g><g
           transform="translate(1969.59,3283.9626)"
           id="g504"><path
             id="path506"
             style="fill:none;stroke:#15141b;stroke-width:2.5;stroke-linecap:butt;stroke-linejoin:miter;stroke-miterlimit:10;stroke-dasharray:none;stroke-opacity:1"
             d="m 0,0 c -5.18,5.18 -13.579,5.18 -18.76,0 -0.663,-0.663 -1.24,-1.379 -1.733,-2.134 l -3.396,-5.357 -28.39,-44.791 44.832,28.426 5.505,3.491 c 0.684,0.464 1.335,0.999 1.942,1.605 5.18,5.181 5.18,13.58 0,18.76 z" /></g><g
           transform="translate(2027.6193,3225.4468)"
           id="g508"><path
             id="path510"
             style="fill:none;stroke:#15141b;stroke-width:2.5;stroke-linecap:butt;stroke-linejoin:miter;stroke-miterlimit:10;stroke-dasharray:none;stroke-opacity:1"
             d="M 0,0 38.858,38.858 52.355,52.355 42.25,62.459 28.799,49.008 -10.105,10.104 Z" /></g><g
           transform="translate(2146.3611,3287.3979)"
           id="g512"><path
             id="path514"
             style="fill:none;stroke:#15141b;stroke-width:2.5;stroke-linecap:butt;stroke-linejoin:miter;stroke-miterlimit:10;stroke-dasharray:none;stroke-opacity:1"
             d="M 0,0 C -0.003,0 -0.006,0 -0.009,0 V -40.472 H 40.52 C 40.493,-18.115 22.363,0 0,0 Z" /></g><g
           transform="translate(2239.6875,3239.9558)"
           id="g516"><path
             id="path518"
             style="fill:none;stroke:#15141b;stroke-width:2.5;stroke-linecap:butt;stroke-linejoin:miter;stroke-miterlimit:10;stroke-dasharray:none;stroke-opacity:1"
             d="m 0,0 c -0.046,0 -0.092,0 -0.138,0 l 0.063,14.12 c 3.377,-0.014 6.558,0.984 9.724,3.053 3.542,2.315 6.49,5.182 8.764,8.52 l 4.369,6.412 c 1.755,2.576 4.693,6.888 10.111,10.201 5.782,3.536 13.138,5.269 22.488,5.298 l 0.043,-14.12 c -6.597,-0.02 -11.7,-1.105 -15.165,-3.224 -2.618,-1.6 -4.118,-3.625 -5.808,-6.105 L 30.083,17.743 C 26.756,12.86 22.481,8.692 17.374,5.354 11.938,1.801 6.094,0 0,0 Z" /></g></g></g><text
       id="text522"
       style="font-variant:normal;font-weight:bold;font-stretch:normal;font-size:24px;font-family:'Akkurat Pro';-inkscape-font-specification:AkkuratPro-Bold;writing-mode:lr-tb;fill:#231f20;fill-opacity:1;fill-rule:nonzero;stroke:none"
       transform="matrix(1,0,0,-1,81.9023,55.4678)"><tspan
         id="tspan520"
         y="0"
         x="0 18.408001 36.816002 55.223999 62.16 74.568001 87.192001 99.695999 109.176 122.664 144 150.96001 163.82401 178.368 191.856 204.45599 211.416 224.73599 239.03999 248.52 262.32001 276.12 283.48801 297.43201 304.392 314.56799 321.26401 335.064 344.448">www.systemicdesigntoolkit.org</tspan></text>
<text
       id="text526"
       style="font-variant:normal;font-weight:300;font-stretch:normal;font-size:24px;font-family:'Akkurat Light Pro';-inkscape-font-specification:AkkuratLightPro-Regular;writing-mode:lr-tb;fill:#231f20;fill-opacity:1;fill-rule:nonzero;stroke:none"
       transform="matrix(1,0,0,-1,1063.4063,55.1798)"><tspan
         id="tspan524"
         y="0"
         x="0 15.648 28.704 41.088001 54.312 75.407997 96.503998 109.56 123.648 137.75999 150.81599 164.952 170.20799 182.616 188.952 200.664 213.72 219.24001 224.496 239.808">Recommended size: A0</tspan></text>
<g
       id="g528"><g
         clip-path="url(#clipPath534)"
         id="g530"><g
           transform="translate(1688.6494,66.8983)"
           id="g536"><path
             id="path538"
             style="fill:#231f20;fill-opacity:1;fill-rule:evenodd;stroke:none"
             d="m 0,0 -3.146,1.326 c -2.048,0.887 -3.071,2.124 -3.071,4.562 0,3.054 1.811,4.293 3.974,4.293 3.383,0 3.855,-2.789 3.855,-4.87 V 4.647 h 1.493 v 0.71 c 0,2.831 -0.785,6.329 -5.348,6.329 -3.268,0 -5.625,-2.124 -5.625,-5.978 0,-2.964 1.297,-4.646 3.851,-5.799 l 3.031,-1.37 c 2.285,-1.02 3.072,-2.525 3.072,-4.739 0,-2.567 -1.259,-4.823 -4.288,-4.823 -3.424,0 -4.605,2.389 -4.605,5.665 v 0.753 H -8.3 v -0.618 c 0,-2.703 0.39,-7.306 6.098,-7.306 3.264,0 5.938,2.479 5.938,6.372 C 3.736,-3.012 2.478,-1.064 0,0 m 14.276,12.04 c -2.477,0 -4.525,-1.415 -5.112,-3.806 H 9.083 v 10.181 h -2.36 v -30.414 h 2.36 V 3.806 c 0,3.63 1.851,6.02 4.605,6.02 2.401,0 3.579,-1.592 3.579,-4.824 v -17.001 h 2.362 V 5.756 c 0,4.425 -2.166,6.284 -5.353,6.284 m 9.792,-24.039 h 3.303 v 23.488 h -3.303 z m 0,26.429 h 3.303 v 3.979 h -3.303 z m 8.81,-0.73 V 11.489 H 29.926 V 7.591 h 2.952 v -19.59 h 4.251 v 19.59 h 3.461 v 3.898 h -3.461 v 2.079 c 0,1.592 0.706,2.26 2.282,2.26 h 1.179 v 3.671 c -0.63,0.091 -1.417,0.132 -2.32,0.132 -3.462,0 -5.392,-1.416 -5.392,-5.931 M 51.841,7.591 v 3.898 h -3.147 v 5.725 h -5.433 v -23.19 c 0,-4.83 0.788,-6.288 5.036,-6.288 1.261,0 2.363,0.134 3.544,0.265 v 4.251 c -0.355,-0.044 -0.788,-0.087 -1.221,-0.087 -1.574,0 -1.926,0.75 -1.926,2.612 V 7.591 Z" /></g><g
           transform="translate(1751.1211,93.371)"
           id="g540"><path
             id="path542"
             style="fill:#231f20;fill-opacity:1;fill-rule:evenodd;stroke:none"
             d="m 0,0 c -4.501,-0.666 -7.742,-4.897 -7.742,-9.656 v -9.22 h 8.809 c 4.546,0 8.591,3.393 9.225,8.107 C 11.142,-4.449 6.038,0.893 0,0 M 5.306,-14.879 H 1.602 v 6.518 c 0,0.82 -0.248,1.06 -0.725,1.06 -0.501,0 -0.746,-0.44 -0.746,-1.06 v -6.518 h -3.709 v 10.178 h 3.597 v -1.241 h 0.036 c 0.556,1.062 1.489,1.521 2.733,1.521 1.319,0 2.518,-0.76 2.518,-2.742 z" /></g></g></g><text
       id="text548"
       style="font-variant:normal;font-weight:bold;font-stretch:normal;font-size:13.76099968px;font-family:'Akkurat Pro';-inkscape-font-specification:AkkuratPro-Bold;writing-mode:lr-tb;fill:#231f20;fill-opacity:1;fill-rule:nonzero;stroke:none"
       transform="matrix(1,0,0,-1,2235.8208,84.8818)"><tspan
         id="tspan544"
         y="0"
         x="0 8.3666878 16.609528 25.045019 32.764942 41.406849 53.489006 57.576023">SYSTEMIC</tspan><tspan
         id="tspan546"
         y="19.912167"
         x="0 9.4125242 17.999388 26.696341 30.783358 40.195881">DESIGN</tspan></text>
<text
       id="text552"
       style="font-variant:normal;font-weight:300;font-stretch:normal;font-size:13.76099968px;font-family:'Akkurat Light Pro';-inkscape-font-specification:AkkuratLightPro-Regular;writing-mode:lr-tb;fill:#231f20;fill-opacity:1;fill-rule:nonzero;stroke:none"
       transform="matrix(1,0,0,-1,2235.8208,45.057466)"><tspan
         id="tspan550"
         y="0"
         x="0 7.0043492 16.059088 25.113825 32.627331 41.640785 45.342495">TOOLKIT</tspan></text>
<g
       id="g554"><g
         clip-path="url(#clipPath560)"
         id="g556"><g
           transform="translate(2209.3145,83.3675)"
           id="g562"><path
             id="path564"
             style="fill:#f8c717;fill-opacity:1;fill-rule:nonzero;stroke:none"
             d="m 0,0 c 7.98,-7.98 7.98,-20.917 0,-28.897 -7.979,-7.98 -20.917,-7.98 -28.897,0 -7.979,7.98 -7.979,20.917 0,28.897 7.98,7.979 20.918,7.979 28.897,0 m 7.78,7.78 c -12.277,12.276 -32.18,12.276 -44.457,0 -12.276,-12.277 -12.276,-32.18 0,-44.457 12.277,-12.277 32.18,-12.277 44.457,0 12.277,12.276 12.277,32.18 0,44.457" /></g><g
           transform="translate(2201.5347,75.5873)"
           id="g566"><path
             id="path568"
             style="fill:#e2067f;fill-opacity:1;fill-rule:nonzero;stroke:none"
             d="m 0,0 c 3.683,-3.683 3.683,-9.654 0,-13.337 -3.683,-3.683 -9.654,-3.683 -13.337,0 -3.683,3.683 -3.683,9.654 0,13.337 C -9.654,3.683 -3.683,3.683 0,0 m 7.78,7.78 c -7.98,7.98 -20.917,7.98 -28.897,0 -7.98,-7.98 -7.98,-20.917 0,-28.897 7.98,-7.98 20.917,-7.98 28.897,0 7.98,7.98 7.98,20.917 0,28.897" /></g><g
           id="g570"><g
             id="g572" /><g
             id="g592"><g
               id="g590"
               clip-path="url(#clipPath576)"><g
                 id="g588"><g
                   id="g586"
                   clip-path="url(#clipPath580)"><g
                     id="g584"
                     transform="translate(2217.0942,91.1473)"><path
                       id="path582"
                       style="fill:#489bda;fill-opacity:1;fill-rule:nonzero;stroke:none"
                       d="m 0,0 c 8.227,-8.226 10.932,-19.875 8.133,-30.361 -10.486,-2.799 -22.135,-0.094 -30.361,8.132 -8.227,8.227 -10.932,19.876 -8.133,30.362 C -19.875,10.931 -8.226,8.226 0,0" /></g></g></g></g></g></g><g
           transform="translate(1823.4141,98.2704)"
           id="g594"><path
             id="path596"
             style="fill:#ffffff;fill-opacity:1;fill-rule:nonzero;stroke:none"
             d="m 0,0 c -13.986,0.001 -25.353,-11.343 -25.363,-25.312 -0.01,-13.992 11.333,-25.383 25.283,-25.391 14.036,-0.007 25.416,11.325 25.42,25.312 C 25.343,-11.368 14,-0.001 0,0" /></g><g
           transform="translate(1820.1846,72.6083)"
           id="g598"><path
             id="path600"
             style="fill:#231f20;fill-opacity:1;fill-rule:nonzero;stroke:none"
             d="M 0,0 C -0.062,0.014 -0.109,0.018 -0.151,0.034 -0.98,0.363 -1.838,0.428 -2.711,0.29 -3.85,0.109 -4.732,-0.431 -5.141,-1.566 -5.37,-2.203 -5.375,-2.864 -5.26,-3.523 c 0.187,-1.069 0.721,-1.89 1.781,-2.259 1.122,-0.39 2.193,-0.218 3.198,0.403 0.086,0.053 0.171,0.105 0.277,0.17 0.009,-0.205 0.017,-0.379 0.025,-0.558 h 3.038 c 0.012,0.05 0.024,0.078 0.024,0.104 0,2.125 0.033,4.251 -0.014,6.375 C 3.034,2.295 2.148,3.384 0.684,3.68 -1.165,4.053 -2.956,3.794 -4.671,3.014 -4.702,3 -4.725,2.969 -4.762,2.938 c 0.28,-0.707 0.554,-1.403 0.837,-2.117 0.133,0.061 0.236,0.105 0.335,0.155 0.841,0.425 1.734,0.564 2.665,0.488 0.551,-0.046 0.872,-0.34 0.922,-0.859 C 0.016,0.41 0,0.211 0,0 M 26.49,5.502 C 26.367,5.587 26.271,5.66 26.169,5.723 24.197,6.934 22.058,7.241 19.824,6.781 17.901,6.385 16.656,5.104 16.532,3.318 16.418,1.682 16.934,0.52 18.402,-0.2 c 0.16,-0.078 0.321,-0.166 0.491,-0.216 0.903,-0.267 1.811,-0.516 2.713,-0.787 0.377,-0.114 0.749,-0.251 1.111,-0.41 0.266,-0.117 0.43,-0.336 0.398,-0.653 -0.035,-0.34 -0.25,-0.518 -0.56,-0.593 -0.174,-0.042 -0.353,-0.066 -0.531,-0.079 -1.433,-0.105 -2.708,0.377 -3.924,1.071 -0.086,0.049 -0.173,0.097 -0.274,0.155 -0.57,-0.922 -1.124,-1.819 -1.687,-2.73 0.099,-0.066 0.174,-0.122 0.254,-0.169 1.997,-1.162 4.148,-1.568 6.429,-1.28 0.831,0.105 1.621,0.357 2.319,0.844 1.329,0.925 1.697,2.516 1.377,4.125 -0.217,1.092 -0.938,1.814 -1.923,2.22 -0.902,0.372 -1.854,0.62 -2.784,0.922 -0.466,0.15 -0.937,0.281 -1.396,0.45 -0.269,0.1 -0.417,0.311 -0.384,0.622 0.036,0.331 0.278,0.544 0.713,0.607 0.852,0.122 1.68,0 2.469,-0.318 0.538,-0.217 1.047,-0.508 1.601,-0.782 0.544,0.877 1.103,1.779 1.676,2.703 M 4.732,6.747 V -5.79 h 0.301 c 0.935,0 1.87,0.01 2.804,-0.006 0.28,-0.005 0.347,0.086 0.344,0.353 -0.013,1.198 -0.002,2.398 -0.01,3.597 -10e-4,0.206 0.057,0.291 0.272,0.28 0.273,-0.014 0.548,-0.013 0.821,0 0.196,0.01 0.302,-0.061 0.388,-0.244 0.577,-1.218 1.178,-2.425 1.746,-3.647 0.124,-0.268 0.273,-0.345 0.556,-0.34 1.058,0.017 2.115,0.007 3.173,0.007 h 0.368 c -0.85,1.624 -1.674,3.198 -2.5,4.779 0.084,0.047 0.149,0.084 0.213,0.121 0.074,0.041 0.149,0.082 0.222,0.125 0.88,0.526 1.468,1.282 1.661,2.287 0.106,0.55 0.138,1.126 0.111,1.686 -0.075,1.582 -0.95,2.734 -2.463,3.209 -0.595,0.186 -1.234,0.31 -1.855,0.324 C 8.911,6.784 6.937,6.763 4.964,6.765 4.891,6.765 4.818,6.754 4.732,6.747 m -17.749,-6.908 c -0.044,0.12 -0.093,0.294 -0.166,0.456 -0.937,2.101 -1.874,4.202 -2.823,6.297 -0.039,0.086 -0.198,0.165 -0.302,0.166 -0.916,0.013 -1.833,0.009 -2.749,0.007 -0.071,0 -0.143,-0.017 -0.218,-0.027 V -5.77 h 3.24 v 6.029 c 0.989,-2.128 1.993,-4.288 2.996,-6.448 l 0.087,0.001 c 1.005,2.162 2.01,4.325 2.994,6.443 v -6.026 h 3.241 V 6.766 h -0.332 c -0.831,0 -1.663,-0.012 -2.493,0.007 -0.259,0.006 -0.38,-0.078 -0.484,-0.31 -0.993,-2.218 -1.998,-4.43 -2.991,-6.624 M 3.229,25.662 C 17.23,25.661 28.573,14.294 28.569,0.271 28.566,-13.716 17.185,-25.049 3.15,-25.041 c -13.951,0.008 -25.294,11.399 -25.283,25.392 0.009,13.968 11.377,25.312 25.362,25.311" /></g><g
           transform="translate(1807.1675,72.4476)"
           id="g602"><path
             id="path604"
             style="fill:#ffffff;fill-opacity:1;fill-rule:nonzero;stroke:none"
             d="M 0,0 C 0.993,2.193 1.998,4.406 2.991,6.624 3.095,6.855 3.216,6.939 3.475,6.934 4.305,6.915 5.137,6.927 5.968,6.927 H 6.301 V -5.61 H 3.059 V 0.416 C 2.075,-1.703 1.07,-3.865 0.066,-6.028 h -0.088 c -1.003,2.16 -2.007,4.32 -2.996,6.448 v -6.029 h -3.24 V 6.899 c 0.076,0.01 0.147,0.026 0.218,0.026 0.916,0.002 1.832,0.007 2.748,-0.006 0.105,-0.002 0.264,-0.08 0.303,-0.167 C -2.04,4.658 -1.102,2.557 -0.166,0.456 -0.093,0.293 -0.043,0.121 0,0" /></g><g
           transform="translate(1828.3774,73.8119)"
           id="g606"><path
             id="path608"
             style="fill:#ffffff;fill-opacity:1;fill-rule:nonzero;stroke:none"
             d="M 0,0 C 0.684,0 1.352,-0.004 2.019,0.003 2.207,0.004 2.397,0.024 2.58,0.065 2.955,0.147 3.262,0.333 3.425,0.704 3.879,1.738 3.291,2.676 2.167,2.696 1.563,2.707 0.959,2.7 0.355,2.7 0.238,2.701 0.12,2.7 0,2.7 Z m -3.46,5.544 c 0.085,0.007 0.158,0.018 0.231,0.018 C -1.255,5.559 0.718,5.581 2.691,5.537 3.313,5.523 3.951,5.399 4.546,5.212 6.06,4.739 6.935,3.586 7.009,2.004 7.036,1.444 7.004,0.868 6.898,0.319 6.705,-0.687 6.117,-1.443 5.237,-1.968 5.165,-2.012 5.089,-2.052 5.016,-2.094 4.951,-2.131 4.886,-2.167 4.802,-2.215 5.629,-3.796 6.452,-5.37 7.302,-6.994 H 6.934 C 5.876,-6.994 4.819,-6.983 3.761,-7 3.479,-7.005 3.33,-6.928 3.206,-6.661 2.637,-5.439 2.037,-4.231 1.459,-3.013 1.373,-2.831 1.268,-2.76 1.071,-2.77 c -0.273,-0.013 -0.548,-0.014 -0.821,0 -0.215,0.012 -0.273,-0.073 -0.272,-0.28 0.008,-1.199 -0.003,-2.398 0.01,-3.597 0.003,-0.266 -0.064,-0.358 -0.343,-0.353 -0.935,0.017 -1.87,0.006 -2.805,0.006 h -0.3 z" /></g><g
           transform="translate(1846.6743,78.1107)"
           id="g610"><path
             id="path612"
             style="fill:#ffffff;fill-opacity:1;fill-rule:nonzero;stroke:none"
             d="m 0,0 c -0.573,-0.924 -1.132,-1.827 -1.675,-2.703 -0.554,0.273 -1.063,0.564 -1.601,0.782 -0.789,0.317 -1.618,0.44 -2.47,0.317 -0.435,-0.062 -0.677,-0.275 -0.712,-0.605 -0.034,-0.312 0.114,-0.524 0.383,-0.623 0.459,-0.169 0.93,-0.3 1.396,-0.451 0.93,-0.301 1.883,-0.55 2.784,-0.922 0.985,-0.406 1.706,-1.128 1.923,-2.219 0.321,-1.609 -0.048,-3.201 -1.377,-4.126 -0.698,-0.486 -1.488,-0.738 -2.318,-0.843 -2.282,-0.289 -4.433,0.118 -6.43,1.279 -0.08,0.047 -0.154,0.103 -0.254,0.17 0.563,0.91 1.117,1.807 1.687,2.73 0.101,-0.057 0.188,-0.106 0.274,-0.156 1.217,-0.693 2.491,-1.176 3.924,-1.07 0.178,0.013 0.358,0.036 0.531,0.078 0.31,0.075 0.525,0.253 0.56,0.593 0.032,0.317 -0.131,0.537 -0.398,0.654 -0.361,0.159 -0.734,0.296 -1.111,0.409 -0.902,0.272 -1.81,0.52 -2.713,0.788 -0.17,0.05 -0.33,0.138 -0.491,0.216 -1.468,0.719 -1.983,1.881 -1.87,3.517 0.124,1.787 1.37,3.067 3.292,3.463 2.234,0.461 4.374,0.154 6.345,-1.058 C -0.219,0.157 -0.123,0.084 0,0" /></g><g
           transform="translate(1820.1909,70.0067)"
           id="g614"><path
             id="path616"
             style="fill:#ffffff;fill-opacity:1;fill-rule:nonzero;stroke:none"
             d="m 0,0 c 0,0.122 -0.017,0.248 0.003,0.367 0.042,0.238 -0.071,0.361 -0.285,0.389 -0.417,0.056 -0.837,0.128 -1.256,0.128 -0.47,0.001 -0.733,-0.308 -0.79,-0.825 -0.058,-0.529 0.163,-0.938 0.581,-1.072 0.378,-0.121 0.748,-0.05 1.11,0.063 C -0.04,-0.763 0,-0.701 0,-0.085 Z m -0.006,2.601 c 0,0.212 0.016,0.411 -0.003,0.607 C -0.06,3.725 -0.38,4.02 -0.931,4.065 -1.862,4.142 -2.755,4.003 -3.596,3.578 c -0.1,-0.05 -0.202,-0.094 -0.335,-0.156 -0.283,0.715 -0.558,1.411 -0.837,2.117 0.037,0.031 0.06,0.063 0.09,0.077 1.716,0.78 3.507,1.038 5.356,0.665 1.464,-0.295 2.35,-1.384 2.385,-2.968 0.046,-2.124 0.013,-4.249 0.014,-6.375 0,-0.026 -0.013,-0.053 -0.024,-0.103 H 0.014 c -0.008,0.179 -0.015,0.353 -0.024,0.558 -0.106,-0.065 -0.192,-0.118 -0.277,-0.17 -1.005,-0.621 -2.076,-0.794 -3.199,-0.403 -1.059,0.369 -1.593,1.189 -1.781,2.258 -0.115,0.659 -0.109,1.32 0.12,1.957 0.409,1.136 1.291,1.675 2.43,1.857 0.872,0.138 1.731,0.073 2.56,-0.256 0.042,-0.017 0.089,-0.021 0.151,-0.035" /></g><g
           transform="translate(1828.3774,73.8119)"
           id="g618"><path
             id="path620"
             style="fill:#231f20;fill-opacity:1;fill-rule:nonzero;stroke:none"
             d="m 0,0 v 2.7 c 0.12,0 0.238,10e-4 0.355,0 0.604,0 1.208,0.007 1.812,-0.004 C 3.291,2.676 3.879,1.738 3.425,0.704 3.262,0.333 2.955,0.147 2.58,0.065 2.397,0.024 2.207,0.004 2.019,0.003 1.352,-0.004 0.684,0 0,0" /></g><g
           transform="translate(1820.1909,70.0067)"
           id="g622"><path
             id="path624"
             style="fill:#231f20;fill-opacity:1;fill-rule:nonzero;stroke:none"
             d="m 0,0 v -0.085 c 0,-0.616 -0.04,-0.678 -0.637,-0.865 -0.362,-0.113 -0.732,-0.184 -1.11,-0.063 -0.418,0.134 -0.639,0.543 -0.581,1.072 0.057,0.517 0.32,0.826 0.79,0.825 0.419,0 0.839,-0.072 1.256,-0.128 C -0.068,0.728 0.045,0.605 0.003,0.367 -0.017,0.248 0,0.122 0,0" /></g><path
           id="path626"
           style="fill:#ffffff;fill-opacity:1;fill-rule:nonzero;stroke:none"
           d="m 2023.255,74.124 h 104.196 V 55.659 h -104.196 z" /><g
           transform="translate(2025.2085,72.2616)"
           id="g628"><path
             id="path630"
             style="fill:#231f20;fill-opacity:1;fill-rule:nonzero;stroke:none"
             d="m 0,0 v -14.772 h 26.484 c 1.704,2.155 2.854,4.659 2.854,7.385 0,2.71 -1.129,5.241 -2.813,7.387 z" /></g><g
           transform="translate(2048.0449,64.8915)"
           id="g632"><path
             id="path634"
             style="fill:#231f20;fill-opacity:1;fill-rule:nonzero;stroke:none"
             d="m 0,0 c 0.002,-4.605 -3.945,-8.341 -8.818,-8.343 -4.871,-0.003 -8.825,3.727 -8.827,8.333 V 0 c -0.004,4.604 3.944,8.341 8.817,8.344 C -3.956,8.346 -0.003,4.615 0,0.009 Z" /></g><g
           transform="translate(2043.5869,65.8216)"
           id="g636"><path
             id="path638"
             style="fill:#ffffff;fill-opacity:1;fill-rule:nonzero;stroke:none"
             d="m 0,0 c -0.252,0.522 -0.624,0.782 -1.112,0.782 -0.91,0 -1.365,-0.568 -1.365,-1.702 0,-1.136 0.455,-1.702 1.365,-1.702 0.59,0 1.003,0.276 1.239,0.83 L 1.392,-2.415 C 0.802,-3.406 -0.08,-3.9 -1.257,-3.9 c -0.909,0 -1.634,0.264 -2.181,0.791 -0.546,0.526 -0.821,1.253 -0.821,2.179 0,0.909 0.279,1.632 0.832,2.166 0.556,0.536 1.261,0.803 2.12,0.803 1.244,0 2.136,-0.464 2.672,-1.392 z m -5.816,0 c -0.254,0.522 -0.632,0.782 -1.136,0.782 -0.892,0 -1.338,-0.568 -1.338,-1.702 0,-1.136 0.446,-1.702 1.338,-1.702 0.589,0 1.009,0.276 1.262,0.83 l 1.236,-0.623 C -5.042,-3.406 -5.927,-3.9 -7.106,-3.9 c -0.909,0 -1.639,0.264 -2.185,0.791 -0.548,0.526 -0.821,1.253 -0.821,2.179 0,0.909 0.282,1.632 0.846,2.166 0.564,0.536 1.268,0.803 2.11,0.803 1.246,0 2.137,-0.464 2.677,-1.392 z m -4.353,4.618 c -1.655,-1.579 -2.481,-3.43 -2.481,-5.551 0,-2.12 0.818,-3.955 2.456,-5.502 1.637,-1.547 3.585,-2.321 5.847,-2.321 2.261,0 4.226,0.782 5.897,2.344 1.587,1.453 2.379,3.278 2.379,5.479 0,2.184 -0.805,4.039 -2.417,5.562 -1.611,1.524 -3.566,2.285 -5.859,2.285 -2.295,0 -4.236,-0.765 -5.822,-2.296 M 2.808,5.861 C 4.763,4.012 5.743,1.748 5.743,-0.93 c 0,-2.678 -0.962,-4.92 -2.885,-6.721 -2.042,-1.897 -4.453,-2.847 -7.234,-2.847 -2.75,0 -5.121,0.942 -7.111,2.824 -1.99,1.88 -2.986,4.129 -2.986,6.744 0,2.614 0.996,4.879 2.986,6.791 1.941,1.851 4.311,2.775 7.111,2.775 2.833,0 5.228,-0.924 7.184,-2.775" /></g><g
           transform="translate(2106.6514,68.5843)"
           id="g640"><path
             id="path642"
             style="fill:#231f20;fill-opacity:1;fill-rule:nonzero;stroke:none"
             d="m 0,0 h 2.141 c 1.193,0 2.084,-0.082 2.666,-0.243 0.588,-0.158 1.09,-0.428 1.506,-0.811 0.37,-0.334 0.645,-0.717 0.822,-1.153 0.181,-0.435 0.271,-0.928 0.271,-1.48 0,-0.556 -0.09,-1.055 -0.271,-1.492 C 6.958,-5.615 6.683,-5.999 6.313,-6.333 5.893,-6.715 5.387,-6.988 4.797,-7.148 4.206,-7.307 3.321,-7.387 2.141,-7.387 H 0 V 0 m 2.03,-1.44 v -4.507 h 0.726 c 0.83,0 1.463,0.194 1.898,0.58 0.438,0.386 0.658,0.945 0.658,1.68 0,0.734 -0.217,1.292 -0.652,1.674 C 4.225,-1.63 3.59,-1.44 2.756,-1.44 H 2.03 M -9.042,0 h 2.265 l 2.861,-5.066 V 0 h 1.924 v -7.387 h -2.267 l -2.86,5.066 V -7.387 H -9.042 V 0 m -4.896,-3.751 h 3.311 V -5.19 h -3.311 z m -1.533,-3.229 c -0.375,-0.183 -0.762,-0.319 -1.166,-0.411 -0.404,-0.092 -0.826,-0.139 -1.263,-0.139 -1.312,0 -2.351,0.344 -3.117,1.029 -0.767,0.69 -1.149,1.624 -1.149,2.8 0,1.182 0.382,2.115 1.149,2.8 0.766,0.69 1.805,1.036 3.117,1.036 0.437,0 0.859,-0.048 1.263,-0.14 0.404,-0.093 0.791,-0.23 1.166,-0.411 v -1.529 c -0.378,0.241 -0.748,0.418 -1.113,0.53 -0.367,0.112 -0.751,0.169 -1.155,0.169 -0.723,0 -1.293,-0.218 -1.707,-0.653 -0.416,-0.437 -0.622,-1.037 -0.622,-1.802 0,-0.762 0.206,-1.36 0.622,-1.795 0.414,-0.435 0.984,-0.653 1.707,-0.653 0.404,0 0.788,0.056 1.155,0.169 0.365,0.111 0.735,0.289 1.113,0.527 V -6.98 M -30.755,0 h 2.265 l 2.862,-5.066 V 0 h 1.922 v -7.387 h -2.264 l -2.862,5.066 v -5.066 h -1.923 V 0 m -4.896,-3.751 h 3.309 V -5.19 h -3.309 z M -42.582,0 h 2.219 L -38.571,-2.632 -36.78,0 h 2.225 l -2.999,-4.274 v -3.113 h -2.03 v 3.113 L -42.582,0 m -1.192,-3.435 c 0.435,-0.117 0.772,-0.336 1.01,-0.658 0.24,-0.319 0.359,-0.711 0.359,-1.176 0,-0.711 -0.258,-1.243 -0.769,-1.592 -0.513,-0.351 -1.294,-0.526 -2.341,-0.526 h -3.367 V 0 h 3.046 c 1.092,0 1.883,-0.154 2.372,-0.465 0.492,-0.31 0.737,-0.806 0.737,-1.488 0,-0.36 -0.09,-0.668 -0.269,-0.922 -0.178,-0.25 -0.44,-0.437 -0.778,-0.56 m -1.888,-2.654 c 0.407,0 0.713,0.08 0.917,0.241 0.207,0.161 0.311,0.406 0.311,0.733 0,0.32 -0.103,0.559 -0.306,0.717 -0.203,0.162 -0.511,0.242 -0.922,0.242 h -1.191 v -1.933 h 1.191 m -0.069,3.23 c 0.32,0 0.563,0.066 0.728,0.196 0.164,0.133 0.246,0.327 0.246,0.586 0,0.253 -0.082,0.447 -0.246,0.577 -0.165,0.136 -0.408,0.205 -0.728,0.205 h -1.122 v -1.564 z" /></g><path
           id="path644"
           style="fill:none;stroke:#231f20;stroke-width:1;stroke-linecap:butt;stroke-linejoin:miter;stroke-miterlimit:10;stroke-dasharray:none;stroke-opacity:1"
           d="m 2025.208,72.277 h 100.288 V 57.506 h -100.288 z" /><path
           id="path646"
           style="fill:none;stroke:#231f20;stroke-width:1;stroke-linecap:butt;stroke-linejoin:miter;stroke-miterlimit:4;stroke-dasharray:none;stroke-opacity:1"
           d="m 2023.255,74.124 h 104.196 V 55.659 h -104.196 z" /><g
           transform="translate(1625.2612,73.3519)"
           id="g648"><path
             id="path650"
             style="fill:#231f20;fill-opacity:1;fill-rule:nonzero;stroke:none"
             d="m 0,0 c 0.329,0.183 0.805,0.293 1.171,0.33 0.878,-1.025 1.537,-1.794 2.672,-2.745 1.829,1.756 3.915,2.854 6.367,2.854 2.306,0 4.355,-0.768 5.526,-2.598 0.696,-1.135 0.879,-3.111 0.879,-4.831 0,-2.708 -0.073,-4.501 -0.073,-5.855 0,-1.647 -0.037,-3.075 0.109,-5.453 -0.695,-0.074 -1.427,-0.074 -2.122,-0.074 -0.696,0 -1.354,0 -2.123,0.074 -0.146,2.195 -0.146,4.135 -0.11,6.002 0,0.915 0.037,1.317 0.074,5.086 0,1.538 -0.22,2.892 -0.586,3.551 -0.695,1.207 -1.866,1.756 -3.221,1.756 -1.427,0 -3.001,-0.586 -4.318,-1.684 v -14.711 c -0.732,-0.074 -1.5,-0.074 -2.232,-0.074 -0.732,0 -1.428,0 -2.013,0.074 z m -22.068,7.686 c 1.464,0.987 1.94,1.354 3.147,2.305 0.293,-0.036 0.805,-0.183 1.098,-0.366 V -2.123 c 1.72,1.611 3.733,2.562 6.038,2.562 2.306,0 4.356,-0.768 5.527,-2.598 0.695,-1.135 0.878,-3.111 0.878,-4.831 0,-2.708 -0.073,-4.501 -0.073,-5.855 0,-1.647 -0.037,-3.075 0.109,-5.453 -0.695,-0.074 -1.427,-0.074 -2.122,-0.074 -0.695,0 -1.354,0 -2.123,0.074 -0.146,2.195 -0.146,4.135 -0.109,6.002 0,0.915 0.036,1.317 0.073,5.086 0,1.538 -0.22,2.892 -0.586,3.551 -0.695,1.207 -1.866,1.756 -3.22,1.756 -1.428,0 -3.001,-0.586 -4.319,-1.684 v -14.711 c -0.732,-0.074 -1.5,-0.074 -2.232,-0.074 -0.732,0 -1.428,0 -2.013,0.074 z m -12.59,-24.045 c 1.025,0.037 2.05,0.512 3.038,1.391 -0.073,0.915 -0.11,1.793 -0.11,2.781 0,0.952 0.037,2.16 0.073,3.367 -0.915,-0.512 -1.866,-0.988 -2.781,-1.464 -1.354,-0.695 -2.233,-1.061 -2.708,-1.83 -0.293,-0.439 -0.439,-0.988 -0.439,-1.683 0,-1.683 1.244,-2.598 2.927,-2.562 m -5.343,5.709 c 1.025,0.659 2.379,1.062 3.77,1.501 1.537,0.476 3.074,1.024 4.574,1.683 l 0.037,0.879 c 0.073,1.354 -0.219,2.415 -0.732,3.147 -0.696,0.988 -1.867,1.464 -2.964,1.464 -1.245,0 -2.489,-0.513 -4.063,-1.464 -0.366,0.256 -0.658,0.659 -0.768,0.951 2.122,1.977 4.538,2.892 6.661,2.892 1.829,0 3.549,-0.696 4.684,-2.05 0.952,-1.134 1.5,-2.781 1.427,-4.867 -0.073,-2.233 -0.146,-4.355 -0.146,-6.588 0,-1.463 0.036,-3.513 0.183,-5.196 -0.256,-0.147 -0.769,-0.293 -1.135,-0.293 -1.098,0.732 -1.866,1.464 -2.708,2.452 -1.647,-1.757 -3.843,-2.708 -5.892,-2.708 -2.781,0 -5.087,1.427 -5.087,4.318 0,1.537 0.842,3.038 2.159,3.879 M -74.768,0 c 0.366,0.22 0.732,0.293 1.171,0.33 0.805,-0.952 1.464,-1.684 2.452,-2.562 1.793,1.683 3.806,2.671 6.185,2.671 2.306,0 4.318,-0.805 5.526,-2.598 l 0.147,-0.22 c 1.793,1.757 3.879,2.818 6.331,2.818 2.305,0 4.355,-0.768 5.526,-2.598 0.695,-1.135 0.878,-3.111 0.878,-4.831 0,-2.708 -0.073,-4.501 -0.073,-5.855 0,-1.647 -0.037,-3.075 0.11,-5.453 -0.696,-0.074 -1.427,-0.074 -2.123,-0.074 -0.695,0 -1.354,0 -2.122,0.074 -0.147,2.195 -0.147,4.135 -0.11,6.002 0,0.915 0.036,1.317 0.073,4.72 0,1.538 -0.219,2.892 -0.585,3.55 -0.696,1.208 -1.867,1.757 -3.221,1.757 -1.427,0 -2.928,-0.293 -4.282,-1.39 0.256,-1.025 0.329,-2.197 0.329,-3.331 0,-2.708 -0.073,-4.501 -0.073,-5.855 0,-1.647 -0.036,-3.075 0.11,-5.453 -0.695,-0.074 -1.427,-0.074 -2.123,-0.074 -0.695,0 -1.354,0 -2.122,0.074 -0.147,2.195 -0.147,4.135 -0.11,6.002 0,0.915 0.037,1.683 0.073,4.72 0.037,1.538 -0.219,2.892 -0.585,3.55 -0.696,1.208 -1.867,1.757 -3.221,1.757 -1.281,0 -2.671,-0.476 -3.916,-1.39 v -14.639 c -0.732,-0.074 -1.5,-0.074 -2.232,-0.074 -0.732,0 -1.427,0 -2.013,0.074 z m -12.663,-16.359 c 1.025,0.037 2.05,0.512 3.038,1.391 -0.073,0.915 -0.11,1.793 -0.11,2.781 0,0.952 0.037,2.16 0.073,3.367 -0.915,-0.512 -1.866,-0.988 -2.781,-1.464 -1.354,-0.695 -2.232,-1.061 -2.708,-1.83 -0.293,-0.439 -0.439,-0.988 -0.439,-1.683 0,-1.683 1.244,-2.598 2.927,-2.562 m -5.343,5.709 c 1.025,0.659 2.379,1.062 3.77,1.501 1.537,0.476 3.074,1.024 4.574,1.683 l 0.037,0.879 c 0.073,1.354 -0.22,2.415 -0.732,3.147 -0.695,0.988 -1.866,1.464 -2.964,1.464 -1.245,0 -2.489,-0.513 -4.063,-1.464 -0.366,0.256 -0.658,0.659 -0.768,0.951 2.122,1.977 4.538,2.892 6.66,2.892 1.83,0 3.551,-0.696 4.685,-2.05 0.952,-1.134 1.501,-2.781 1.427,-4.867 -0.073,-2.233 -0.146,-4.355 -0.146,-6.588 0,-1.463 0.036,-3.513 0.183,-5.196 -0.256,-0.147 -0.769,-0.293 -1.135,-0.293 -1.098,0.732 -1.866,1.464 -2.708,2.452 -1.647,-1.757 -3.843,-2.708 -5.892,-2.708 -2.781,0 -5.087,1.427 -5.087,4.318 0,1.537 0.842,3.038 2.159,3.879 M -115.94,0 c 0.33,0.183 0.805,0.293 1.171,0.33 0.879,-1.025 1.538,-1.794 2.672,-2.745 1.83,1.756 3.916,2.854 6.368,2.854 2.305,0 4.355,-0.768 5.526,-2.598 0.695,-1.135 0.878,-3.111 0.878,-4.831 0,-2.708 -0.073,-4.501 -0.073,-5.855 0,-1.647 -0.036,-3.075 0.11,-5.453 -0.695,-0.074 -1.427,-0.074 -2.123,-0.074 -0.695,0 -1.354,0 -2.122,0.074 -0.147,2.195 -0.147,4.135 -0.11,6.002 0,0.915 0.036,1.317 0.073,5.086 0,1.538 -0.219,2.892 -0.586,3.551 -0.695,1.207 -1.866,1.756 -3.22,1.756 -1.427,0 -3.001,-0.586 -4.318,-1.684 v -14.711 c -0.732,-0.074 -1.501,-0.074 -2.233,-0.074 -0.732,0 -1.427,0 -2.013,0.074 z" /></g><g
           transform="translate(1895.3983,81.9621)"
           id="g652"><path
             id="path654"
             style="fill:#231f20;fill-opacity:1;fill-rule:nonzero;stroke:none"
             d="m 0,0 c -0.685,-0.671 -1.748,-0.993 -2.811,-0.993 -1.203,0 -2.168,0.336 -2.84,0.951 -0.629,0.587 -1.063,1.441 -1.063,2.378 h 1.301 c 0,-0.588 0.294,-1.175 0.699,-1.567 0.448,-0.433 1.203,-0.615 1.903,-0.615 0.755,0 1.398,0.154 1.846,0.573 0.308,0.28 0.504,0.63 0.504,1.161 0,0.769 -0.49,1.413 -1.665,1.595 L -3.692,3.72 c -1.483,0.224 -2.644,1.049 -2.644,2.63 0,0.741 0.336,1.455 0.867,1.958 0.686,0.643 1.567,0.979 2.602,0.979 0.965,0 1.916,-0.322 2.573,-0.951 C 0.308,7.763 0.63,7.049 0.657,6.21 h -1.3 C -0.671,6.7 -0.853,7.133 -1.133,7.455 -1.51,7.888 -2.112,8.14 -2.881,8.14 -3.594,8.14 -4.21,7.944 -4.644,7.455 -4.895,7.161 -5.049,6.825 -5.049,6.378 c 0,-0.895 0.741,-1.301 1.482,-1.399 0.56,-0.07 1.105,-0.168 1.651,-0.251 C -0.266,4.49 0.839,3.483 0.839,1.916 0.839,1.091 0.49,0.475 0,0" /></g><g
           transform="translate(1902.8458,85.179)"
           id="g656"><path
             id="path658"
             style="fill:#00adef;fill-opacity:1;fill-rule:nonzero;stroke:none"
             d="M 0,0 V -4.028 H -1.259 V 0 l -3.329,5.888 h 1.399 L -0.587,1.175 2,5.888 h 1.329 z" /></g><g
           transform="translate(1914.7015,81.9621)"
           id="g660"><path
             id="path662"
             style="fill:#231f20;fill-opacity:1;fill-rule:nonzero;stroke:none"
             d="m 0,0 c -0.685,-0.671 -1.748,-0.993 -2.811,-0.993 -1.203,0 -2.168,0.336 -2.84,0.951 -0.629,0.587 -1.063,1.441 -1.063,2.378 h 1.301 c 0,-0.588 0.294,-1.175 0.699,-1.567 0.448,-0.433 1.203,-0.615 1.903,-0.615 0.755,0 1.398,0.154 1.846,0.573 0.308,0.28 0.504,0.63 0.504,1.161 0,0.769 -0.49,1.413 -1.665,1.595 L -3.692,3.72 c -1.483,0.224 -2.644,1.049 -2.644,2.63 0,0.741 0.336,1.455 0.867,1.958 0.686,0.643 1.567,0.979 2.602,0.979 0.965,0 1.916,-0.322 2.573,-0.951 C 0.308,7.763 0.63,7.049 0.657,6.21 h -1.3 C -0.671,6.7 -0.853,7.133 -1.133,7.455 -1.51,7.888 -2.112,8.14 -2.881,8.14 -3.594,8.14 -4.21,7.944 -4.643,7.455 -4.895,7.161 -5.049,6.825 -5.049,6.378 c 0,-0.895 0.741,-1.301 1.482,-1.399 0.56,-0.07 1.105,-0.168 1.651,-0.251 C -0.266,4.49 0.839,3.483 0.839,1.916 0.839,1.091 0.49,0.475 0,0" /></g><g
           transform="translate(1921.88,89.9065)"
           id="g664"><path
             id="path666"
             style="fill:#231f20;fill-opacity:1;fill-rule:nonzero;stroke:none"
             d="M 0,0 V -8.756 H -1.259 V 0 H -4.21 V 1.161 H 2.951 L 2.951,0 Z" /></g><g
           transform="translate(1927.2493,81.1508)"
           id="g668"><path
             id="path670"
             style="fill:#231f20;fill-opacity:1;fill-rule:nonzero;stroke:none"
             d="M 0,0 V 9.917 H 6.63 V 8.77 H 1.245 V 5.748 H 5.972 V 4.574 H 1.245 V 1.147 H 6.63 V 0 Z" /></g><g
           transform="translate(1945.3657,81.1508)"
           id="g672"><path
             id="path674"
             style="fill:#231f20;fill-opacity:1;fill-rule:nonzero;stroke:none"
             d="M 0,0 V 8.364 L -3.077,0.14 H -4.056 L -7.133,8.434 V 0 h -1.189 v 9.917 h 1.79 L -3.539,1.846 -0.56,9.917 H 1.189 L 1.189,0 Z" /></g><path
           id="path676"
           style="fill:#231f20;fill-opacity:1;fill-rule:nonzero;stroke:none"
           d="m 1950.119,91.067 h 1.273 V 81.15 h -1.273 z" /><g
           transform="translate(1960.766,82.0181)"
           id="g678"><path
             id="path680"
             style="fill:#231f20;fill-opacity:1;fill-rule:nonzero;stroke:none"
             d="m 0,0 c -0.601,-0.601 -1.581,-1.063 -2.657,-1.063 -0.994,0 -1.973,0.364 -2.686,1.063 -1.077,1.049 -1.245,2.503 -1.245,4.084 0,1.581 0.168,3.035 1.245,4.084 0.713,0.699 1.692,1.063 2.686,1.063 1.076,0 2.042,-0.42 2.643,-1.021 C 0.559,7.623 0.923,6.867 0.965,5.944 h -1.287 c -0.014,0.546 -0.223,1.021 -0.545,1.385 -0.392,0.433 -1.035,0.727 -1.79,0.727 -0.672,0 -1.329,-0.265 -1.805,-0.755 -0.811,-0.839 -0.839,-2.182 -0.839,-3.217 0,-1.035 0.028,-2.378 0.839,-3.217 0.476,-0.489 1.133,-0.755 1.805,-0.755 0.755,0 1.412,0.322 1.804,0.755 0.321,0.364 0.531,0.881 0.545,1.427 H 0.979 C 0.937,1.371 0.573,0.587 0,0" /></g><g
           transform="translate(1894.0137,76.0237)"
           id="g682"><path
             id="path684"
             style="fill:#231f20;fill-opacity:1;fill-rule:nonzero;stroke:none"
             d="m 0,0 c -0.462,0.462 -1.119,0.685 -1.762,0.685 h -2.21 v -7.622 h 2.21 c 0.643,0 1.3,0.223 1.762,0.685 0.783,0.797 0.853,2.07 0.853,3.133 C 0.853,-2.056 0.783,-0.811 0,0 M 0.839,-7.091 C 0.14,-7.762 -0.797,-8.084 -1.762,-8.084 h -3.455 v 9.916 h 3.455 c 0.965,0 1.902,-0.335 2.601,-1.007 1.091,-1.035 1.273,-2.517 1.273,-3.944 0,-1.427 -0.196,-2.937 -1.273,-3.972" /></g><g
           transform="translate(1898.9015,67.9395)"
           id="g686"><path
             id="path688"
             style="fill:#00adef;fill-opacity:1;fill-rule:nonzero;stroke:none"
             d="M 0,0 V 9.917 H 6.63 V 8.77 H 1.245 V 5.748 H 5.972 V 4.574 H 1.245 V 1.147 H 6.63 V 0 Z" /></g><g
           transform="translate(1914.7015,68.7508)"
           id="g690"><path
             id="path692"
             style="fill:#231f20;fill-opacity:1;fill-rule:nonzero;stroke:none"
             d="m 0,0 c -0.685,-0.671 -1.748,-0.993 -2.811,-0.993 -1.203,0 -2.168,0.336 -2.84,0.951 -0.629,0.587 -1.063,1.441 -1.063,2.378 h 1.301 c 0,-0.588 0.294,-1.175 0.699,-1.567 0.448,-0.433 1.203,-0.615 1.903,-0.615 0.755,0 1.398,0.154 1.846,0.573 0.308,0.28 0.504,0.63 0.504,1.161 0,0.769 -0.49,1.413 -1.665,1.595 L -3.692,3.72 c -1.483,0.224 -2.644,1.049 -2.644,2.63 0,0.741 0.336,1.455 0.867,1.958 0.686,0.643 1.567,0.979 2.602,0.979 0.965,0 1.916,-0.322 2.573,-0.951 C 0.308,7.763 0.63,7.049 0.657,6.21 h -1.3 C -0.671,6.7 -0.853,7.133 -1.133,7.455 -1.51,7.888 -2.112,8.14 -2.881,8.14 -3.594,8.14 -4.21,7.944 -4.643,7.455 -4.895,7.161 -5.049,6.825 -5.049,6.378 c 0,-0.895 0.741,-1.301 1.482,-1.399 0.56,-0.07 1.105,-0.168 1.651,-0.251 C -0.266,4.49 0.839,3.483 0.839,1.916 0.839,1.091 0.49,0.475 0,0" /></g><path
           id="path694"
           style="fill:#231f20;fill-opacity:1;fill-rule:nonzero;stroke:none"
           d="m 1920.614,77.856 h 1.273 v -9.917 h -1.273 z" /><g
           transform="translate(1933.5642,67.9395)"
           id="g696"><path
             id="path698"
             style="fill:#231f20;fill-opacity:1;fill-rule:nonzero;stroke:none"
             d="m 0,0 -0.21,1.189 c -0.489,-0.811 -1.58,-1.385 -2.699,-1.385 -0.993,0 -1.958,0.322 -2.672,1.021 -1.007,0.979 -1.287,2.35 -1.287,4.126 0,1.581 0.21,3.035 1.287,4.084 0.714,0.7 1.679,1.063 2.672,1.063 1.119,0 2.154,-0.391 2.839,-1.119 C 0.406,8.476 0.741,7.846 0.783,7.049 H -0.518 C -0.56,7.511 -0.713,7.833 -0.965,8.14 -1.413,8.672 -2.098,8.924 -2.909,8.924 -3.581,8.924 -4.238,8.658 -4.714,8.168 -5.525,7.329 -5.581,5.986 -5.581,4.951 c 0,-0.993 0.07,-2.419 0.895,-3.259 0.476,-0.489 1.105,-0.713 1.777,-0.713 0.699,0 1.356,0.238 1.804,0.685 0.657,0.644 0.853,1.609 0.853,2.518 H -2.909 V 5.343 H 0.867 V 0 Z" /></g><g
           transform="translate(1943.1138,67.9395)"
           id="g700"><path
             id="path702"
             style="fill:#231f20;fill-opacity:1;fill-rule:nonzero;stroke:none"
             d="M 0,0 -4.867,7.972 V 0 H -6.07 v 9.917 h 1.398 L 0.196,1.916 V 9.917 H 1.399 L 1.399,0 Z" /></g><g
           transform="translate(1892.4259,63.4)"
           id="g704"><path
             id="path706"
             style="fill:#231f20;fill-opacity:1;fill-rule:nonzero;stroke:none"
             d="m 0,0 -1.748,-5.147 h 3.51 z m 2.979,-8.672 -0.811,2.35 H -2.14 l -0.797,-2.35 h -1.259 l 3.497,9.917 h 1.454 l 3.511,-9.917 z" /></g><g
           transform="translate(1905.1536,55.5395)"
           id="g708"><path
             id="path710"
             style="fill:#00adef;fill-opacity:1;fill-rule:nonzero;stroke:none"
             d="m 0,0 c -0.685,-0.671 -1.748,-0.993 -2.811,-0.993 -1.203,0 -2.168,0.336 -2.84,0.951 -0.629,0.587 -1.063,1.441 -1.063,2.378 h 1.301 c 0,-0.588 0.294,-1.175 0.7,-1.567 0.447,-0.433 1.203,-0.615 1.902,-0.615 0.755,0 1.399,0.154 1.846,0.573 0.308,0.28 0.504,0.63 0.504,1.161 0,0.769 -0.49,1.413 -1.665,1.595 L -3.692,3.72 c -1.483,0.224 -2.644,1.049 -2.644,2.63 0,0.741 0.336,1.455 0.867,1.958 0.686,0.643 1.567,0.979 2.602,0.979 0.965,0 1.916,-0.322 2.573,-0.951 C 0.308,7.763 0.63,7.049 0.657,6.21 h -1.3 C -0.671,6.7 -0.853,7.133 -1.133,7.455 -1.51,7.888 -2.112,8.14 -2.881,8.14 -3.594,8.14 -4.21,7.944 -4.643,7.455 -4.895,7.161 -5.049,6.825 -5.049,6.378 c 0,-0.895 0.741,-1.301 1.482,-1.399 0.56,-0.07 1.105,-0.168 1.651,-0.252 C -0.266,4.49 0.839,3.483 0.839,1.916 0.839,1.091 0.49,0.475 0,0" /></g><g
           transform="translate(1914.7015,55.5395)"
           id="g712"><path
             id="path714"
             style="fill:#231f20;fill-opacity:1;fill-rule:nonzero;stroke:none"
             d="m 0,0 c -0.685,-0.671 -1.748,-0.993 -2.811,-0.993 -1.203,0 -2.168,0.336 -2.84,0.951 -0.629,0.587 -1.063,1.441 -1.063,2.378 h 1.301 c 0,-0.588 0.294,-1.175 0.699,-1.567 0.448,-0.433 1.203,-0.615 1.903,-0.615 0.755,0 1.398,0.154 1.846,0.573 0.308,0.28 0.504,0.63 0.504,1.161 0,0.769 -0.49,1.413 -1.665,1.595 L -3.692,3.72 c -1.483,0.224 -2.644,1.049 -2.644,2.63 0,0.741 0.336,1.455 0.867,1.958 0.686,0.643 1.567,0.979 2.602,0.979 0.965,0 1.916,-0.322 2.573,-0.951 C 0.308,7.763 0.63,7.049 0.657,6.21 h -1.3 C -0.671,6.7 -0.853,7.133 -1.133,7.455 -1.51,7.888 -2.112,8.14 -2.881,8.14 -3.594,8.14 -4.21,7.944 -4.643,7.455 -4.895,7.161 -5.049,6.825 -5.049,6.378 c 0,-0.895 0.741,-1.301 1.482,-1.399 0.56,-0.07 1.105,-0.168 1.651,-0.252 C -0.266,4.49 0.839,3.483 0.839,1.916 0.839,1.091 0.49,0.475 0,0" /></g><g
           transform="translate(1923.0549,62.8965)"
           id="g716"><path
             id="path718"
             style="fill:#231f20;fill-opacity:1;fill-rule:nonzero;stroke:none"
             d="M 0,0 C -0.476,0.49 -1.133,0.741 -1.804,0.741 -2.476,0.741 -3.133,0.49 -3.609,0 -4.42,-0.839 -4.462,-2.182 -4.462,-3.217 c 0,-1.035 0.042,-2.378 0.853,-3.217 0.476,-0.489 1.133,-0.741 1.805,-0.741 0.671,0 1.328,0.252 1.804,0.741 0.811,0.839 0.853,2.182 0.853,3.217 C 0.853,-2.182 0.811,-0.839 0,0 M 0.867,-7.301 C 0.154,-8 -0.811,-8.364 -1.804,-8.364 c -0.993,0 -1.959,0.364 -2.672,1.063 -1.077,1.049 -1.273,2.503 -1.273,4.084 0,1.581 0.196,3.035 1.273,4.084 0.713,0.699 1.679,1.063 2.672,1.063 0.993,0 1.958,-0.364 2.671,-1.063 1.077,-1.049 1.273,-2.503 1.273,-4.084 0,-1.581 -0.196,-3.035 -1.273,-4.084" /></g><g
           transform="translate(1933.3685,55.5955)"
           id="g720"><path
             id="path722"
             style="fill:#231f20;fill-opacity:1;fill-rule:nonzero;stroke:none"
             d="m 0,0 c -0.601,-0.601 -1.581,-1.063 -2.658,-1.063 -0.993,0 -1.972,0.364 -2.685,1.063 -1.077,1.049 -1.245,2.503 -1.245,4.084 0,1.581 0.168,3.035 1.245,4.084 0.713,0.699 1.692,1.063 2.685,1.063 1.077,0 2.043,-0.42 2.644,-1.021 C 0.559,7.623 0.923,6.867 0.965,5.944 h -1.287 c -0.014,0.546 -0.224,1.021 -0.545,1.385 -0.392,0.433 -1.035,0.727 -1.791,0.727 -0.671,0 -1.328,-0.265 -1.804,-0.755 -0.811,-0.839 -0.839,-2.182 -0.839,-3.217 0,-1.035 0.028,-2.378 0.839,-3.217 0.476,-0.489 1.133,-0.755 1.804,-0.755 0.756,0 1.413,0.322 1.805,0.755 0.321,0.364 0.531,0.881 0.545,1.427 H 0.979 C 0.937,1.371 0.573,0.587 0,0" /></g><path
           id="path724"
           style="fill:#231f20;fill-opacity:1;fill-rule:nonzero;stroke:none"
           d="m 1937.044,64.645 h 1.273 v -9.917 h -1.273 z" /><g
           transform="translate(1944.9645,63.4)"
           id="g726"><path
             id="path728"
             style="fill:#231f20;fill-opacity:1;fill-rule:nonzero;stroke:none"
             d="m 0,0 -1.748,-5.147 h 3.51 z m 2.979,-8.672 -0.811,2.35 H -2.14 l -0.797,-2.35 h -1.259 l 3.497,9.917 h 1.454 l 3.511,-9.917 z" /></g><g
           transform="translate(1953.1866,63.4839)"
           id="g730"><path
             id="path732"
             style="fill:#231f20;fill-opacity:1;fill-rule:nonzero;stroke:none"
             d="M 0,0 V -8.756 H -1.259 V 0 H -4.21 V 1.161 H 2.951 L 2.951,0 Z" /></g><path
           id="path734"
           style="fill:#231f20;fill-opacity:1;fill-rule:nonzero;stroke:none"
           d="m 1958.482,64.645 h 1.273 v -9.917 h -1.273 z" /><g
           transform="translate(1968.0084,62.8965)"
           id="g736"><path
             id="path738"
             style="fill:#231f20;fill-opacity:1;fill-rule:nonzero;stroke:none"
             d="M 0,0 C -0.476,0.49 -1.133,0.741 -1.804,0.741 -2.476,0.741 -3.133,0.49 -3.609,0 -4.42,-0.839 -4.462,-2.182 -4.462,-3.217 c 0,-1.035 0.042,-2.378 0.853,-3.217 0.476,-0.489 1.133,-0.741 1.805,-0.741 0.671,0 1.328,0.252 1.804,0.741 0.811,0.839 0.853,2.182 0.853,3.217 C 0.853,-2.182 0.811,-0.839 0,0 M 0.867,-7.301 C 0.154,-8 -0.811,-8.364 -1.804,-8.364 c -0.993,0 -1.959,0.364 -2.672,1.063 -1.077,1.049 -1.273,2.503 -1.273,4.084 0,1.581 0.196,3.035 1.273,4.084 0.713,0.699 1.679,1.063 2.672,1.063 0.993,0 1.958,-0.364 2.671,-1.063 1.077,-1.049 1.273,-2.503 1.273,-4.084 0,-1.581 -0.196,-3.035 -1.273,-4.084" /></g><g
           transform="translate(1978.6504,54.7282)"
           id="g740"><path
             id="path742"
             style="fill:#231f20;fill-opacity:1;fill-rule:nonzero;stroke:none"
             d="M 0,0 -4.867,7.972 V 0 H -6.07 v 9.917 h 1.398 L 0.196,1.916 V 9.917 H 1.399 L 1.399,0 Z" /></g></g></g><text
       id="text746"
       style="font-variant:normal;font-weight:normal;font-stretch:normal;font-size:21.12312698px;font-family:'Akkurat Pro';-inkscape-font-specification:AkkuratPro-Regular;writing-mode:lr-tb;fill:#231f20;fill-opacity:1;fill-rule:nonzero;stroke:none"
       transform="matrix(0.62436302,-0.78113431,-0.78113431,-0.62436302,946.9833,1296.0385)"><tspan
         id="tspan744"
         y="0"
         x="0">C</tspan></text>
<text
       id="text750"
       style="font-variant:normal;font-weight:normal;font-stretch:normal;font-size:21.12314224px;font-family:'Akkurat Pro';-inkscape-font-specification:AkkuratPro-Regular;writing-mode:lr-tb;fill:#231f20;fill-opacity:1;fill-rule:nonzero;stroke:none"
       transform="matrix(0.65021574,-0.75974963,-0.75974963,-0.65021574,955.5994,1285.3651)"><tspan
         id="tspan748"
         y="0"
         x="0">I</tspan></text>
<text
       id="text754"
       style="font-variant:normal;font-weight:normal;font-stretch:normal;font-size:21.12304878px;font-family:'Akkurat Pro';-inkscape-font-specification:AkkuratPro-Regular;writing-mode:lr-tb;fill:#231f20;fill-opacity:1;fill-rule:nonzero;stroke:none"
       transform="matrix(0.67262543,-0.73998313,-0.73998313,-0.67262543,959.7496,1280.4624)"><tspan
         id="tspan752"
         y="0"
         x="0">T</tspan></text>
<text
       id="text758"
       style="font-variant:normal;font-weight:normal;font-stretch:normal;font-size:21.12308884px;font-family:'Akkurat Pro';-inkscape-font-specification:AkkuratPro-Regular;writing-mode:lr-tb;fill:#231f20;fill-opacity:1;fill-rule:nonzero;stroke:none"
       transform="matrix(0.69424035,-0.71974325,-0.71974325,-0.69424035,967.5873,1271.9027)"><tspan
         id="tspan756"
         y="0"
         x="0">I</tspan></text>
<text
       id="text762"
       style="font-variant:normal;font-weight:normal;font-stretch:normal;font-size:21.12309647px;font-family:'Akkurat Pro';-inkscape-font-specification:AkkuratPro-Regular;writing-mode:lr-tb;fill:#231f20;fill-opacity:1;fill-rule:nonzero;stroke:none"
       transform="matrix(0.7186825,-0.69533838,-0.69533838,-0.7186825,972.0001,1267.2335)"><tspan
         id="tspan760"
         y="0"
         x="0">Z</tspan></text>
<text
       id="text766"
       style="font-variant:normal;font-weight:normal;font-stretch:normal;font-size:21.1230526px;font-family:'Akkurat Pro';-inkscape-font-specification:AkkuratPro-Regular;writing-mode:lr-tb;fill:#231f20;fill-opacity:1;fill-rule:nonzero;stroke:none"
       transform="matrix(0.74705111,-0.6647666,-0.6647666,-0.74705111,981.5187,1258.0067)"><tspan
         id="tspan764"
         y="0"
         x="0">E</tspan></text>
<text
       id="text770"
       style="font-variant:normal;font-weight:normal;font-stretch:normal;font-size:21.1231308px;font-family:'Akkurat Pro';-inkscape-font-specification:AkkuratPro-Regular;writing-mode:lr-tb;fill:#231f20;fill-opacity:1;fill-rule:nonzero;stroke:none"
       transform="matrix(0.77880973,-0.62726023,-0.62726023,-0.77880973,991.7154,1248.9099)"><tspan
         id="tspan768"
         y="0"
         x="0">N</tspan></text>
</g></svg>