<?xml version="1.0" encoding="UTF-8" standalone="no"?>
<svg
   xmlns:dc="http://purl.org/dc/elements/1.1/"
   xmlns:cc="http://creativecommons.org/ns#"
   xmlns:rdf="http://www.w3.org/1999/02/22-rdf-syntax-ns#"
   xmlns:svg="http://www.w3.org/2000/svg"
   xmlns="http://www.w3.org/2000/svg"
   viewBox="0 0 1587.4 1122.52"
   height="1122.52"
   width="1587.4"
   xml:space="preserve"
   id="svg2"
   version="1.1"><metadata
     id="metadata8"><rdf:RDF><cc:Work
         rdf:about=""><dc:format>image/svg+xml</dc:format><dc:type
           rdf:resource="http://purl.org/dc/dcmitype/StillImage" /></cc:Work></rdf:RDF></metadata><defs
     id="defs6"><clipPath
       id="clipPath90"
       clipPathUnits="userSpaceOnUse"><path
         id="path88"
         d="M 0,841.89 H 1190.55 V 0 H 0 Z" /></clipPath><clipPath
       id="clipPath130"
       clipPathUnits="userSpaceOnUse"><path
         id="path128"
         d="M 0,841.89 H 1190.55 V 0 H 0 Z" /></clipPath><clipPath
       id="clipPath156"
       clipPathUnits="userSpaceOnUse"><path
         id="path154"
         d="M 0,841.89 H 1190.55 V 0 H 0 Z" /></clipPath><clipPath
       id="clipPath172"
       clipPathUnits="userSpaceOnUse"><path
         id="path170"
         d="m 1106.33,41.4943 h 20.21 V 21.2839 h -20.21 z" /></clipPath><clipPath
       id="clipPath176"
       clipPathUnits="userSpaceOnUse"><path
         id="path174"
         d="m 1106.327,21.284 h 20.211 v 20.21 h -20.211 z" /></clipPath><clipPath
       id="clipPath412"
       clipPathUnits="userSpaceOnUse"><path
         id="path410"
         d="M 0,841.89 H 1190.55 V 0 H 0 Z" /></clipPath></defs><g
     transform="matrix(1.3333333,0,0,-1.3333333,0,1122.52)"
     id="g10"><g
       transform="translate(687.5292,669.6701)"
       id="g12"><path
         id="path14"
         style="fill:none;stroke:#15141b;stroke-width:0.38800001;stroke-linecap:butt;stroke-linejoin:miter;stroke-miterlimit:10;stroke-dasharray:1.165, 2.329;stroke-dashoffset:0;stroke-opacity:1"
         d="M 0,0 H -534.054" /></g><text
       id="text18"
       style="font-variant:normal;font-weight:normal;font-stretch:normal;font-size:14px;font-family:'Akkurat Pro';-inkscape-font-specification:AkkuratPro-Regular;writing-mode:lr-tb;fill:#34b75b;fill-opacity:1;fill-rule:nonzero;stroke:none"
       transform="matrix(1,0,0,-1,59.7139,669.7715)"><tspan
         id="tspan16"
         y="0"
         x="0 9.5900002 15.68 24.205999 32.535999 40.950001 49.868 58.380001 63.153999 72.183998 80.598">Stakeholder</tspan></text>
<g
       transform="translate(687.5292,633.0096)"
       id="g20"><path
         id="path22"
         style="fill:none;stroke:#15141b;stroke-width:0.37200001;stroke-linecap:butt;stroke-linejoin:miter;stroke-miterlimit:10;stroke-dasharray:1.115, 2.23;stroke-dashoffset:0;stroke-opacity:1"
         d="M 0,0 H -489.467" /></g><text
       id="text26"
       style="font-variant:normal;font-weight:normal;font-stretch:normal;font-size:14px;font-family:'Akkurat Pro';-inkscape-font-specification:AkkuratPro-Regular;writing-mode:lr-tb;fill:#34b75b;fill-opacity:1;fill-rule:nonzero;stroke:none"
       transform="matrix(1,0,0,-1,59.7139,633.1113)"><tspan
         id="tspan24"
         y="0"
         x="0 8.316 16.827999 24.976 33.501999 39.591999 44.113998 52.625999 61.515999 65.435997 76.454002 80.374001 88.367996 96.781998 102.872 108.962 113.484 122.374">Location &amp; setting</tspan></text>
<g
       transform="translate(1133.5199,669.6701)"
       id="g28"><path
         id="path30"
         style="fill:none;stroke:#15141b;stroke-width:0.31600001;stroke-linecap:butt;stroke-linejoin:miter;stroke-miterlimit:10;stroke-dasharray:0.947, 1.894;stroke-dashoffset:0;stroke-opacity:1"
         d="M 0,0 H -353.089" /></g><text
       id="text34"
       style="font-variant:normal;font-weight:normal;font-stretch:normal;font-size:14px;font-family:'Akkurat Pro';-inkscape-font-specification:AkkuratPro-Regular;writing-mode:lr-tb;fill:#34b75b;fill-opacity:1;fill-rule:nonzero;stroke:none"
       transform="matrix(1,0,0,-1,703.7495,669.7715)"><tspan
         id="tspan32"
         y="0"
         x="0 9.5900002 18.004 26.264 39.256001 47.669998 56.560001">Segment</tspan></text>
<g
       transform="translate(1135.3907,633.0096)"
       id="g36"><path
         id="path38"
         style="fill:none;stroke:#15141b;stroke-width:0.18000001;stroke-linecap:butt;stroke-linejoin:miter;stroke-miterlimit:10;stroke-dasharray:0.539, 1.078;stroke-dashoffset:0;stroke-opacity:1"
         d="M 0,0 H -114.301" /></g><text
       id="text42"
       style="font-variant:normal;font-weight:normal;font-stretch:normal;font-size:14px;font-family:'Akkurat Pro';-inkscape-font-specification:AkkuratPro-Regular;writing-mode:lr-tb;fill:#34b75b;fill-opacity:1;fill-rule:nonzero;stroke:none"
       transform="matrix(1,0,0,-1,975.2354,633.1113)"><tspan
         id="tspan40"
         y="0"
         x="0 10.178 18.704 24.794001">Date</tspan></text>
<path
       id="path44"
       style="fill:none;stroke:#15141b;stroke-width:2.12599993;stroke-linecap:butt;stroke-linejoin:miter;stroke-miterlimit:10;stroke-dasharray:none;stroke-opacity:1"
       d="M 1163.2,49.976 H 32.712 v 657.06 H 1163.2 Z" /><text
       id="text48"
       style="font-variant:normal;font-weight:bold;font-stretch:normal;font-size:10px;font-family:'Akkurat Pro';-inkscape-font-specification:AkkuratPro-Bold;writing-mode:lr-tb;fill:#231f20;fill-opacity:1;fill-rule:nonzero;stroke:none"
       transform="matrix(1,0,0,-1,389.269,521.6895)"><tspan
         id="tspan46"
         y="0"
         x="0 7.3400002 13.74 18.190001 21.549999 27.959999 449.51001 456.39999 460.69 465.19 471.26001">DuringAfter</tspan></text>
<text
       id="text52"
       style="font-variant:normal;font-weight:bold;font-stretch:normal;font-size:16px;font-family:'Akkurat Pro';-inkscape-font-specification:AkkuratPro-Bold;writing-mode:lr-tb;fill:#231f20;fill-opacity:1;fill-rule:nonzero;stroke:none"
       transform="matrix(1,0,0,-1,59.7139,575.2583)"><tspan
         id="tspan50"
         y="0"
         x="0 10.784 23.024 34.048 44.959999 55.807999 59.952 71.503998 82.848 86.991997 98.015999 108.864 118.64 124.192 134.752 140.304 150.08">PHASE OR ACTIVITY</tspan></text>
<g
       transform="translate(389.2689,514.9802)"
       id="g54"><path
         id="path56"
         style="fill:none;stroke:#15141b;stroke-width:0.70899999;stroke-linecap:butt;stroke-linejoin:miter;stroke-miterlimit:10;stroke-dasharray:none;stroke-opacity:1"
         d="M 0,0 H 415.835" /></g><text
       id="text60"
       style="font-variant:normal;font-weight:bold;font-stretch:normal;font-size:10px;font-family:'Akkurat Pro';-inkscape-font-specification:AkkuratPro-Bold;writing-mode:lr-tb;fill:#231f20;fill-opacity:1;fill-rule:nonzero;stroke:none"
       transform="matrix(1,0,0,-1,59.7139,521.6895)"><tspan
         id="tspan58"
         y="0"
         x="0 7.1399999 13.21 17.5 23.700001 28.15">Before</tspan></text>
<g
       transform="translate(59.9755,514.9802)"
       id="g62"><path
         id="path64"
         style="fill:none;stroke:#15141b;stroke-width:0.70899999;stroke-linecap:butt;stroke-linejoin:miter;stroke-miterlimit:10;stroke-dasharray:none;stroke-opacity:1"
         d="M 0,0 H 295.621" /></g><g
       transform="translate(838.7758,514.9802)"
       id="g66"><path
         id="path68"
         style="fill:none;stroke:#15141b;stroke-width:0.70899999;stroke-linecap:butt;stroke-linejoin:miter;stroke-miterlimit:10;stroke-dasharray:none;stroke-opacity:1"
         d="M 0,0 H 295.621" /></g><text
       id="text74"
       style="font-variant:normal;font-weight:bold;font-stretch:normal;font-size:16px;font-family:'Akkurat Pro';-inkscape-font-specification:AkkuratPro-Bold;writing-mode:lr-tb;fill:#231f20;fill-opacity:1;fill-rule:nonzero;stroke:none"
       transform="matrix(1,0,0,-1,59.7139,136.2148)"><tspan
         id="tspan70"
         y="0"
         x="0 14.752 26.992001 37.776001 41.919998 53.472 65.183998 76.031998 86.944 96.720001 102.272 113.824 126.352">WHY QUESTIONS</tspan><tspan
         id="tspan72"
         y="-258.384"
         x="0 10.848 25.695999 37.248001 47.023998 52.576 64.127998 76.655998 87.568001 91.711998 102.736 115.264 127.008 131.15199 142.896 153.67999 166.20799 177.23199 192.08 197.632 208.48">EMOTIONS AND DYNAMICS</tspan></text>
<g
       transform="translate(59.7139,267.2432)"
       id="g76"><path
         id="path78"
         style="fill:none;stroke:#15141b;stroke-width:1.41700006;stroke-linecap:butt;stroke-linejoin:miter;stroke-miterlimit:10;stroke-dasharray:2.84, 2.84;stroke-dashoffset:0;stroke-opacity:1"
         d="M 0,0 H 1072.069" /></g><g
       transform="translate(1127.0864,261.4466)"
       id="g80"><path
         id="path82"
         style="fill:#15141b;fill-opacity:1;fill-rule:nonzero;stroke:none"
         d="M 0,0 -0.967,1.038 4.152,5.795 -0.967,10.554 0,11.592 6.233,5.795 Z" /></g><g
       id="g84"><g
         clip-path="url(#clipPath90)"
         id="g86"><g
           transform="translate(65.3579,291.7533)"
           id="g92"><path
             id="path94"
             style="fill:#15141b;fill-opacity:1;fill-rule:nonzero;stroke:none"
             d="m 0,0 c -0.116,0 -0.214,0.04 -0.294,0.12 l -4.179,4.031 c -0.045,0.036 -0.106,0.094 -0.184,0.175 -0.078,0.08 -0.202,0.226 -0.372,0.438 -0.17,0.212 -0.322,0.43 -0.455,0.653 C -5.618,5.64 -5.738,5.911 -5.843,6.228 -5.948,6.544 -6,6.853 -6,7.151 c 0,0.983 0.283,1.75 0.851,2.304 0.566,0.554 1.35,0.831 2.35,0.831 0.277,0 0.559,-0.049 0.847,-0.144 0.288,-0.097 0.556,-0.226 0.804,-0.389 C -0.901,9.59 -0.687,9.437 -0.509,9.294 -0.331,9.151 -0.161,9 0,8.839 0.161,9 0.33,9.151 0.509,9.294 0.687,9.437 0.901,9.59 1.148,9.753 c 0.248,0.163 0.516,0.292 0.804,0.389 0.288,0.095 0.57,0.144 0.847,0.144 1,0 1.784,-0.277 2.35,-0.831 C 5.716,8.901 6,8.134 6,7.151 6,6.165 5.489,5.161 4.466,4.138 L 0.294,0.12 C 0.214,0.04 0.116,0 0,0" /></g><g
           transform="translate(69.6344,239.2155)"
           id="g96"><path
             id="path98"
             style="fill:#15141b;fill-opacity:1;fill-rule:nonzero;stroke:none"
             d="m 0,0 -5.2,-11.141 c -0.077,-0.144 -0.231,-0.241 -0.404,-0.241 -0.039,0 -0.087,0.01 -0.135,0.02 -0.212,0.067 -0.337,0.269 -0.289,0.471 l 1.897,7.781 -3.909,-0.973 c -0.039,-0.009 -0.077,-0.009 -0.116,-0.009 -0.106,0 -0.221,0.038 -0.298,0.106 -0.116,0.096 -0.155,0.24 -0.126,0.375 l 1.936,7.944 c 0.048,0.183 0.221,0.308 0.424,0.308 h 3.158 c 0.241,0 0.433,-0.183 0.433,-0.404 0,-0.058 -0.019,-0.116 -0.048,-0.173 l -1.647,-4.459 3.814,0.944 c 0.038,0.01 0.077,0.019 0.115,0.019 0.125,0 0.241,-0.058 0.328,-0.144 C 0.039,0.308 0.067,0.144 0,0" /></g></g></g><text
       id="text102"
       style="font-variant:normal;font-weight:bold;font-stretch:normal;font-size:10px;font-family:'Akkurat Pro';-inkscape-font-specification:AkkuratPro-Bold;writing-mode:lr-tb;fill:#231f20;fill-opacity:1;fill-rule:nonzero;stroke:none"
       transform="matrix(1,0,0,-1,1094.1699,275.7979)"><tspan
         id="tspan100"
         y="0"
         x="0 6.1100001 9.5799999 18.860001">TIME</tspan></text>
<text
       id="text106"
       style="font-variant:normal;font-weight:bold;font-stretch:normal;font-size:27.4435997px;font-family:'Akkurat Pro';-inkscape-font-specification:AkkuratPro-Bold;writing-mode:lr-tb;fill:#231f20;fill-opacity:1;fill-rule:nonzero;stroke:none"
       transform="matrix(1,0,0,-1,133.5322,771.0366)"><tspan
         id="tspan104"
         y="0"
         x="0 18.60676 38.42104 59.909378 76.677422 95.28418 113.20485 129.97289 150.0616 168.97025 185.4364 192.5443 202.06723 223.55557 240.32361 258.93036 278.38788 296.50064 306.02359 324.63034">CONTEXTUAL INTERVIEW</tspan></text>
<text
       id="text110"
       style="font-variant:normal;font-weight:300;font-stretch:normal;font-size:18.7772007px;font-family:'Akkurat Light Pro';-inkscape-font-specification:AkkuratLightPro-Regular;writing-mode:lr-tb;fill:#231f20;fill-opacity:1;fill-rule:nonzero;stroke:none"
       transform="matrix(1,0,0,-1,135.8525,743.9497)"><tspan
         id="tspan108"
         y="0"
         x="0 10.252351 15.134423 24.74835 31.695913 41.816826 52.763931 57.646004 68.593109 78.601357 82.638458 89.586021 99.838371 103.87547 110.82304 121.77014 131.89105 135.92815 145.54208 154.53636 164.15028 171.09784 181.21875">Listening to the system</tspan></text>
<text
       id="text114"
       style="font-variant:normal;font-weight:normal;font-stretch:normal;font-size:8.58990002px;font-family:'Akkurat Pro';-inkscape-font-specification:AkkuratPro-Regular;writing-mode:lr-tb;fill:#110f0d;fill-opacity:1;fill-rule:nonzero;stroke:none"
       transform="matrix(1,0,0,-1,31.2656,23.311)"><tspan
         id="tspan112"
         y="0"
         x="0 5.8583117 10.651476 17.274288 22.342329 24.841991 29.669514 34.514217 39.668159 41.686783 49.271667 54.09919 57.363354 62.130745 64.140785 67.404945 72.232468 77.068581 79.611191 84.120888 86.139519 90.941269 94.282745">Download more tools at </tspan></text>
<text
       id="text118"
       style="font-variant:normal;font-weight:bold;font-stretch:normal;font-size:8.58990002px;font-family:'Akkurat Pro';-inkscape-font-specification:AkkuratPro-Bold;writing-mode:lr-tb;fill:#110f0d;fill-opacity:1;fill-rule:nonzero;stroke:none"
       transform="matrix(1,0,0,-1,127.6271,23.311)"><tspan
         id="tspan116"
         y="0"
         x="0 4.4409785 8.950676 13.426014 16.827614 21.655138 29.291559 31.79122 36.395405 41.592297 46.419819 50.929516 53.420589 58.187984 63.307564 66.70916 71.648354 76.587547 79.224648 84.223969 86.715042 90.357155 92.745148 97.684341 101.04299">systemicdesigntoolkit.org</tspan></text>
<text
       id="text122"
       style="font-variant:normal;font-weight:300;font-stretch:normal;font-size:8.58990002px;font-family:'Akkurat Light Pro';-inkscape-font-specification:AkkuratLightPro-Regular;writing-mode:lr-tb;fill:#110f0d;fill-opacity:1;fill-rule:nonzero;stroke:none"
       transform="matrix(1,0,0,-1,367.47429,23.207921)"><tspan
         id="tspan120"
         y="0"
         x="0 5.600615 10.27352 14.705909 19.438944 26.998056 34.557167 39.230072 44.280933 49.340385 54.01329 59.072742 60.95393 65.386322 67.662643 71.854515 76.52742 78.503098 80.392876 85.658485">Recommended size: A3</tspan></text>
<g
       id="g124"><g
         clip-path="url(#clipPath130)"
         id="g126"><g
           transform="translate(859.0883,24.8552)"
           id="g132"><path
             id="path134"
             style="fill:#231f20;fill-opacity:1;fill-rule:evenodd;stroke:none"
             d="m 0,0 -1.565,0.66 c -1.019,0.441 -1.528,1.056 -1.528,2.269 0,1.519 0.901,2.136 1.977,2.136 1.683,0 1.918,-1.388 1.918,-2.423 v -0.33 h 0.743 v 0.353 c 0,1.408 -0.391,3.148 -2.661,3.148 -1.626,0 -2.798,-1.056 -2.798,-2.974 0,-1.474 0.645,-2.311 1.916,-2.884 l 1.507,-0.682 c 1.137,-0.507 1.529,-1.256 1.529,-2.357 0,-1.277 -0.627,-2.399 -2.133,-2.399 -1.704,0 -2.291,1.188 -2.291,2.818 v 0.374 h -0.743 v -0.307 c 0,-1.345 0.194,-3.635 3.034,-3.635 1.623,0 2.953,1.234 2.953,3.17 C 1.858,-1.498 1.233,-0.529 0,0 M 7.102,5.989 C 5.869,5.989 4.851,5.285 4.559,4.096 H 4.518 V 9.161 H 3.344 v -15.13 h 1.174 v 7.862 c 0,1.806 0.921,2.995 2.291,2.995 1.194,0 1.78,-0.792 1.78,-2.4 v -8.457 h 1.175 v 8.832 c 0,2.202 -1.077,3.126 -2.662,3.126 m 4.871,-11.958 h 1.643 V 5.715 h -1.643 z m 0,13.147 h 1.643 v 1.979 h -1.643 z m 4.382,-0.363 v -1.1 H 14.887 V 3.776 h 1.468 v -9.745 h 2.115 v 9.745 h 1.721 V 5.715 H 18.47 v 1.034 c 0,0.792 0.351,1.125 1.135,1.125 h 0.586 V 9.7 c -0.313,0.045 -0.704,0.065 -1.154,0.065 -1.722,0 -2.682,-0.704 -2.682,-2.95 M 25.788,3.776 V 5.715 H 24.223 V 8.563 H 21.52 V -2.973 c 0,-2.402 0.392,-3.128 2.505,-3.128 0.627,0 1.176,0.067 1.763,0.132 v 2.115 c -0.176,-0.022 -0.392,-0.043 -0.607,-0.043 -0.783,0 -0.958,0.373 -0.958,1.299 v 6.374 z" /></g><g
           transform="translate(890.1647,38.024)"
           id="g136"><path
             id="path138"
             style="fill:#231f20;fill-opacity:1;fill-rule:evenodd;stroke:none"
             d="M 0,0 C -2.239,-0.331 -3.851,-2.436 -3.851,-4.803 V -9.39 h 4.382 c 2.261,0 4.273,1.688 4.589,4.033 C 5.543,-2.213 3.004,0.444 0,0 M 2.639,-7.402 H 0.797 v 3.243 c 0,0.408 -0.124,0.527 -0.361,0.527 -0.249,0 -0.371,-0.219 -0.371,-0.527 V -7.402 H -1.78 v 5.063 h 1.789 v -0.617 h 0.018 c 0.277,0.528 0.741,0.757 1.36,0.757 0.656,0 1.252,-0.378 1.252,-1.364 z" /></g></g></g><text
       id="text144"
       style="font-variant:normal;font-weight:bold;font-stretch:normal;font-size:6.84539986px;font-family:'Akkurat Pro';-inkscape-font-specification:AkkuratPro-Bold;writing-mode:lr-tb;fill:#231f20;fill-opacity:1;fill-rule:nonzero;stroke:none"
       transform="matrix(1,0,0,-1,1131.2769,33.8018)"><tspan
         id="tspan140"
         y="0"
         x="0 4.162003 8.2623978 12.458628 16.298897 20.597809 26.60807 28.641153">SYSTEMIC</tspan><tspan
         id="tspan142"
         y="9.9052935"
         x="0 4.6822538 8.953783 13.280076 15.31316 19.995413">DESIGN</tspan></text>
<text
       id="text148"
       style="font-variant:normal;font-weight:300;font-stretch:normal;font-size:6.84539986px;font-family:'Akkurat Light Pro';-inkscape-font-specification:AkkuratLightPro-Regular;writing-mode:lr-tb;fill:#231f20;fill-opacity:1;fill-rule:nonzero;stroke:none"
       transform="matrix(1,0,0,-1,1131.2769,13.991212)"><tspan
         id="tspan146"
         y="0"
         x="0 3.4843085 7.9885817 12.492855 16.230444 20.71418 22.555593">TOOLKIT</tspan></text>
<g
       id="g150"><g
         clip-path="url(#clipPath156)"
         id="g152"><g
           transform="translate(1118.0917,33.0478)"
           id="g158"><path
             id="path160"
             style="fill:#f8c717;fill-opacity:1;fill-rule:nonzero;stroke:none"
             d="m 0,0 c 3.97,-3.97 3.97,-10.405 0,-14.375 -3.969,-3.969 -10.405,-3.969 -14.375,0 -3.969,3.97 -3.969,10.405 0,14.375 3.97,3.969 10.406,3.969 14.375,0 m 3.87,3.87 c -6.107,6.107 -16.008,6.107 -22.115,0 -6.107,-6.107 -6.107,-16.008 0,-22.115 6.107,-6.107 16.008,-6.107 22.115,0 6.107,6.107 6.107,16.008 0,22.115" /></g><g
           transform="translate(1114.2217,29.1776)"
           id="g162"><path
             id="path164"
             style="fill:#e2067f;fill-opacity:1;fill-rule:nonzero;stroke:none"
             d="m 0,0 c 1.832,-1.832 1.832,-4.802 0,-6.634 -1.832,-1.833 -4.802,-1.833 -6.635,0 -1.832,1.832 -1.832,4.802 0,6.634 1.833,1.832 4.803,1.832 6.635,0 m 3.87,3.87 c -3.97,3.97 -10.405,3.97 -14.375,0 -3.969,-3.969 -3.969,-10.405 0,-14.375 3.97,-3.969 10.405,-3.969 14.375,0 3.97,3.97 3.97,10.406 0,14.375" /></g><g
           id="g166"><g
             id="g168" /><g
             id="g188"><g
               id="g186"
               clip-path="url(#clipPath172)"><g
                 id="g184"><g
                   id="g182"
                   clip-path="url(#clipPath176)"><g
                     id="g180"
                     transform="translate(1121.9618,36.9178)"><path
                       id="path178"
                       style="fill:#489bda;fill-opacity:1;fill-rule:nonzero;stroke:none"
                       d="m 0,0 c 4.092,-4.092 5.438,-9.887 4.046,-15.103 -5.217,-1.392 -11.011,-0.047 -15.103,4.045 -4.093,4.093 -5.438,9.887 -4.046,15.104 C -9.887,5.438 -4.092,4.092 0,0" /></g></g></g></g></g></g><g
           transform="translate(926.1266,40.4612)"
           id="g190"><path
             id="path192"
             style="fill:#ffffff;fill-opacity:1;fill-rule:nonzero;stroke:none"
             d="m 0,0 c -6.957,0.001 -12.612,-5.643 -12.617,-12.591 -0.005,-6.961 5.638,-12.627 12.577,-12.631 6.982,-0.004 12.643,5.634 12.645,12.591 C 12.607,-5.655 6.964,-0.001 0,0" /></g><g
           transform="translate(924.5201,27.6957)"
           id="g194"><path
             id="path196"
             style="fill:#231f20;fill-opacity:1;fill-rule:nonzero;stroke:none"
             d="m 0,0 c -0.031,0.007 -0.054,0.009 -0.075,0.017 -0.413,0.164 -0.839,0.196 -1.274,0.127 -0.566,-0.09 -1.005,-0.358 -1.208,-0.923 -0.114,-0.317 -0.117,-0.646 -0.06,-0.974 0.093,-0.531 0.359,-0.94 0.886,-1.123 0.558,-0.194 1.091,-0.109 1.591,0.2 0.043,0.027 0.085,0.052 0.138,0.085 0.004,-0.102 0.008,-0.189 0.012,-0.278 h 1.512 c 0.006,0.025 0.012,0.039 0.012,0.052 0,1.057 0.016,2.115 -0.007,3.171 C 1.509,1.142 1.068,1.683 0.34,1.831 -0.58,2.016 -1.471,1.887 -2.324,1.499 -2.339,1.492 -2.351,1.477 -2.369,1.462 -2.23,1.11 -2.093,0.764 -1.953,0.408 c 0.067,0.031 0.118,0.053 0.167,0.078 0.419,0.211 0.863,0.28 1.326,0.242 C -0.186,0.705 -0.026,0.559 -0.002,0.301 0.008,0.204 0,0.105 0,0 M 13.177,2.737 C 13.116,2.779 13.068,2.816 13.018,2.847 12.037,3.449 10.973,3.602 9.861,3.373 8.905,3.176 8.285,2.539 8.224,1.651 c -0.057,-0.814 0.2,-1.392 0.93,-1.75 0.08,-0.039 0.16,-0.083 0.244,-0.108 0.449,-0.133 0.901,-0.257 1.35,-0.391 0.187,-0.057 0.372,-0.125 0.552,-0.204 0.133,-0.059 0.214,-0.168 0.198,-0.325 C 11.481,-1.296 11.374,-1.385 11.22,-1.422 11.133,-1.443 11.044,-1.455 10.956,-1.462 10.243,-1.514 9.609,-1.274 9.004,-0.929 8.961,-0.904 8.918,-0.88 8.867,-0.852 8.584,-1.31 8.308,-1.756 8.028,-2.21 c 0.05,-0.032 0.087,-0.06 0.127,-0.084 0.993,-0.578 2.063,-0.78 3.198,-0.636 0.413,0.052 0.806,0.177 1.153,0.419 0.661,0.461 0.844,1.252 0.685,2.052 -0.108,0.544 -0.466,0.903 -0.956,1.105 -0.449,0.185 -0.923,0.308 -1.385,0.458 -0.232,0.075 -0.466,0.14 -0.695,0.224 -0.133,0.05 -0.207,0.155 -0.191,0.31 0.018,0.164 0.139,0.27 0.355,0.302 0.424,0.06 0.836,0 1.228,-0.159 0.268,-0.108 0.521,-0.252 0.797,-0.389 0.27,0.437 0.548,0.885 0.833,1.345 M 2.354,3.356 V -2.88 h 0.15 c 0.465,0 0.93,0.005 1.394,-0.003 0.14,-0.003 0.173,0.043 0.172,0.175 -0.007,0.596 -0.001,1.193 -0.005,1.79 -0.001,0.102 0.028,0.144 0.135,0.139 0.136,-0.007 0.273,-0.006 0.408,0 0.098,0.005 0.151,-0.03 0.193,-0.121 0.287,-0.606 0.586,-1.207 0.869,-1.815 0.062,-0.133 0.136,-0.171 0.276,-0.169 0.527,0.009 1.053,0.004 1.579,0.004 h 0.183 c -0.423,0.808 -0.833,1.591 -1.244,2.377 0.042,0.023 0.074,0.042 0.106,0.06 0.037,0.021 0.074,0.041 0.111,0.062 0.437,0.262 0.73,0.638 0.826,1.138 C 7.56,1.031 7.576,1.317 7.562,1.596 7.525,2.383 7.09,2.956 6.337,3.192 6.041,3.285 5.723,3.346 5.414,3.353 4.433,3.375 3.451,3.364 2.469,3.365 2.433,3.365 2.397,3.36 2.354,3.356 M -6.475,-0.08 c -0.022,0.06 -0.047,0.146 -0.083,0.227 -0.466,1.045 -0.932,2.09 -1.404,3.132 -0.02,0.043 -0.099,0.082 -0.15,0.083 -0.456,0.006 -0.912,0.004 -1.368,0.003 -0.035,0 -0.071,-0.008 -0.108,-0.013 V -2.87 h 1.611 v 2.999 c 0.492,-1.059 0.992,-2.133 1.491,-3.208 l 0.043,0.001 c 0.5,1.075 1,2.151 1.489,3.205 v -2.998 h 1.613 V 3.366 H -3.507 C -3.92,3.366 -4.334,3.36 -4.747,3.369 -4.875,3.372 -4.936,3.33 -4.987,3.215 -5.481,2.112 -5.981,1.011 -6.475,-0.08 M 1.606,12.766 C 8.571,12.765 14.214,7.111 14.212,0.135 14.21,-6.823 8.549,-12.461 1.567,-12.457 c -6.94,0.004 -12.583,5.671 -12.577,12.632 0.004,6.948 5.659,12.591 12.616,12.591" /></g><g
           transform="translate(918.0448,27.6157)"
           id="g198"><path
             id="path200"
             style="fill:#ffffff;fill-opacity:1;fill-rule:nonzero;stroke:none"
             d="M 0,0 C 0.494,1.091 0.994,2.192 1.488,3.295 1.54,3.41 1.6,3.452 1.729,3.449 2.141,3.44 2.555,3.446 2.969,3.446 H 3.134 V -2.791 H 1.522 v 2.998 c -0.49,-1.054 -0.99,-2.13 -1.489,-3.206 h -0.044 c -0.499,1.075 -0.998,2.149 -1.49,3.208 V -2.79 h -1.612 v 6.222 c 0.038,0.005 0.073,0.013 0.108,0.013 0.456,0.001 0.912,0.003 1.367,-0.003 0.053,-0.001 0.132,-0.04 0.151,-0.083 C -1.015,2.317 -0.548,1.272 -0.083,0.227 -0.046,0.146 -0.021,0.06 0,0" /></g><g
           transform="translate(928.5956,28.2944)"
           id="g202"><path
             id="path204"
             style="fill:#ffffff;fill-opacity:1;fill-rule:nonzero;stroke:none"
             d="M 0,0 C 0.34,0 0.672,-0.002 1.004,0.001 1.098,0.002 1.192,0.012 1.283,0.032 1.47,0.073 1.623,0.166 1.704,0.35 1.93,0.865 1.637,1.331 1.078,1.341 0.778,1.347 0.477,1.343 0.177,1.343 0.118,1.344 0.06,1.343 0,1.343 Z m -1.721,2.758 c 0.042,0.003 0.078,0.009 0.115,0.009 C -0.624,2.765 0.357,2.776 1.339,2.754 1.648,2.747 1.965,2.686 2.261,2.593 3.015,2.357 3.45,1.784 3.487,0.997 3.5,0.718 3.484,0.432 3.431,0.159 3.335,-0.342 3.043,-0.718 2.605,-0.979 2.569,-1.001 2.531,-1.021 2.495,-1.042 2.463,-1.06 2.431,-1.078 2.389,-1.102 2.8,-1.888 3.209,-2.671 3.632,-3.479 H 3.449 c -0.526,0 -1.052,0.005 -1.578,-0.003 -0.14,-0.003 -0.215,0.036 -0.276,0.168 -0.283,0.608 -0.582,1.209 -0.869,1.815 -0.043,0.091 -0.095,0.126 -0.193,0.121 -0.136,-0.006 -0.273,-0.007 -0.409,0 -0.107,0.006 -0.135,-0.036 -0.135,-0.139 0.004,-0.597 -0.001,-1.193 0.005,-1.79 0.001,-0.132 -0.032,-0.178 -0.171,-0.175 -0.465,0.008 -0.93,0.003 -1.395,0.003 h -0.149 z" /></g><g
           transform="translate(937.6974,30.4328)"
           id="g206"><path
             id="path208"
             style="fill:#ffffff;fill-opacity:1;fill-rule:nonzero;stroke:none"
             d="m 0,0 c -0.285,-0.46 -0.563,-0.909 -0.833,-1.345 -0.276,0.136 -0.529,0.281 -0.797,0.389 -0.392,0.158 -0.805,0.219 -1.228,0.158 -0.217,-0.031 -0.337,-0.137 -0.355,-0.301 -0.016,-0.155 0.057,-0.261 0.191,-0.31 0.228,-0.084 0.463,-0.149 0.694,-0.224 0.463,-0.15 0.937,-0.274 1.385,-0.459 0.49,-0.202 0.849,-0.561 0.957,-1.104 0.16,-0.8 -0.024,-1.592 -0.685,-2.052 -0.347,-0.242 -0.74,-0.367 -1.153,-0.419 -1.135,-0.144 -2.205,0.058 -3.199,0.636 -0.04,0.023 -0.076,0.051 -0.126,0.084 0.28,0.453 0.556,0.899 0.839,1.358 0.05,-0.028 0.094,-0.052 0.136,-0.077 0.606,-0.345 1.239,-0.585 1.952,-0.532 0.089,0.006 0.178,0.017 0.264,0.038 0.155,0.038 0.262,0.126 0.279,0.295 0.016,0.158 -0.065,0.267 -0.198,0.326 -0.179,0.079 -0.365,0.147 -0.553,0.203 -0.448,0.135 -0.9,0.259 -1.349,0.392 -0.085,0.025 -0.164,0.069 -0.244,0.108 -0.731,0.357 -0.987,0.935 -0.931,1.749 0.062,0.889 0.682,1.526 1.638,1.723 C -2.205,0.865 -1.14,0.712 -0.16,0.109 -0.109,0.078 -0.061,0.042 0,0" /></g><g
           transform="translate(924.5233,26.4015)"
           id="g210"><path
             id="path212"
             style="fill:#ffffff;fill-opacity:1;fill-rule:nonzero;stroke:none"
             d="M 0,0 C 0,0.061 -0.008,0.123 0.001,0.183 0.022,0.301 -0.034,0.362 -0.14,0.376 -0.348,0.404 -0.557,0.44 -0.765,0.44 c -0.234,0 -0.365,-0.153 -0.393,-0.411 -0.029,-0.263 0.081,-0.466 0.289,-0.533 0.188,-0.06 0.372,-0.025 0.552,0.031 C -0.02,-0.38 0,-0.349 0,-0.042 Z m -0.003,1.294 c 0,0.105 0.008,0.204 -0.001,0.302 C -0.03,1.853 -0.189,2 -0.463,2.022 -0.926,2.06 -1.37,1.991 -1.789,1.78 c -0.05,-0.025 -0.1,-0.047 -0.166,-0.078 -0.141,0.356 -0.278,0.702 -0.417,1.053 0.019,0.016 0.03,0.032 0.045,0.039 0.854,0.388 1.744,0.516 2.664,0.33 C 1.066,2.978 1.506,2.436 1.524,1.648 1.547,0.591 1.53,-0.466 1.531,-1.523 1.531,-1.536 1.524,-1.55 1.519,-1.574 H 0.007 c -0.004,0.089 -0.008,0.175 -0.012,0.277 -0.053,-0.032 -0.095,-0.059 -0.138,-0.084 -0.5,-0.309 -1.032,-0.395 -1.591,-0.201 -0.527,0.184 -0.793,0.592 -0.886,1.123 -0.057,0.328 -0.054,0.657 0.06,0.974 0.203,0.565 0.642,0.833 1.208,0.924 0.434,0.068 0.862,0.036 1.274,-0.128 0.021,-0.008 0.044,-0.01 0.075,-0.017" /></g><g
           transform="translate(928.5956,28.2944)"
           id="g214"><path
             id="path216"
             style="fill:#231f20;fill-opacity:1;fill-rule:nonzero;stroke:none"
             d="m 0,0 v 1.343 c 0.06,0 0.118,0.001 0.177,0 0.3,0 0.601,0.004 0.901,-0.002 C 1.637,1.331 1.93,0.865 1.704,0.35 1.623,0.166 1.47,0.073 1.283,0.032 1.192,0.012 1.098,0.002 1.004,0.001 0.672,-0.002 0.34,0 0,0" /></g><g
           transform="translate(924.5233,26.4015)"
           id="g218"><path
             id="path220"
             style="fill:#231f20;fill-opacity:1;fill-rule:nonzero;stroke:none"
             d="m 0,0 v -0.042 c 0,-0.307 -0.02,-0.338 -0.317,-0.431 -0.18,-0.056 -0.364,-0.091 -0.552,-0.031 -0.208,0.067 -0.318,0.27 -0.289,0.533 0.028,0.258 0.159,0.411 0.393,0.411 0.208,0 0.417,-0.036 0.625,-0.064 C -0.034,0.362 0.022,0.301 0.001,0.183 -0.008,0.123 0,0.061 0,0" /></g><path
           id="path222"
           style="fill:#ffffff;fill-opacity:1;fill-rule:nonzero;stroke:none"
           d="m 1025.537,28.45 h 51.832 v -9.185 h -51.832 z" /><g
           transform="translate(1026.5087,27.5232)"
           id="g224"><path
             id="path226"
             style="fill:#231f20;fill-opacity:1;fill-rule:nonzero;stroke:none"
             d="m 0,0 v -7.348 h 13.174 c 0.848,1.072 1.42,2.317 1.42,3.673 0,1.348 -0.561,2.607 -1.399,3.675 z" /></g><g
           transform="translate(1037.8687,23.857)"
           id="g228"><path
             id="path230"
             style="fill:#231f20;fill-opacity:1;fill-rule:nonzero;stroke:none"
             d="m 0,0 c 0.001,-2.291 -1.963,-4.149 -4.387,-4.15 -2.423,-0.002 -4.389,1.854 -4.39,4.145 V 0 C -8.78,2.29 -6.816,4.149 -4.391,4.151 -1.968,4.152 -0.002,2.296 0,0.004 Z" /></g><g
           transform="translate(1035.651,24.3196)"
           id="g232"><path
             id="path234"
             style="fill:#ffffff;fill-opacity:1;fill-rule:nonzero;stroke:none"
             d="m 0,0 c -0.125,0.26 -0.31,0.389 -0.553,0.389 -0.453,0 -0.679,-0.283 -0.679,-0.847 0,-0.565 0.226,-0.846 0.679,-0.846 0.293,0 0.499,0.137 0.616,0.413 l 0.629,-0.31 C 0.399,-1.694 -0.04,-1.94 -0.625,-1.94 c -0.453,0 -0.813,0.131 -1.085,0.393 -0.272,0.262 -0.409,0.624 -0.409,1.084 0,0.453 0.139,0.812 0.414,1.078 0.277,0.266 0.627,0.399 1.055,0.399 0.619,0 1.062,-0.231 1.329,-0.692 z m -2.893,0 c -0.127,0.26 -0.315,0.389 -0.565,0.389 -0.444,0 -0.666,-0.283 -0.666,-0.847 0,-0.565 0.222,-0.846 0.666,-0.846 0.293,0 0.502,0.137 0.628,0.413 l 0.614,-0.31 c -0.292,-0.493 -0.732,-0.739 -1.319,-0.739 -0.452,0 -0.815,0.131 -1.087,0.393 -0.272,0.262 -0.408,0.624 -0.408,1.084 0,0.453 0.14,0.812 0.421,1.078 0.28,0.266 0.63,0.399 1.049,0.399 0.62,0 1.063,-0.231 1.332,-0.692 z m -2.166,2.297 c -0.823,-0.785 -1.234,-1.706 -1.234,-2.761 0,-1.055 0.407,-1.968 1.222,-2.737 0.814,-0.77 1.783,-1.155 2.909,-1.155 1.124,0 2.102,0.389 2.933,1.166 0.789,0.723 1.183,1.631 1.183,2.726 0,1.086 -0.4,2.009 -1.202,2.767 -0.801,0.758 -1.774,1.136 -2.914,1.136 -1.142,0 -2.108,-0.38 -2.897,-1.142 m 6.456,0.619 c 0.972,-0.92 1.46,-2.046 1.46,-3.379 0,-1.332 -0.479,-2.447 -1.435,-3.343 -1.016,-0.944 -2.215,-1.416 -3.599,-1.416 -1.368,0 -2.547,0.468 -3.537,1.405 -0.99,0.935 -1.486,2.054 -1.486,3.354 0,1.301 0.496,2.427 1.486,3.379 0.965,0.92 2.144,1.38 3.537,1.38 1.409,0 2.601,-0.46 3.574,-1.38" /></g><g
           transform="translate(1067.0222,25.6939)"
           id="g236"><path
             id="path238"
             style="fill:#231f20;fill-opacity:1;fill-rule:nonzero;stroke:none"
             d="M 0,0 H 1.065 C 1.659,0 2.102,-0.041 2.391,-0.121 2.684,-0.199 2.933,-0.334 3.14,-0.524 3.324,-0.69 3.461,-0.881 3.549,-1.098 3.639,-1.314 3.684,-1.559 3.684,-1.834 3.684,-2.111 3.639,-2.359 3.549,-2.576 3.461,-2.793 3.324,-2.984 3.14,-3.15 2.931,-3.34 2.68,-3.476 2.386,-3.556 2.092,-3.635 1.652,-3.675 1.065,-3.675 H 0 V 0 m 1.01,-0.716 v -2.242 h 0.361 c 0.413,0 0.728,0.096 0.944,0.288 0.218,0.192 0.327,0.47 0.327,0.836 0,0.365 -0.107,0.643 -0.324,0.833 -0.216,0.19 -0.532,0.285 -0.947,0.285 H 1.01 M -4.498,0 h 1.127 l 1.423,-2.52 V 0 h 0.957 v -3.675 h -1.128 l -1.422,2.52 v -2.52 H -4.498 V 0 m -2.435,-1.866 h 1.647 v -0.716 h -1.647 z m -0.763,-1.606 c -0.187,-0.091 -0.379,-0.159 -0.58,-0.205 -0.201,-0.045 -0.411,-0.069 -0.628,-0.069 -0.653,0 -1.17,0.171 -1.551,0.512 -0.381,0.343 -0.571,0.808 -0.571,1.393 0,0.588 0.19,1.052 0.571,1.393 0.381,0.343 0.898,0.515 1.551,0.515 0.217,0 0.427,-0.024 0.628,-0.069 0.201,-0.047 0.393,-0.115 0.58,-0.205 v -0.761 c -0.188,0.12 -0.372,0.208 -0.554,0.264 -0.182,0.056 -0.373,0.084 -0.574,0.084 -0.36,0 -0.644,-0.108 -0.849,-0.325 -0.207,-0.217 -0.31,-0.516 -0.31,-0.896 0,-0.379 0.103,-0.677 0.31,-0.893 0.205,-0.216 0.489,-0.325 0.849,-0.325 0.201,0 0.392,0.028 0.574,0.084 0.182,0.055 0.366,0.144 0.554,0.262 V -3.472 M -15.299,0 h 1.127 l 1.423,-2.52 V 0 h 0.957 v -3.675 h -1.127 l -1.423,2.52 v -2.52 h -0.957 V 0 m -2.435,-1.866 h 1.646 v -0.716 h -1.646 z M -21.182,0 h 1.104 l 0.891,-1.309 0.891,1.309 h 1.107 l -1.492,-2.126 v -1.549 h -1.01 v 1.549 L -21.182,0 m -0.593,-1.709 c 0.216,-0.058 0.384,-0.167 0.502,-0.327 0.12,-0.159 0.179,-0.354 0.179,-0.585 0,-0.354 -0.129,-0.618 -0.383,-0.792 -0.255,-0.175 -0.643,-0.262 -1.164,-0.262 h -1.675 V 0 h 1.515 c 0.543,0 0.937,-0.077 1.18,-0.231 0.245,-0.155 0.367,-0.401 0.367,-0.741 0,-0.179 -0.045,-0.332 -0.134,-0.458 -0.089,-0.125 -0.219,-0.218 -0.387,-0.279 m -0.939,-1.32 c 0.202,0 0.354,0.04 0.456,0.12 0.103,0.08 0.154,0.202 0.154,0.365 0,0.159 -0.051,0.278 -0.152,0.356 -0.101,0.081 -0.254,0.121 -0.458,0.121 h -0.593 v -0.962 h 0.593 m -0.035,1.607 c 0.159,0 0.28,0.033 0.362,0.097 0.082,0.066 0.123,0.163 0.123,0.292 0,0.126 -0.041,0.222 -0.123,0.287 -0.082,0.067 -0.203,0.102 -0.362,0.102 h -0.558 v -0.778 z" /></g><path
           id="path240"
           style="fill:none;stroke:#231f20;stroke-width:0.49700001;stroke-linecap:butt;stroke-linejoin:miter;stroke-miterlimit:10;stroke-dasharray:none;stroke-opacity:1"
           d="m 1026.509,27.531 h 49.888 v -7.348 h -49.888 z" /><path
           id="path242"
           style="fill:none;stroke:#231f20;stroke-width:0.49700001;stroke-linecap:butt;stroke-linejoin:miter;stroke-miterlimit:4;stroke-dasharray:none;stroke-opacity:1"
           d="m 1025.537,28.45 h 51.832 v -9.185 h -51.832 z" /><g
           transform="translate(827.556,28.0656)"
           id="g244"><path
             id="path246"
             style="fill:#231f20;fill-opacity:1;fill-rule:nonzero;stroke:none"
             d="m 0,0 c 0.164,0.091 0.401,0.146 0.582,0.164 0.437,-0.51 0.765,-0.892 1.329,-1.366 0.911,0.874 1.948,1.421 3.168,1.421 1.147,0 2.167,-0.383 2.749,-1.293 0.346,-0.564 0.437,-1.547 0.437,-2.403 0,-1.347 -0.036,-2.239 -0.036,-2.913 0,-0.819 -0.019,-1.529 0.054,-2.713 -0.346,-0.036 -0.71,-0.036 -1.056,-0.036 -0.346,0 -0.673,0 -1.055,0.036 -0.073,1.093 -0.073,2.058 -0.055,2.986 0,0.455 0.018,0.656 0.036,2.531 0,0.764 -0.109,1.438 -0.291,1.766 -0.346,0.6 -0.928,0.873 -1.602,0.873 -0.71,0 -1.493,-0.291 -2.148,-0.837 V -9.103 C 1.748,-9.139 1.365,-9.139 1.001,-9.139 c -0.364,0 -0.71,0 -1.001,0.036 z m -10.978,3.823 c 0.728,0.492 0.965,0.674 1.566,1.147 0.146,-0.018 0.4,-0.091 0.546,-0.182 v -5.844 c 0.856,0.801 1.857,1.275 3.004,1.275 1.147,0 2.166,-0.383 2.749,-1.293 0.346,-0.564 0.437,-1.547 0.437,-2.403 0,-1.347 -0.037,-2.239 -0.037,-2.913 0,-0.819 -0.018,-1.529 0.055,-2.713 -0.346,-0.036 -0.71,-0.036 -1.056,-0.036 -0.346,0 -0.673,0 -1.056,0.036 -0.073,1.093 -0.073,2.058 -0.054,2.986 0,0.455 0.018,0.656 0.036,2.531 0,0.764 -0.109,1.438 -0.291,1.766 -0.346,0.6 -0.929,0.873 -1.602,0.873 -0.71,0 -1.493,-0.291 -2.149,-0.837 v -7.319 c -0.364,-0.036 -0.746,-0.036 -1.11,-0.036 -0.364,0 -0.71,0 -1.001,0.036 z M -17.24,-8.138 c 0.509,0.019 1.019,0.255 1.511,0.692 -0.037,0.455 -0.055,0.892 -0.055,1.384 0,0.473 0.018,1.074 0.036,1.675 -0.455,-0.255 -0.928,-0.492 -1.383,-0.729 -0.674,-0.345 -1.111,-0.528 -1.347,-0.91 -0.146,-0.218 -0.219,-0.491 -0.219,-0.837 0,-0.838 0.619,-1.293 1.457,-1.275 m -2.658,2.84 c 0.51,0.328 1.183,0.528 1.875,0.747 0.765,0.236 1.529,0.509 2.275,0.837 l 0.019,0.437 c 0.036,0.674 -0.109,1.202 -0.365,1.566 -0.345,0.491 -0.928,0.728 -1.474,0.728 -0.619,0 -1.238,-0.255 -2.021,-0.728 -0.182,0.127 -0.328,0.327 -0.382,0.473 1.056,0.983 2.257,1.438 3.313,1.438 0.91,0 1.766,-0.346 2.331,-1.019 0.473,-0.565 0.746,-1.384 0.709,-2.421 -0.036,-1.111 -0.072,-2.167 -0.072,-3.277 0,-0.729 0.018,-1.748 0.091,-2.586 -0.128,-0.072 -0.383,-0.145 -0.565,-0.145 -0.546,0.364 -0.928,0.728 -1.347,1.22 -0.819,-0.874 -1.911,-1.348 -2.931,-1.348 -1.383,0 -2.53,0.71 -2.53,2.149 0,0.764 0.418,1.511 1.074,1.929 M -37.193,0 c 0.182,0.109 0.364,0.146 0.583,0.164 0.4,-0.473 0.728,-0.838 1.219,-1.274 0.892,0.837 1.894,1.329 3.077,1.329 1.147,0 2.148,-0.401 2.749,-1.293 l 0.073,-0.109 c 0.892,0.874 1.929,1.402 3.149,1.402 1.147,0 2.167,-0.383 2.749,-1.293 0.346,-0.564 0.437,-1.547 0.437,-2.403 0,-1.347 -0.036,-2.239 -0.036,-2.913 0,-0.819 -0.019,-1.529 0.054,-2.713 -0.346,-0.036 -0.71,-0.036 -1.056,-0.036 -0.346,0 -0.673,0 -1.056,0.036 -0.072,1.093 -0.072,2.058 -0.054,2.986 0,0.455 0.018,0.656 0.036,2.349 0,0.764 -0.109,1.438 -0.291,1.765 -0.346,0.601 -0.929,0.874 -1.602,0.874 -0.71,0 -1.457,-0.145 -2.13,-0.691 0.127,-0.51 0.164,-1.093 0.164,-1.657 0,-1.347 -0.037,-2.239 -0.037,-2.913 0,-0.819 -0.018,-1.529 0.055,-2.713 -0.346,-0.036 -0.71,-0.036 -1.056,-0.036 -0.346,0 -0.674,0 -1.056,0.036 -0.073,1.093 -0.073,2.058 -0.054,2.986 0,0.455 0.018,0.838 0.036,2.349 0.018,0.764 -0.109,1.438 -0.291,1.765 -0.346,0.601 -0.929,0.874 -1.602,0.874 -0.638,0 -1.329,-0.236 -1.948,-0.691 v -7.283 c -0.364,-0.036 -0.747,-0.036 -1.111,-0.036 -0.364,0 -0.71,0 -1.001,0.036 z m -6.299,-8.138 c 0.51,0.019 1.019,0.255 1.511,0.692 -0.037,0.455 -0.055,0.892 -0.055,1.384 0,0.473 0.018,1.074 0.037,1.675 -0.455,-0.255 -0.929,-0.492 -1.384,-0.729 -0.673,-0.345 -1.11,-0.528 -1.347,-0.91 -0.146,-0.218 -0.218,-0.491 -0.218,-0.837 0,-0.838 0.619,-1.293 1.456,-1.275 m -2.658,2.84 c 0.51,0.328 1.183,0.528 1.875,0.747 0.765,0.236 1.529,0.509 2.276,0.837 l 0.018,0.437 c 0.036,0.674 -0.109,1.202 -0.364,1.566 -0.346,0.491 -0.929,0.728 -1.475,0.728 -0.619,0 -1.238,-0.255 -2.021,-0.728 -0.182,0.127 -0.327,0.327 -0.382,0.473 1.056,0.983 2.258,1.438 3.313,1.438 0.911,0 1.766,-0.346 2.331,-1.019 0.473,-0.565 0.746,-1.384 0.71,-2.421 -0.037,-1.111 -0.073,-2.167 -0.073,-3.277 0,-0.729 0.018,-1.748 0.091,-2.586 -0.127,-0.072 -0.382,-0.145 -0.564,-0.145 -0.547,0.364 -0.929,0.728 -1.348,1.22 -0.819,-0.874 -1.911,-1.348 -2.931,-1.348 -1.383,0 -2.53,0.71 -2.53,2.149 0,0.764 0.419,1.511 1.074,1.929 M -57.674,0 c 0.164,0.091 0.401,0.146 0.583,0.164 0.437,-0.51 0.764,-0.892 1.329,-1.366 0.91,0.874 1.948,1.421 3.167,1.421 1.147,0 2.167,-0.383 2.749,-1.293 0.346,-0.564 0.437,-1.547 0.437,-2.403 0,-1.347 -0.036,-2.239 -0.036,-2.913 0,-0.819 -0.018,-1.529 0.054,-2.713 -0.345,-0.036 -0.71,-0.036 -1.055,-0.036 -0.346,0 -0.674,0 -1.056,0.036 -0.073,1.093 -0.073,2.058 -0.055,2.986 0,0.455 0.018,0.656 0.036,2.531 0,0.764 -0.109,1.438 -0.291,1.766 -0.346,0.6 -0.928,0.873 -1.602,0.873 -0.71,0 -1.493,-0.291 -2.148,-0.837 v -7.319 c -0.364,-0.036 -0.747,-0.036 -1.111,-0.036 -0.364,0 -0.71,0 -1.001,0.036 z" /></g><g
           transform="translate(961.9349,32.3487)"
           id="g248"><path
             id="path250"
             style="fill:#231f20;fill-opacity:1;fill-rule:nonzero;stroke:none"
             d="m 0,0 c -0.341,-0.334 -0.87,-0.494 -1.398,-0.494 -0.599,0 -1.079,0.167 -1.413,0.473 -0.313,0.292 -0.529,0.717 -0.529,1.183 h 0.647 c 0,-0.292 0.146,-0.585 0.348,-0.779 0.223,-0.216 0.599,-0.306 0.947,-0.306 0.375,0 0.695,0.076 0.918,0.285 0.153,0.139 0.25,0.313 0.25,0.577 0,0.383 -0.243,0.703 -0.828,0.793 l -0.779,0.119 c -0.737,0.111 -1.315,0.522 -1.315,1.308 0,0.368 0.167,0.723 0.432,0.974 0.341,0.32 0.779,0.487 1.294,0.487 0.48,0 0.953,-0.16 1.28,-0.473 C 0.153,3.861 0.313,3.507 0.327,3.089 H -0.32 c -0.014,0.244 -0.104,0.459 -0.244,0.619 -0.187,0.216 -0.487,0.341 -0.869,0.341 -0.355,0 -0.661,-0.097 -0.877,-0.341 -0.125,-0.146 -0.202,-0.313 -0.202,-0.535 0,-0.446 0.369,-0.647 0.738,-0.696 0.278,-0.035 0.55,-0.084 0.821,-0.125 0.821,-0.119 1.37,-0.62 1.37,-1.399 C 0.417,0.543 0.244,0.237 0,0" /></g><g
           transform="translate(965.6397,33.9489)"
           id="g252"><path
             id="path254"
             style="fill:#00adef;fill-opacity:1;fill-rule:nonzero;stroke:none"
             d="M 0,0 V -2.004 H -0.626 V 0 l -1.656,2.929 h 0.696 l 1.294,-2.345 1.287,2.345 h 0.661 z" /></g><g
           transform="translate(971.5373,32.3487)"
           id="g256"><path
             id="path258"
             style="fill:#231f20;fill-opacity:1;fill-rule:nonzero;stroke:none"
             d="m 0,0 c -0.341,-0.334 -0.87,-0.494 -1.398,-0.494 -0.599,0 -1.079,0.167 -1.413,0.473 -0.313,0.292 -0.529,0.717 -0.529,1.183 h 0.647 c 0,-0.292 0.146,-0.585 0.348,-0.779 0.223,-0.216 0.599,-0.306 0.947,-0.306 0.375,0 0.695,0.076 0.918,0.285 0.153,0.139 0.25,0.313 0.25,0.577 0,0.383 -0.243,0.703 -0.828,0.793 l -0.779,0.119 c -0.737,0.111 -1.315,0.522 -1.315,1.308 0,0.368 0.167,0.723 0.432,0.974 0.341,0.32 0.779,0.487 1.294,0.487 0.48,0 0.953,-0.16 1.28,-0.473 C 0.153,3.861 0.313,3.507 0.327,3.089 H -0.32 c -0.014,0.244 -0.104,0.459 -0.244,0.619 -0.187,0.216 -0.487,0.341 -0.869,0.341 -0.355,0 -0.661,-0.097 -0.877,-0.341 -0.125,-0.146 -0.202,-0.313 -0.202,-0.535 0,-0.446 0.369,-0.647 0.738,-0.696 0.278,-0.035 0.55,-0.084 0.821,-0.125 0.821,-0.119 1.37,-0.62 1.37,-1.399 C 0.417,0.543 0.244,0.237 0,0" /></g><g
           transform="translate(975.1082,36.3006)"
           id="g260"><path
             id="path262"
             style="fill:#231f20;fill-opacity:1;fill-rule:nonzero;stroke:none"
             d="M 0,0 V -4.355 H -0.626 V 0 H -2.094 V 0.578 H 1.468 V 0 Z" /></g><g
           transform="translate(977.7791,31.9451)"
           id="g264"><path
             id="path266"
             style="fill:#231f20;fill-opacity:1;fill-rule:nonzero;stroke:none"
             d="M 0,0 V 4.933 H 3.298 V 4.362 H 0.619 V 2.86 H 2.971 V 2.275 H 0.619 V 0.571 H 3.298 V 0 Z" /></g><g
           transform="translate(986.7911,31.9451)"
           id="g268"><path
             id="path270"
             style="fill:#231f20;fill-opacity:1;fill-rule:nonzero;stroke:none"
             d="M 0,0 V 4.161 L -1.531,0.07 h -0.487 l -1.53,4.125 V 0 H -4.14 v 4.933 h 0.891 L -1.76,0.918 -0.278,4.933 H 0.591 L 0.591,0 Z" /></g><path
           id="path272"
           style="fill:#231f20;fill-opacity:1;fill-rule:nonzero;stroke:none"
           d="m 989.155,36.878 h 0.633 v -4.933 h -0.633 z" /><g
           transform="translate(994.452,32.3765)"
           id="g274"><path
             id="path276"
             style="fill:#231f20;fill-opacity:1;fill-rule:nonzero;stroke:none"
             d="m 0,0 c -0.299,-0.299 -0.786,-0.529 -1.322,-0.529 -0.494,0 -0.981,0.181 -1.336,0.529 -0.536,0.522 -0.619,1.245 -0.619,2.032 0,0.786 0.083,1.509 0.619,2.031 0.355,0.348 0.842,0.529 1.336,0.529 0.536,0 1.016,-0.209 1.315,-0.508 C 0.278,3.792 0.459,3.416 0.48,2.957 h -0.64 c -0.007,0.271 -0.111,0.508 -0.271,0.689 -0.195,0.215 -0.515,0.362 -0.891,0.362 -0.334,0 -0.661,-0.133 -0.898,-0.376 -0.403,-0.418 -0.417,-1.086 -0.417,-1.6 0,-0.515 0.014,-1.183 0.417,-1.601 0.237,-0.243 0.564,-0.375 0.898,-0.375 0.376,0 0.703,0.16 0.898,0.375 0.16,0.181 0.264,0.439 0.271,0.71 h 0.64 C 0.466,0.682 0.285,0.292 0,0" /></g><g
           transform="translate(961.2462,29.3947)"
           id="g278"><path
             id="path280"
             style="fill:#231f20;fill-opacity:1;fill-rule:nonzero;stroke:none"
             d="m 0,0 c -0.23,0.23 -0.557,0.341 -0.877,0.341 h -1.099 v -3.792 h 1.099 c 0.32,0 0.647,0.111 0.877,0.341 0.39,0.397 0.424,1.03 0.424,1.558 C 0.424,-1.023 0.39,-0.403 0,0 M 0.417,-3.527 C 0.07,-3.861 -0.397,-4.021 -0.877,-4.021 h -1.718 v 4.933 h 1.718 c 0.48,0 0.947,-0.168 1.294,-0.501 0.543,-0.515 0.634,-1.253 0.634,-1.963 0,-0.709 -0.098,-1.461 -0.634,-1.975" /></g><g
           transform="translate(963.6776,25.3732)"
           id="g282"><path
             id="path284"
             style="fill:#00adef;fill-opacity:1;fill-rule:nonzero;stroke:none"
             d="M 0,0 V 4.933 H 3.298 V 4.362 H 0.619 V 2.86 H 2.971 V 2.275 H 0.619 V 0.571 H 3.298 V 0 Z" /></g><g
           transform="translate(971.5373,25.7768)"
           id="g286"><path
             id="path288"
             style="fill:#231f20;fill-opacity:1;fill-rule:nonzero;stroke:none"
             d="m 0,0 c -0.341,-0.334 -0.87,-0.494 -1.398,-0.494 -0.599,0 -1.079,0.167 -1.413,0.473 -0.313,0.292 -0.529,0.717 -0.529,1.183 h 0.647 c 0,-0.292 0.146,-0.585 0.348,-0.779 0.223,-0.216 0.599,-0.306 0.947,-0.306 0.375,0 0.695,0.076 0.918,0.285 0.153,0.139 0.25,0.313 0.25,0.577 0,0.383 -0.243,0.703 -0.828,0.793 l -0.779,0.119 c -0.737,0.111 -1.315,0.522 -1.315,1.308 0,0.368 0.167,0.723 0.432,0.974 0.341,0.32 0.779,0.487 1.294,0.487 0.48,0 0.953,-0.16 1.28,-0.473 C 0.153,3.861 0.313,3.507 0.327,3.089 H -0.32 c -0.014,0.244 -0.104,0.459 -0.244,0.619 -0.187,0.216 -0.487,0.341 -0.869,0.341 -0.355,0 -0.661,-0.097 -0.877,-0.341 -0.125,-0.146 -0.202,-0.313 -0.202,-0.535 0,-0.446 0.369,-0.647 0.738,-0.696 0.278,-0.035 0.55,-0.084 0.821,-0.125 0.821,-0.119 1.37,-0.62 1.37,-1.399 C 0.417,0.543 0.244,0.237 0,0" /></g><path
           id="path290"
           style="fill:#231f20;fill-opacity:1;fill-rule:nonzero;stroke:none"
           d="m 974.479,30.306 h 0.633 v -4.933 h -0.633 z" /><g
           transform="translate(980.9205,25.3732)"
           id="g292"><path
             id="path294"
             style="fill:#231f20;fill-opacity:1;fill-rule:nonzero;stroke:none"
             d="m 0,0 -0.104,0.591 c -0.244,-0.403 -0.787,-0.688 -1.343,-0.688 -0.494,0 -0.974,0.16 -1.329,0.507 -0.501,0.488 -0.64,1.169 -0.64,2.053 0,0.786 0.104,1.51 0.64,2.032 0.355,0.347 0.835,0.528 1.329,0.528 0.556,0 1.071,-0.194 1.412,-0.556 C 0.202,4.216 0.369,3.903 0.39,3.507 h -0.647 c -0.021,0.229 -0.098,0.389 -0.223,0.542 -0.223,0.265 -0.564,0.39 -0.967,0.39 -0.334,0 -0.661,-0.132 -0.898,-0.376 -0.403,-0.417 -0.431,-1.085 -0.431,-1.6 0,-0.494 0.035,-1.204 0.445,-1.621 0.237,-0.244 0.55,-0.355 0.884,-0.355 0.348,0 0.675,0.118 0.897,0.341 0.327,0.32 0.425,0.8 0.425,1.252 H -1.447 V 2.658 H 0.431 L 0.431,0 Z" /></g><g
           transform="translate(985.6709,25.3732)"
           id="g296"><path
             id="path298"
             style="fill:#231f20;fill-opacity:1;fill-rule:nonzero;stroke:none"
             d="M 0,0 -2.421,3.966 V 0 H -3.02 v 4.933 h 0.696 l 2.421,-3.98 v 3.98 H 0.696 V 0 Z" /></g><g
           transform="translate(960.4564,23.1151)"
           id="g300"><path
             id="path302"
             style="fill:#231f20;fill-opacity:1;fill-rule:nonzero;stroke:none"
             d="m 0,0 -0.87,-2.56 h 1.747 z m 1.482,-4.314 -0.404,1.169 h -2.143 l -0.396,-1.169 h -0.626 l 1.739,4.933 h 0.724 l 1.746,-4.933 z" /></g><g
           transform="translate(966.7877,19.2048)"
           id="g304"><path
             id="path306"
             style="fill:#00adef;fill-opacity:1;fill-rule:nonzero;stroke:none"
             d="m 0,0 c -0.341,-0.334 -0.87,-0.494 -1.398,-0.494 -0.599,0 -1.079,0.167 -1.413,0.473 -0.313,0.292 -0.529,0.717 -0.529,1.183 h 0.647 c 0,-0.292 0.146,-0.585 0.348,-0.779 0.223,-0.216 0.599,-0.306 0.947,-0.306 0.375,0 0.695,0.076 0.918,0.285 0.153,0.139 0.25,0.313 0.25,0.577 0,0.383 -0.243,0.703 -0.828,0.793 l -0.779,0.119 c -0.737,0.111 -1.315,0.522 -1.315,1.308 0,0.368 0.167,0.723 0.432,0.974 0.341,0.32 0.779,0.487 1.294,0.487 0.48,0 0.953,-0.16 1.28,-0.473 C 0.153,3.861 0.313,3.507 0.327,3.089 H -0.32 c -0.014,0.244 -0.104,0.459 -0.244,0.619 -0.187,0.216 -0.487,0.341 -0.869,0.341 -0.355,0 -0.661,-0.097 -0.877,-0.341 -0.125,-0.146 -0.202,-0.313 -0.202,-0.535 0,-0.446 0.369,-0.647 0.738,-0.696 0.278,-0.035 0.55,-0.084 0.821,-0.125 0.821,-0.119 1.37,-0.62 1.37,-1.399 C 0.417,0.543 0.244,0.237 0,0" /></g><g
           transform="translate(971.5373,19.2048)"
           id="g308"><path
             id="path310"
             style="fill:#231f20;fill-opacity:1;fill-rule:nonzero;stroke:none"
             d="m 0,0 c -0.341,-0.334 -0.87,-0.494 -1.398,-0.494 -0.599,0 -1.079,0.167 -1.413,0.473 -0.313,0.292 -0.529,0.717 -0.529,1.183 h 0.647 c 0,-0.292 0.146,-0.585 0.348,-0.779 0.223,-0.216 0.599,-0.306 0.947,-0.306 0.375,0 0.695,0.076 0.918,0.285 0.153,0.139 0.25,0.313 0.25,0.577 0,0.383 -0.243,0.703 -0.828,0.793 l -0.779,0.119 c -0.737,0.111 -1.315,0.522 -1.315,1.308 0,0.368 0.167,0.723 0.432,0.974 0.341,0.32 0.779,0.487 1.294,0.487 0.48,0 0.953,-0.16 1.28,-0.473 C 0.153,3.861 0.313,3.507 0.327,3.089 H -0.32 c -0.014,0.244 -0.104,0.459 -0.244,0.619 -0.187,0.216 -0.487,0.341 -0.869,0.341 -0.355,0 -0.661,-0.097 -0.877,-0.341 -0.125,-0.146 -0.202,-0.313 -0.202,-0.535 0,-0.446 0.369,-0.647 0.738,-0.696 0.278,-0.035 0.55,-0.084 0.821,-0.125 0.821,-0.119 1.37,-0.62 1.37,-1.399 C 0.417,0.543 0.243,0.237 0,0" /></g><g
           transform="translate(975.6927,22.8646)"
           id="g312"><path
             id="path314"
             style="fill:#231f20;fill-opacity:1;fill-rule:nonzero;stroke:none"
             d="M 0,0 C -0.237,0.243 -0.564,0.369 -0.898,0.369 -1.232,0.369 -1.559,0.243 -1.795,0 -2.199,-0.417 -2.22,-1.085 -2.22,-1.6 c 0,-0.515 0.021,-1.183 0.425,-1.601 0.236,-0.243 0.563,-0.368 0.897,-0.368 0.334,0 0.661,0.125 0.898,0.368 0.403,0.418 0.424,1.086 0.424,1.601 0,0.515 -0.021,1.183 -0.424,1.6 m 0.431,-3.632 c -0.355,-0.348 -0.835,-0.529 -1.329,-0.529 -0.494,0 -0.974,0.181 -1.328,0.529 -0.536,0.522 -0.634,1.245 -0.634,2.032 0,0.786 0.098,1.509 0.634,2.031 0.354,0.348 0.834,0.529 1.328,0.529 0.494,0 0.974,-0.181 1.329,-0.529 0.536,-0.522 0.633,-1.245 0.633,-2.031 0,-0.787 -0.097,-1.51 -0.633,-2.032" /></g><g
           transform="translate(980.8231,19.2327)"
           id="g316"><path
             id="path318"
             style="fill:#231f20;fill-opacity:1;fill-rule:nonzero;stroke:none"
             d="m 0,0 c -0.299,-0.299 -0.786,-0.529 -1.322,-0.529 -0.494,0 -0.981,0.181 -1.336,0.529 -0.536,0.522 -0.619,1.245 -0.619,2.032 0,0.786 0.083,1.509 0.619,2.031 0.355,0.348 0.842,0.529 1.336,0.529 0.536,0 1.016,-0.209 1.315,-0.508 C 0.278,3.792 0.459,3.416 0.48,2.957 h -0.64 c -0.007,0.271 -0.111,0.508 -0.271,0.689 -0.195,0.215 -0.515,0.362 -0.891,0.362 -0.334,0 -0.661,-0.133 -0.898,-0.376 -0.403,-0.418 -0.417,-1.086 -0.417,-1.6 0,-0.515 0.014,-1.183 0.417,-1.601 0.237,-0.243 0.564,-0.375 0.898,-0.375 0.376,0 0.703,0.16 0.898,0.375 0.16,0.181 0.264,0.439 0.271,0.71 h 0.64 C 0.466,0.682 0.285,0.292 0,0" /></g><path
           id="path320"
           style="fill:#231f20;fill-opacity:1;fill-rule:nonzero;stroke:none"
           d="m 982.651,23.734 h 0.633 v -4.933 h -0.633 z" /><g
           transform="translate(986.5916,23.1151)"
           id="g322"><path
             id="path324"
             style="fill:#231f20;fill-opacity:1;fill-rule:nonzero;stroke:none"
             d="m 0,0 -0.87,-2.56 h 1.747 z m 1.482,-4.314 -0.404,1.169 h -2.143 l -0.396,-1.169 h -0.626 l 1.739,4.933 h 0.724 l 1.746,-4.933 z" /></g><g
           transform="translate(990.6816,23.1568)"
           id="g326"><path
             id="path328"
             style="fill:#231f20;fill-opacity:1;fill-rule:nonzero;stroke:none"
             d="M 0,0 V -4.355 H -0.626 V 0 H -2.094 V 0.578 H 1.468 V 0 Z" /></g><path
           id="path330"
           style="fill:#231f20;fill-opacity:1;fill-rule:nonzero;stroke:none"
           d="m 993.316,23.734 h 0.633 v -4.933 h -0.633 z" /><g
           transform="translate(998.0546,22.8646)"
           id="g332"><path
             id="path334"
             style="fill:#231f20;fill-opacity:1;fill-rule:nonzero;stroke:none"
             d="M 0,0 C -0.237,0.243 -0.564,0.369 -0.898,0.369 -1.232,0.369 -1.559,0.243 -1.795,0 -2.199,-0.417 -2.22,-1.085 -2.22,-1.6 c 0,-0.515 0.021,-1.183 0.425,-1.601 0.236,-0.243 0.563,-0.368 0.897,-0.368 0.334,0 0.661,0.125 0.898,0.368 0.404,0.418 0.424,1.086 0.424,1.601 0,0.515 -0.02,1.183 -0.424,1.6 m 0.431,-3.632 c -0.355,-0.348 -0.835,-0.529 -1.329,-0.529 -0.494,0 -0.974,0.181 -1.328,0.529 -0.536,0.522 -0.634,1.245 -0.634,2.032 0,0.786 0.098,1.509 0.634,2.031 0.354,0.348 0.834,0.529 1.328,0.529 0.494,0 0.974,-0.181 1.329,-0.529 0.536,-0.522 0.633,-1.245 0.633,-2.031 0,-0.787 -0.097,-1.51 -0.633,-2.032" /></g><g
           transform="translate(1003.3485,18.8013)"
           id="g336"><path
             id="path338"
             style="fill:#231f20;fill-opacity:1;fill-rule:nonzero;stroke:none"
             d="M 0,0 -2.421,3.966 V 0 H -3.02 v 4.933 h 0.696 l 2.421,-3.98 v 3.98 H 0.696 V 0 Z" /></g><g
           transform="translate(94.639,787.7542)"
           id="g340"><path
             id="path342"
             style="fill:none;stroke:#34b75b;stroke-width:2.53699994;stroke-linecap:butt;stroke-linejoin:miter;stroke-miterlimit:10;stroke-dasharray:none;stroke-opacity:1"
             d="m 0,0 c -14.428,14.428 -37.821,14.428 -52.249,0 -14.427,-14.428 -14.427,-37.82 0.001,-52.248 14.428,-14.428 37.82,-14.428 52.248,0 14.428,14.427 14.428,37.82 0,52.248" /></g><g
           transform="translate(37.936,808.7502)"
           id="g344"><path
             id="path346"
             style="fill:none;stroke:#34b75b;stroke-width:2.53699994;stroke-linecap:butt;stroke-linejoin:miter;stroke-miterlimit:10;stroke-dasharray:none;stroke-opacity:1"
             d="M 0,0 9.485,-16.858 30.67,-54.511 51.793,-16.968 61.339,0 Z" /></g></g></g><text
       id="text352"
       style="font-variant:normal;font-weight:300;font-stretch:normal;font-size:10.48740005px;font-family:'Akkurat Light Pro';-inkscape-font-specification:AkkuratLightPro-Regular;writing-mode:lr-tb;fill:#231f20;fill-opacity:1;fill-rule:nonzero;stroke:none"
       transform="matrix(1,0,0,-0.95352518,59.7139,115.7266)"><tspan
         id="tspan348"
         y="0"
         x="0 5.5897841 11.473216 17.094461 22.747171 25.001961 30.885393 33.140182 36.06617 41.79229 47.51841 53.139656 55.394447 61.277878 65.158218 67.41301 71.293343 77.407501 83.060211 85.315002 94.49147 100.2176 105.58714 109.46748 111.72227 117.37498 122.32504 126.20537 130.20107 135.85378 145.03026 150.68297 152.93776 162.11423 167.84035 177.01683 182.66954 188.78369 192.66403 198.03357 200.28836 203.34019 209.46484 215.19096 220.56052 223.28723 227.16757 229.8943 234.79192 240.44463 242.69942 248.42554 252.42123 254.67603 260.79016 266.44287 272.03265 277.91611 281.79645 284.52316 289.42078 295.07349 298.12531 300.89398">Take a look at the most extreme moments (positive or negative). </tspan><tspan
         id="tspan350"
         y="12.58488"
         x="0 6.869247 12.521955 18.174664 24.299305 26.554096 32.437527 37.807076 43.428322 46.155048 52.269203 57.858986 62.368568 70.192169 76.30632 81.329788 83.584579 89.69873 95.812889 99.693222 102.41994 105.34593 107.60072 112.62419 118.35031 124.46446 126.71925 133.22144 139.3356 145.46024 147.71503 151.59537 157.70952 163.36223 165.61702 171.73117 177.84532 183.96997 189.62268 193.61838 196.54436 201.56783 204.29456 210.40871 215.99849 218.25328 223.62283 229.34895 235.4631 239.34344 243.33914 246.06587 252.19051 258.30466 262.185 264.91171 271.02588 276.61566 278.87045 282.55154 288.43497 293.8045 297.68484 303.41098 307.40668 312.77621 315.54489">Keep asking why until you fnd the underlying contributing factors. </tspan></text>
<text
       id="text356"
       style="font-variant:normal;font-weight:bold;font-stretch:normal;font-size:16px;font-family:'Akkurat Pro';-inkscape-font-specification:AkkuratPro-Bold;writing-mode:lr-tb;fill:#231f20;fill-opacity:1;fill-rule:nonzero;stroke:none"
       transform="matrix(1,0,0,-1,447.126,136.2148)"><tspan
         id="tspan354"
         y="0"
         x="0 10.848 22.4 34.928001 44.703999 55.551998 66 75.776001 87.487999 98.512001 108.112 112.256 123.808 135.52 146.368 157.28 167.056 172.608 184.16 196.688 207.60001 211.744 217.79201 228.576 240.12801 250.976 265.82401 276.73599">CONTEXTUAL QUESTIONS (POEMS)</tspan></text>
<text
       id="text360"
       style="font-variant:normal;font-weight:bold;font-stretch:normal;font-size:10.48740005px;font-family:'Akkurat Pro';-inkscape-font-specification:AkkuratPro-Bold;writing-mode:lr-tb;fill:#231f20;fill-opacity:1;fill-rule:nonzero;stroke:none"
       transform="matrix(1,0,0,-0.95352518,448.478,115.7266)"><tspan
         id="tspan358"
         y="0"
         x="0 6.5441375 12.385619 18.363438 24.666365 27.833559">People</tspan></text>
<text
       id="text364"
       style="font-variant:normal;font-weight:300;font-stretch:normal;font-size:10.48740005px;font-family:'Akkurat Light Pro';-inkscape-font-specification:AkkuratLightPro-Regular;writing-mode:lr-tb;fill:#231f20;fill-opacity:1;fill-rule:nonzero;stroke:none"
       transform="matrix(1,0,0,-0.95352518,448.478,103.7266)"><tspan
         id="tspan362"
         y="0"
         x="0 9.0401392 15.154293 20.880413 23.135204 30.958805 36.842236 42.211784 44.466576 47.193298 53.307453 58.20507 63.93119 66.857178 71.754791 77.407501 83.532143 85.786934 88.513657 94.627808 96.882599 100.76294 106.87709 112.5298 114.78459 120.66802 126.03757 129.91791 132.64464 137.54225 140.26898 144.14931 146.87604 152.52875 157.8983 163.01614">Who was involved in the activities? </tspan></text>
<text
       id="text368"
       style="font-variant:normal;font-weight:bold;font-stretch:normal;font-size:10.48740005px;font-family:'Akkurat Pro';-inkscape-font-specification:AkkuratPro-Bold;writing-mode:lr-tb;fill:#231f20;fill-opacity:1;fill-rule:nonzero;stroke:none"
       transform="matrix(1,0,0,-0.95352518,448.478,79.7266)"><tspan
         id="tspan366"
         y="0"
         x="0 7.047533 13.35046 16.454731 22.296213 27.865023 32.059982">Objects</tspan></text>
<text
       id="text372"
       style="font-variant:normal;font-weight:300;font-stretch:normal;font-size:10.48740005px;font-family:'Akkurat Light Pro';-inkscape-font-specification:AkkuratLightPro-Regular;writing-mode:lr-tb;fill:#231f20;fill-opacity:1;fill-rule:nonzero;stroke:none"
       transform="matrix(1,0,0,-0.95352518,448.478,67.7266)"><tspan
         id="tspan370"
         y="0"
         x="0 9.0401392 15.154293 21.037724 24.918062 27.172853 31.053192 37.167347 39.89407 46.008224 51.598007 56.967556 59.222347 67.045952 72.698654 76.694359 82.347061 84.601852 90.716011 96.085556 101.73827 107.86291 110.1177 112.84442 118.95858 121.21337 125.0937 131.20786 136.86057 139.11536 144.99879 150.36835 154.24867 156.9754 161.87302 164.59975 168.48009 173.50354">What things were used in the activity?</tspan></text>
<text
       id="text376"
       style="font-variant:normal;font-weight:bold;font-stretch:normal;font-size:10.48740005px;font-family:'Akkurat Pro';-inkscape-font-specification:AkkuratPro-Bold;writing-mode:lr-tb;fill:#231f20;fill-opacity:1;fill-rule:nonzero;stroke:none"
       transform="matrix(1,0,0,-0.95352518,661.43514,115.7266)"><tspan
         id="tspan374"
         y="0"
         x="0 6.5860872 12.784141 18.174664 21.174061 25.316584 31.294401 37.492455 46.773804 52.615284 58.813339">Environment</tspan></text>
<text
       id="text380"
       style="font-variant:normal;font-weight:300;font-stretch:normal;font-size:10.48740005px;font-family:'Akkurat Light Pro';-inkscape-font-specification:AkkuratLightPro-Regular;writing-mode:lr-tb;fill:#231f20;fill-opacity:1;fill-rule:nonzero;stroke:none"
       transform="matrix(1,0,0,-0.95352518,661.43514,103.7266)"><tspan
         id="tspan378"
         y="0"
         x="0 9.0401392 15.154293 21.037724 24.918062 27.172853 34.996452 40.879887 46.249435 48.504227 52.384563 58.498718 64.151428 66.406219 71.775764 77.428474 81.308815 85.189148 87.915871 94.030029 99.619812 101.8746 109.6982 115.81236 121.46507 125.46077 131.11348 133.36827 137.2486 143.36276 149.01547 151.27026 157.15369 162.52324 166.40358 169.13029 174.02791 176.75464 180.63498 185.65845 187.91324 194.02739 199.91081 206.03546 212.1601 217.81281 223.92697 229.29651">What was the setting where the activity happens?</tspan></text>
<text
       id="text384"
       style="font-variant:normal;font-weight:bold;font-stretch:normal;font-size:10.48740005px;font-family:'Akkurat Pro';-inkscape-font-specification:AkkuratPro-Bold;writing-mode:lr-tb;fill:#231f20;fill-opacity:1;fill-rule:nonzero;stroke:none"
       transform="matrix(1,0,0,-0.95352518,661.43514,79.7266)"><tspan
         id="tspan382"
         y="0"
         x="0 9.2079372 15.049419 20.513355 25.977289 31.871208 37.649765 43.491249">Messages</tspan></text>
<text
       id="text388"
       style="font-variant:normal;font-weight:300;font-stretch:normal;font-size:10.48740005px;font-family:'Akkurat Light Pro';-inkscape-font-specification:AkkuratLightPro-Regular;writing-mode:lr-tb;fill:#231f20;fill-opacity:1;fill-rule:nonzero;stroke:none"
       transform="matrix(1,0,0,-0.95352518,661.43514,67.7266)"><tspan
         id="tspan386"
         y="0"
         x="0 7.5089784 13.235099 21.058699 23.31349 31.137091 37.020523 42.390072 44.644863 48.5252 54.639355 60.292061 62.546852 65.273575 71.387733 75.06881 80.79493 84.790627 93.967102 99.850533 103.73087 106.4576 112.18372 118.29787 120.55267 124.433 128.4287 134.31213 140.42628 145.79584 149.47691 155.12962 159.12532 164.77803 170.90266">How was the information transfered?</tspan></text>
<text
       id="text392"
       style="font-variant:normal;font-weight:bold;font-stretch:normal;font-size:10.48740005px;font-family:'Akkurat Pro';-inkscape-font-specification:AkkuratPro-Bold;writing-mode:lr-tb;fill:#231f20;fill-opacity:1;fill-rule:nonzero;stroke:none"
       transform="matrix(1,0,0,-0.95352518,921.09268,115.7266)"><tspan
         id="tspan390"
         y="0"
         x="0 6.628037 12.469519 16.612041 22.002565 25.001961 30.57077 36.412254">Services</tspan></text>
<text
       id="text404"
       style="font-variant:normal;font-weight:300;font-stretch:normal;font-size:10.48740005px;font-family:'Akkurat Light Pro';-inkscape-font-specification:AkkuratLightPro-Regular;writing-mode:lr-tb;fill:#231f20;fill-opacity:1;fill-rule:nonzero;stroke:none"
       transform="matrix(1,0,0,-0.95352518,921.09268,103.7266)"><tspan
         id="tspan394"
         y="0"
         x="0 9.0401392 15.154293 21.037724 24.918062 27.172853 32.5424 37.565868 42.935417 46.815754 52.468464 61.644936 67.014488 69.269279 74.995399 78.991096 81.245888 87.370529 93.023239 98.749359 104.874 107.79999 113.45269 115.70748 121.36019 127.47435 133.35777 139.48242 142.4084 148.06111 154.18576 156.44055 160.32088 166.43504 172.08775 174.34254 180.22597 185.59552 189.47586 192.20258 197.10019 199.82692 203.70726 208.73073">What systems or people enabled the activity?</tspan><tspan
         id="tspan396"
         y="-474.62827"
         x="-861.38263 -855.00629 -849.63672 -844.01544 -841.76068 -837.88031 -831.76617 -826.11346 -823.8587 -821.13196 -815.01782 -811.13745 -805.48474 -801.48907 -796.59143 -793.86475 -788.21204 -780.38843 -774.73572 -769.08301 -766.82819 -762.94788 -757.22174 -754.96698 -751.08661 -745.4339 -742.50793 -739.58191 -737.32715 -732.30365 -726.57758 -720.46338 -718.20862 -712.3252 -706.20056 -700.47443 -694.36029 -690.47992 -688.22516 -684.34479 -678.23065 -672.57794 -669.8512 -665.85553 -663.60071 -657.948 -652.99799 -646.87329 -641.22058 -637.22491 -634.49817 -628.84546 -622.73132 -617.36176 -611.70905 -608.88794 -606.63318 -602.95209 -598.95636 -593.23029 -584.05377 -581.79901 -576.42944 -572.54913 -566.66571 -562.66998 -558.78967 -556.53485 -552.65454 -546.92841 -542.41882 -535.91663 -529.80249 -527.07574 -521.70618 -515.59204 -512.82336">Ask the interviewee to tell you about their experience, from start to fnish. </tspan><tspan
         id="tspan398"
         y="-462.04337"
         x="-861.38263 -855.79279 -849.67865 -846.95197 -841.5824 -839.32758 -833.95807 -828.07465 -821.96045 -819.70569 -813.58105 -807.92834 -805.67352 -799.7901 -793.66547 -787.93933 -781.8252 -777.94482 -775.69006 -771.80969 -765.69556 -760.04285 -757.78809 -752.13538 -747.1853 -741.06067 -735.40796 -731.41223 -728.68555 -723.03284 -716.91864 -711.54913 -705.89642 -703.6416 -697.51697 -691.40283 -687.4071 -684.68042 -678.56622 -672.97644 -670.72168 -664.83826 -662.58344 -654.75983 -648.64569 -642.91956 -639.99359 -634.34088 -632.08606 -629.1601 -626.43335 -622.75232 -617.09961 -613.21924 -610.49255 -601.31604 -595.66333 -592.84222 -590.58746 -584.70404 -582.44922 -579.52325 -573.79712 -567.68298 -562.0932 -556.44049 -552.44476 -550.19 -544.06531 -538.41266 -534.41693 -531.69019 -525.96411 -519.83942 -517.58466 -511.85852 -507.86282 -505.60803 -499.4834 -493.36923 -489.37354 -486.64682 -480.53265 -474.94287 -472.68808 -466.80466 -464.54987 -458.42523 -452.54181 -448.54611 -444.66577 -441.93903 -436.56949 -430.45532 -427.52936 -421.6459 -417.65021 -415.39542 -409.74271 -404.84509 -399.19238 -393.07825 -389.19791 -386.42923 -384.17444 -376.43472 -370.70862 -366.82828 -361.17557 -358.92078 -352.79614 -347.07001 -339.24643 -333.13226 -330.87747 -326.99713 -320.88297 -315.23026 -312.97546 -308.07785 -302.19443 -298.19873 -295.47202 -289.74588 -283.63174 -278.26218 -276.00739 -270.63785 -266.75751 -261.1048 -254.98016 -249.61061">This can be about the experience during a whole lifetime, a longer period or during a particular event. Note down the various steps.</tspan><tspan
         id="tspan400"
         y="-285.14191"
         x="-861.38263 -855.65649 -850.00378 -846.12341 -843.86865 -839.98828 -833.87415 -828.22144 -825.96667 -823.23993 -817.12579 -813.24542 -807.59271 -803.59705 -798.6994 -795.97266 -790.31995 -782.4964 -776.84369 -771.19098 -768.93616 -762.81152 -758.81586 -752.93237 -745.10883 -742.854 -738.97369 -732.8595 -727.20679 -724.95203 -719.29932 -714.34924 -708.22461 -702.5719 -698.57617 -695.84949 -690.19678 -684.08264 -678.71307 -673.06036 -670.80554 -668.07886 -661.96466 -659.7099 -653.82648 -651.57166 -647.89062 -642.16449 -638.16876 -628.99231 -626.73749 -621.01141 -617.33032 -615.0755 -609.19208 -606.93732 -601.56775 -595.45361 -591.45789 -586.5603 -580.90759 -578.13892 -573.62933 -566.12036 -560.39423 -552.57062 -550.31586 -544.19116 -538.46509 -533.09552 -530.36877 -526.48846 -523.76172 -518.86414 -513.21143 -510.9566 -505.2305 -501.2348 -498.98001 -492.86584 -487.21313 -481.62335 -475.73993 -471.85959 -469.13287 -464.23526 -458.58255 -456.32776 -448.50415 -442.62073 -437.25116 -434.99637 -431.11603 -425.00189 -419.34918 -417.09439 -411.44168 -406.49164 -400.36697 -394.71426 -390.71857 -387.99185 -382.33914 -376.22498 -370.85544 -365.20273 -360.08487 -357.83008 -348.78995 -342.67578 -336.79236 -332.91202 -330.65723 -322.83365 -316.9502 -311.58066 -309.32587 -305.44553 -299.33136 -293.67865 -291.42386 -282.24741 -276.36395 -273.63724 -267.5231 -265.26831 -261.58722 -255.93451 -250.2818 -247.35582 -244.62909 -238.51494 -232.92516 -230.67036 -224.78693 -220.9066 -218.65181 -212.9991 -207.11566 -201.74611 -195.63196 -193.37717 -188.00761 -184.12729 -178.47458 -172.34993">Let the interviewee draw the experience in a form of a curve. How positive or negative was the experience? What was the main feeling at each step?</tspan><tspan
         id="tspan402"
         y="-272.55704"
         x="-861.38263 -852.34247 -846.22833 -840.34485 -836.46454 -832.31152 -824.48792 -818.37378 -812.64764 -810.39288 -806.51251 -802.51685 -799.7901 -794.20032 -788.61053 -782.95782 -778.9621 -773.30939 -767.18475 -764.92999 -761.04962 -754.93549 -749.28278 -747.02802 -741.65845 -735.54431 -729.66083 -723.54669 -717.95691 -712.3042 -706.93463 -701.81683 -699.56201 -692.05304 -686.3269 -678.5033 -676.24854 -670.1239 -667.39716 -661.27252 -659.0177 -655.13739 -649.02325 -646.29651 -640.18237 -634.59259 -629.22302 -626.96826 -621.31555 -616.41791 -610.69177 -607.76581 -602.86816 -597.21545 -591.09082 -588.83606 -583.10992 -578.21234 -572.55963 -568.5639 -566.30914 -562.42877 -559.70203 -550.52557 -544.87286 -539.755 -537.50024 -528.46008 -522.34595 -516.46252 -512.58215 -510.32736 -501.15091 -495.26746 -489.14282 -483.49011 -481.23532 -477.35498 -471.24084 -468.5141 -462.39996 -456.81018 -451.44061 -449.18582 -443.59604 -437.86993 -435.61514 -427.79153 -422.0654 -418.0697 -412.70016 -407.04745 -404.79266 -399.06656 -395.07083 -392.81604 -386.69141 -381.0387 -377.15836 -373.27802 -367.62531 -363.62961 -358.51178">What/who triggered the changes? How did things evolved over time? What made things go worse or better? </tspan></text>
<g
       id="g406"><g
         clip-path="url(#clipPath412)"
         id="g408"><g
           transform="translate(962.3187,805.2564)"
           id="g414"><path
             id="path416"
             style="fill:none;stroke:#34b75b;stroke-width:1.278;stroke-linecap:butt;stroke-linejoin:miter;stroke-miterlimit:10;stroke-dasharray:none;stroke-opacity:1"
             d="m 0,0 c -4.509,4.509 -11.819,4.509 -16.328,0 -4.509,-4.509 -4.509,-11.819 0,-16.328 4.509,-4.509 11.819,-4.509 16.328,0 C 4.509,-11.819 4.509,-4.509 0,0" /></g><g
           transform="translate(1001.3643,805.2564)"
           id="g418"><path
             id="path420"
             style="fill:none;stroke:#15141b;stroke-width:1.278;stroke-linecap:butt;stroke-linejoin:miter;stroke-miterlimit:10;stroke-dasharray:none;stroke-opacity:1"
             d="m 0,0 c -4.509,4.509 -11.819,4.509 -16.328,0 -4.509,-4.509 -4.509,-11.819 0,-16.328 4.509,-4.509 11.819,-4.509 16.328,0 C 4.509,-11.819 4.509,-4.509 0,0" /></g><g
           transform="translate(1062.6061,788.9692)"
           id="g422"><path
             id="path424"
             style="fill:none;stroke:#15141b;stroke-width:1.278;stroke-linecap:butt;stroke-linejoin:miter;stroke-miterlimit:10;stroke-dasharray:none;stroke-opacity:1"
             d="m 0,0 c 4.509,-4.509 11.819,-4.509 16.328,0 4.509,4.509 4.509,11.819 0,16.328 C 11.819,20.837 4.509,20.837 0,16.328 -4.509,11.819 -4.509,4.509 0,0" /></g><g
           transform="translate(1117.7223,805.2564)"
           id="g426"><path
             id="path428"
             style="fill:none;stroke:#15141b;stroke-width:1.278;stroke-linecap:butt;stroke-linejoin:miter;stroke-miterlimit:10;stroke-dasharray:none;stroke-opacity:1"
             d="m 0,0 c -4.509,4.509 -11.819,4.509 -16.328,0 -4.509,-4.509 -4.509,-11.819 0,-16.328 4.509,-4.509 11.819,-4.509 16.328,0 C 4.509,-11.819 4.509,-4.509 0,0" /></g><g
           transform="translate(1157.0275,805.2564)"
           id="g430"><path
             id="path432"
             style="fill:none;stroke:#15141b;stroke-width:1.278;stroke-linecap:butt;stroke-linejoin:miter;stroke-miterlimit:10;stroke-dasharray:none;stroke-opacity:1"
             d="m 0,0 c -4.509,4.509 -11.819,4.509 -16.328,0 -4.509,-4.509 -4.509,-11.819 0,-16.328 4.509,-4.509 11.819,-4.509 16.328,0 C 4.509,-11.819 4.509,-4.509 0,0" /></g><g
           transform="translate(1040.2152,805.2564)"
           id="g434"><path
             id="path436"
             style="fill:none;stroke:#15141b;stroke-width:1.278;stroke-linecap:butt;stroke-linejoin:miter;stroke-miterlimit:10;stroke-dasharray:none;stroke-opacity:1"
             d="m 0,0 c -4.509,4.509 -11.819,4.509 -16.328,0 -4.509,-4.509 -4.509,-11.819 0,-16.328 4.509,-4.509 11.819,-4.509 16.328,0 C 4.509,-11.819 4.509,-4.509 0,0" /></g><g
           transform="translate(912.6081,808.8102)"
           id="g438"><path
             id="path440"
             style="fill:none;stroke:#15141b;stroke-width:1.278;stroke-linecap:butt;stroke-linejoin:miter;stroke-miterlimit:10;stroke-dasharray:none;stroke-opacity:1"
             d="m 0,0 c -2.362,-0.396 -4.627,-1.505 -6.449,-3.327 -4.657,-4.657 -4.657,-12.208 0,-16.864 4.656,-4.657 12.207,-4.657 16.864,0 1.828,1.828 2.938,4.103 3.331,6.474 l -13.746,0 z" /></g><g
           transform="translate(912.6081,808.8102)"
           id="g442"><path
             id="path444"
             style="fill:none;stroke:#15141b;stroke-width:1.278;stroke-linecap:butt;stroke-linejoin:miter;stroke-miterlimit:10;stroke-dasharray:none;stroke-opacity:1"
             d="m 0,0 c 3.674,0.616 7.58,-0.493 10.415,-3.327 2.828,-2.829 3.938,-6.724 3.331,-10.39 h 3.407 V 3.435 L 0,3.435 Z" /></g><g
           transform="translate(923.0226,805.4827)"
           id="g446"><path
             id="path448"
             style="fill:none;stroke:#15141b;stroke-width:1.278;stroke-linecap:butt;stroke-linejoin:miter;stroke-miterlimit:10;stroke-dasharray:none;stroke-opacity:1"
             d="M 0,0 C -2.835,2.835 -6.741,3.944 -10.415,3.327 V -10.39 H 3.331 C 3.938,-6.724 2.828,-2.828 0,0 Z" /></g><g
           transform="translate(923.0226,805.4827)"
           id="g450"><path
             id="path452"
             style="fill:none;stroke:#15141b;stroke-width:1.278;stroke-linecap:butt;stroke-linejoin:miter;stroke-miterlimit:10;stroke-dasharray:none;stroke-opacity:1"
             d="M 0,0 C -2.835,2.835 -6.741,3.944 -10.415,3.327 V -10.39 H 3.331 C 3.938,-6.724 2.828,-2.828 0,0 Z" /></g><g
           transform="translate(944.5983,811.8179)"
           id="g454"><path
             id="path456"
             style="fill:none;stroke:#34b75b;stroke-width:1.278;stroke-linecap:butt;stroke-linejoin:miter;stroke-miterlimit:10;stroke-dasharray:none;stroke-opacity:1"
             d="M 0,0 2.964,-5.268 9.585,-17.035 16.186,-5.303 19.169,0 Z" /></g><g
           transform="translate(1007.8953,803.2263)"
           id="g458"><path
             id="path460"
             style="fill:none;stroke:#15141b;stroke-width:1.278;stroke-linecap:butt;stroke-linejoin:miter;stroke-miterlimit:10;stroke-dasharray:none;stroke-opacity:1"
             d="m 0,0 c 0,4.754 -3.854,8.607 -8.607,8.607 -4.754,0 -8.608,-3.853 -8.608,-8.607 0,-4.754 3.854,-8.607 8.608,-8.607 C -3.854,-8.607 0,-4.754 0,0 Z" /></g><g
           transform="translate(1045.3588,810.4221)"
           id="g462"><path
             id="path464"
             style="fill:none;stroke:#15141b;stroke-width:1.278;stroke-linecap:butt;stroke-linejoin:miter;stroke-miterlimit:10;stroke-dasharray:none;stroke-opacity:1"
             d="m 0,0 c -1.88,1.88 -4.929,1.88 -6.809,0 -0.24,-0.241 -0.45,-0.5 -0.629,-0.774 l -1.232,-1.945 -10.305,-16.257 16.272,10.317 1.998,1.267 C -0.457,-7.223 -0.22,-7.029 0,-6.809 1.88,-4.929 1.88,-1.88 0,0 Z" /></g><g
           transform="translate(1066.4207,789.1837)"
           id="g466"><path
             id="path468"
             style="fill:none;stroke:#15141b;stroke-width:1.278;stroke-linecap:butt;stroke-linejoin:miter;stroke-miterlimit:10;stroke-dasharray:none;stroke-opacity:1"
             d="M 0,0 14.104,14.104 19.002,19.002 15.335,22.67 10.453,17.788 -3.667,3.667 Z" /></g><g
           transform="translate(1109.5182,811.6689)"
           id="g470"><path
             id="path472"
             style="fill:none;stroke:#15141b;stroke-width:1.278;stroke-linecap:butt;stroke-linejoin:miter;stroke-miterlimit:10;stroke-dasharray:none;stroke-opacity:1"
             d="m 0,0 c -0.001,0 -0.002,0 -0.003,0 v -14.689 h 14.71 C 14.697,-6.575 8.117,0 0,0 Z" /></g><g
           transform="translate(1143.3912,794.4498)"
           id="g474"><path
             id="path476"
             style="fill:none;stroke:#15141b;stroke-width:1.278;stroke-linecap:butt;stroke-linejoin:miter;stroke-miterlimit:10;stroke-dasharray:none;stroke-opacity:1"
             d="m 0,0 c -0.017,0 -0.033,0 -0.05,0 l 0.023,5.125 c 1.225,-0.005 2.38,0.357 3.529,1.108 1.285,0.84 2.356,1.881 3.181,3.092 l 1.586,2.328 c 0.637,0.935 1.703,2.5 3.669,3.702 2.099,1.284 4.769,1.913 8.163,1.923 l 0.015,-5.125 C 17.722,12.146 15.87,11.752 14.612,10.983 13.662,10.402 13.117,9.667 12.504,8.767 L 10.918,6.44 C 9.711,4.668 8.159,3.155 6.306,1.943 4.333,0.654 2.212,0 0,0 Z" /></g></g></g></g></svg>