<?xml version="1.0" encoding="UTF-8" standalone="no"?>
<svg
   xmlns:dc="http://purl.org/dc/elements/1.1/"
   xmlns:cc="http://creativecommons.org/ns#"
   xmlns:rdf="http://www.w3.org/1999/02/22-rdf-syntax-ns#"
   xmlns:svg="http://www.w3.org/2000/svg"
   xmlns="http://www.w3.org/2000/svg"
   viewBox="0 0 3178.5867 4493.8535"
   height="4493.8535"
   width="3178.5867"
   xml:space="preserve"
   id="svg2"
   version="1.1"><metadata
     id="metadata8"><rdf:RDF><cc:Work
         rdf:about=""><dc:format>image/svg+xml</dc:format><dc:type
           rdf:resource="http://purl.org/dc/dcmitype/StillImage" /></cc:Work></rdf:RDF></metadata><defs
     id="defs6"><clipPath
       id="clipPath54"
       clipPathUnits="userSpaceOnUse"><path
         id="path52"
         d="M 0,3370.394 H 2383.937 V 0 H 0 Z" /></clipPath><clipPath
       id="clipPath62"
       clipPathUnits="userSpaceOnUse"><path
         id="path60"
         d="M 483.891,3233.48 H 1162.4 v -107.3 H 483.891 Z" /></clipPath><clipPath
       id="clipPath160"
       clipPathUnits="userSpaceOnUse"><path
         id="path158"
         d="M 0,3370.394 H 2383.937 V 0 H 0 Z" /></clipPath><clipPath
       id="clipPath376"
       clipPathUnits="userSpaceOnUse"><path
         id="path374"
         d="M 0,3370.394 H 2383.937 V 0 H 0 Z" /></clipPath><clipPath
       id="clipPath402"
       clipPathUnits="userSpaceOnUse"><path
         id="path400"
         d="M 0,3370.394 H 2383.937 V 0 H 0 Z" /></clipPath><clipPath
       id="clipPath418"
       clipPathUnits="userSpaceOnUse"><path
         id="path416"
         d="m 2191.44,100.349 h 40.63 V 59.7209 h -40.63 z" /></clipPath><clipPath
       id="clipPath422"
       clipPathUnits="userSpaceOnUse"><path
         id="path420"
         d="m 2191.436,59.721 h 40.63 v 40.628 h -40.63 z" /></clipPath></defs><g
     transform="matrix(1.3333333,0,0,-1.3333333,0,4493.8533)"
     id="g10"><text
       id="text46"
       style="font-variant:normal;font-weight:normal;font-stretch:normal;font-size:20px;font-family:'Myriad Pro';-inkscape-font-specification:MyriadPro-Regular;writing-mode:lr-tb;fill:#231f20;fill-opacity:1;fill-rule:nonzero;stroke:none"
       transform="matrix(1,0,0,-1,1344.666,1546.8398)"><tspan
         id="tspan12"
         y="0"
         x="0 16.82 27.92 37.48 44.099998 48.34 53.02 60.939999 65.18 71.800003 82.900002 92.919998 97.160004 113.84 123.48 128.16 139.25999">What is the main </tspan><tspan
         id="tspan14"
         y="24"
         x="0 9.6400003 18.860001 25.48 30.16 39.779999 44.459999 51.257999 60.678001 64.917999 75.898003 82.438004 86.678001 97.778 107.798 117.818 129.09801 133.338 139.95799 151.058 160.618 167.23801">activity or need that </tspan><tspan
         id="tspan16"
         y="48"
         x="0 6.6199999 13.24 17.92 29.1 40.279999 50.299999 56.84 64.760002 69 75.620003 86.720001 96.739998 100.98 111.44 117.98 125.9 132.52">triggers the frst </tspan><tspan
         id="tspan18"
         y="72"
         x="0 10.98 19.82 28.780001 38.419998 46.34 51.02 62 73.099998 77.339996 88.32 94.160004 98.400002 108.04 112.28 123.66 130 140.98 149.82001 159.84 167.75999 175.67999 183.8">occasion of a process? </tspan><tspan
         id="tspan20"
         y="230.62"
         x="-239.16 -222.34 -211.24001 -200.25999 -196.02 -186.38 -175.28 -164 -159.75999 -145.03999 -133.94 -124.38 -117.76 -113.52 -108.84 -100.92">Who and what is </tspan><tspan
         id="tspan22"
         y="254.62"
         x="-239.16 -234.48 -223.64 -214.22 -203.24001 -198.52 -189.09801 -179.078 -167.798 -163.558 -158.87801 -147.778 -143.53799 -136.918 -125.818">involved in the</tspan><tspan
         id="tspan24"
         y="278.62"
         x="-239.16 -229.52 -220.3 -213.67999 -209 -199.38 -194.7 -187.90199 -178.48199 -170.362 -166.842 -150.022 -138.922 -129.364 -122.744 -118.502 -108.862 -102.522 -92.501999">activity? What are </tspan><tspan
         id="tspan26"
         y="302.62"
         x="-239.16 -232.53999 -221.44 -211.42 -207.17999 -202.5 -191.48199 -184.98199 -174.96201 -168.522 -162.382 -156.04201 -146.022 -141.302 -131.742 -125.122 -120.442 -109.462 -98.362 -90.442001 -82.321999">the inter-relations? </tspan><tspan
         id="tspan28"
         y="0"
         x="-483.54001 -466.72 -455.62 -444.64001 -440.39999 -435.72 -427.79999 -423.56 -412.28 -401.29999 -396.62 -385.51999 -374.34 -370.10001 -355.38 -344.28 -334.72 -328.10001">Who is doing what </tspan><tspan
         id="tspan30"
         y="24"
         x="-483.54001 -473.89999 -462.79999 -451.51999 -447.28 -442.60001 -431.5 -427.26001 -412.54001 -401.44 -396.76001 -387.79999 -376.70001 -372.45999 -361.48001 -355.14001 -343.85999 -333.84 -327.29999">and in which order?</tspan><tspan
         id="tspan32"
         y="48"
         x="-483.54001 -466.72 -455.62 -446.06 -439.44 -435.20001 -425.48001 -414.38 -403.54001 -388.82001 -384.10001 -374.07999 -362.79999 -351.62 -341.60001 -337.35999 -332.67999 -324.76001">What knowledge is </tspan><tspan
         id="tspan34"
         y="72"
         x="-483.54001 -472.44 -462.42001 -452.39999 -441.12 -431.10001 -419.82001 -415.57999 -410 -399.01999 -392.48001 -388.23999 -381.62 -370.51999 -365.84 -357.92001">needed for this?</tspan><tspan
         id="tspan36"
         y="-259.67999"
         x="-238.38 -221.56 -210.46001 -200.89999 -194.28 -190.03999 -181.2 -170.22 -159.202 -152.702 -142.742 -133.222 -126.602 -119.742">What context/ </tspan><tspan
         id="tspan38"
         y="-235.67999"
         x="-238.38 -227 -215.98 -209.36 -197.98 -187 -179.08 -169.06 -164.82001 -160.14 -152.22 -143.74001 -134.78 -128.44 -118.42 -108.86 -102.36 -92.339996 -81.059998">purpose is created </tspan><tspan
         id="tspan40"
         y="-211.67999"
         x="-238.38 -231.88 -220.89999 -216.66 -207.82001 -196.84 -185.86 -179.51801 -168.23801 -163.558 -152.45799 -142.89999 -136.39999 -126.38 -122.14 -115.52 -104.42 -94.400002">to coordinate the </tspan><tspan
         id="tspan42"
         y="-187.67999"
         x="-238.38 -227 -220.66 -209.67999 -200.842 -190.82201 -182.90199 -174.98199 -170.742 -161.10201 -150.002 -138.722">process and </tspan><tspan
         id="tspan44"
         y="-163.67999"
         x="-238.38 -230.46001 -219.44 -208.06 -200.14 -190.842 -182.922 -176.42 -166.39999 -149.72 -141.8 -133.67999">subsystems? </tspan></text>
<g
       id="g48"><g
         clip-path="url(#clipPath54)"
         id="g50"><g
           id="g56"><g
             id="g58" /><g
             id="g66"><g
               style="opacity:0.5"
               id="g64"
               clip-path="url(#clipPath62)" /></g></g></g></g><path
       id="path68"
       style="fill:#231f20;fill-opacity:1;fill-rule:nonzero;stroke:#15141b;stroke-width:1;stroke-linecap:butt;stroke-linejoin:miter;stroke-miterlimit:10;stroke-dasharray:none;stroke-opacity:1"
       d="m 1308.891,2134.461 h -224.395 v -224.395 h 224.395 z m -1.984,-222.411 h -220.426 v 220.426 h 220.426 z" /><path
       id="path70"
       style="fill:#231f20;fill-opacity:1;fill-rule:nonzero;stroke:#15141b;stroke-width:1;stroke-linecap:butt;stroke-linejoin:miter;stroke-miterlimit:10;stroke-dasharray:none;stroke-opacity:1"
       d="m 1308.891,1881.786 h -224.395 v -224.395 h 224.395 z m -1.984,-222.41 h -220.426 v 220.427 h 220.426 z" /><path
       id="path72"
       style="fill:#231f20;fill-opacity:1;fill-rule:nonzero;stroke:#15141b;stroke-width:1;stroke-linecap:butt;stroke-linejoin:miter;stroke-miterlimit:10;stroke-dasharray:none;stroke-opacity:1"
       d="m 1308.891,2387.136 h -224.395 v -224.395 h 224.395 z m -1.984,-222.411 h -220.426 v 220.427 h 220.426 z" /><path
       id="path74"
       style="fill:#231f20;fill-opacity:1;fill-rule:nonzero;stroke:#15141b;stroke-width:1;stroke-linecap:butt;stroke-linejoin:miter;stroke-miterlimit:10;stroke-dasharray:none;stroke-opacity:1"
       d="m 1308.891,2639.81 h -224.395 v -224.395 h 224.395 z m -1.984,-222.411 h -220.426 v 220.427 h 220.426 z" /><text
       id="text80"
       style="font-variant:normal;font-weight:bold;font-stretch:normal;font-size:39.68859863px;font-family:'Akkurat Pro';-inkscape-font-specification:AkkuratPro-Bold;writing-mode:lr-tb;fill:#231f20;fill-opacity:1;fill-rule:nonzero;stroke:none"
       transform="matrix(1,0,0,-1,1101.9385,1608.7354)"><tspan
         id="tspan76"
         y="0"
         x="0 24.92444 51.595181 80.68692 102.95222 127.87667 151.8089 174.0742">CONTEXT/</tspan><tspan
         id="tspan78"
         y="47.62632"
         x="5.040452 29.806139 56.873764 83.028549 107.79424 134.46498 159.54817">PURPOSE</tspan></text>
<path
       id="path82"
       style="fill:#231f20;fill-opacity:1;fill-rule:nonzero;stroke:none"
       d="m 1549.403,1638.963 h -224.395 v -224.395 h 224.395 z m -1.985,-222.411 h -220.426 v 220.427 h 220.426 z" /><g
       transform="translate(1546.3335,1416.5518)"
       id="g84"><path
         id="path86"
         style="fill:none;stroke:#15141b;stroke-width:1;stroke-linecap:butt;stroke-linejoin:miter;stroke-miterlimit:10;stroke-dasharray:none;stroke-opacity:1"
         d="M 0,0 H -219.342 V 220.427 H 1.084 L 1.084,0" /></g><g
       transform="translate(1543.02,1420.6416)"
       id="g88"><path
         id="path90"
         style="fill:#15141b;fill-opacity:1;fill-rule:nonzero;stroke:none"
         d="M 0,0 -0.682,-0.732 2.93,-4.089 -0.682,-7.446 0,-8.179 l 4.398,4.09 z" /></g><g
       transform="translate(1548.3184,1638.9626)"
       id="g92"><path
         id="path94"
         style="fill:none;stroke:#15141b;stroke-width:1;stroke-linecap:butt;stroke-linejoin:miter;stroke-miterlimit:10;stroke-dasharray:none;stroke-opacity:1"
         d="M 0,0 H -223.311 V -224.395 H 1.084 V 0" /></g><g
       transform="translate(1545.0044,1643.0525)"
       id="g96"><path
         id="path98"
         style="fill:#15141b;fill-opacity:1;fill-rule:nonzero;stroke:none"
         d="M 0,0 -0.682,-0.732 2.93,-4.089 -0.682,-7.446 0,-8.179 l 4.398,4.09 z" /></g><path
       id="path100"
       style="fill:#231f20;fill-opacity:1;fill-rule:nonzero;stroke:#15141b;stroke-width:1;stroke-linecap:butt;stroke-linejoin:miter;stroke-miterlimit:10;stroke-dasharray:none;stroke-opacity:1"
       d="m 1549.403,1638.963 h -224.395 v -224.395 h 224.395 z m -1.985,-222.411 h -220.426 v 220.427 h 220.426 z" /><path
       id="path102"
       style="fill:#231f20;fill-opacity:1;fill-rule:nonzero;stroke:#15141b;stroke-width:1;stroke-linecap:butt;stroke-linejoin:miter;stroke-miterlimit:10;stroke-dasharray:none;stroke-opacity:1"
       d="m 1802.077,1638.963 h -224.395 v -224.395 h 224.395 z m -1.984,-222.411 h -220.426 v 220.427 h 220.426 z" /><path
       id="path104"
       style="fill:#231f20;fill-opacity:1;fill-rule:nonzero;stroke:#15141b;stroke-width:1;stroke-linecap:butt;stroke-linejoin:miter;stroke-miterlimit:10;stroke-dasharray:none;stroke-opacity:1"
       d="m 2054.752,1638.963 h -224.395 v -224.395 h 224.395 z m -1.985,-222.411 h -220.426 v 220.427 h 220.426 z" /><path
       id="path106"
       style="fill:#231f20;fill-opacity:1;fill-rule:nonzero;stroke:#15141b;stroke-width:1;stroke-linecap:butt;stroke-linejoin:miter;stroke-miterlimit:10;stroke-dasharray:none;stroke-opacity:1"
       d="m 2307.426,1638.963 h -224.395 v -224.395 h 224.395 z m -1.984,-222.411 h -220.427 v 220.427 h 220.427 z" /><text
       id="text110"
       style="font-variant:normal;font-weight:bold;font-stretch:normal;font-size:39.68859863px;font-family:'Akkurat Pro';-inkscape-font-specification:AkkuratPro-Bold;writing-mode:lr-tb;fill:#231f20;fill-opacity:1;fill-rule:nonzero;stroke:none"
       transform="matrix(1,0,0,-1,1355.2061,1657.3535)"><tspan
         id="tspan108"
         y="0"
         x="0 23.336897 50.404522 79.496269 104.42071 126.68601 138.47353 165.14427">FUNCTION</tspan></text>
<path
       id="path112"
       style="fill:#231f20;fill-opacity:1;fill-rule:nonzero;stroke:#15141b;stroke-width:1;stroke-linecap:butt;stroke-linejoin:miter;stroke-miterlimit:10;stroke-dasharray:none;stroke-opacity:1"
       d="M 1064.366,1638.963 H 839.971 v -224.395 h 224.395 z m -1.985,-222.411 H 841.955 v 220.427 h 220.426 z" /><path
       id="path114"
       style="fill:#231f20;fill-opacity:1;fill-rule:nonzero;stroke:#15141b;stroke-width:1;stroke-linecap:butt;stroke-linejoin:miter;stroke-miterlimit:10;stroke-dasharray:none;stroke-opacity:1"
       d="M 811.691,1638.963 H 587.296 v -224.395 h 224.395 z m -1.984,-222.411 H 589.281 v 220.427 h 220.426 z" /><path
       id="path116"
       style="fill:#231f20;fill-opacity:1;fill-rule:nonzero;stroke:#15141b;stroke-width:1;stroke-linecap:butt;stroke-linejoin:miter;stroke-miterlimit:10;stroke-dasharray:none;stroke-opacity:1"
       d="M 559.016,1638.963 H 334.621 v -224.395 h 224.395 z m -1.984,-222.411 H 336.606 v 220.427 h 220.426 z" /><path
       id="path118"
       style="fill:#231f20;fill-opacity:1;fill-rule:nonzero;stroke:#15141b;stroke-width:1;stroke-linecap:butt;stroke-linejoin:miter;stroke-miterlimit:10;stroke-dasharray:none;stroke-opacity:1"
       d="M 306.342,1638.963 H 81.947 v -224.395 h 224.395 z m -1.985,-222.411 H 83.931 v 220.427 h 220.426 z" /><text
       id="text122"
       style="font-variant:normal;font-weight:bold;font-stretch:normal;font-size:39.68859863px;font-family:'Akkurat Pro';-inkscape-font-specification:AkkuratPro-Bold;writing-mode:lr-tb;fill:#231f20;fill-opacity:1;fill-rule:nonzero;stroke:none"
       transform="matrix(1,0,0,-1,839.9697,1657.3535)"><tspan
         id="tspan120"
         y="0"
         x="0 24.765686 50.920475 77.591209 102.51566 127.44009 152.52328">PROCESS</tspan></text>
<text
       id="text132"
       style="font-variant:normal;font-weight:bold;font-stretch:normal;font-size:24.2567997px;font-family:'Akkurat Pro';-inkscape-font-specification:AkkuratPro-Bold;writing-mode:lr-tb;fill:#231f20;fill-opacity:1;fill-rule:nonzero;stroke:none"
       transform="matrix(1,0,0,-1,944.1289,1785.5034)"><tspan
         id="tspan124"
         y="0"
         x="0 21.29747 28.50174 43.735012 59.720242">MICRO</tspan><tspan
         id="tspan126"
         y="-254.8662"
         x="2.6925049 23.989975 39.223244 54.553543 70.854111">MESO </tspan><tspan
         id="tspan128"
         y="-508.95618"
         x="2.6925049 17.925776 32.552624">EXO</tspan><tspan
         id="tspan130"
         y="-762.65802"
         x="2.6925049 23.989975 39.49007 54.723339 70.708572">MACRO</tspan></text>
<path
       id="path134"
       style="fill:#231f20;fill-opacity:1;fill-rule:nonzero;stroke:#15141b;stroke-width:1;stroke-linecap:butt;stroke-linejoin:miter;stroke-miterlimit:10;stroke-dasharray:none;stroke-opacity:1"
       d="m 1308.891,1402.203 h -224.395 v -224.395 h 224.395 z m -1.984,-222.411 h -220.426 v 220.427 h 220.426 z" /><path
       id="path136"
       style="fill:#231f20;fill-opacity:1;fill-rule:nonzero;stroke:#15141b;stroke-width:1;stroke-linecap:butt;stroke-linejoin:miter;stroke-miterlimit:10;stroke-dasharray:none;stroke-opacity:1"
       d="M 1308.891,1149.528 H 1084.496 V 925.133 h 224.395 z m -1.984,-222.411 h -220.426 v 220.426 h 220.426 z" /><path
       id="path138"
       style="fill:#231f20;fill-opacity:1;fill-rule:nonzero;stroke:#15141b;stroke-width:1;stroke-linecap:butt;stroke-linejoin:miter;stroke-miterlimit:10;stroke-dasharray:none;stroke-opacity:1"
       d="M 1308.891,896.854 H 1084.496 V 672.459 h 224.395 z m -1.984,-222.411 H 1086.481 V 894.87 h 220.426 z" /><path
       id="path140"
       style="fill:#231f20;fill-opacity:1;fill-rule:nonzero;stroke:#15141b;stroke-width:1;stroke-linecap:butt;stroke-linejoin:miter;stroke-miterlimit:10;stroke-dasharray:none;stroke-opacity:1"
       d="M 1308.891,644.179 H 1084.496 V 419.784 h 224.395 z m -1.984,-222.411 h -220.426 v 220.427 h 220.426 z" /><text
       id="text144"
       style="font-variant:normal;font-weight:bold;font-stretch:normal;font-size:39.68859863px;font-family:'Akkurat Pro';-inkscape-font-specification:AkkuratPro-Bold;writing-mode:lr-tb;fill:#231f20;fill-opacity:1;fill-rule:nonzero;stroke:none"
       transform="matrix(1,0,0,-1,1083.7412,1419.583)"><tspan
         id="tspan142"
         y="0"
         x="0 25.083195 47.348499 73.503288 100.57092 125.49535 147.76065 174.82828 200.98308">STRUCTURE</tspan></text>
<text
       id="text148"
       style="font-variant:normal;font-weight:bold;font-stretch:normal;font-size:92.20210266px;font-family:'Akkurat Pro';-inkscape-font-specification:AkkuratPro-Bold;writing-mode:lr-tb;fill:#231f20;fill-opacity:1;fill-rule:nonzero;stroke:none"
       transform="matrix(1,0,0,-1,501.7446,3145.3887)"><tspan
         id="tspan146"
         y="0"
         x="0 31.994129 88.329613 150.84264 216.21393 279.74118 336.07666 368.07077 428.92416 491.43719 515.31757 547.31165 619.50592 686.07581 753.56775 785.56189 850.93317">ITERATIVE INQUIRY</tspan></text>
<text
       id="text152"
       style="font-variant:normal;font-weight:300;font-stretch:normal;font-size:63.08570099px;font-family:'Akkurat Light Pro';-inkscape-font-specification:AkkuratLightPro-Regular;writing-mode:lr-tb;fill:#231f20;fill-opacity:1;fill-rule:nonzero;stroke:none"
       transform="matrix(1,0,0,-1,503.5557,3054.3848)"><tspan
         id="tspan150"
         y="0"
         x="0 36.715878 60.75153 96.142609 151.34259 167.74487 204.52383 238.14851 251.71194 275.05365 311.83261 345.83582 359.39923 398.63855 428.8566 461.15646 484.49817 518.50134">Framing the System</tspan></text>
<g
       id="g154"><g
         clip-path="url(#clipPath160)"
         id="g156"><g
           transform="translate(198.4846,3201.6648)"
           id="g162"><path
             id="path164"
             style="fill:none;stroke:#ec138d;stroke-width:10;stroke-linecap:butt;stroke-linejoin:miter;stroke-miterlimit:10;stroke-dasharray:none;stroke-opacity:1"
             d="m 0,0 c -28.818,-4.833 -56.461,-18.366 -78.697,-40.602 -56.824,-56.824 -56.824,-148.954 0.001,-205.778 56.823,-56.824 148.954,-56.824 205.777,0 22.313,22.314 35.86,50.072 40.65,78.998 H 0 Z" /></g><g
           transform="translate(198.4846,3201.6648)"
           id="g166"><path
             id="path168"
             style="fill:none;stroke:#ec138d;stroke-width:10;stroke-linecap:butt;stroke-linejoin:miter;stroke-miterlimit:10;stroke-dasharray:none;stroke-opacity:1"
             d="m 0,0 c 44.825,7.518 92.493,-6.015 127.081,-40.602 34.51,-34.511 48.057,-82.043 40.65,-126.78 h 41.57 V 41.919 L 0,41.919 Z" /></g><g
           transform="translate(325.5652,3161.0625)"
           id="g170"><path
             id="path172"
             style="fill:none;stroke:#ec138d;stroke-width:10;stroke-linecap:butt;stroke-linejoin:miter;stroke-miterlimit:10;stroke-dasharray:none;stroke-opacity:1"
             d="M 0,0 C -34.587,34.587 -82.256,48.12 -127.081,40.602 V -126.78 H 40.65 C 48.057,-82.042 34.511,-34.51 0,0 Z" /></g><g
           transform="translate(325.5652,3161.0625)"
           id="g174"><path
             id="path176"
             style="fill:none;stroke:#ec138d;stroke-width:10;stroke-linecap:butt;stroke-linejoin:miter;stroke-miterlimit:10;stroke-dasharray:none;stroke-opacity:1"
             d="M 0,0 C -34.587,34.587 -82.256,48.12 -127.081,40.602 V -126.78 H 40.65 C 48.057,-82.042 34.511,-34.51 0,0 Z" /></g><g
           transform="translate(1740.7977,3269.7322)"
           id="g178"><path
             id="path180"
             style="fill:none;stroke:#15141b;stroke-width:2.5;stroke-linecap:butt;stroke-linejoin:miter;stroke-miterlimit:10;stroke-dasharray:none;stroke-opacity:1"
             d="M 0,0 C -12.423,12.423 -32.565,12.423 -44.988,0 -57.41,-12.423 -57.41,-32.564 -44.987,-44.988 -32.564,-57.41 -12.423,-57.41 0,-44.988 12.423,-32.565 12.423,-12.423 0,0" /></g><g
           transform="translate(1848.3755,3269.7322)"
           id="g182"><path
             id="path184"
             style="fill:none;stroke:#15141b;stroke-width:2.5;stroke-linecap:butt;stroke-linejoin:miter;stroke-miterlimit:10;stroke-dasharray:none;stroke-opacity:1"
             d="M 0,0 C -12.423,12.423 -32.565,12.423 -44.988,0 -57.41,-12.423 -57.41,-32.564 -44.987,-44.988 -32.564,-57.41 -12.423,-57.41 0,-44.988 12.423,-32.565 12.423,-12.423 0,0" /></g><g
           transform="translate(2017.1078,3224.8579)"
           id="g186"><path
             id="path188"
             style="fill:none;stroke:#15141b;stroke-width:2.5;stroke-linecap:butt;stroke-linejoin:miter;stroke-miterlimit:10;stroke-dasharray:none;stroke-opacity:1"
             d="M 0,0 C 12.423,-12.423 32.565,-12.423 44.988,0 57.411,12.423 57.411,32.564 44.987,44.988 32.565,57.41 12.423,57.41 0,44.988 -12.423,32.564 -12.423,12.423 0,0" /></g><g
           transform="translate(2168.9634,3269.7322)"
           id="g190"><path
             id="path192"
             style="fill:none;stroke:#15141b;stroke-width:2.5;stroke-linecap:butt;stroke-linejoin:miter;stroke-miterlimit:10;stroke-dasharray:none;stroke-opacity:1"
             d="M 0,0 C -12.423,12.423 -32.564,12.423 -44.988,0 -57.41,-12.423 -57.41,-32.564 -44.987,-44.988 -32.564,-57.41 -12.423,-57.41 0,-44.988 12.423,-32.565 12.423,-12.423 0,0" /></g><g
           transform="translate(2277.2563,3269.7322)"
           id="g194"><path
             id="path196"
             style="fill:none;stroke:#15141b;stroke-width:2.5;stroke-linecap:butt;stroke-linejoin:miter;stroke-miterlimit:10;stroke-dasharray:none;stroke-opacity:1"
             d="m 0,0 c -12.423,12.423 -32.565,12.423 -44.988,0 -12.423,-12.423 -12.423,-32.564 0,-44.988 12.424,-12.422 32.565,-12.422 44.988,0 C 12.423,-32.565 12.423,-12.423 0,0" /></g><g
           transform="translate(1955.4169,3269.7322)"
           id="g198"><path
             id="path200"
             style="fill:none;stroke:#15141b;stroke-width:2.5;stroke-linecap:butt;stroke-linejoin:miter;stroke-miterlimit:10;stroke-dasharray:none;stroke-opacity:1"
             d="M 0,0 C -12.423,12.423 -32.565,12.423 -44.988,0 -57.41,-12.423 -57.41,-32.564 -44.987,-44.988 -32.564,-57.41 -12.423,-57.41 0,-44.988 12.423,-32.565 12.423,-12.423 0,0" /></g><g
           transform="translate(1603.8357,3279.5234)"
           id="g202"><path
             id="path204"
             style="fill:none;stroke:#ec138d;stroke-width:2.5;stroke-linecap:butt;stroke-linejoin:miter;stroke-miterlimit:10;stroke-dasharray:none;stroke-opacity:1"
             d="m 0,0 c -6.507,-1.091 -12.749,-4.147 -17.769,-9.168 -12.831,-12.83 -12.831,-33.633 0,-46.463 12.83,-12.831 33.633,-12.831 46.463,0 5.038,5.038 8.097,11.306 9.179,17.837 H 0 Z" /></g><g
           transform="translate(1603.8357,3279.5234)"
           id="g206"><path
             id="path208"
             style="fill:none;stroke:#ec138d;stroke-width:2.5;stroke-linecap:butt;stroke-linejoin:miter;stroke-miterlimit:10;stroke-dasharray:none;stroke-opacity:1"
             d="m 0,0 c 10.121,1.698 20.884,-1.358 28.694,-9.168 7.792,-7.792 10.851,-18.524 9.179,-28.626 h 9.386 V 9.465 L 0,9.465 Z" /></g><g
           transform="translate(1632.5298,3270.3557)"
           id="g210"><path
             id="path212"
             style="fill:none;stroke:#ec138d;stroke-width:2.5;stroke-linecap:butt;stroke-linejoin:miter;stroke-miterlimit:10;stroke-dasharray:none;stroke-opacity:1"
             d="M 0,0 C -7.81,7.81 -18.573,10.865 -28.694,9.168 V -28.626 H 9.178 C 10.851,-18.525 7.792,-7.792 0,0 Z" /></g><g
           transform="translate(1632.5298,3270.3557)"
           id="g214"><path
             id="path216"
             style="fill:none;stroke:#ec138d;stroke-width:2.5;stroke-linecap:butt;stroke-linejoin:miter;stroke-miterlimit:10;stroke-dasharray:none;stroke-opacity:1"
             d="M 0,0 C -7.81,7.81 -18.573,10.865 -28.694,9.168 V -28.626 H 9.178 C 10.851,-18.525 7.792,-7.792 0,0 Z" /></g><g
           transform="translate(1691.9747,3287.8103)"
           id="g218"><path
             id="path220"
             style="fill:none;stroke:#15141b;stroke-width:2.5;stroke-linecap:butt;stroke-linejoin:miter;stroke-miterlimit:10;stroke-dasharray:none;stroke-opacity:1"
             d="M 0,0 8.167,-14.516 26.407,-46.936 44.595,-14.61 52.815,0 Z" /></g><g
           transform="translate(1866.3696,3264.1387)"
           id="g222"><path
             id="path224"
             style="fill:none;stroke:#15141b;stroke-width:2.5;stroke-linecap:butt;stroke-linejoin:miter;stroke-miterlimit:10;stroke-dasharray:none;stroke-opacity:1"
             d="M 0,0 C 0,13.097 -10.618,23.715 -23.715,23.715 -36.812,23.715 -47.43,13.097 -47.43,0 c 0,-13.097 10.618,-23.715 23.715,-23.715 C -10.618,-23.715 0,-13.097 0,0 Z" /></g><g
           transform="translate(1969.5885,3283.9644)"
           id="g226"><path
             id="path228"
             style="fill:none;stroke:#15141b;stroke-width:2.5;stroke-linecap:butt;stroke-linejoin:miter;stroke-miterlimit:10;stroke-dasharray:none;stroke-opacity:1"
             d="m 0,0 c -5.18,5.18 -13.579,5.18 -18.76,0 -0.663,-0.663 -1.24,-1.379 -1.733,-2.134 l -3.396,-5.357 -28.39,-44.791 44.832,28.426 5.505,3.491 c 0.684,0.464 1.335,0.999 1.942,1.605 5.18,5.181 5.18,13.58 0,18.76 z" /></g><g
           transform="translate(2027.6178,3225.4487)"
           id="g230"><path
             id="path232"
             style="fill:none;stroke:#15141b;stroke-width:2.5;stroke-linecap:butt;stroke-linejoin:miter;stroke-miterlimit:10;stroke-dasharray:none;stroke-opacity:1"
             d="M 0,0 38.858,38.858 52.355,52.355 42.25,62.459 28.799,49.008 -10.105,10.104 Z" /></g><g
           transform="translate(2146.3596,3287.3997)"
           id="g234"><path
             id="path236"
             style="fill:none;stroke:#15141b;stroke-width:2.5;stroke-linecap:butt;stroke-linejoin:miter;stroke-miterlimit:10;stroke-dasharray:none;stroke-opacity:1"
             d="M 0,0 H -0.009 V -40.472 H 40.52 C 40.493,-18.115 22.362,0 0,0 Z" /></g><g
           transform="translate(2239.686,3239.9578)"
           id="g238"><path
             id="path240"
             style="fill:none;stroke:#15141b;stroke-width:2.5;stroke-linecap:butt;stroke-linejoin:miter;stroke-miterlimit:10;stroke-dasharray:none;stroke-opacity:1"
             d="m 0,0 c -0.046,0 -0.092,0 -0.138,0 l 0.063,14.12 c 3.377,-0.014 6.558,0.984 9.724,3.053 3.541,2.315 6.49,5.181 8.764,8.519 l 4.369,6.413 c 1.755,2.576 4.693,6.888 10.111,10.201 5.782,3.536 13.138,5.269 22.488,5.298 l 0.043,-14.12 c -6.597,-0.02 -11.7,-1.105 -15.165,-3.224 -2.618,-1.6 -4.118,-3.625 -5.808,-6.105 L 30.083,17.743 C 26.756,12.86 22.481,8.692 17.374,5.354 11.938,1.801 6.094,0 0,0 Z" /></g><g
           transform="translate(1333.2061,1287.2787)"
           id="g242"><path
             id="path244"
             style="fill:none;stroke:#15141b;stroke-width:5.73000002;stroke-linecap:butt;stroke-linejoin:miter;stroke-miterlimit:10;stroke-dasharray:none;stroke-opacity:1"
             d="M 0,0 H 133.313 V 110.213" /></g><g
           transform="translate(1352.1919,1263.8442)"
           id="g246"><path
             id="path248"
             style="fill:#15141b;fill-opacity:1;fill-rule:nonzero;stroke:none"
             d="M 0,0 3.909,4.197 -16.787,23.429 3.909,42.667 0,46.864 -25.2,23.429 Z" /></g><g
           transform="translate(1327.8706,1034.604)"
           id="g250"><path
             id="path252"
             style="fill:none;stroke:#15141b;stroke-width:5.73000002;stroke-linecap:butt;stroke-linejoin:miter;stroke-miterlimit:10;stroke-dasharray:none;stroke-opacity:1"
             d="M 0,0 H 359.282 V 362.888" /></g><g
           transform="translate(1346.8564,1011.1694)"
           id="g254"><path
             id="path256"
             style="fill:#15141b;fill-opacity:1;fill-rule:nonzero;stroke:none"
             d="M 0,0 3.909,4.197 -16.787,23.429 3.909,42.667 0,46.864 -25.2,23.429 Z" /></g><g
           transform="translate(1327.8706,781.9294)"
           id="g258"><path
             id="path260"
             style="fill:none;stroke:#15141b;stroke-width:5.73000002;stroke-linecap:butt;stroke-linejoin:miter;stroke-miterlimit:10;stroke-dasharray:none;stroke-opacity:1"
             d="M 0,0 H 611.957 V 615.562" /></g><g
           transform="translate(1346.8564,758.4949)"
           id="g262"><path
             id="path264"
             style="fill:#15141b;fill-opacity:1;fill-rule:nonzero;stroke:none"
             d="M 0,0 3.909,4.197 -16.787,23.429 3.909,42.667 0,46.864 -25.2,23.429 Z" /></g><g
           transform="translate(1330.479,529.2548)"
           id="g266"><path
             id="path268"
             style="fill:none;stroke:#15141b;stroke-width:5.73000002;stroke-linecap:butt;stroke-linejoin:miter;stroke-miterlimit:10;stroke-dasharray:none;stroke-opacity:1"
             d="M 0,0 H 862.023 V 868.237" /></g><g
           transform="translate(1349.4653,505.8203)"
           id="g270"><path
             id="path272"
             style="fill:#15141b;fill-opacity:1;fill-rule:nonzero;stroke:none"
             d="M 0,0 3.909,4.197 -16.787,23.429 3.909,42.667 0,46.864 -25.2,23.429 Z" /></g><g
           transform="translate(948.4497,1391.2777)"
           id="g274"><path
             id="path276"
             style="fill:none;stroke:#15141b;stroke-width:5.73000002;stroke-linecap:butt;stroke-linejoin:miter;stroke-miterlimit:10;stroke-dasharray:none;stroke-opacity:1"
             d="m 0,0 v -103.999 0 h 110.213" /></g><g
           transform="translate(925.0151,1372.2916)"
           id="g278"><path
             id="path280"
             style="fill:#15141b;fill-opacity:1;fill-rule:nonzero;stroke:none"
             d="M 0,0 4.197,-3.909 23.429,16.787 42.667,-3.909 46.864,0 23.429,25.2 Z" /></g><g
           transform="translate(702.2197,1391.2777)"
           id="g282"><path
             id="path284"
             style="fill:none;stroke:#15141b;stroke-width:5.73000002;stroke-linecap:butt;stroke-linejoin:miter;stroke-miterlimit:10;stroke-dasharray:none;stroke-opacity:1"
             d="m 0,0 v -356.674 0 h 356.443" /></g><g
           transform="translate(678.7852,1372.2916)"
           id="g286"><path
             id="path288"
             style="fill:#15141b;fill-opacity:1;fill-rule:nonzero;stroke:none"
             d="M 0,0 4.197,-3.909 23.429,16.787 42.667,-3.909 46.864,0 23.429,25.2 Z" /></g><g
           transform="translate(449.5454,1391.2777)"
           id="g290"><path
             id="path292"
             style="fill:none;stroke:#15141b;stroke-width:5.73000002;stroke-linecap:butt;stroke-linejoin:miter;stroke-miterlimit:10;stroke-dasharray:none;stroke-opacity:1"
             d="M 0,0 V -609.348 H 609.118" /></g><g
           transform="translate(426.1108,1372.2916)"
           id="g294"><path
             id="path296"
             style="fill:#15141b;fill-opacity:1;fill-rule:nonzero;stroke:none"
             d="M 0,0 4.197,-3.909 23.429,16.787 42.667,-3.909 46.863,0 23.429,25.2 Z" /></g><g
           transform="translate(196.8711,1391.2777)"
           id="g298"><path
             id="path300"
             style="fill:none;stroke:#15141b;stroke-width:5.73000002;stroke-linecap:butt;stroke-linejoin:miter;stroke-miterlimit:10;stroke-dasharray:none;stroke-opacity:1"
             d="M 0,0 V -862.023 H 861.792" /></g><g
           transform="translate(173.4365,1372.2916)"
           id="g302"><path
             id="path304"
             style="fill:#15141b;fill-opacity:1;fill-rule:nonzero;stroke:none"
             d="M 0,0 4.197,-3.909 23.429,16.787 42.667,-3.909 46.863,0 23.429,25.2 Z" /></g><g
           transform="translate(1056.8062,1772.3158)"
           id="g306"><path
             id="path308"
             style="fill:none;stroke:#15141b;stroke-width:5.73000002;stroke-linecap:butt;stroke-linejoin:miter;stroke-miterlimit:10;stroke-dasharray:none;stroke-opacity:1"
             d="M 0,0 H -108.356 V 0 -69.066" /></g><g
           transform="translate(1037.8198,1795.7502)"
           id="g310"><path
             id="path312"
             style="fill:#15141b;fill-opacity:1;fill-rule:nonzero;stroke:none"
             d="M 0,0 -3.909,-4.197 16.787,-23.429 -3.909,-42.667 0,-46.864 25.2,-23.429 Z" /></g><g
           transform="translate(1056.8062,2024.9904)"
           id="g314"><path
             id="path316"
             style="fill:none;stroke:#15141b;stroke-width:5.73000002;stroke-linecap:butt;stroke-linejoin:miter;stroke-miterlimit:10;stroke-dasharray:none;stroke-opacity:1"
             d="M 0,0 H -354.586 V 0 -362.888" /></g><g
           transform="translate(1037.8198,2048.425)"
           id="g318"><path
             id="path320"
             style="fill:#15141b;fill-opacity:1;fill-rule:nonzero;stroke:none"
             d="M 0,0 -3.909,-4.197 16.787,-23.429 -3.909,-42.667 0,-46.864 25.2,-23.429 Z" /></g><g
           transform="translate(1058.8936,2277.6648)"
           id="g322"><path
             id="path324"
             style="fill:none;stroke:#15141b;stroke-width:5.73000002;stroke-linecap:butt;stroke-linejoin:miter;stroke-miterlimit:10;stroke-dasharray:none;stroke-opacity:1"
             d="M 0,0 H -609.348 V -252.675 -615.562" /></g><g
           transform="translate(1039.9077,2301.0994)"
           id="g326"><path
             id="path328"
             style="fill:#15141b;fill-opacity:1;fill-rule:nonzero;stroke:none"
             d="M 0,0 -3.909,-4.197 16.787,-23.429 -3.909,-42.667 0,-46.864 25.2,-23.429 Z" /></g><g
           transform="translate(1058.8936,2530.3394)"
           id="g330"><path
             id="path332"
             style="fill:none;stroke:#15141b;stroke-width:5.73000002;stroke-linecap:butt;stroke-linejoin:miter;stroke-miterlimit:10;stroke-dasharray:none;stroke-opacity:1"
             d="m 0,0 h -862.022 l 1.984,-505.349 -1.984,-362.888" /></g><g
           transform="translate(1039.9077,2553.7739)"
           id="g334"><path
             id="path336"
             style="fill:#15141b;fill-opacity:1;fill-rule:nonzero;stroke:none"
             d="M 0,0 -3.909,-4.197 16.787,-23.429 -3.909,-42.667 0,-46.864 25.2,-23.429 Z" /></g><g
           transform="translate(1687.1528,1668.3167)"
           id="g338"><path
             id="path340"
             style="fill:none;stroke:#15141b;stroke-width:5.73000002;stroke-linecap:butt;stroke-linejoin:miter;stroke-miterlimit:10;stroke-dasharray:none;stroke-opacity:1"
             d="m 0,0 v 103.999 h -208.801 -151.36" /></g><g
           transform="translate(1710.5874,1687.3027)"
           id="g342"><path
             id="path344"
             style="fill:#15141b;fill-opacity:1;fill-rule:nonzero;stroke:none"
             d="M 0,0 -4.197,3.909 -23.429,-16.787 -42.667,3.909 -46.863,0 -23.429,-25.2 Z" /></g><g
           transform="translate(1939.8276,1668.3167)"
           id="g346"><path
             id="path348"
             style="fill:none;stroke:#15141b;stroke-width:5.73000002;stroke-linecap:butt;stroke-linejoin:miter;stroke-miterlimit:10;stroke-dasharray:none;stroke-opacity:1"
             d="M 0,0 V 356.674 H -461.476 -615.562" /></g><g
           transform="translate(1963.2617,1687.3027)"
           id="g350"><path
             id="path352"
             style="fill:#15141b;fill-opacity:1;fill-rule:nonzero;stroke:none"
             d="M 0,0 -4.196,3.909 -23.429,-16.787 -42.667,3.909 -46.863,0 -23.429,-25.2 Z" /></g><g
           transform="translate(2192.502,1668.3167)"
           id="g354"><path
             id="path356"
             style="fill:none;stroke:#15141b;stroke-width:5.73000002;stroke-linecap:butt;stroke-linejoin:miter;stroke-miterlimit:10;stroke-dasharray:none;stroke-opacity:1"
             d="M 0,0 V 609.348 H -714.15 -868.237" /></g><g
           transform="translate(2215.9365,1687.3027)"
           id="g358"><path
             id="path360"
             style="fill:#15141b;fill-opacity:1;fill-rule:nonzero;stroke:none"
             d="M 0,0 -4.197,3.909 -23.429,-16.787 -42.667,3.909 -46.863,0 -23.429,-25.2 Z" /></g></g></g><text
       id="text364"
       style="font-variant:normal;font-weight:bold;font-stretch:normal;font-size:24px;font-family:'Akkurat Pro';-inkscape-font-specification:AkkuratPro-Bold;writing-mode:lr-tb;fill:#231f20;fill-opacity:1;fill-rule:nonzero;stroke:none"
       transform="matrix(1,0,0,-1,87.6743,55.4697)"><tspan
         id="tspan362"
         y="0"
         x="0 18.408001 36.816002 55.223999 62.16 74.568001 87.192001 99.695999 109.176 122.664 144 150.96001 163.82401 178.368 191.856 204.45599 211.416 224.73599 239.03999 248.52 262.32001 276.12 283.48801 297.43201 304.392 314.56799 321.26401 335.064 344.448">www.systemicdesigntoolkit.org</tspan></text>
<text
       id="text368"
       style="font-variant:normal;font-weight:300;font-stretch:normal;font-size:24px;font-family:'Akkurat Light Pro';-inkscape-font-specification:AkkuratLightPro-Regular;writing-mode:lr-tb;fill:#231f20;fill-opacity:1;fill-rule:nonzero;stroke:none"
       transform="matrix(1,0,0,-1,1069.1783,55.1817)"><tspan
         id="tspan366"
         y="0"
         x="0 15.648 28.704 41.088001 54.312 75.407997 96.503998 109.56 123.648 137.75999 150.81599 164.952 170.20799 182.616 188.952 200.664 213.72 219.24001 224.496 239.808">Recommended size: A0</tspan></text>
<g
       id="g370"><g
         clip-path="url(#clipPath376)"
         id="g372"><g
           transform="translate(1694.4221,66.9002)"
           id="g378"><path
             id="path380"
             style="fill:#231f20;fill-opacity:1;fill-rule:evenodd;stroke:none"
             d="m 0,0 -3.146,1.326 c -2.048,0.887 -3.071,2.124 -3.071,4.562 0,3.054 1.811,4.293 3.974,4.293 3.383,0 3.855,-2.789 3.855,-4.87 V 4.647 h 1.493 v 0.71 c 0,2.831 -0.785,6.329 -5.348,6.329 -3.268,0 -5.625,-2.124 -5.625,-5.978 0,-2.964 1.297,-4.646 3.851,-5.799 l 3.031,-1.37 c 2.285,-1.02 3.072,-2.525 3.072,-4.739 0,-2.567 -1.259,-4.823 -4.288,-4.823 -3.424,0 -4.605,2.389 -4.605,5.665 v 0.753 H -8.3 v -0.618 c 0,-2.703 0.39,-7.306 6.098,-7.306 3.264,0 5.938,2.479 5.938,6.372 C 3.736,-3.012 2.478,-1.064 0,0 m 14.276,12.04 c -2.477,0 -4.525,-1.415 -5.112,-3.806 H 9.083 v 10.181 h -2.36 v -30.414 h 2.36 V 3.806 c 0,3.63 1.851,6.02 4.605,6.02 2.401,0 3.579,-1.592 3.579,-4.824 v -17.001 h 2.362 V 5.756 c 0,4.425 -2.166,6.284 -5.353,6.284 m 9.792,-24.039 h 3.303 v 23.488 h -3.303 z m 0,26.429 h 3.303 v 3.979 h -3.303 z m 8.81,-0.73 V 11.489 H 29.926 V 7.591 h 2.952 v -19.59 h 4.251 v 19.59 h 3.461 v 3.898 h -3.461 v 2.079 c 0,1.592 0.706,2.26 2.282,2.26 h 1.179 v 3.671 c -0.63,0.091 -1.417,0.132 -2.32,0.132 -3.462,0 -5.392,-1.416 -5.392,-5.931 M 51.841,7.591 v 3.898 h -3.147 v 5.725 h -5.433 v -23.19 c 0,-4.83 0.788,-6.288 5.036,-6.288 1.261,0 2.363,0.134 3.544,0.265 v 4.251 c -0.355,-0.044 -0.788,-0.087 -1.221,-0.087 -1.574,0 -1.926,0.75 -1.926,2.612 V 7.591 Z" /></g><g
           transform="translate(1756.8938,93.3729)"
           id="g382"><path
             id="path384"
             style="fill:#231f20;fill-opacity:1;fill-rule:evenodd;stroke:none"
             d="m 0,0 c -4.501,-0.666 -7.742,-4.897 -7.742,-9.656 v -9.22 h 8.809 c 4.546,0 8.591,3.393 9.225,8.107 C 11.142,-4.449 6.038,0.893 0,0 M 5.306,-14.879 H 1.602 v 6.518 c 0,0.82 -0.248,1.06 -0.725,1.06 -0.501,0 -0.746,-0.44 -0.746,-1.06 v -6.518 h -3.709 v 10.178 h 3.597 v -1.241 h 0.036 c 0.556,1.062 1.489,1.521 2.733,1.521 1.319,0 2.518,-0.76 2.518,-2.742 z" /></g></g></g><text
       id="text390"
       style="font-variant:normal;font-weight:bold;font-stretch:normal;font-size:13.76099968px;font-family:'Akkurat Pro';-inkscape-font-specification:AkkuratPro-Bold;writing-mode:lr-tb;fill:#231f20;fill-opacity:1;fill-rule:nonzero;stroke:none"
       transform="matrix(1,0,0,-1,2241.5928,84.8838)"><tspan
         id="tspan386"
         y="0"
         x="0 8.3666878 16.609528 25.045019 32.764942 41.406849 53.489006 57.576023">SYSTEMIC</tspan><tspan
         id="tspan388"
         y="19.912167"
         x="0 9.4125242 17.999388 26.696341 30.783358 40.195881">DESIGN</tspan></text>
<text
       id="text394"
       style="font-variant:normal;font-weight:300;font-stretch:normal;font-size:13.76099968px;font-family:'Akkurat Light Pro';-inkscape-font-specification:AkkuratLightPro-Regular;writing-mode:lr-tb;fill:#231f20;fill-opacity:1;fill-rule:nonzero;stroke:none"
       transform="matrix(1,0,0,-1,2241.5928,45.059466)"><tspan
         id="tspan392"
         y="0"
         x="0 7.0043492 16.059088 25.113825 32.627331 41.640785 45.342495">TOOLKIT</tspan></text>
<g
       id="g396"><g
         clip-path="url(#clipPath402)"
         id="g398"><g
           transform="translate(2215.0872,83.3694)"
           id="g404"><path
             id="path406"
             style="fill:#f8c717;fill-opacity:1;fill-rule:nonzero;stroke:none"
             d="m 0,0 c 7.98,-7.98 7.98,-20.917 0,-28.897 -7.979,-7.98 -20.917,-7.98 -28.897,0 -7.979,7.98 -7.979,20.917 0,28.897 7.98,7.979 20.918,7.979 28.897,0 m 7.78,7.78 c -12.277,12.276 -32.18,12.276 -44.457,0 -12.276,-12.277 -12.276,-32.18 0,-44.457 12.277,-12.277 32.18,-12.277 44.457,0 12.277,12.276 12.277,32.18 0,44.457" /></g><g
           transform="translate(2207.3074,75.5892)"
           id="g408"><path
             id="path410"
             style="fill:#e2067f;fill-opacity:1;fill-rule:nonzero;stroke:none"
             d="m 0,0 c 3.683,-3.683 3.683,-9.654 0,-13.337 -3.683,-3.683 -9.654,-3.683 -13.337,0 -3.683,3.683 -3.683,9.654 0,13.337 C -9.654,3.683 -3.683,3.683 0,0 m 7.78,7.78 c -7.98,7.98 -20.917,7.98 -28.897,0 -7.98,-7.98 -7.98,-20.917 0,-28.897 7.98,-7.98 20.917,-7.98 28.897,0 7.98,7.98 7.98,20.917 0,28.897" /></g><g
           id="g412"><g
             id="g414" /><g
             id="g434"><g
               id="g432"
               clip-path="url(#clipPath418)"><g
                 id="g430"><g
                   id="g428"
                   clip-path="url(#clipPath422)"><g
                     id="g426"
                     transform="translate(2222.8669,91.1492)"><path
                       id="path424"
                       style="fill:#489bda;fill-opacity:1;fill-rule:nonzero;stroke:none"
                       d="m 0,0 c 8.227,-8.226 10.932,-19.875 8.133,-30.361 -10.486,-2.799 -22.135,-0.094 -30.361,8.132 -8.227,8.227 -10.932,19.876 -8.133,30.362 C -19.875,10.931 -8.226,8.226 0,0" /></g></g></g></g></g></g><g
           transform="translate(1829.1868,98.2723)"
           id="g436"><path
             id="path438"
             style="fill:#ffffff;fill-opacity:1;fill-rule:nonzero;stroke:none"
             d="m 0,0 c -13.986,0.001 -25.353,-11.343 -25.363,-25.312 -0.01,-13.992 11.333,-25.383 25.283,-25.391 14.036,-0.007 25.416,11.325 25.42,25.312 C 25.343,-11.368 14,-0.001 0,0" /></g><g
           transform="translate(1825.9573,72.6102)"
           id="g440"><path
             id="path442"
             style="fill:#231f20;fill-opacity:1;fill-rule:nonzero;stroke:none"
             d="M 0,0 C -0.062,0.014 -0.109,0.018 -0.151,0.034 -0.98,0.363 -1.838,0.428 -2.711,0.29 -3.85,0.109 -4.732,-0.431 -5.141,-1.566 -5.37,-2.203 -5.375,-2.864 -5.26,-3.523 c 0.187,-1.069 0.721,-1.89 1.781,-2.259 1.122,-0.39 2.193,-0.218 3.198,0.403 0.086,0.053 0.171,0.105 0.277,0.17 0.009,-0.205 0.017,-0.379 0.025,-0.558 h 3.038 c 0.012,0.05 0.024,0.078 0.024,0.104 0,2.125 0.033,4.251 -0.014,6.375 C 3.034,2.295 2.148,3.384 0.684,3.68 -1.165,4.053 -2.956,3.794 -4.671,3.014 -4.702,3 -4.725,2.969 -4.762,2.938 c 0.28,-0.707 0.554,-1.403 0.837,-2.117 0.133,0.061 0.236,0.105 0.335,0.155 0.841,0.425 1.734,0.564 2.665,0.488 0.551,-0.046 0.872,-0.34 0.922,-0.859 C 0.016,0.41 0,0.211 0,0 M 26.49,5.502 C 26.367,5.587 26.271,5.66 26.169,5.723 24.197,6.934 22.058,7.241 19.824,6.781 17.901,6.385 16.656,5.104 16.532,3.318 16.418,1.682 16.934,0.52 18.402,-0.2 c 0.16,-0.078 0.321,-0.166 0.491,-0.216 0.903,-0.267 1.811,-0.516 2.713,-0.787 0.377,-0.114 0.749,-0.251 1.111,-0.41 0.266,-0.117 0.43,-0.336 0.398,-0.653 -0.035,-0.34 -0.25,-0.518 -0.56,-0.593 -0.174,-0.042 -0.353,-0.066 -0.531,-0.079 -1.433,-0.105 -2.708,0.377 -3.924,1.071 -0.086,0.049 -0.173,0.097 -0.274,0.155 -0.57,-0.922 -1.124,-1.819 -1.687,-2.73 0.099,-0.066 0.174,-0.122 0.254,-0.169 1.997,-1.162 4.148,-1.568 6.429,-1.28 0.831,0.105 1.621,0.357 2.319,0.844 1.329,0.925 1.697,2.516 1.377,4.125 -0.217,1.092 -0.938,1.814 -1.923,2.22 -0.902,0.372 -1.854,0.62 -2.784,0.922 -0.466,0.15 -0.937,0.281 -1.396,0.45 -0.269,0.1 -0.417,0.311 -0.384,0.622 0.036,0.331 0.278,0.544 0.713,0.607 0.852,0.122 1.68,0 2.469,-0.318 0.538,-0.217 1.047,-0.508 1.601,-0.782 0.544,0.877 1.103,1.779 1.676,2.703 M 4.732,6.747 V -5.79 h 0.301 c 0.935,0 1.87,0.01 2.804,-0.006 0.28,-0.005 0.347,0.086 0.344,0.353 -0.013,1.198 -0.002,2.398 -0.01,3.597 -10e-4,0.206 0.057,0.291 0.272,0.28 0.273,-0.014 0.548,-0.013 0.821,0 0.196,0.01 0.302,-0.061 0.388,-0.244 0.577,-1.218 1.178,-2.425 1.746,-3.647 0.124,-0.268 0.273,-0.345 0.556,-0.34 1.058,0.017 2.115,0.007 3.173,0.007 h 0.368 c -0.85,1.624 -1.674,3.198 -2.5,4.779 0.084,0.047 0.149,0.084 0.213,0.121 0.074,0.041 0.149,0.082 0.222,0.125 0.88,0.526 1.468,1.282 1.661,2.287 0.106,0.55 0.138,1.126 0.111,1.686 -0.075,1.582 -0.95,2.734 -2.463,3.209 -0.595,0.186 -1.234,0.31 -1.855,0.324 C 8.911,6.784 6.937,6.763 4.964,6.765 4.891,6.765 4.818,6.754 4.732,6.747 m -17.749,-6.908 c -0.044,0.12 -0.093,0.294 -0.166,0.456 -0.937,2.101 -1.874,4.202 -2.823,6.297 -0.039,0.086 -0.198,0.165 -0.302,0.166 -0.916,0.013 -1.833,0.009 -2.749,0.007 -0.071,0 -0.143,-0.017 -0.218,-0.027 V -5.77 h 3.24 v 6.029 c 0.989,-2.128 1.993,-4.288 2.996,-6.448 l 0.087,0.001 c 1.005,2.162 2.01,4.325 2.994,6.443 v -6.026 h 3.241 V 6.766 h -0.332 c -0.831,0 -1.663,-0.012 -2.493,0.007 -0.259,0.006 -0.38,-0.078 -0.484,-0.31 -0.993,-2.218 -1.998,-4.43 -2.991,-6.624 M 3.229,25.662 C 17.23,25.661 28.573,14.294 28.569,0.271 28.566,-13.716 17.185,-25.049 3.15,-25.041 c -13.951,0.008 -25.294,11.399 -25.283,25.392 0.009,13.968 11.377,25.312 25.362,25.311" /></g><g
           transform="translate(1812.9402,72.4495)"
           id="g444"><path
             id="path446"
             style="fill:#ffffff;fill-opacity:1;fill-rule:nonzero;stroke:none"
             d="M 0,0 C 0.993,2.193 1.998,4.406 2.991,6.624 3.095,6.855 3.216,6.939 3.475,6.934 4.305,6.915 5.137,6.927 5.968,6.927 H 6.301 V -5.61 H 3.059 V 0.416 C 2.075,-1.703 1.07,-3.865 0.066,-6.028 h -0.088 c -1.003,2.16 -2.007,4.32 -2.996,6.448 v -6.029 h -3.24 V 6.899 c 0.076,0.01 0.147,0.026 0.218,0.026 0.916,0.002 1.832,0.007 2.748,-0.006 0.105,-0.002 0.264,-0.08 0.303,-0.167 C -2.04,4.658 -1.102,2.557 -0.166,0.456 -0.093,0.293 -0.043,0.121 0,0" /></g><g
           transform="translate(1834.1501,73.8138)"
           id="g448"><path
             id="path450"
             style="fill:#ffffff;fill-opacity:1;fill-rule:nonzero;stroke:none"
             d="M 0,0 C 0.684,0 1.352,-0.004 2.019,0.003 2.207,0.004 2.397,0.024 2.58,0.065 2.955,0.147 3.262,0.333 3.425,0.704 3.879,1.738 3.291,2.676 2.167,2.696 1.563,2.707 0.959,2.7 0.355,2.7 0.238,2.701 0.12,2.7 0,2.7 Z m -3.46,5.544 c 0.085,0.007 0.158,0.018 0.231,0.018 C -1.255,5.559 0.718,5.581 2.691,5.537 3.313,5.523 3.951,5.399 4.546,5.212 6.06,4.739 6.935,3.586 7.009,2.004 7.036,1.444 7.004,0.868 6.898,0.319 6.705,-0.687 6.117,-1.443 5.237,-1.968 5.165,-2.012 5.089,-2.052 5.016,-2.094 4.951,-2.131 4.886,-2.167 4.802,-2.215 5.629,-3.796 6.452,-5.37 7.302,-6.994 H 6.934 C 5.876,-6.994 4.819,-6.983 3.761,-7 3.479,-7.005 3.33,-6.928 3.206,-6.661 2.637,-5.439 2.037,-4.231 1.459,-3.013 1.373,-2.831 1.268,-2.76 1.071,-2.77 c -0.273,-0.013 -0.548,-0.014 -0.821,0 -0.215,0.012 -0.273,-0.073 -0.272,-0.28 0.008,-1.199 -0.003,-2.398 0.01,-3.597 0.003,-0.266 -0.064,-0.358 -0.343,-0.353 -0.935,0.017 -1.87,0.006 -2.805,0.006 h -0.3 z" /></g><g
           transform="translate(1852.447,78.1126)"
           id="g452"><path
             id="path454"
             style="fill:#ffffff;fill-opacity:1;fill-rule:nonzero;stroke:none"
             d="m 0,0 c -0.573,-0.924 -1.132,-1.827 -1.675,-2.703 -0.554,0.273 -1.063,0.564 -1.601,0.782 -0.789,0.317 -1.618,0.44 -2.47,0.317 -0.435,-0.062 -0.677,-0.275 -0.712,-0.605 -0.034,-0.312 0.114,-0.524 0.383,-0.623 0.459,-0.169 0.93,-0.3 1.396,-0.451 0.93,-0.301 1.883,-0.55 2.784,-0.922 0.985,-0.406 1.706,-1.128 1.923,-2.219 0.321,-1.609 -0.048,-3.201 -1.377,-4.126 -0.698,-0.486 -1.488,-0.738 -2.318,-0.843 -2.282,-0.289 -4.433,0.118 -6.43,1.279 -0.08,0.047 -0.154,0.103 -0.254,0.17 0.563,0.91 1.117,1.807 1.687,2.73 0.101,-0.057 0.188,-0.106 0.274,-0.156 1.217,-0.693 2.491,-1.176 3.924,-1.07 0.178,0.013 0.358,0.036 0.531,0.078 0.31,0.075 0.525,0.253 0.56,0.593 0.032,0.317 -0.131,0.537 -0.398,0.654 -0.361,0.159 -0.734,0.296 -1.111,0.409 -0.902,0.272 -1.81,0.52 -2.713,0.788 -0.17,0.05 -0.33,0.138 -0.491,0.216 -1.468,0.719 -1.983,1.881 -1.87,3.517 0.124,1.787 1.37,3.067 3.292,3.463 2.234,0.461 4.374,0.154 6.345,-1.058 C -0.219,0.157 -0.123,0.084 0,0" /></g><g
           transform="translate(1825.9636,70.0086)"
           id="g456"><path
             id="path458"
             style="fill:#ffffff;fill-opacity:1;fill-rule:nonzero;stroke:none"
             d="m 0,0 c 0,0.122 -0.017,0.248 0.003,0.367 0.042,0.238 -0.071,0.361 -0.285,0.389 -0.417,0.056 -0.837,0.128 -1.256,0.128 -0.47,0.001 -0.733,-0.308 -0.79,-0.825 -0.058,-0.529 0.163,-0.938 0.581,-1.072 0.378,-0.121 0.748,-0.05 1.11,0.063 C -0.04,-0.763 0,-0.701 0,-0.085 Z m -0.006,2.601 c 0,0.212 0.016,0.411 -0.003,0.607 C -0.06,3.725 -0.38,4.02 -0.931,4.065 -1.862,4.142 -2.755,4.003 -3.596,3.578 c -0.1,-0.05 -0.202,-0.094 -0.335,-0.156 -0.283,0.715 -0.558,1.411 -0.837,2.117 0.037,0.031 0.06,0.063 0.09,0.077 1.716,0.78 3.507,1.038 5.356,0.665 1.464,-0.295 2.35,-1.384 2.385,-2.968 0.046,-2.124 0.013,-4.249 0.014,-6.375 0,-0.026 -0.013,-0.053 -0.024,-0.103 H 0.014 c -0.008,0.179 -0.015,0.353 -0.024,0.558 -0.106,-0.065 -0.192,-0.118 -0.277,-0.17 -1.005,-0.621 -2.076,-0.794 -3.199,-0.403 -1.059,0.369 -1.593,1.189 -1.781,2.258 -0.115,0.659 -0.109,1.32 0.12,1.957 0.409,1.136 1.291,1.675 2.43,1.857 0.872,0.138 1.731,0.073 2.56,-0.256 0.042,-0.017 0.089,-0.021 0.151,-0.035" /></g><g
           transform="translate(1834.1501,73.8138)"
           id="g460"><path
             id="path462"
             style="fill:#231f20;fill-opacity:1;fill-rule:nonzero;stroke:none"
             d="m 0,0 v 2.7 c 0.12,0 0.238,10e-4 0.355,0 0.604,0 1.208,0.007 1.812,-0.004 C 3.291,2.676 3.879,1.738 3.425,0.704 3.262,0.333 2.955,0.147 2.58,0.065 2.397,0.024 2.207,0.004 2.019,0.003 1.352,-0.004 0.684,0 0,0" /></g><g
           transform="translate(1825.9636,70.0086)"
           id="g464"><path
             id="path466"
             style="fill:#231f20;fill-opacity:1;fill-rule:nonzero;stroke:none"
             d="m 0,0 v -0.085 c 0,-0.616 -0.04,-0.678 -0.637,-0.865 -0.362,-0.113 -0.732,-0.184 -1.11,-0.063 -0.418,0.134 -0.639,0.543 -0.581,1.072 0.057,0.517 0.32,0.826 0.79,0.825 0.419,0 0.839,-0.072 1.256,-0.128 C -0.068,0.728 0.045,0.605 0.003,0.367 -0.017,0.248 0,0.122 0,0" /></g><path
           id="path468"
           style="fill:#ffffff;fill-opacity:1;fill-rule:nonzero;stroke:none"
           d="m 2029.028,74.126 h 104.196 V 55.661 h -104.196 z" /><g
           transform="translate(2030.9812,72.2635)"
           id="g470"><path
             id="path472"
             style="fill:#231f20;fill-opacity:1;fill-rule:nonzero;stroke:none"
             d="m 0,0 v -14.772 h 26.484 c 1.704,2.155 2.854,4.659 2.854,7.385 0,2.71 -1.129,5.241 -2.813,7.387 z" /></g><g
           transform="translate(2053.8176,64.8934)"
           id="g474"><path
             id="path476"
             style="fill:#231f20;fill-opacity:1;fill-rule:nonzero;stroke:none"
             d="m 0,0 c 0.002,-4.605 -3.945,-8.341 -8.818,-8.343 -4.871,-0.003 -8.825,3.727 -8.827,8.333 V 0 c -0.004,4.604 3.944,8.341 8.817,8.344 C -3.956,8.346 -0.003,4.615 0,0.009 Z" /></g><g
           transform="translate(2049.3596,65.8235)"
           id="g478"><path
             id="path480"
             style="fill:#ffffff;fill-opacity:1;fill-rule:nonzero;stroke:none"
             d="m 0,0 c -0.252,0.522 -0.624,0.782 -1.112,0.782 -0.91,0 -1.365,-0.568 -1.365,-1.702 0,-1.136 0.455,-1.702 1.365,-1.702 0.59,0 1.003,0.276 1.239,0.83 L 1.392,-2.415 C 0.802,-3.406 -0.08,-3.9 -1.257,-3.9 c -0.909,0 -1.634,0.264 -2.181,0.791 -0.546,0.526 -0.821,1.253 -0.821,2.179 0,0.909 0.279,1.632 0.832,2.166 0.556,0.536 1.261,0.803 2.12,0.803 1.244,0 2.136,-0.464 2.672,-1.392 z m -5.816,0 c -0.254,0.522 -0.632,0.782 -1.136,0.782 -0.892,0 -1.338,-0.568 -1.338,-1.702 0,-1.136 0.446,-1.702 1.338,-1.702 0.589,0 1.009,0.276 1.262,0.83 l 1.236,-0.623 C -5.042,-3.406 -5.927,-3.9 -7.106,-3.9 c -0.909,0 -1.639,0.264 -2.185,0.791 -0.548,0.526 -0.821,1.253 -0.821,2.179 0,0.909 0.282,1.632 0.846,2.166 0.564,0.536 1.268,0.803 2.11,0.803 1.246,0 2.137,-0.464 2.677,-1.392 z m -4.353,4.618 c -1.655,-1.579 -2.481,-3.43 -2.481,-5.551 0,-2.12 0.818,-3.955 2.456,-5.502 1.637,-1.547 3.585,-2.321 5.847,-2.321 2.261,0 4.226,0.782 5.897,2.344 1.587,1.453 2.379,3.278 2.379,5.479 0,2.184 -0.805,4.039 -2.417,5.562 -1.611,1.524 -3.566,2.285 -5.859,2.285 -2.295,0 -4.236,-0.765 -5.822,-2.296 M 2.808,5.861 C 4.763,4.012 5.743,1.748 5.743,-0.93 c 0,-2.678 -0.962,-4.92 -2.885,-6.721 -2.042,-1.897 -4.453,-2.847 -7.234,-2.847 -2.75,0 -5.121,0.942 -7.111,2.824 -1.99,1.88 -2.986,4.129 -2.986,6.744 0,2.614 0.996,4.879 2.986,6.791 1.941,1.851 4.311,2.775 7.111,2.775 2.833,0 5.228,-0.924 7.184,-2.775" /></g><g
           transform="translate(2112.4241,68.5862)"
           id="g482"><path
             id="path484"
             style="fill:#231f20;fill-opacity:1;fill-rule:nonzero;stroke:none"
             d="m 0,0 h 2.141 c 1.193,0 2.084,-0.082 2.666,-0.243 0.588,-0.158 1.09,-0.428 1.506,-0.811 0.37,-0.334 0.645,-0.717 0.822,-1.153 0.181,-0.435 0.271,-0.928 0.271,-1.48 0,-0.556 -0.09,-1.055 -0.271,-1.492 C 6.958,-5.615 6.683,-5.999 6.313,-6.333 5.893,-6.715 5.387,-6.988 4.797,-7.148 4.206,-7.307 3.321,-7.387 2.141,-7.387 H 0 V 0 m 2.03,-1.44 v -4.507 h 0.726 c 0.83,0 1.463,0.194 1.898,0.58 0.438,0.386 0.658,0.945 0.658,1.68 0,0.734 -0.217,1.292 -0.652,1.674 C 4.225,-1.63 3.59,-1.44 2.756,-1.44 H 2.03 M -9.042,0 h 2.265 l 2.861,-5.066 V 0 h 1.924 v -7.387 h -2.267 l -2.86,5.066 V -7.387 H -9.042 V 0 m -4.896,-3.751 h 3.311 V -5.19 h -3.311 z m -1.533,-3.229 c -0.375,-0.183 -0.762,-0.319 -1.166,-0.411 -0.404,-0.092 -0.826,-0.139 -1.263,-0.139 -1.312,0 -2.351,0.344 -3.117,1.029 -0.767,0.69 -1.149,1.624 -1.149,2.8 0,1.182 0.382,2.115 1.149,2.8 0.766,0.69 1.805,1.036 3.117,1.036 0.437,0 0.859,-0.048 1.263,-0.14 0.404,-0.093 0.791,-0.23 1.166,-0.411 v -1.529 c -0.378,0.241 -0.748,0.418 -1.113,0.53 -0.367,0.112 -0.751,0.169 -1.155,0.169 -0.723,0 -1.293,-0.218 -1.707,-0.653 -0.416,-0.437 -0.622,-1.037 -0.622,-1.802 0,-0.762 0.206,-1.36 0.622,-1.795 0.414,-0.435 0.984,-0.653 1.707,-0.653 0.404,0 0.788,0.056 1.155,0.169 0.365,0.111 0.735,0.289 1.113,0.527 V -6.98 M -30.755,0 h 2.265 l 2.862,-5.066 V 0 h 1.922 v -7.387 h -2.264 l -2.862,5.066 v -5.066 h -1.923 V 0 m -4.896,-3.751 h 3.309 V -5.19 h -3.309 z M -42.582,0 h 2.219 L -38.571,-2.632 -36.78,0 h 2.225 l -2.999,-4.274 v -3.113 h -2.03 v 3.113 L -42.582,0 m -1.192,-3.435 c 0.435,-0.117 0.772,-0.336 1.01,-0.658 0.24,-0.319 0.359,-0.711 0.359,-1.176 0,-0.711 -0.258,-1.243 -0.769,-1.592 -0.513,-0.351 -1.294,-0.526 -2.341,-0.526 h -3.367 V 0 h 3.046 c 1.092,0 1.883,-0.154 2.372,-0.465 0.492,-0.31 0.737,-0.806 0.737,-1.488 0,-0.36 -0.09,-0.668 -0.269,-0.922 -0.178,-0.25 -0.44,-0.437 -0.778,-0.56 m -1.888,-2.654 c 0.407,0 0.713,0.08 0.917,0.241 0.207,0.161 0.311,0.406 0.311,0.733 0,0.32 -0.103,0.559 -0.306,0.717 -0.203,0.162 -0.511,0.242 -0.922,0.242 h -1.191 v -1.933 h 1.191 m -0.069,3.23 c 0.32,0 0.563,0.066 0.728,0.196 0.164,0.133 0.246,0.327 0.246,0.586 0,0.253 -0.082,0.447 -0.246,0.577 -0.165,0.136 -0.408,0.205 -0.728,0.205 h -1.122 v -1.564 z" /></g><path
           id="path486"
           style="fill:none;stroke:#231f20;stroke-width:1;stroke-linecap:butt;stroke-linejoin:miter;stroke-miterlimit:10;stroke-dasharray:none;stroke-opacity:1"
           d="m 2030.981,72.279 h 100.288 V 57.508 h -100.288 z" /><path
           id="path488"
           style="fill:none;stroke:#231f20;stroke-width:1;stroke-linecap:butt;stroke-linejoin:miter;stroke-miterlimit:4;stroke-dasharray:none;stroke-opacity:1"
           d="m 2029.028,74.126 h 104.196 V 55.661 h -104.196 z" /><g
           transform="translate(1631.0338,73.3538)"
           id="g490"><path
             id="path492"
             style="fill:#231f20;fill-opacity:1;fill-rule:nonzero;stroke:none"
             d="m 0,0 c 0.329,0.183 0.805,0.293 1.171,0.33 0.878,-1.025 1.537,-1.794 2.672,-2.745 1.829,1.756 3.915,2.854 6.367,2.854 2.306,0 4.355,-0.768 5.526,-2.598 0.696,-1.135 0.879,-3.111 0.879,-4.831 0,-2.708 -0.073,-4.501 -0.073,-5.855 0,-1.647 -0.037,-3.075 0.11,-5.453 -0.696,-0.074 -1.428,-0.074 -2.123,-0.074 -0.696,0 -1.354,0 -2.123,0.074 -0.146,2.195 -0.146,4.135 -0.11,6.002 0,0.915 0.037,1.317 0.074,5.086 0,1.538 -0.22,2.892 -0.586,3.551 -0.695,1.207 -1.866,1.756 -3.221,1.756 -1.427,0 -3.001,-0.586 -4.318,-1.684 v -14.711 c -0.732,-0.074 -1.5,-0.074 -2.232,-0.074 -0.732,0 -1.428,0 -2.013,0.074 z m -22.068,7.686 c 1.464,0.987 1.94,1.354 3.147,2.305 0.293,-0.036 0.805,-0.183 1.098,-0.366 V -2.123 c 1.72,1.611 3.733,2.562 6.038,2.562 2.306,0 4.356,-0.768 5.527,-2.598 0.695,-1.135 0.878,-3.111 0.878,-4.831 0,-2.708 -0.073,-4.501 -0.073,-5.855 0,-1.647 -0.037,-3.075 0.109,-5.453 -0.695,-0.074 -1.427,-0.074 -2.122,-0.074 -0.695,0 -1.354,0 -2.123,0.074 -0.146,2.195 -0.146,4.135 -0.109,6.002 0,0.915 0.036,1.317 0.073,5.086 0,1.538 -0.22,2.892 -0.586,3.551 -0.695,1.207 -1.866,1.756 -3.22,1.756 -1.428,0 -3.001,-0.586 -4.319,-1.684 v -14.711 c -0.732,-0.074 -1.5,-0.074 -2.232,-0.074 -0.732,0 -1.428,0 -2.013,0.074 z m -12.59,-24.045 c 1.025,0.037 2.05,0.512 3.038,1.391 -0.073,0.915 -0.11,1.793 -0.11,2.781 0,0.952 0.037,2.16 0.073,3.367 -0.915,-0.512 -1.866,-0.988 -2.781,-1.464 -1.354,-0.695 -2.233,-1.061 -2.708,-1.83 -0.293,-0.439 -0.439,-0.988 -0.439,-1.683 0,-1.683 1.244,-2.598 2.927,-2.562 m -5.343,5.709 c 1.025,0.659 2.379,1.062 3.77,1.501 1.537,0.476 3.074,1.024 4.574,1.683 l 0.037,0.879 c 0.073,1.354 -0.219,2.415 -0.732,3.147 -0.696,0.988 -1.866,1.464 -2.964,1.464 -1.245,0 -2.489,-0.513 -4.063,-1.464 -0.366,0.256 -0.658,0.659 -0.768,0.951 2.122,1.977 4.538,2.892 6.661,2.892 1.829,0 3.549,-0.696 4.684,-2.05 0.952,-1.134 1.5,-2.781 1.427,-4.867 -0.073,-2.233 -0.146,-4.355 -0.146,-6.588 0,-1.463 0.036,-3.513 0.183,-5.196 -0.256,-0.147 -0.769,-0.293 -1.135,-0.293 -1.098,0.732 -1.866,1.464 -2.708,2.452 -1.647,-1.757 -3.843,-2.708 -5.892,-2.708 -2.781,0 -5.087,1.427 -5.087,4.318 0,1.537 0.842,3.038 2.159,3.879 M -74.768,0 c 0.366,0.22 0.732,0.293 1.171,0.33 0.805,-0.952 1.464,-1.684 2.452,-2.562 1.793,1.683 3.806,2.671 6.185,2.671 2.306,0 4.318,-0.805 5.526,-2.598 l 0.147,-0.22 c 1.793,1.757 3.879,2.818 6.331,2.818 2.305,0 4.355,-0.768 5.526,-2.598 0.696,-1.135 0.878,-3.111 0.878,-4.831 0,-2.708 -0.073,-4.501 -0.073,-5.855 0,-1.647 -0.037,-3.075 0.11,-5.453 -0.696,-0.074 -1.427,-0.074 -2.123,-0.074 -0.695,0 -1.354,0 -2.122,0.074 -0.147,2.195 -0.147,4.135 -0.11,6.002 0,0.915 0.037,1.317 0.073,4.72 0,1.538 -0.219,2.892 -0.585,3.55 -0.696,1.208 -1.867,1.757 -3.221,1.757 -1.427,0 -2.928,-0.293 -4.282,-1.39 0.256,-1.025 0.329,-2.197 0.329,-3.331 0,-2.708 -0.073,-4.501 -0.073,-5.855 0,-1.647 -0.036,-3.075 0.11,-5.453 -0.695,-0.074 -1.427,-0.074 -2.123,-0.074 -0.695,0 -1.354,0 -2.122,0.074 -0.147,2.195 -0.147,4.135 -0.11,6.002 0,0.915 0.037,1.683 0.073,4.72 0.037,1.538 -0.219,2.892 -0.585,3.55 -0.696,1.208 -1.867,1.757 -3.221,1.757 -1.281,0 -2.671,-0.476 -3.916,-1.39 v -14.639 c -0.732,-0.074 -1.5,-0.074 -2.232,-0.074 -0.732,0 -1.427,0 -2.013,0.074 z m -12.663,-16.359 c 1.025,0.037 2.05,0.512 3.038,1.391 -0.073,0.915 -0.11,1.793 -0.11,2.781 0,0.952 0.037,2.16 0.073,3.367 -0.915,-0.512 -1.866,-0.988 -2.781,-1.464 -1.354,-0.695 -2.232,-1.061 -2.708,-1.83 -0.293,-0.439 -0.439,-0.988 -0.439,-1.683 0,-1.683 1.244,-2.598 2.927,-2.562 m -5.343,5.709 c 1.025,0.659 2.379,1.062 3.77,1.501 1.537,0.476 3.074,1.024 4.574,1.683 l 0.037,0.879 c 0.073,1.354 -0.22,2.415 -0.732,3.147 -0.695,0.988 -1.866,1.464 -2.964,1.464 -1.245,0 -2.489,-0.513 -4.063,-1.464 -0.366,0.256 -0.658,0.659 -0.768,0.951 2.122,1.977 4.538,2.892 6.66,2.892 1.83,0 3.551,-0.696 4.685,-2.05 0.952,-1.134 1.501,-2.781 1.427,-4.867 -0.073,-2.233 -0.146,-4.355 -0.146,-6.588 0,-1.463 0.036,-3.513 0.183,-5.196 -0.256,-0.147 -0.769,-0.293 -1.135,-0.293 -1.098,0.732 -1.866,1.464 -2.708,2.452 -1.647,-1.757 -3.843,-2.708 -5.892,-2.708 -2.781,0 -5.087,1.427 -5.087,4.318 0,1.537 0.842,3.038 2.159,3.879 M -115.94,0 c 0.33,0.183 0.805,0.293 1.171,0.33 0.879,-1.025 1.538,-1.794 2.672,-2.745 1.83,1.756 3.916,2.854 6.368,2.854 2.305,0 4.355,-0.768 5.526,-2.598 0.695,-1.135 0.878,-3.111 0.878,-4.831 0,-2.708 -0.073,-4.501 -0.073,-5.855 0,-1.647 -0.036,-3.075 0.11,-5.453 -0.695,-0.074 -1.427,-0.074 -2.123,-0.074 -0.695,0 -1.354,0 -2.122,0.074 -0.147,2.195 -0.147,4.135 -0.11,6.002 0,0.915 0.037,1.317 0.073,5.086 0,1.538 -0.219,2.892 -0.585,3.551 -0.696,1.207 -1.867,1.756 -3.221,1.756 -1.427,0 -3.001,-0.586 -4.318,-1.684 v -14.711 c -0.732,-0.074 -1.501,-0.074 -2.233,-0.074 -0.732,0 -1.427,0 -2.013,0.074 z" /></g><g
           transform="translate(1901.1709,81.964)"
           id="g494"><path
             id="path496"
             style="fill:#231f20;fill-opacity:1;fill-rule:nonzero;stroke:none"
             d="m 0,0 c -0.685,-0.671 -1.748,-0.993 -2.811,-0.993 -1.203,0 -2.168,0.336 -2.84,0.951 -0.629,0.587 -1.063,1.441 -1.063,2.378 h 1.301 c 0,-0.588 0.294,-1.175 0.699,-1.567 0.448,-0.433 1.203,-0.615 1.903,-0.615 0.755,0 1.398,0.154 1.846,0.573 0.308,0.28 0.504,0.63 0.504,1.161 0,0.769 -0.49,1.413 -1.665,1.595 L -3.692,3.72 c -1.483,0.224 -2.644,1.049 -2.644,2.63 0,0.741 0.336,1.455 0.867,1.958 0.686,0.643 1.567,0.979 2.602,0.979 0.965,0 1.916,-0.322 2.573,-0.951 C 0.308,7.763 0.63,7.049 0.657,6.21 h -1.3 C -0.671,6.7 -0.853,7.133 -1.133,7.455 -1.51,7.888 -2.112,8.14 -2.881,8.14 -3.594,8.14 -4.21,7.944 -4.644,7.455 -4.895,7.161 -5.049,6.825 -5.049,6.378 c 0,-0.895 0.741,-1.301 1.482,-1.399 0.56,-0.07 1.105,-0.168 1.651,-0.251 C -0.266,4.49 0.839,3.483 0.839,1.916 0.839,1.091 0.49,0.475 0,0" /></g><g
           transform="translate(1908.6184,85.1809)"
           id="g498"><path
             id="path500"
             style="fill:#00adef;fill-opacity:1;fill-rule:nonzero;stroke:none"
             d="M 0,0 V -4.028 H -1.259 V 0 l -3.329,5.888 h 1.399 L -0.587,1.175 2,5.888 h 1.329 z" /></g><g
           transform="translate(1920.4741,81.964)"
           id="g502"><path
             id="path504"
             style="fill:#231f20;fill-opacity:1;fill-rule:nonzero;stroke:none"
             d="m 0,0 c -0.685,-0.671 -1.748,-0.993 -2.811,-0.993 -1.203,0 -2.168,0.336 -2.84,0.951 -0.629,0.587 -1.063,1.441 -1.063,2.378 h 1.301 c 0,-0.588 0.294,-1.175 0.699,-1.567 0.448,-0.433 1.203,-0.615 1.903,-0.615 0.755,0 1.398,0.154 1.846,0.573 0.308,0.28 0.504,0.63 0.504,1.161 0,0.769 -0.49,1.413 -1.665,1.595 L -3.692,3.72 c -1.483,0.224 -2.644,1.049 -2.644,2.63 0,0.741 0.336,1.455 0.867,1.958 0.686,0.643 1.567,0.979 2.602,0.979 0.965,0 1.916,-0.322 2.573,-0.951 C 0.308,7.763 0.63,7.049 0.657,6.21 h -1.3 C -0.671,6.7 -0.853,7.133 -1.133,7.455 -1.51,7.888 -2.112,8.14 -2.881,8.14 -3.594,8.14 -4.21,7.944 -4.643,7.455 -4.895,7.161 -5.049,6.825 -5.049,6.378 c 0,-0.895 0.741,-1.301 1.482,-1.399 0.56,-0.07 1.105,-0.168 1.651,-0.251 C -0.266,4.49 0.839,3.483 0.839,1.916 0.839,1.091 0.49,0.475 0,0" /></g><g
           transform="translate(1927.6526,89.9084)"
           id="g506"><path
             id="path508"
             style="fill:#231f20;fill-opacity:1;fill-rule:nonzero;stroke:none"
             d="M 0,0 V -8.756 H -1.259 V 0 H -4.21 V 1.161 H 2.951 L 2.951,0 Z" /></g><g
           transform="translate(1933.0219,81.1527)"
           id="g510"><path
             id="path512"
             style="fill:#231f20;fill-opacity:1;fill-rule:nonzero;stroke:none"
             d="M 0,0 V 9.917 H 6.63 V 8.77 H 1.245 V 5.748 H 5.972 V 4.574 H 1.245 V 1.147 H 6.63 V 0 Z" /></g><g
           transform="translate(1951.1383,81.1527)"
           id="g514"><path
             id="path516"
             style="fill:#231f20;fill-opacity:1;fill-rule:nonzero;stroke:none"
             d="M 0,0 V 8.364 L -3.077,0.14 H -4.056 L -7.133,8.434 V 0 h -1.189 v 9.917 h 1.79 l 2.993,-8.071 2.98,8.071 H 1.189 L 1.189,0 Z" /></g><path
           id="path518"
           style="fill:#231f20;fill-opacity:1;fill-rule:nonzero;stroke:none"
           d="m 1955.891,91.069 h 1.273 v -9.917 h -1.273 z" /><g
           transform="translate(1966.5386,82.02)"
           id="g520"><path
             id="path522"
             style="fill:#231f20;fill-opacity:1;fill-rule:nonzero;stroke:none"
             d="m 0,0 c -0.601,-0.601 -1.581,-1.063 -2.657,-1.063 -0.994,0 -1.973,0.364 -2.686,1.063 -1.077,1.049 -1.245,2.503 -1.245,4.084 0,1.581 0.168,3.035 1.245,4.084 0.713,0.699 1.692,1.063 2.686,1.063 1.076,0 2.042,-0.42 2.643,-1.021 C 0.559,7.623 0.923,6.867 0.965,5.944 h -1.287 c -0.014,0.546 -0.223,1.021 -0.545,1.385 -0.392,0.433 -1.035,0.727 -1.79,0.727 -0.672,0 -1.329,-0.265 -1.805,-0.755 -0.811,-0.839 -0.839,-2.182 -0.839,-3.217 0,-1.035 0.028,-2.378 0.839,-3.217 0.476,-0.489 1.133,-0.755 1.805,-0.755 0.755,0 1.412,0.322 1.804,0.755 0.321,0.364 0.531,0.881 0.545,1.427 H 0.979 C 0.937,1.371 0.573,0.587 0,0" /></g><g
           transform="translate(1899.7863,76.0256)"
           id="g524"><path
             id="path526"
             style="fill:#231f20;fill-opacity:1;fill-rule:nonzero;stroke:none"
             d="m 0,0 c -0.462,0.462 -1.119,0.686 -1.762,0.686 h -2.21 v -7.623 h 2.21 c 0.643,0 1.3,0.223 1.762,0.685 0.783,0.797 0.853,2.07 0.853,3.133 C 0.853,-2.056 0.783,-0.811 0,0 M 0.839,-7.091 C 0.14,-7.762 -0.797,-8.084 -1.762,-8.084 h -3.455 v 9.916 h 3.455 c 0.965,0 1.902,-0.335 2.601,-1.007 1.091,-1.035 1.273,-2.517 1.273,-3.944 0,-1.427 -0.196,-2.937 -1.273,-3.972" /></g><g
           transform="translate(1904.6741,67.9414)"
           id="g528"><path
             id="path530"
             style="fill:#00adef;fill-opacity:1;fill-rule:nonzero;stroke:none"
             d="M 0,0 V 9.917 H 6.63 V 8.77 H 1.245 V 5.748 H 5.972 V 4.574 H 1.245 V 1.147 H 6.63 V 0 Z" /></g><g
           transform="translate(1920.4741,68.7527)"
           id="g532"><path
             id="path534"
             style="fill:#231f20;fill-opacity:1;fill-rule:nonzero;stroke:none"
             d="m 0,0 c -0.685,-0.671 -1.748,-0.993 -2.811,-0.993 -1.203,0 -2.168,0.336 -2.84,0.951 -0.629,0.587 -1.063,1.441 -1.063,2.378 h 1.301 c 0,-0.588 0.294,-1.175 0.699,-1.567 0.448,-0.433 1.203,-0.615 1.903,-0.615 0.755,0 1.398,0.154 1.846,0.573 0.308,0.28 0.504,0.63 0.504,1.161 0,0.769 -0.49,1.413 -1.665,1.595 L -3.692,3.72 c -1.483,0.224 -2.644,1.049 -2.644,2.63 0,0.741 0.336,1.455 0.867,1.958 0.686,0.643 1.567,0.979 2.602,0.979 0.965,0 1.916,-0.322 2.573,-0.951 C 0.308,7.763 0.63,7.049 0.657,6.21 h -1.3 C -0.671,6.7 -0.853,7.133 -1.133,7.455 -1.51,7.888 -2.112,8.14 -2.881,8.14 -3.594,8.14 -4.21,7.944 -4.643,7.455 -4.895,7.161 -5.049,6.825 -5.049,6.378 c 0,-0.895 0.741,-1.301 1.482,-1.399 0.56,-0.07 1.105,-0.168 1.651,-0.251 C -0.266,4.49 0.839,3.483 0.839,1.916 0.839,1.091 0.49,0.475 0,0" /></g><path
           id="path536"
           style="fill:#231f20;fill-opacity:1;fill-rule:nonzero;stroke:none"
           d="m 1926.387,77.858 h 1.273 v -9.917 h -1.273 z" /><g
           transform="translate(1939.3368,67.9414)"
           id="g538"><path
             id="path540"
             style="fill:#231f20;fill-opacity:1;fill-rule:nonzero;stroke:none"
             d="m 0,0 -0.21,1.189 c -0.489,-0.811 -1.58,-1.385 -2.699,-1.385 -0.993,0 -1.958,0.322 -2.672,1.021 -1.007,0.979 -1.286,2.35 -1.286,4.126 0,1.581 0.209,3.035 1.286,4.084 0.714,0.7 1.679,1.063 2.672,1.063 1.119,0 2.154,-0.391 2.839,-1.119 C 0.406,8.476 0.741,7.846 0.783,7.049 H -0.518 C -0.56,7.511 -0.713,7.833 -0.965,8.14 -1.413,8.672 -2.098,8.924 -2.909,8.924 -3.581,8.924 -4.238,8.658 -4.714,8.168 -5.525,7.329 -5.581,5.986 -5.581,4.951 c 0,-0.993 0.07,-2.419 0.895,-3.259 0.476,-0.489 1.105,-0.713 1.777,-0.713 0.699,0 1.356,0.238 1.804,0.686 0.657,0.643 0.853,1.608 0.853,2.517 H -2.909 V 5.343 H 0.867 V 0 Z" /></g><g
           transform="translate(1948.8864,67.9414)"
           id="g542"><path
             id="path544"
             style="fill:#231f20;fill-opacity:1;fill-rule:nonzero;stroke:none"
             d="M 0,0 -4.867,7.972 V 0 H -6.07 v 9.917 h 1.398 L 0.196,1.916 V 9.917 H 1.399 L 1.399,0 Z" /></g><g
           transform="translate(1898.1985,63.4019)"
           id="g546"><path
             id="path548"
             style="fill:#231f20;fill-opacity:1;fill-rule:nonzero;stroke:none"
             d="m 0,0 -1.748,-5.147 h 3.51 z m 2.979,-8.672 -0.811,2.35 H -2.14 l -0.797,-2.35 h -1.259 l 3.497,9.917 h 1.454 l 3.511,-9.917 z" /></g><g
           transform="translate(1910.9261,55.5414)"
           id="g550"><path
             id="path552"
             style="fill:#00adef;fill-opacity:1;fill-rule:nonzero;stroke:none"
             d="m 0,0 c -0.685,-0.671 -1.748,-0.993 -2.811,-0.993 -1.203,0 -2.168,0.336 -2.84,0.951 -0.629,0.587 -1.063,1.441 -1.063,2.378 h 1.301 c 0,-0.588 0.294,-1.175 0.7,-1.567 0.447,-0.433 1.203,-0.615 1.902,-0.615 0.755,0 1.399,0.154 1.846,0.573 0.308,0.28 0.504,0.63 0.504,1.161 0,0.769 -0.49,1.413 -1.665,1.595 L -3.692,3.72 c -1.483,0.224 -2.644,1.049 -2.644,2.63 0,0.741 0.336,1.455 0.867,1.958 0.686,0.643 1.567,0.979 2.602,0.979 0.965,0 1.916,-0.322 2.573,-0.951 C 0.308,7.763 0.63,7.049 0.657,6.21 h -1.3 C -0.671,6.7 -0.853,7.133 -1.133,7.455 -1.51,7.888 -2.112,8.14 -2.881,8.14 -3.594,8.14 -4.21,7.944 -4.643,7.455 -4.895,7.161 -5.049,6.825 -5.049,6.378 c 0,-0.895 0.741,-1.301 1.482,-1.399 0.56,-0.07 1.105,-0.168 1.651,-0.251 C -0.266,4.49 0.839,3.483 0.839,1.916 0.839,1.091 0.49,0.475 0,0" /></g><g
           transform="translate(1920.4741,55.5414)"
           id="g554"><path
             id="path556"
             style="fill:#231f20;fill-opacity:1;fill-rule:nonzero;stroke:none"
             d="m 0,0 c -0.685,-0.671 -1.748,-0.993 -2.811,-0.993 -1.203,0 -2.168,0.336 -2.84,0.951 -0.629,0.587 -1.063,1.441 -1.063,2.378 h 1.301 c 0,-0.588 0.294,-1.175 0.699,-1.567 0.448,-0.433 1.203,-0.615 1.903,-0.615 0.755,0 1.398,0.154 1.846,0.573 0.308,0.28 0.504,0.63 0.504,1.161 0,0.769 -0.49,1.413 -1.665,1.595 L -3.692,3.72 c -1.483,0.224 -2.644,1.049 -2.644,2.63 0,0.741 0.336,1.455 0.867,1.958 0.686,0.643 1.567,0.979 2.602,0.979 0.965,0 1.916,-0.322 2.573,-0.951 C 0.308,7.763 0.63,7.049 0.657,6.21 h -1.3 C -0.671,6.7 -0.853,7.133 -1.133,7.455 -1.51,7.888 -2.112,8.14 -2.881,8.14 -3.594,8.14 -4.21,7.944 -4.643,7.455 -4.895,7.161 -5.049,6.825 -5.049,6.378 c 0,-0.895 0.741,-1.301 1.482,-1.399 0.56,-0.07 1.105,-0.168 1.651,-0.251 C -0.266,4.49 0.839,3.483 0.839,1.916 0.839,1.091 0.49,0.475 0,0" /></g><g
           transform="translate(1928.8275,62.8984)"
           id="g558"><path
             id="path560"
             style="fill:#231f20;fill-opacity:1;fill-rule:nonzero;stroke:none"
             d="M 0,0 C -0.476,0.49 -1.133,0.741 -1.804,0.741 -2.476,0.741 -3.133,0.49 -3.609,0 -4.42,-0.839 -4.462,-2.182 -4.462,-3.217 c 0,-1.035 0.042,-2.378 0.853,-3.217 0.476,-0.489 1.133,-0.741 1.805,-0.741 0.671,0 1.328,0.252 1.804,0.741 0.811,0.839 0.853,2.182 0.853,3.217 C 0.853,-2.182 0.811,-0.839 0,0 M 0.867,-7.301 C 0.154,-8 -0.811,-8.364 -1.804,-8.364 c -0.993,0 -1.959,0.364 -2.672,1.063 -1.077,1.049 -1.273,2.503 -1.273,4.084 0,1.581 0.196,3.035 1.273,4.084 0.713,0.699 1.679,1.063 2.672,1.063 0.993,0 1.958,-0.364 2.671,-1.063 1.077,-1.049 1.273,-2.503 1.273,-4.084 0,-1.581 -0.196,-3.035 -1.273,-4.084" /></g><g
           transform="translate(1939.1411,55.5974)"
           id="g562"><path
             id="path564"
             style="fill:#231f20;fill-opacity:1;fill-rule:nonzero;stroke:none"
             d="m 0,0 c -0.601,-0.601 -1.581,-1.063 -2.658,-1.063 -0.993,0 -1.972,0.364 -2.685,1.063 -1.077,1.049 -1.245,2.503 -1.245,4.084 0,1.581 0.168,3.035 1.245,4.084 0.713,0.699 1.692,1.063 2.685,1.063 1.077,0 2.043,-0.42 2.644,-1.021 C 0.559,7.623 0.923,6.867 0.965,5.944 h -1.287 c -0.014,0.546 -0.224,1.021 -0.545,1.385 -0.392,0.433 -1.035,0.727 -1.791,0.727 -0.671,0 -1.328,-0.265 -1.804,-0.755 -0.811,-0.839 -0.839,-2.182 -0.839,-3.217 0,-1.035 0.028,-2.378 0.839,-3.217 0.476,-0.489 1.133,-0.755 1.804,-0.755 0.756,0 1.413,0.322 1.805,0.755 0.321,0.364 0.531,0.881 0.545,1.427 H 0.979 C 0.937,1.371 0.573,0.587 0,0" /></g><path
           id="path566"
           style="fill:#231f20;fill-opacity:1;fill-rule:nonzero;stroke:none"
           d="m 1942.816,64.647 h 1.273 V 54.73 h -1.273 z" /><g
           transform="translate(1950.7371,63.4019)"
           id="g568"><path
             id="path570"
             style="fill:#231f20;fill-opacity:1;fill-rule:nonzero;stroke:none"
             d="m 0,0 -1.748,-5.147 h 3.51 z m 2.979,-8.672 -0.811,2.35 H -2.14 l -0.797,-2.35 h -1.259 l 3.497,9.917 h 1.454 l 3.511,-9.917 z" /></g><g
           transform="translate(1958.9592,63.4858)"
           id="g572"><path
             id="path574"
             style="fill:#231f20;fill-opacity:1;fill-rule:nonzero;stroke:none"
             d="M 0,0 V -8.756 H -1.259 V 0 H -4.21 V 1.161 H 2.951 L 2.951,0 Z" /></g><path
           id="path576"
           style="fill:#231f20;fill-opacity:1;fill-rule:nonzero;stroke:none"
           d="m 1964.254,64.647 h 1.273 V 54.73 h -1.273 z" /><g
           transform="translate(1973.781,62.8984)"
           id="g578"><path
             id="path580"
             style="fill:#231f20;fill-opacity:1;fill-rule:nonzero;stroke:none"
             d="M 0,0 C -0.476,0.49 -1.133,0.741 -1.804,0.741 -2.476,0.741 -3.133,0.49 -3.609,0 -4.42,-0.839 -4.462,-2.182 -4.462,-3.217 c 0,-1.035 0.042,-2.378 0.853,-3.217 0.476,-0.489 1.133,-0.741 1.805,-0.741 0.671,0 1.328,0.252 1.804,0.741 0.811,0.839 0.853,2.182 0.853,3.217 C 0.853,-2.182 0.811,-0.839 0,0 M 0.867,-7.301 C 0.154,-8 -0.811,-8.364 -1.804,-8.364 c -0.993,0 -1.959,0.364 -2.672,1.063 -1.077,1.049 -1.273,2.503 -1.273,4.084 0,1.581 0.196,3.035 1.273,4.084 0.713,0.699 1.679,1.063 2.672,1.063 0.993,0 1.958,-0.364 2.671,-1.063 1.077,-1.049 1.273,-2.503 1.273,-4.084 0,-1.581 -0.196,-3.035 -1.273,-4.084" /></g><g
           transform="translate(1984.423,54.7301)"
           id="g582"><path
             id="path584"
             style="fill:#231f20;fill-opacity:1;fill-rule:nonzero;stroke:none"
             d="M 0,0 -4.867,7.972 V 0 H -6.07 v 9.917 h 1.398 L 0.196,1.916 V 9.917 H 1.399 L 1.399,0 Z" /></g></g></g></g></svg>