<?xml version="1.0" encoding="UTF-8" standalone="no"?>
<svg
   xmlns:dc="http://purl.org/dc/elements/1.1/"
   xmlns:cc="http://creativecommons.org/ns#"
   xmlns:rdf="http://www.w3.org/1999/02/22-rdf-syntax-ns#"
   xmlns:svg="http://www.w3.org/2000/svg"
   xmlns="http://www.w3.org/2000/svg"
   viewBox="0 0 3178.5867 4493.8535"
   height="4493.8535"
   width="3178.5867"
   xml:space="preserve"
   id="svg2"
   version="1.1"><metadata
     id="metadata8"><rdf:RDF><cc:Work
         rdf:about=""><dc:format>image/svg+xml</dc:format><dc:type
           rdf:resource="http://purl.org/dc/dcmitype/StillImage" /></cc:Work></rdf:RDF></metadata><defs
     id="defs6"><clipPath
       id="clipPath106"
       clipPathUnits="userSpaceOnUse"><path
         id="path104"
         d="M 0,3370.39 H 2383.94 V 0 H 0 Z" /></clipPath><clipPath
       id="clipPath114"
       clipPathUnits="userSpaceOnUse"><path
         id="path112"
         d="M 483.892,3177.46 H 1162.4 v -107.3 H 483.892 Z" /></clipPath><clipPath
       id="clipPath364"
       clipPathUnits="userSpaceOnUse"><path
         id="path362"
         d="M 0,3370.39 H 2383.94 V 0 H 0 Z" /></clipPath><clipPath
       id="clipPath398"
       clipPathUnits="userSpaceOnUse"><path
         id="path396"
         d="M 0,3370.39 H 2383.94 V 0 H 0 Z" /></clipPath><clipPath
       id="clipPath428"
       clipPathUnits="userSpaceOnUse"><path
         id="path426"
         d="M 0,3370.39 H 2383.94 V 0 H 0 Z" /></clipPath><clipPath
       id="clipPath556"
       clipPathUnits="userSpaceOnUse"><path
         id="path554"
         d="M 0,3370.39 H 2383.94 V 0 H 0 Z" /></clipPath><clipPath
       id="clipPath582"
       clipPathUnits="userSpaceOnUse"><path
         id="path580"
         d="M 0,3370.39 H 2383.94 V 0 H 0 Z" /></clipPath><clipPath
       id="clipPath598"
       clipPathUnits="userSpaceOnUse"><path
         id="path596"
         d="m 2186.99,99.5261 h 40.63 V 58.8979 h -40.63 z" /></clipPath><clipPath
       id="clipPath602"
       clipPathUnits="userSpaceOnUse"><path
         id="path600"
         d="m 2186.99,58.898 h 40.63 v 40.628 h -40.63 z" /></clipPath></defs><g
     transform="matrix(1.3333333,0,0,-1.3333333,0,4493.8533)"
     id="g10"><g
       transform="translate(79.6035,2654.5198)"
       id="g12"><path
         id="path14"
         style="fill:none;stroke:#15141b;stroke-width:2;stroke-linecap:butt;stroke-linejoin:miter;stroke-miterlimit:10;stroke-dasharray:none;stroke-opacity:1"
         d="M 0,0 1.388,-1.388" /></g><g
       transform="translate(85.8371,2648.2861)"
       id="g16"><path
         id="path18"
         style="fill:none;stroke:#15141b;stroke-width:2;stroke-linecap:butt;stroke-linejoin:miter;stroke-miterlimit:10;stroke-dasharray:3.988, 6.98;stroke-dashoffset:0;stroke-opacity:1"
         d="M 0,0 720.874,-720.874" /></g><g
       transform="translate(809.1332,1924.9894)"
       id="g20"><path
         id="path22"
         style="fill:none;stroke:#15141b;stroke-width:2;stroke-linecap:butt;stroke-linejoin:miter;stroke-miterlimit:10;stroke-dasharray:none;stroke-opacity:1"
         d="M 0,0 1.388,-1.388" /></g><g
       transform="translate(79.6035,1544.019)"
       id="g24"><path
         id="path26"
         style="fill:none;stroke:#15141b;stroke-width:2;stroke-linecap:butt;stroke-linejoin:miter;stroke-miterlimit:10;stroke-dasharray:none;stroke-opacity:1"
         d="M 0,0 H 1.963" /></g><g
       transform="translate(88.4073,1544.019)"
       id="g28"><path
         id="path30"
         style="fill:none;stroke:#15141b;stroke-width:2;stroke-linecap:butt;stroke-linejoin:miter;stroke-miterlimit:10;stroke-dasharray:3.981, 6.967;stroke-dashoffset:0;stroke-opacity:1"
         d="M 0,0 H 716.733" /></g><g
       transform="translate(808.5601,1544.019)"
       id="g32"><path
         id="path34"
         style="fill:none;stroke:#15141b;stroke-width:2;stroke-linecap:butt;stroke-linejoin:miter;stroke-miterlimit:10;stroke-dasharray:none;stroke-opacity:1"
         d="M 0,0 H 1.963" /></g><g
       transform="translate(1569.6925,1923.6031)"
       id="g36"><path
         id="path38"
         style="fill:none;stroke:#15141b;stroke-width:2;stroke-linecap:butt;stroke-linejoin:miter;stroke-miterlimit:10;stroke-dasharray:none;stroke-opacity:1"
         d="M 0,0 1.388,1.389" /></g><g
       transform="translate(1575.926,1929.8365)"
       id="g40"><path
         id="path42"
         style="fill:none;stroke:#15141b;stroke-width:2;stroke-linecap:butt;stroke-linejoin:miter;stroke-miterlimit:10;stroke-dasharray:3.988, 6.98;stroke-dashoffset:0;stroke-opacity:1"
         d="M 0,0 720.875,720.874" /></g><g
       transform="translate(2299.2222,2653.1333)"
       id="g44"><path
         id="path46"
         style="fill:none;stroke:#15141b;stroke-width:2;stroke-linecap:butt;stroke-linejoin:miter;stroke-miterlimit:10;stroke-dasharray:none;stroke-opacity:1"
         d="M 0,0 1.388,1.388" /></g><g
       transform="translate(1190.1085,1923.6012)"
       id="g48"><path
         id="path50"
         style="fill:none;stroke:#15141b;stroke-width:2;stroke-linecap:butt;stroke-linejoin:miter;stroke-miterlimit:10;stroke-dasharray:none;stroke-opacity:1"
         d="M 0,0 V 1.963" /></g><g
       transform="translate(1190.1085,1932.3857)"
       id="g52"><path
         id="path54"
         style="fill:none;stroke:#15141b;stroke-width:2.01099992;stroke-linecap:butt;stroke-linejoin:miter;stroke-miterlimit:10;stroke-dasharray:3.991, 6.986;stroke-dashoffset:0;stroke-opacity:1"
         d="M 0,0 V 581.642" /></g><g
       transform="translate(1569.6925,1544.019)"
       id="g56"><path
         id="path58"
         style="fill:none;stroke:#15141b;stroke-width:2;stroke-linecap:butt;stroke-linejoin:miter;stroke-miterlimit:10;stroke-dasharray:none;stroke-opacity:1"
         d="M 0,0 H 1.964" /></g><g
       transform="translate(1578.4963,1544.019)"
       id="g60"><path
         id="path62"
         style="fill:none;stroke:#15141b;stroke-width:2;stroke-linecap:butt;stroke-linejoin:miter;stroke-miterlimit:10;stroke-dasharray:3.981, 6.967;stroke-dashoffset:0;stroke-opacity:1"
         d="M 0,0 H 716.731" /></g><g
       transform="translate(2298.647,1544.019)"
       id="g64"><path
         id="path66"
         style="fill:none;stroke:#15141b;stroke-width:2;stroke-linecap:butt;stroke-linejoin:miter;stroke-miterlimit:10;stroke-dasharray:none;stroke-opacity:1"
         d="M 0,0 H 1.963" /></g><g
       transform="translate(1569.6925,1164.4349)"
       id="g68"><path
         id="path70"
         style="fill:none;stroke:#15141b;stroke-width:2;stroke-linecap:butt;stroke-linejoin:miter;stroke-miterlimit:10;stroke-dasharray:none;stroke-opacity:1"
         d="M 0,0 1.388,-1.388" /></g><g
       transform="translate(1575.926,1158.2015)"
       id="g72"><path
         id="path74"
         style="fill:none;stroke:#15141b;stroke-width:2;stroke-linecap:butt;stroke-linejoin:miter;stroke-miterlimit:10;stroke-dasharray:3.988, 6.98;stroke-dashoffset:0;stroke-opacity:1"
         d="M 0,0 720.875,-720.875" /></g><g
       transform="translate(2299.2222,434.9042)"
       id="g76"><path
         id="path78"
         style="fill:none;stroke:#15141b;stroke-width:2;stroke-linecap:butt;stroke-linejoin:miter;stroke-miterlimit:10;stroke-dasharray:none;stroke-opacity:1"
         d="M 0,0 1.388,-1.388" /></g><g
       transform="translate(1190.1085,1164.4349)"
       id="g80"><path
         id="path82"
         style="fill:none;stroke:#15141b;stroke-width:2;stroke-linecap:butt;stroke-linejoin:miter;stroke-miterlimit:10;stroke-dasharray:none;stroke-opacity:1"
         d="M 0,0 V -1.963" /></g><g
       transform="translate(1190.1085,1155.6312)"
       id="g84"><path
         id="path86"
         style="fill:none;stroke:#15141b;stroke-width:2;stroke-linecap:butt;stroke-linejoin:miter;stroke-miterlimit:10;stroke-dasharray:3.981, 6.967;stroke-dashoffset:0;stroke-opacity:1"
         d="M 0,0 V -716.731" /></g><g
       transform="translate(1190.1085,435.4794)"
       id="g88"><path
         id="path90"
         style="fill:none;stroke:#15141b;stroke-width:2;stroke-linecap:butt;stroke-linejoin:miter;stroke-miterlimit:10;stroke-dasharray:none;stroke-opacity:1"
         d="M 0,0 V -1.963" /></g><g
       transform="translate(1178.361,1160.9973)"
       id="g92"><path
         id="path94"
         style="fill:#231f20;fill-opacity:1;fill-rule:nonzero;stroke:none"
         d="M 0,0 H 23.495 Z" /></g><g
       transform="translate(1201.8558,1160.9971)"
       id="g96"><path
         id="path98"
         style="fill:none;stroke:#15141b;stroke-width:1;stroke-linecap:butt;stroke-linejoin:miter;stroke-miterlimit:10;stroke-dasharray:none;stroke-opacity:1"
         d="M 0,0 H -23.495" /></g><g
       id="g100"><g
         clip-path="url(#clipPath106)"
         id="g102"><g
           id="g108"><g
             id="g110" /><g
             id="g118"><g
               style="opacity:0.5"
               id="g116"
               clip-path="url(#clipPath114)" /></g></g></g></g><path
       id="path120"
       style="fill:#231f20;fill-opacity:1;fill-rule:nonzero;stroke:#15141b;stroke-width:1;stroke-linecap:butt;stroke-linejoin:miter;stroke-miterlimit:10;stroke-dasharray:none;stroke-opacity:1"
       d="m 541.948,2173.874 h -222.02 v -222.02 h 222.02 z m -1.963,-220.057 H 321.892 v 218.093 h 218.093 z" /><path
       id="path122"
       style="fill:#231f20;fill-opacity:1;fill-rule:nonzero;stroke:#15141b;stroke-width:1;stroke-linecap:butt;stroke-linejoin:miter;stroke-miterlimit:10;stroke-dasharray:none;stroke-opacity:1"
       d="M 301.624,2173.874 H 79.604 v -222.02 h 222.02 z m -1.963,-220.057 H 81.568 v 218.093 h 218.093 z" /><path
       id="path124"
       style="fill:#231f20;fill-opacity:1;fill-rule:nonzero;stroke:#15141b;stroke-width:1;stroke-linecap:butt;stroke-linejoin:miter;stroke-miterlimit:10;stroke-dasharray:none;stroke-opacity:1"
       d="m 782.272,2173.874 h -222.02 v -222.02 h 222.02 z m -1.963,-220.057 H 562.216 v 218.093 h 218.093 z" /><path
       id="path126"
       style="fill:#ffffff;fill-opacity:1;fill-rule:nonzero;stroke:#15141b;stroke-width:1;stroke-linecap:butt;stroke-linejoin:miter;stroke-miterlimit:10;stroke-dasharray:none;stroke-opacity:1"
       d="M 318.893,2413.215 H 538.951 V 2193.157 H 318.893 Z" /><path
       id="path128"
       style="fill:#231f20;fill-opacity:1;fill-rule:nonzero;stroke:#15141b;stroke-width:1;stroke-linecap:butt;stroke-linejoin:miter;stroke-miterlimit:10;stroke-dasharray:none;stroke-opacity:1"
       d="m 541.948,2414.196 h -222.02 v -222.021 h 222.02 z M 539.985,2194.14 H 321.892 v 218.094 h 218.093 z" /><path
       id="path130"
       style="fill:#231f20;fill-opacity:1;fill-rule:nonzero;stroke:#15141b;stroke-width:1;stroke-linecap:butt;stroke-linejoin:miter;stroke-miterlimit:10;stroke-dasharray:none;stroke-opacity:1"
       d="M 301.624,2414.196 H 79.604 v -222.021 h 222.02 z M 299.661,2194.14 H 81.568 v 218.094 h 218.093 z" /><path
       id="path132"
       style="fill:#231f20;fill-opacity:1;fill-rule:nonzero;stroke:#15141b;stroke-width:1;stroke-linecap:butt;stroke-linejoin:miter;stroke-miterlimit:10;stroke-dasharray:none;stroke-opacity:1"
       d="m 782.272,2414.196 h -222.02 v -222.021 h 222.02 z M 780.309,2194.14 H 562.216 v 218.094 h 218.093 z" /><path
       id="path134"
       style="fill:#231f20;fill-opacity:1;fill-rule:nonzero;stroke:#15141b;stroke-width:1;stroke-linecap:butt;stroke-linejoin:miter;stroke-miterlimit:10;stroke-dasharray:none;stroke-opacity:1"
       d="M 301.624,2654.52 H 79.604 V 2432.5 h 222.02 z m -1.963,-220.057 H 81.568 v 218.093 h 218.093 z" /><path
       id="path136"
       style="fill:#231f20;fill-opacity:1;fill-rule:nonzero;stroke:#15141b;stroke-width:1;stroke-linecap:butt;stroke-linejoin:miter;stroke-miterlimit:10;stroke-dasharray:none;stroke-opacity:1"
       d="M 541.948,2654.52 H 319.928 V 2432.5 h 222.02 z m -1.963,-220.057 H 321.892 v 218.093 h 218.093 z" /><path
       id="path138"
       style="fill:#231f20;fill-opacity:1;fill-rule:nonzero;stroke:#15141b;stroke-width:1;stroke-linecap:butt;stroke-linejoin:miter;stroke-miterlimit:10;stroke-dasharray:none;stroke-opacity:1"
       d="M 782.272,2654.52 H 560.252 V 2432.5 h 222.02 z m -1.963,-220.057 H 562.216 v 218.093 h 218.093 z" /><path
       id="path140"
       style="fill:#231f20;fill-opacity:1;fill-rule:nonzero;stroke:#15141b;stroke-width:1;stroke-linecap:butt;stroke-linejoin:miter;stroke-miterlimit:10;stroke-dasharray:none;stroke-opacity:1"
       d="m 2060.288,2173.874 h -222.02 v -222.02 h 222.02 z m -1.963,-220.057 h -218.093 v 218.093 h 218.093 z" /><path
       id="path142"
       style="fill:#231f20;fill-opacity:1;fill-rule:nonzero;stroke:#15141b;stroke-width:1;stroke-linecap:butt;stroke-linejoin:miter;stroke-miterlimit:10;stroke-dasharray:none;stroke-opacity:1"
       d="m 1819.965,2173.874 h -222.021 v -222.02 h 222.021 z m -1.963,-220.057 h -218.094 v 218.093 h 218.094 z" /><path
       id="path144"
       style="fill:#231f20;fill-opacity:1;fill-rule:nonzero;stroke:#15141b;stroke-width:1;stroke-linecap:butt;stroke-linejoin:miter;stroke-miterlimit:10;stroke-dasharray:none;stroke-opacity:1"
       d="m 2300.612,2173.874 h -222.02 v -222.02 h 222.02 z m -1.963,-220.057 h -218.093 v 218.093 h 218.093 z" /><path
       id="path146"
       style="fill:#ffffff;fill-opacity:1;fill-rule:nonzero;stroke:none"
       d="m 1839.25,2413.215 h 220.058 V 2193.157 H 1839.25 Z" /><path
       id="path148"
       style="fill:#231f20;fill-opacity:1;fill-rule:nonzero;stroke:#15141b;stroke-width:1;stroke-linecap:butt;stroke-linejoin:miter;stroke-miterlimit:10;stroke-dasharray:none;stroke-opacity:1"
       d="m 2060.288,2414.196 h -222.02 v -222.021 h 222.02 z m -1.963,-220.056 h -218.093 v 218.094 h 218.093 z" /><path
       id="path150"
       style="fill:#231f20;fill-opacity:1;fill-rule:nonzero;stroke:#15141b;stroke-width:1;stroke-linecap:butt;stroke-linejoin:miter;stroke-miterlimit:10;stroke-dasharray:none;stroke-opacity:1"
       d="m 1819.965,2414.196 h -222.021 v -222.021 h 222.021 z m -1.963,-220.056 h -218.094 v 218.094 h 218.094 z" /><path
       id="path152"
       style="fill:#231f20;fill-opacity:1;fill-rule:nonzero;stroke:#15141b;stroke-width:1;stroke-linecap:butt;stroke-linejoin:miter;stroke-miterlimit:10;stroke-dasharray:none;stroke-opacity:1"
       d="m 2300.612,2414.196 h -222.02 v -222.021 h 222.02 z m -1.963,-220.056 h -218.093 v 218.094 h 218.093 z" /><path
       id="path154"
       style="fill:#231f20;fill-opacity:1;fill-rule:nonzero;stroke:#15141b;stroke-width:1;stroke-linecap:butt;stroke-linejoin:miter;stroke-miterlimit:10;stroke-dasharray:none;stroke-opacity:1"
       d="M 1819.965,2654.52 H 1597.944 V 2432.5 h 222.021 z m -1.963,-220.057 h -218.094 v 218.093 h 218.094 z" /><path
       id="path156"
       style="fill:#231f20;fill-opacity:1;fill-rule:nonzero;stroke:#15141b;stroke-width:1;stroke-linecap:butt;stroke-linejoin:miter;stroke-miterlimit:10;stroke-dasharray:none;stroke-opacity:1"
       d="m 2060.288,2654.52 h -222.02 V 2432.5 h 222.02 z m -1.963,-220.057 h -218.093 v 218.093 h 218.093 z" /><path
       id="path158"
       style="fill:#231f20;fill-opacity:1;fill-rule:nonzero;stroke:#15141b;stroke-width:1;stroke-linecap:butt;stroke-linejoin:miter;stroke-miterlimit:10;stroke-dasharray:none;stroke-opacity:1"
       d="m 2300.612,2654.52 h -222.02 V 2432.5 h 222.02 z m -1.963,-220.057 h -218.093 v 218.093 h 218.093 z" /><path
       id="path160"
       style="fill:#231f20;fill-opacity:1;fill-rule:nonzero;stroke:#15141b;stroke-width:1;stroke-linecap:butt;stroke-linejoin:miter;stroke-miterlimit:10;stroke-dasharray:none;stroke-opacity:1"
       d="m 1301.119,2173.874 h -222.02 v -222.02 h 222.02 z m -1.964,-220.057 h -218.093 v 218.093 h 218.093 z" /><path
       id="path162"
       style="fill:#231f20;fill-opacity:1;fill-rule:nonzero;stroke:#15141b;stroke-width:1;stroke-linecap:butt;stroke-linejoin:miter;stroke-miterlimit:10;stroke-dasharray:none;stroke-opacity:1"
       d="m 1060.794,2173.874 h -222.02 v -222.02 h 222.02 z m -1.964,-220.057 H 840.737 v 218.093 h 218.093 z" /><path
       id="path164"
       style="fill:#231f20;fill-opacity:1;fill-rule:nonzero;stroke:#15141b;stroke-width:1;stroke-linecap:butt;stroke-linejoin:miter;stroke-miterlimit:10;stroke-dasharray:none;stroke-opacity:1"
       d="m 1541.443,2173.874 h -222.02 v -222.02 h 222.02 z m -1.964,-220.057 h -218.093 v 218.093 h 218.093 z" /><path
       id="path166"
       style="fill:#ffffff;fill-opacity:1;fill-rule:nonzero;stroke:#15141b;stroke-width:1;stroke-linecap:butt;stroke-linejoin:miter;stroke-miterlimit:10;stroke-dasharray:none;stroke-opacity:1"
       d="m 1080.08,2413.215 h 220.057 V 2193.157 H 1080.08 Z" /><path
       id="path168"
       style="fill:#231f20;fill-opacity:1;fill-rule:nonzero;stroke:#15141b;stroke-width:1;stroke-linecap:butt;stroke-linejoin:miter;stroke-miterlimit:10;stroke-dasharray:none;stroke-opacity:1"
       d="m 1301.119,2414.196 h -222.02 v -222.021 h 222.02 z m -1.964,-220.056 h -218.093 v 218.094 h 218.093 z" /><path
       id="path170"
       style="fill:#231f20;fill-opacity:1;fill-rule:nonzero;stroke:#15141b;stroke-width:1;stroke-linecap:butt;stroke-linejoin:miter;stroke-miterlimit:10;stroke-dasharray:none;stroke-opacity:1"
       d="m 1060.794,2414.196 h -222.02 v -222.021 h 222.02 z M 1058.83,2194.14 H 840.737 v 218.094 h 218.093 z" /><path
       id="path172"
       style="fill:#231f20;fill-opacity:1;fill-rule:nonzero;stroke:#15141b;stroke-width:1;stroke-linecap:butt;stroke-linejoin:miter;stroke-miterlimit:10;stroke-dasharray:none;stroke-opacity:1"
       d="m 1541.443,2414.196 h -222.02 v -222.021 h 222.02 z m -1.964,-220.056 h -218.093 v 218.094 h 218.093 z" /><path
       id="path174"
       style="fill:#231f20;fill-opacity:1;fill-rule:nonzero;stroke:#15141b;stroke-width:1;stroke-linecap:butt;stroke-linejoin:miter;stroke-miterlimit:10;stroke-dasharray:none;stroke-opacity:1"
       d="M 1060.794,2654.52 H 838.774 V 2432.5 h 222.02 z m -1.964,-220.057 H 840.737 v 218.093 h 218.093 z" /><path
       id="path176"
       style="fill:#231f20;fill-opacity:1;fill-rule:nonzero;stroke:#15141b;stroke-width:1;stroke-linecap:butt;stroke-linejoin:miter;stroke-miterlimit:10;stroke-dasharray:none;stroke-opacity:1"
       d="m 1301.119,2654.52 h -222.02 V 2432.5 h 222.02 z m -1.964,-220.057 h -218.093 v 218.093 h 218.093 z" /><path
       id="path178"
       style="fill:#231f20;fill-opacity:1;fill-rule:nonzero;stroke:#15141b;stroke-width:1;stroke-linecap:butt;stroke-linejoin:miter;stroke-miterlimit:10;stroke-dasharray:none;stroke-opacity:1"
       d="m 1541.443,2654.52 h -222.02 V 2432.5 h 222.02 z m -1.964,-220.057 h -218.093 v 218.093 h 218.093 z" /><path
       id="path180"
       style="fill:#231f20;fill-opacity:1;fill-rule:nonzero;stroke:#15141b;stroke-width:1;stroke-linecap:butt;stroke-linejoin:miter;stroke-miterlimit:10;stroke-dasharray:none;stroke-opacity:1"
       d="M 541.948,655.539 H 319.928 V 433.518 h 222.02 z M 539.985,435.482 H 321.892 v 218.094 h 218.093 z" /><path
       id="path182"
       style="fill:#231f20;fill-opacity:1;fill-rule:nonzero;stroke:#15141b;stroke-width:1;stroke-linecap:butt;stroke-linejoin:miter;stroke-miterlimit:10;stroke-dasharray:none;stroke-opacity:1"
       d="M 301.624,655.539 H 79.604 V 433.518 h 222.02 z M 299.661,435.482 H 81.568 v 218.094 h 218.093 z" /><path
       id="path184"
       style="fill:#231f20;fill-opacity:1;fill-rule:nonzero;stroke:#15141b;stroke-width:1;stroke-linecap:butt;stroke-linejoin:miter;stroke-miterlimit:10;stroke-dasharray:none;stroke-opacity:1"
       d="M 782.272,655.539 H 560.252 V 433.518 h 222.02 z M 780.309,435.482 H 562.216 v 218.094 h 218.093 z" /><path
       id="path186"
       style="fill:#231f20;fill-opacity:1;fill-rule:nonzero;stroke:#15141b;stroke-width:1;stroke-linecap:butt;stroke-linejoin:miter;stroke-miterlimit:10;stroke-dasharray:none;stroke-opacity:1"
       d="M 301.624,895.862 H 79.604 v -222.02 h 222.02 z M 299.661,675.806 H 81.568 v 218.093 h 218.093 z" /><path
       id="path188"
       style="fill:#231f20;fill-opacity:1;fill-rule:nonzero;stroke:#15141b;stroke-width:1;stroke-linecap:butt;stroke-linejoin:miter;stroke-miterlimit:10;stroke-dasharray:none;stroke-opacity:1"
       d="m 782.272,895.862 h -222.02 v -222.02 h 222.02 z M 780.309,675.806 H 562.216 v 218.093 h 218.093 z" /><path
       id="path190"
       style="fill:#231f20;fill-opacity:1;fill-rule:nonzero;stroke:#15141b;stroke-width:1;stroke-linecap:butt;stroke-linejoin:miter;stroke-miterlimit:10;stroke-dasharray:none;stroke-opacity:1"
       d="M 301.624,1136.185 H 79.604 v -222.02 h 222.02 z M 299.661,916.128 H 81.568 v 218.093 h 218.093 z" /><path
       id="path192"
       style="fill:#231f20;fill-opacity:1;fill-rule:nonzero;stroke:#15141b;stroke-width:1;stroke-linecap:butt;stroke-linejoin:miter;stroke-miterlimit:10;stroke-dasharray:none;stroke-opacity:1"
       d="m 541.948,1136.185 h -222.02 v -222.02 h 222.02 z M 539.985,916.128 H 321.892 v 218.093 h 218.093 z" /><path
       id="path194"
       style="fill:#231f20;fill-opacity:1;fill-rule:nonzero;stroke:#15141b;stroke-width:1;stroke-linecap:butt;stroke-linejoin:miter;stroke-miterlimit:10;stroke-dasharray:none;stroke-opacity:1"
       d="m 782.272,1136.185 h -222.02 v -222.02 h 222.02 z M 780.309,916.128 H 562.216 v 218.093 h 218.093 z" /><path
       id="path196"
       style="fill:#231f20;fill-opacity:1;fill-rule:nonzero;stroke:#15141b;stroke-width:1;stroke-linecap:butt;stroke-linejoin:miter;stroke-miterlimit:10;stroke-dasharray:none;stroke-opacity:1"
       d="m 2060.288,655.539 h -222.02 V 433.518 h 222.02 z m -1.963,-220.057 h -218.093 v 218.094 h 218.093 z" /><path
       id="path198"
       style="fill:#231f20;fill-opacity:1;fill-rule:nonzero;stroke:#15141b;stroke-width:1;stroke-linecap:butt;stroke-linejoin:miter;stroke-miterlimit:10;stroke-dasharray:none;stroke-opacity:1"
       d="M 1819.965,655.539 H 1597.944 V 433.518 h 222.021 z m -1.963,-220.057 h -218.094 v 218.094 h 218.094 z" /><path
       id="path200"
       style="fill:#231f20;fill-opacity:1;fill-rule:nonzero;stroke:#15141b;stroke-width:1;stroke-linecap:butt;stroke-linejoin:miter;stroke-miterlimit:10;stroke-dasharray:none;stroke-opacity:1"
       d="m 2300.612,655.539 h -222.02 V 433.518 h 222.02 z m -1.963,-220.057 h -218.093 v 218.094 h 218.093 z" /><path
       id="path202"
       style="fill:#ffffff;fill-opacity:1;fill-rule:nonzero;stroke:#15141b;stroke-width:1;stroke-linecap:butt;stroke-linejoin:miter;stroke-miterlimit:10;stroke-dasharray:none;stroke-opacity:1"
       d="m 1839.25,894.881 h 220.057 V 674.824 H 1839.25 Z" /><path
       id="path204"
       style="fill:#231f20;fill-opacity:1;fill-rule:nonzero;stroke:#15141b;stroke-width:1;stroke-linecap:butt;stroke-linejoin:miter;stroke-miterlimit:10;stroke-dasharray:none;stroke-opacity:1"
       d="m 2060.288,895.862 h -222.02 v -222.02 h 222.02 z m -1.963,-220.056 h -218.093 v 218.093 h 218.093 z" /><path
       id="path206"
       style="fill:#231f20;fill-opacity:1;fill-rule:nonzero;stroke:#15141b;stroke-width:1;stroke-linecap:butt;stroke-linejoin:miter;stroke-miterlimit:10;stroke-dasharray:none;stroke-opacity:1"
       d="m 1819.965,895.862 h -222.021 v -222.02 h 222.021 z m -1.963,-220.056 h -218.094 v 218.093 h 218.094 z" /><path
       id="path208"
       style="fill:#231f20;fill-opacity:1;fill-rule:nonzero;stroke:#15141b;stroke-width:1;stroke-linecap:butt;stroke-linejoin:miter;stroke-miterlimit:10;stroke-dasharray:none;stroke-opacity:1"
       d="m 2300.612,895.862 h -222.02 v -222.02 h 222.02 z m -1.963,-220.056 h -218.093 v 218.093 h 218.093 z" /><path
       id="path210"
       style="fill:#231f20;fill-opacity:1;fill-rule:nonzero;stroke:#15141b;stroke-width:1;stroke-linecap:butt;stroke-linejoin:miter;stroke-miterlimit:10;stroke-dasharray:none;stroke-opacity:1"
       d="m 1819.965,1136.185 h -222.021 v -222.02 h 222.021 z m -1.963,-220.057 h -218.094 v 218.093 h 218.094 z" /><path
       id="path212"
       style="fill:#231f20;fill-opacity:1;fill-rule:nonzero;stroke:#15141b;stroke-width:1;stroke-linecap:butt;stroke-linejoin:miter;stroke-miterlimit:10;stroke-dasharray:none;stroke-opacity:1"
       d="m 2060.288,1136.185 h -222.02 v -222.02 h 222.02 z m -1.963,-220.057 h -218.093 v 218.093 h 218.093 z" /><path
       id="path214"
       style="fill:#231f20;fill-opacity:1;fill-rule:nonzero;stroke:#15141b;stroke-width:1;stroke-linecap:butt;stroke-linejoin:miter;stroke-miterlimit:10;stroke-dasharray:none;stroke-opacity:1"
       d="m 2300.612,1136.185 h -222.02 v -222.02 h 222.02 z m -1.963,-220.057 h -218.093 v 218.093 h 218.093 z" /><path
       id="path216"
       style="fill:#231f20;fill-opacity:1;fill-rule:nonzero;stroke:#15141b;stroke-width:1;stroke-linecap:butt;stroke-linejoin:miter;stroke-miterlimit:10;stroke-dasharray:none;stroke-opacity:1"
       d="m 1301.119,655.539 h -222.02 V 433.518 h 222.02 z m -1.964,-220.057 h -218.093 v 218.094 h 218.093 z" /><path
       id="path218"
       style="fill:#231f20;fill-opacity:1;fill-rule:nonzero;stroke:#15141b;stroke-width:1;stroke-linecap:butt;stroke-linejoin:miter;stroke-miterlimit:10;stroke-dasharray:none;stroke-opacity:1"
       d="M 1060.794,655.539 H 838.774 V 433.518 h 222.02 z M 1058.83,435.482 H 840.737 v 218.094 h 218.093 z" /><path
       id="path220"
       style="fill:#231f20;fill-opacity:1;fill-rule:nonzero;stroke:#15141b;stroke-width:1;stroke-linecap:butt;stroke-linejoin:miter;stroke-miterlimit:10;stroke-dasharray:none;stroke-opacity:1"
       d="m 1541.443,655.539 h -222.02 V 433.518 h 222.02 z m -1.964,-220.057 h -218.093 v 218.094 h 218.093 z" /><path
       id="path222"
       style="fill:#ffffff;fill-opacity:1;fill-rule:nonzero;stroke:#15141b;stroke-width:1;stroke-linecap:butt;stroke-linejoin:miter;stroke-miterlimit:10;stroke-dasharray:none;stroke-opacity:1"
       d="m 1080.08,894.881 h 220.057 V 674.824 H 1080.08 Z" /><path
       id="path224"
       style="fill:#231f20;fill-opacity:1;fill-rule:nonzero;stroke:#15141b;stroke-width:1;stroke-linecap:butt;stroke-linejoin:miter;stroke-miterlimit:10;stroke-dasharray:none;stroke-opacity:1"
       d="m 1301.119,895.862 h -222.02 v -222.02 h 222.02 z m -1.964,-220.056 h -218.093 v 218.093 h 218.093 z" /><path
       id="path226"
       style="fill:#231f20;fill-opacity:1;fill-rule:nonzero;stroke:#15141b;stroke-width:1;stroke-linecap:butt;stroke-linejoin:miter;stroke-miterlimit:10;stroke-dasharray:none;stroke-opacity:1"
       d="m 1060.794,895.862 h -222.02 v -222.02 h 222.02 z M 1058.83,675.806 H 840.737 v 218.093 h 218.093 z" /><path
       id="path228"
       style="fill:#231f20;fill-opacity:1;fill-rule:nonzero;stroke:#15141b;stroke-width:1;stroke-linecap:butt;stroke-linejoin:miter;stroke-miterlimit:10;stroke-dasharray:none;stroke-opacity:1"
       d="m 1541.443,895.862 h -222.02 v -222.02 h 222.02 z m -1.964,-220.056 h -218.093 v 218.093 h 218.093 z" /><path
       id="path230"
       style="fill:#231f20;fill-opacity:1;fill-rule:nonzero;stroke:#15141b;stroke-width:1;stroke-linecap:butt;stroke-linejoin:miter;stroke-miterlimit:10;stroke-dasharray:none;stroke-opacity:1"
       d="m 1060.794,1136.185 h -222.02 v -222.02 h 222.02 z M 1058.83,916.128 H 840.737 v 218.093 h 218.093 z" /><path
       id="path232"
       style="fill:#231f20;fill-opacity:1;fill-rule:nonzero;stroke:#15141b;stroke-width:1;stroke-linecap:butt;stroke-linejoin:miter;stroke-miterlimit:10;stroke-dasharray:none;stroke-opacity:1"
       d="m 1301.119,1136.185 h -222.02 v -222.02 h 222.02 z m -1.964,-220.057 h -218.093 v 218.093 h 218.093 z" /><path
       id="path234"
       style="fill:#231f20;fill-opacity:1;fill-rule:nonzero;stroke:#15141b;stroke-width:1;stroke-linecap:butt;stroke-linejoin:miter;stroke-miterlimit:10;stroke-dasharray:none;stroke-opacity:1"
       d="m 1541.443,1136.185 h -222.02 v -222.02 h 222.02 z m -1.964,-220.057 h -218.093 v 218.093 h 218.093 z" /><path
       id="path236"
       style="fill:#231f20;fill-opacity:1;fill-rule:nonzero;stroke:#15141b;stroke-width:1;stroke-linecap:butt;stroke-linejoin:miter;stroke-miterlimit:10;stroke-dasharray:none;stroke-opacity:1"
       d="m 541.948,1414.707 h -222.02 v -222.02 h 222.02 z m -1.963,-220.058 H 321.892 v 218.093 h 218.093 z" /><path
       id="path238"
       style="fill:#231f20;fill-opacity:1;fill-rule:nonzero;stroke:#15141b;stroke-width:1;stroke-linecap:butt;stroke-linejoin:miter;stroke-miterlimit:10;stroke-dasharray:none;stroke-opacity:1"
       d="M 301.624,1414.707 H 79.604 v -222.02 h 222.02 z m -1.963,-220.058 H 81.568 v 218.093 h 218.093 z" /><path
       id="path240"
       style="fill:#231f20;fill-opacity:1;fill-rule:nonzero;stroke:#15141b;stroke-width:1;stroke-linecap:butt;stroke-linejoin:miter;stroke-miterlimit:10;stroke-dasharray:none;stroke-opacity:1"
       d="m 782.272,1414.707 h -222.02 v -222.02 h 222.02 z m -1.963,-220.058 H 562.216 v 218.093 h 218.093 z" /><path
       id="path242"
       style="fill:#ffffff;fill-opacity:1;fill-rule:nonzero;stroke:none"
       d="M 320.909,1654.047 H 540.967 V 1433.99 H 320.909 Z" /><path
       id="path244"
       style="fill:#231f20;fill-opacity:1;fill-rule:nonzero;stroke:#15141b;stroke-width:1;stroke-linecap:butt;stroke-linejoin:miter;stroke-miterlimit:10;stroke-dasharray:none;stroke-opacity:1"
       d="m 541.948,1655.029 h -222.02 v -222.02 h 222.02 z m -1.963,-220.057 H 321.892 v 218.093 h 218.093 z" /><path
       id="path246"
       style="fill:#231f20;fill-opacity:1;fill-rule:nonzero;stroke:#15141b;stroke-width:1;stroke-linecap:butt;stroke-linejoin:miter;stroke-miterlimit:10;stroke-dasharray:none;stroke-opacity:1"
       d="M 301.624,1655.029 H 79.604 v -222.02 h 222.02 z m -1.963,-220.057 H 81.568 v 218.093 h 218.093 z" /><path
       id="path248"
       style="fill:#231f20;fill-opacity:1;fill-rule:nonzero;stroke:#15141b;stroke-width:1;stroke-linecap:butt;stroke-linejoin:miter;stroke-miterlimit:10;stroke-dasharray:none;stroke-opacity:1"
       d="m 782.272,1655.029 h -222.02 v -222.02 h 222.02 z m -1.963,-220.057 H 562.216 v 218.093 h 218.093 z" /><path
       id="path250"
       style="fill:#231f20;fill-opacity:1;fill-rule:nonzero;stroke:#15141b;stroke-width:1;stroke-linecap:butt;stroke-linejoin:miter;stroke-miterlimit:10;stroke-dasharray:none;stroke-opacity:1"
       d="M 301.624,1895.353 H 79.604 v -222.021 h 222.02 z m -1.963,-220.058 H 81.568 v 218.094 h 218.093 z" /><path
       id="path252"
       style="fill:#231f20;fill-opacity:1;fill-rule:nonzero;stroke:#15141b;stroke-width:1;stroke-linecap:butt;stroke-linejoin:miter;stroke-miterlimit:10;stroke-dasharray:none;stroke-opacity:1"
       d="m 541.948,1895.353 h -222.02 v -222.021 h 222.02 z m -1.963,-220.058 H 321.892 v 218.094 h 218.093 z" /><path
       id="path254"
       style="fill:#231f20;fill-opacity:1;fill-rule:nonzero;stroke:#15141b;stroke-width:1;stroke-linecap:butt;stroke-linejoin:miter;stroke-miterlimit:10;stroke-dasharray:none;stroke-opacity:1"
       d="m 782.272,1895.353 h -222.02 v -222.021 h 222.02 z m -1.963,-220.058 H 562.216 v 218.094 h 218.093 z" /><path
       id="path256"
       style="fill:#231f20;fill-opacity:1;fill-rule:nonzero;stroke:#15141b;stroke-width:1;stroke-linecap:butt;stroke-linejoin:miter;stroke-miterlimit:10;stroke-dasharray:none;stroke-opacity:1"
       d="m 2060.288,1414.707 h -222.02 v -222.02 h 222.02 z m -1.963,-220.058 h -218.093 v 218.093 h 218.093 z" /><path
       id="path258"
       style="fill:#231f20;fill-opacity:1;fill-rule:nonzero;stroke:#15141b;stroke-width:1;stroke-linecap:butt;stroke-linejoin:miter;stroke-miterlimit:10;stroke-dasharray:none;stroke-opacity:1"
       d="m 1819.965,1414.707 h -222.021 v -222.02 h 222.021 z m -1.963,-220.058 h -218.094 v 218.093 h 218.094 z" /><path
       id="path260"
       style="fill:#231f20;fill-opacity:1;fill-rule:nonzero;stroke:#15141b;stroke-width:1;stroke-linecap:butt;stroke-linejoin:miter;stroke-miterlimit:10;stroke-dasharray:none;stroke-opacity:1"
       d="m 2300.612,1414.707 h -222.02 v -222.02 h 222.02 z m -1.963,-220.058 h -218.093 v 218.093 h 218.093 z" /><path
       id="path262"
       style="fill:#ffffff;fill-opacity:1;fill-rule:nonzero;stroke:#15141b;stroke-width:1;stroke-linecap:butt;stroke-linejoin:miter;stroke-miterlimit:10;stroke-dasharray:none;stroke-opacity:1"
       d="m 1839.25,1654.047 h 220.057 V 1433.99 H 1839.25 Z" /><path
       id="path264"
       style="fill:#231f20;fill-opacity:1;fill-rule:nonzero;stroke:#15141b;stroke-width:1;stroke-linecap:butt;stroke-linejoin:miter;stroke-miterlimit:10;stroke-dasharray:none;stroke-opacity:1"
       d="m 2060.288,1655.029 h -222.02 v -222.02 h 222.02 z m -1.963,-220.057 h -218.093 v 218.093 h 218.093 z" /><path
       id="path266"
       style="fill:#231f20;fill-opacity:1;fill-rule:nonzero;stroke:#15141b;stroke-width:1;stroke-linecap:butt;stroke-linejoin:miter;stroke-miterlimit:10;stroke-dasharray:none;stroke-opacity:1"
       d="m 1819.965,1655.029 h -222.021 v -222.02 h 222.021 z m -1.963,-220.057 h -218.094 v 218.093 h 218.094 z" /><path
       id="path268"
       style="fill:#231f20;fill-opacity:1;fill-rule:nonzero;stroke:#15141b;stroke-width:1;stroke-linecap:butt;stroke-linejoin:miter;stroke-miterlimit:10;stroke-dasharray:none;stroke-opacity:1"
       d="m 2300.612,1655.029 h -222.02 v -222.02 h 222.02 z m -1.963,-220.057 h -218.093 v 218.093 h 218.093 z" /><path
       id="path270"
       style="fill:#231f20;fill-opacity:1;fill-rule:nonzero;stroke:#15141b;stroke-width:1;stroke-linecap:butt;stroke-linejoin:miter;stroke-miterlimit:10;stroke-dasharray:none;stroke-opacity:1"
       d="m 1819.965,1895.353 h -222.021 v -222.021 h 222.021 z m -1.963,-220.058 h -218.094 v 218.094 h 218.094 z" /><path
       id="path272"
       style="fill:#231f20;fill-opacity:1;fill-rule:nonzero;stroke:#15141b;stroke-width:1;stroke-linecap:butt;stroke-linejoin:miter;stroke-miterlimit:10;stroke-dasharray:none;stroke-opacity:1"
       d="m 2060.288,1895.353 h -222.02 v -222.021 h 222.02 z m -1.963,-220.058 h -218.093 v 218.094 h 218.093 z" /><path
       id="path274"
       style="fill:#231f20;fill-opacity:1;fill-rule:nonzero;stroke:#15141b;stroke-width:1;stroke-linecap:butt;stroke-linejoin:miter;stroke-miterlimit:10;stroke-dasharray:none;stroke-opacity:1"
       d="m 2300.612,1895.353 h -222.02 v -222.021 h 222.02 z m -1.963,-220.058 h -218.093 v 218.094 h 218.093 z" /><path
       id="path276"
       style="fill:#231f20;fill-opacity:1;fill-rule:nonzero;stroke:#15141b;stroke-width:1;stroke-linecap:butt;stroke-linejoin:miter;stroke-miterlimit:10;stroke-dasharray:none;stroke-opacity:1"
       d="m 1301.119,1414.707 h -222.02 v -222.02 h 222.02 z m -3.927,-218.094 h -214.166 v 214.166 h 214.166 z" /><path
       id="path278"
       style="fill:#231f20;fill-opacity:1;fill-rule:nonzero;stroke:#15141b;stroke-width:1;stroke-linecap:butt;stroke-linejoin:miter;stroke-miterlimit:10;stroke-dasharray:none;stroke-opacity:1"
       d="m 1060.794,1414.707 h -222.02 v -222.02 h 222.02 z m -3.927,-218.094 H 842.701 v 214.166 h 214.166 z" /><path
       id="path280"
       style="fill:#231f20;fill-opacity:1;fill-rule:nonzero;stroke:#15141b;stroke-width:1;stroke-linecap:butt;stroke-linejoin:miter;stroke-miterlimit:10;stroke-dasharray:none;stroke-opacity:1"
       d="m 1541.443,1414.707 h -222.02 v -222.02 h 222.02 z m -3.927,-218.094 H 1323.35 v 214.166 h 214.166 z" /><path
       id="path282"
       style="fill:#231f20;fill-opacity:1;fill-rule:nonzero;stroke:#15141b;stroke-width:1;stroke-linecap:butt;stroke-linejoin:miter;stroke-miterlimit:10;stroke-dasharray:none;stroke-opacity:1"
       d="m 1301.119,1655.029 h -222.02 v -222.02 h 222.02 z m -5.891,-216.13 h -210.24 v 210.24 h 210.24 z" /><path
       id="path284"
       style="fill:#231f20;fill-opacity:1;fill-rule:nonzero;stroke:#15141b;stroke-width:1;stroke-linecap:butt;stroke-linejoin:miter;stroke-miterlimit:10;stroke-dasharray:none;stroke-opacity:1"
       d="m 1060.794,1655.029 h -222.02 v -222.02 h 222.02 z m -3.927,-218.093 H 842.701 v 214.166 h 214.166 z" /><path
       id="path286"
       style="fill:#231f20;fill-opacity:1;fill-rule:nonzero;stroke:#15141b;stroke-width:1;stroke-linecap:butt;stroke-linejoin:miter;stroke-miterlimit:10;stroke-dasharray:none;stroke-opacity:1"
       d="m 1541.443,1655.029 h -222.02 v -222.02 h 222.02 z m -3.927,-218.093 H 1323.35 v 214.166 h 214.166 z" /><path
       id="path288"
       style="fill:#231f20;fill-opacity:1;fill-rule:nonzero;stroke:#15141b;stroke-width:1;stroke-linecap:butt;stroke-linejoin:miter;stroke-miterlimit:10;stroke-dasharray:none;stroke-opacity:1"
       d="m 1060.794,1895.353 h -222.02 v -222.021 h 222.02 z m -3.927,-218.094 H 842.701 v 214.167 h 214.166 z" /><path
       id="path290"
       style="fill:#231f20;fill-opacity:1;fill-rule:nonzero;stroke:#15141b;stroke-width:1;stroke-linecap:butt;stroke-linejoin:miter;stroke-miterlimit:10;stroke-dasharray:none;stroke-opacity:1"
       d="m 1301.119,1895.353 h -222.02 v -222.021 h 222.02 z m -3.927,-218.094 h -214.166 v 214.167 h 214.166 z" /><path
       id="path292"
       style="fill:#231f20;fill-opacity:1;fill-rule:nonzero;stroke:#15141b;stroke-width:1;stroke-linecap:butt;stroke-linejoin:miter;stroke-miterlimit:10;stroke-dasharray:none;stroke-opacity:1"
       d="m 1541.443,1895.353 h -222.02 v -222.021 h 222.02 z m -3.927,-218.094 H 1323.35 v 214.167 h 214.166 z" /><text
       id="text344"
       style="font-variant:normal;font-weight:300;font-stretch:normal;font-size:24px;font-family:'Akkurat Light Pro';-inkscape-font-specification:AkkuratLightPro-Regular;writing-mode:lr-tb;fill:#231f20;fill-opacity:1;fill-rule:nonzero;stroke:none"
       transform="matrix(1,0,0,-1,353.167,2347.9316)"><tspan
         id="tspan294"
         y="0"
         x="0 16.271999 32.015999 46.608002 61.535999 76.463997 92.208 108 123.792 136.584">GRASSROOTS</tspan><tspan
         id="tspan296"
         y="28.799999"
         x="19.632 26.087999 43.799999 50.256001 63.048 69.503998 84.096001 96.888 103.344 117.096">INITIATIVE</tspan><tspan
         id="tspan298"
         y="57.599998"
         x="70.559998">-</tspan><tspan
         id="tspan300"
         y="86.400002"
         x="40.223999 57.936001 64.391998 79.344002 96.528">NICHE</tspan><tspan
         id="tspan302"
         y="115.2"
         x="6.3839998 12.84 30.552 48.264 64.056 77.807999 92.400002 105.192 111.648 127.44">INNOVATION</tspan><tspan
         id="tspan304"
         y="0"
         x="760.992 777.26398 793.008 807.59998 822.52802 837.45599 853.20001 868.992 884.784 897.57599">GRASSROOTS</tspan><tspan
         id="tspan306"
         y="28.799999"
         x="780.62402 787.08002 804.79199 811.24799 824.03998 830.49597 845.08801 857.88 864.336 878.08801">INITIATIVE</tspan><tspan
         id="tspan308"
         y="57.599998"
         x="831.552">-</tspan><tspan
         id="tspan310"
         y="86.400002"
         x="801.216 818.92798 825.38397 840.336 857.52002">NICHE</tspan><tspan
         id="tspan312"
         y="115.2"
         x="767.37598 773.83197 791.54401 809.25598 825.04797 838.79999 853.39203 866.18402 872.64001 888.43201">INNOVATION</tspan><tspan
         id="tspan314"
         y="0"
         x="1519.8719 1536.144 1551.8879 1566.48 1581.408 1596.3361 1612.08 1627.8719 1643.6639 1656.4561">GRASSROOTS</tspan><tspan
         id="tspan316"
         y="28.799999"
         x="1539.504 1545.96 1563.672 1570.1281 1582.92 1589.376 1603.968 1616.76 1623.2159 1636.968">INITIATIVE</tspan><tspan
         id="tspan318"
         y="57.599998"
         x="1590.432">-</tspan><tspan
         id="tspan320"
         y="86.400002"
         x="1560.0959 1577.808 1584.264 1599.2159 1616.4">NICHE</tspan><tspan
         id="tspan322"
         y="115.2"
         x="1526.256 1532.712 1550.424 1568.136 1583.928 1597.6801 1612.272 1625.064 1631.52 1647.312">INNOVATION</tspan><tspan
         id="tspan324"
         y="755.01599"
         x="0.048 16.32 32.063999 46.655998 61.584 76.512001 92.255997 108.048 123.84 136.632">GRASSROOTS</tspan><tspan
         id="tspan326"
         y="783.81598"
         x="19.68 26.136 43.848 50.304001 63.096001 69.552002 84.143997 96.935997 103.392 117.144">INITIATIVE</tspan><tspan
         id="tspan328"
         y="812.61603"
         x="70.608002">-</tspan><tspan
         id="tspan330"
         y="841.41602"
         x="40.271999 57.984001 64.440002 79.391998 96.575996">NICHE</tspan><tspan
         id="tspan332"
         y="870.216"
         x="6.4320002 12.888 30.6 48.312 64.103996 77.856003 92.447998 105.24 111.696 127.488">INNOVATION</tspan><tspan
         id="tspan334"
         y="755.01599"
         x="1519.896 1536.168 1551.912 1566.504 1581.432 1596.36 1612.104 1627.896 1643.688 1656.48">GRASSROOTS</tspan><tspan
         id="tspan336"
         y="783.81598"
         x="1539.528 1545.984 1563.696 1570.152 1582.944 1589.4 1603.9919 1616.7841 1623.24 1636.9919">INITIATIVE</tspan><tspan
         id="tspan338"
         y="812.61603"
         x="1590.4561">-</tspan><tspan
         id="tspan340"
         y="841.41602"
         x="1560.12 1577.832 1584.288 1599.24 1616.424">NICHE</tspan><tspan
         id="tspan342"
         y="870.216"
         x="1526.28 1532.736 1550.448 1568.16 1583.952 1597.704 1612.296 1625.088 1631.5439 1647.3361">INNOVATION</tspan></text>
<text
       id="text352"
       style="font-variant:normal;font-weight:normal;font-stretch:normal;font-size:24px;font-family:'Akkurat Pro';-inkscape-font-specification:AkkuratPro-Regular;writing-mode:lr-tb;fill:#231f20;fill-opacity:1;fill-rule:nonzero;stroke:none"
       transform="matrix(1,0,0,-1,1157.695,1804.3076)"><tspan
         id="tspan346"
         y="0"
         x="0 21.120001 37.200001 52.439999">MOST</tspan><tspan
         id="tspan348"
         y="28.799999"
         x="-32.112 -25.128 -4.0079999 11.04 25.944 41.16 54.071999 68.160004 84.431999">IMPACTFUL</tspan><tspan
         id="tspan350"
         y="57.599998"
         x="-64.559998 -49.344002 -32.112 -17.208 -1.3200001 13.584 28.799999 41.712002 56.712002 72.599998 79.584 94.823997 107.736 114.72">CHARACTERISTIC</tspan></text>
<text
       id="text356"
       style="font-variant:normal;font-weight:bold;font-stretch:normal;font-size:39.26850128px;font-family:'Akkurat Pro';-inkscape-font-specification:AkkuratPro-Bold;writing-mode:lr-tb;fill:#231f20;fill-opacity:1;fill-rule:nonzero;stroke:none"
       transform="matrix(1,0,0,-1,1149.7412,1532.9932)"><tspan
         id="tspan354"
         y="0"
         x="0 26.859653 55.643463">DNA</tspan></text>
<g
       id="g358"><g
         clip-path="url(#clipPath364)"
         id="g360"><g
           transform="translate(1190.1085,1649.1389)"
           id="g366"><path
             id="path368"
             style="fill:none;stroke:#15141b;stroke-width:7.08699989;stroke-linecap:butt;stroke-linejoin:miter;stroke-miterlimit:10;stroke-dasharray:none;stroke-opacity:1"
             d="m 0,0 c 28.079,0 54.476,-10.934 74.33,-30.789 19.854,-19.855 30.79,-46.253 30.79,-74.331 0,-28.079 -10.936,-54.476 -30.79,-74.331 C 54.476,-199.306 28.079,-210.24 0,-210.24 c -28.079,0 -54.477,10.934 -74.331,30.789 -19.855,19.855 -30.789,46.252 -30.789,74.331 0,28.078 10.934,54.476 30.789,74.331 C -54.477,-10.934 -28.079,0 0,0" /></g><g
           transform="translate(810.5235,1164.4349)"
           id="g370"><path
             id="path372"
             style="fill:none;stroke:#15141b;stroke-width:2;stroke-linecap:butt;stroke-linejoin:miter;stroke-miterlimit:10;stroke-dasharray:none;stroke-opacity:1"
             d="M 0,0 -1.388,-1.388" /></g><g
           transform="translate(804.29,1158.2015)"
           id="g374"><path
             id="path376"
             style="fill:none;stroke:#15141b;stroke-width:2;stroke-linecap:butt;stroke-linejoin:miter;stroke-miterlimit:10;stroke-dasharray:3.988, 6.98;stroke-dashoffset:0;stroke-opacity:1"
             d="M 0,0 -720.874,-720.875" /></g><g
           transform="translate(80.9936,434.9042)"
           id="g378"><path
             id="path380"
             style="fill:none;stroke:#15141b;stroke-width:2;stroke-linecap:butt;stroke-linejoin:miter;stroke-miterlimit:10;stroke-dasharray:none;stroke-opacity:1"
             d="M 0,0 -1.388,-1.388" /></g><path
           id="path382"
           style="fill:#ffffff;fill-opacity:1;fill-rule:nonzero;stroke:#15141b;stroke-width:1;stroke-linecap:butt;stroke-linejoin:miter;stroke-miterlimit:10;stroke-dasharray:none;stroke-opacity:1"
           d="M 320.909,894.881 H 540.967 V 674.824 H 320.909 Z" /><path
           id="path384"
           style="fill:#231f20;fill-opacity:1;fill-rule:nonzero;stroke:#15141b;stroke-width:1;stroke-linecap:butt;stroke-linejoin:miter;stroke-miterlimit:10;stroke-dasharray:none;stroke-opacity:1"
           d="m 541.948,895.862 h -222.02 v -222.02 h 222.02 z M 539.985,675.806 H 321.892 v 218.093 h 218.093 z" /></g></g><text
       id="text390"
       style="font-variant:normal;font-weight:300;font-stretch:normal;font-size:24px;font-family:'Akkurat Light Pro';-inkscape-font-specification:AkkuratLightPro-Regular;writing-mode:lr-tb;fill:#231f20;fill-opacity:1;fill-rule:nonzero;stroke:none"
       transform="matrix(1,0,0,-1,1166.3999,2548.4297)"><tspan
         id="tspan386"
         y="0"
         x="0 15.72 30.504">KEY</tspan><tspan
         id="tspan388"
         y="28.799999"
         x="-73.655998 -58.703999 -41.52 -26.927999 -11.184 3.408 18.360001 31.152 45.936001 61.68 68.136002 83.064003 95.856003 102.312">CHARACTERISTIC</tspan></text>
<g
       id="g392"><g
         clip-path="url(#clipPath398)"
         id="g394"><g
           transform="translate(1190.1095,2573.8477)"
           id="g400"><path
             id="path402"
             style="fill:none;stroke:#15141b;stroke-width:2;stroke-linecap:butt;stroke-linejoin:miter;stroke-miterlimit:10;stroke-dasharray:none;stroke-opacity:1"
             d="M 0,0 V 1.963" /></g><g
           transform="translate(1190.1095,2583.1702)"
           id="g404"><path
             id="path406"
             style="fill:none;stroke:#15141b;stroke-width:2;stroke-linecap:butt;stroke-linejoin:miter;stroke-miterlimit:10;stroke-dasharray:4.284, 7.496;stroke-dashoffset:0;stroke-opacity:1"
             d="M 0,0 V 65.707" /></g><g
           transform="translate(1190.1095,2652.5562)"
           id="g408"><path
             id="path410"
             style="fill:none;stroke:#15141b;stroke-width:2;stroke-linecap:butt;stroke-linejoin:miter;stroke-miterlimit:10;stroke-dasharray:none;stroke-opacity:1"
             d="M 0,0 V 1.964" /></g></g></g><text
       id="text416"
       style="font-variant:normal;font-weight:bold;font-stretch:normal;font-size:92.20210266px;font-family:'Akkurat Pro';-inkscape-font-specification:AkkuratPro-Bold;writing-mode:lr-tb;fill:#231f20;fill-opacity:1;fill-rule:nonzero;stroke:none"
       transform="matrix(1,0,0,-1,501.7461,3144.959)"><tspan
         id="tspan412"
         y="0"
         x="0 72.194244 104.18837 166.7014 237.23601 299.74902">NICHE </tspan><tspan
         id="tspan414"
         y="110.64252"
         x="0 67.676338 99.670471 162.55231 225.06532 291.63525 352.48862 415.00165 480.37296">DISCOVERY</tspan></text>
<text
       id="text420"
       style="font-variant:normal;font-weight:300;font-stretch:normal;font-size:63.08570099px;font-family:'Akkurat Light Pro';-inkscape-font-specification:AkkuratLightPro-Regular;writing-mode:lr-tb;fill:#231f20;fill-opacity:1;fill-rule:nonzero;stroke:none"
       transform="matrix(1,0,0,-1,503.5571,2945.625)"><tspan
         id="tspan418"
         y="0"
         x="0 36.715878 60.75153 96.142609 151.34259 167.74487 204.52383 238.14851 251.71194 275.05365 311.83261 345.83582 359.39923 398.63855 428.8566 461.15646 484.49817 518.50134">Framing the System</tspan></text>
<g
       id="g422"><g
         clip-path="url(#clipPath428)"
         id="g424"><g
           transform="translate(205.4865,3201.6628)"
           id="g430"><path
             id="path432"
             style="fill:none;stroke:#ec138d;stroke-width:10;stroke-linecap:butt;stroke-linejoin:miter;stroke-miterlimit:10;stroke-dasharray:none;stroke-opacity:1"
             d="m 0,0 c -28.818,-4.833 -56.461,-18.366 -78.697,-40.602 -56.824,-56.824 -56.824,-148.954 0.001,-205.778 56.823,-56.823 148.954,-56.823 205.777,0 22.313,22.314 35.86,50.072 40.65,78.998 H 0 Z" /></g><g
           transform="translate(205.4865,3201.6628)"
           id="g434"><path
             id="path436"
             style="fill:none;stroke:#ec138d;stroke-width:10;stroke-linecap:butt;stroke-linejoin:miter;stroke-miterlimit:10;stroke-dasharray:none;stroke-opacity:1"
             d="m 0,0 c 44.825,7.518 92.493,-6.015 127.081,-40.602 34.51,-34.511 48.057,-82.043 40.65,-126.78 h 41.57 V 41.919 L 0,41.919 Z" /></g><g
           transform="translate(332.5671,3161.0605)"
           id="g438"><path
             id="path440"
             style="fill:none;stroke:#ec138d;stroke-width:10;stroke-linecap:butt;stroke-linejoin:miter;stroke-miterlimit:10;stroke-dasharray:none;stroke-opacity:1"
             d="M 0,0 C -34.587,34.587 -82.256,48.12 -127.081,40.602 V -126.78 H 40.65 C 48.057,-82.042 34.511,-34.51 0,0 Z" /></g><g
           transform="translate(332.5671,3161.0605)"
           id="g442"><path
             id="path444"
             style="fill:none;stroke:#ec138d;stroke-width:10;stroke-linecap:butt;stroke-linejoin:miter;stroke-miterlimit:10;stroke-dasharray:none;stroke-opacity:1"
             d="M 0,0 C -34.587,34.587 -82.256,48.12 -127.081,40.602 V -126.78 H 40.65 C 48.057,-82.042 34.511,-34.51 0,0 Z" /></g><g
           transform="translate(1740.7992,3269.7302)"
           id="g446"><path
             id="path448"
             style="fill:none;stroke:#15141b;stroke-width:2.5;stroke-linecap:butt;stroke-linejoin:miter;stroke-miterlimit:10;stroke-dasharray:none;stroke-opacity:1"
             d="M 0,0 C -12.423,12.423 -32.565,12.423 -44.988,0 -57.41,-12.423 -57.41,-32.564 -44.987,-44.988 -32.564,-57.41 -12.423,-57.41 0,-44.988 12.423,-32.565 12.423,-12.423 0,0" /></g><g
           transform="translate(1848.377,3269.7302)"
           id="g450"><path
             id="path452"
             style="fill:none;stroke:#15141b;stroke-width:2.5;stroke-linecap:butt;stroke-linejoin:miter;stroke-miterlimit:10;stroke-dasharray:none;stroke-opacity:1"
             d="M 0,0 C -12.423,12.423 -32.565,12.423 -44.988,0 -57.41,-12.423 -57.41,-32.564 -44.987,-44.988 -32.564,-57.41 -12.423,-57.41 0,-44.988 12.423,-32.565 12.423,-12.423 0,0" /></g><g
           transform="translate(2017.1093,3224.856)"
           id="g454"><path
             id="path456"
             style="fill:none;stroke:#15141b;stroke-width:2.5;stroke-linecap:butt;stroke-linejoin:miter;stroke-miterlimit:10;stroke-dasharray:none;stroke-opacity:1"
             d="M 0,0 C 12.423,-12.423 32.565,-12.423 44.988,0 57.411,12.423 57.411,32.564 44.987,44.988 32.565,57.41 12.423,57.41 0,44.988 -12.423,32.565 -12.423,12.423 0,0" /></g><g
           transform="translate(2168.9648,3269.7302)"
           id="g458"><path
             id="path460"
             style="fill:none;stroke:#15141b;stroke-width:2.5;stroke-linecap:butt;stroke-linejoin:miter;stroke-miterlimit:10;stroke-dasharray:none;stroke-opacity:1"
             d="M 0,0 C -12.423,12.423 -32.564,12.423 -44.988,0 -57.41,-12.423 -57.41,-32.564 -44.987,-44.988 -32.564,-57.41 -12.423,-57.41 0,-44.988 12.423,-32.565 12.423,-12.423 0,0" /></g><g
           transform="translate(2277.2578,3269.7302)"
           id="g462"><path
             id="path464"
             style="fill:none;stroke:#15141b;stroke-width:2.5;stroke-linecap:butt;stroke-linejoin:miter;stroke-miterlimit:10;stroke-dasharray:none;stroke-opacity:1"
             d="m 0,0 c -12.423,12.423 -32.565,12.423 -44.988,0 -12.423,-12.423 -12.423,-32.564 0,-44.988 12.424,-12.422 32.565,-12.422 44.988,0 C 12.423,-32.565 12.423,-12.423 0,0" /></g><g
           transform="translate(1955.4183,3269.7302)"
           id="g466"><path
             id="path468"
             style="fill:none;stroke:#15141b;stroke-width:2.5;stroke-linecap:butt;stroke-linejoin:miter;stroke-miterlimit:10;stroke-dasharray:none;stroke-opacity:1"
             d="M 0,0 C -12.423,12.423 -32.565,12.423 -44.988,0 -57.41,-12.423 -57.41,-32.564 -44.987,-44.988 -32.564,-57.41 -12.423,-57.41 0,-44.988 12.423,-32.565 12.423,-12.423 0,0" /></g><g
           transform="translate(1603.8372,3279.5215)"
           id="g470"><path
             id="path472"
             style="fill:none;stroke:#ec138d;stroke-width:2.5;stroke-linecap:butt;stroke-linejoin:miter;stroke-miterlimit:10;stroke-dasharray:none;stroke-opacity:1"
             d="m 0,0 c -6.507,-1.091 -12.749,-4.147 -17.769,-9.168 -12.831,-12.83 -12.831,-33.633 0,-46.463 12.83,-12.831 33.633,-12.831 46.463,0 5.038,5.038 8.097,11.306 9.179,17.837 H 0 Z" /></g><g
           transform="translate(1603.8372,3279.5215)"
           id="g474"><path
             id="path476"
             style="fill:none;stroke:#ec138d;stroke-width:2.5;stroke-linecap:butt;stroke-linejoin:miter;stroke-miterlimit:10;stroke-dasharray:none;stroke-opacity:1"
             d="m 0,0 c 10.121,1.698 20.884,-1.358 28.694,-9.168 7.792,-7.792 10.851,-18.524 9.179,-28.626 h 9.386 V 9.465 L 0,9.465 Z" /></g><g
           transform="translate(1632.5313,3270.3538)"
           id="g478"><path
             id="path480"
             style="fill:none;stroke:#ec138d;stroke-width:2.5;stroke-linecap:butt;stroke-linejoin:miter;stroke-miterlimit:10;stroke-dasharray:none;stroke-opacity:1"
             d="M 0,0 C -7.81,7.81 -18.573,10.865 -28.694,9.168 V -28.626 H 9.178 C 10.851,-18.525 7.792,-7.792 0,0 Z" /></g><g
           transform="translate(1632.5313,3270.3538)"
           id="g482"><path
             id="path484"
             style="fill:none;stroke:#ec138d;stroke-width:2.5;stroke-linecap:butt;stroke-linejoin:miter;stroke-miterlimit:10;stroke-dasharray:none;stroke-opacity:1"
             d="M 0,0 C -7.81,7.81 -18.573,10.865 -28.694,9.168 V -28.626 H 9.178 C 10.851,-18.525 7.792,-7.792 0,0 Z" /></g><g
           transform="translate(1691.9762,3287.8083)"
           id="g486"><path
             id="path488"
             style="fill:none;stroke:#15141b;stroke-width:2.5;stroke-linecap:butt;stroke-linejoin:miter;stroke-miterlimit:10;stroke-dasharray:none;stroke-opacity:1"
             d="M 0,0 8.167,-14.516 26.407,-46.936 44.595,-14.61 52.815,0 Z" /></g><g
           transform="translate(1866.3711,3264.1367)"
           id="g490"><path
             id="path492"
             style="fill:none;stroke:#15141b;stroke-width:2.5;stroke-linecap:butt;stroke-linejoin:miter;stroke-miterlimit:10;stroke-dasharray:none;stroke-opacity:1"
             d="M 0,0 C 0,13.097 -10.617,23.715 -23.715,23.715 -36.812,23.715 -47.43,13.097 -47.43,0 c 0,-13.097 10.618,-23.715 23.715,-23.715 C -10.617,-23.715 0,-13.097 0,0 Z" /></g><g
           transform="translate(1969.59,3283.9626)"
           id="g494"><path
             id="path496"
             style="fill:none;stroke:#15141b;stroke-width:2.5;stroke-linecap:butt;stroke-linejoin:miter;stroke-miterlimit:10;stroke-dasharray:none;stroke-opacity:1"
             d="m 0,0 c -5.18,5.18 -13.579,5.18 -18.76,0 -0.663,-0.663 -1.24,-1.379 -1.733,-2.134 l -3.396,-5.357 -28.39,-44.791 44.832,28.426 5.505,3.491 c 0.684,0.464 1.335,0.999 1.942,1.605 5.18,5.181 5.18,13.58 0,18.76 z" /></g><g
           transform="translate(2027.6193,3225.4468)"
           id="g498"><path
             id="path500"
             style="fill:none;stroke:#15141b;stroke-width:2.5;stroke-linecap:butt;stroke-linejoin:miter;stroke-miterlimit:10;stroke-dasharray:none;stroke-opacity:1"
             d="M 0,0 38.858,38.858 52.355,52.355 42.25,62.459 28.799,49.008 -10.105,10.104 Z" /></g><g
           transform="translate(2146.3611,3287.3979)"
           id="g502"><path
             id="path504"
             style="fill:none;stroke:#15141b;stroke-width:2.5;stroke-linecap:butt;stroke-linejoin:miter;stroke-miterlimit:10;stroke-dasharray:none;stroke-opacity:1"
             d="M 0,0 C -0.003,0 -0.006,0 -0.009,0 V -40.472 H 40.52 C 40.493,-18.115 22.363,0 0,0 Z" /></g><g
           transform="translate(2239.6875,3239.9558)"
           id="g506"><path
             id="path508"
             style="fill:none;stroke:#15141b;stroke-width:2.5;stroke-linecap:butt;stroke-linejoin:miter;stroke-miterlimit:10;stroke-dasharray:none;stroke-opacity:1"
             d="m 0,0 c -0.046,0 -0.092,0 -0.138,0 l 0.063,14.12 c 3.377,-0.014 6.558,0.984 9.724,3.053 3.542,2.315 6.49,5.182 8.764,8.52 l 4.369,6.412 c 1.755,2.576 4.693,6.888 10.111,10.201 5.782,3.536 13.138,5.269 22.488,5.298 l 0.043,-14.12 c -6.597,-0.02 -11.7,-1.105 -15.165,-3.224 -2.618,-1.6 -4.118,-3.625 -5.808,-6.105 L 30.083,17.743 C 26.756,12.86 22.481,8.692 17.374,5.354 11.938,1.801 6.094,0 0,0 Z" /></g></g></g><text
       id="text540"
       style="font-variant:normal;font-weight:300;font-stretch:normal;font-size:24px;font-family:'Akkurat Light Pro';-inkscape-font-specification:AkkuratLightPro-Regular;writing-mode:lr-tb;fill:#231f20;fill-opacity:1;fill-rule:nonzero;stroke:none"
       transform="matrix(1,0,0,-1,353.167,827.2002)"><tspan
         id="tspan510"
         y="0"
         x="0 16.271999 32.015999 46.608002 61.535999 76.463997 92.208 108 123.792 136.584">GRASSROOTS</tspan><tspan
         id="tspan512"
         y="28.799999"
         x="19.632 26.087999 43.799999 50.256001 63.048 69.503998 84.096001 96.888 103.344 117.096">INITIATIVE</tspan><tspan
         id="tspan514"
         y="57.599998"
         x="70.559998">-</tspan><tspan
         id="tspan516"
         y="86.400002"
         x="40.223999 57.936001 64.391998 79.344002 96.528">NICHE</tspan><tspan
         id="tspan518"
         y="115.2"
         x="6.3839998 12.84 30.552 48.264 64.056 77.807999 92.400002 105.192 111.648 127.44">INNOVATION</tspan><tspan
         id="tspan520"
         y="0"
         x="760.992 777.26398 793.008 807.59998 822.52802 837.45599 853.20001 868.992 884.784 897.57599">GRASSROOTS</tspan><tspan
         id="tspan522"
         y="28.799999"
         x="780.62402 787.08002 804.79199 811.24799 824.03998 830.49597 845.08801 857.88 864.336 878.08801">INITIATIVE</tspan><tspan
         id="tspan524"
         y="57.599998"
         x="831.552">-</tspan><tspan
         id="tspan526"
         y="86.400002"
         x="801.216 818.92798 825.38397 840.336 857.52002">NICHE</tspan><tspan
         id="tspan528"
         y="115.2"
         x="767.37598 773.83197 791.54401 809.25598 825.04797 838.79999 853.39203 866.18402 872.64001 888.43201">INNOVATION</tspan><tspan
         id="tspan530"
         y="0"
         x="1519.8719 1536.144 1551.8879 1566.48 1581.408 1596.3361 1612.08 1627.8719 1643.6639 1656.4561">GRASSROOTS</tspan><tspan
         id="tspan532"
         y="28.799999"
         x="1539.504 1545.96 1563.672 1570.1281 1582.92 1589.376 1603.968 1616.76 1623.2159 1636.968">INITIATIVE</tspan><tspan
         id="tspan534"
         y="57.599998"
         x="1590.432">-</tspan><tspan
         id="tspan536"
         y="86.400002"
         x="1560.0959 1577.808 1584.264 1599.2159 1616.4">NICHE</tspan><tspan
         id="tspan538"
         y="115.2"
         x="1526.256 1532.712 1550.424 1568.136 1583.928 1597.6801 1612.272 1625.064 1631.52 1647.312">INNOVATION</tspan></text>
<text
       id="text544"
       style="font-variant:normal;font-weight:bold;font-stretch:normal;font-size:24px;font-family:'Akkurat Pro';-inkscape-font-specification:AkkuratPro-Bold;writing-mode:lr-tb;fill:#231f20;fill-opacity:1;fill-rule:nonzero;stroke:none"
       transform="matrix(1,0,0,-1,80.263,55.4562)"><tspan
         id="tspan542"
         y="0"
         x="0 18.408001 36.816002 55.223999 62.16 74.568001 87.192001 99.695999 109.176 122.664 144 150.96001 163.82401 178.368 191.856 204.45599 211.416 224.73599 239.03999 248.52 262.32001 276.12 283.48801 297.43201 304.392 314.56799 321.26401 335.064 344.448">www.systemicdesigntoolkit.org</tspan></text>
<text
       id="text548"
       style="font-variant:normal;font-weight:300;font-stretch:normal;font-size:24px;font-family:'Akkurat Light Pro';-inkscape-font-specification:AkkuratLightPro-Regular;writing-mode:lr-tb;fill:#231f20;fill-opacity:1;fill-rule:nonzero;stroke:none"
       transform="matrix(1,0,0,-1,1064.767,55.1682)"><tspan
         id="tspan546"
         y="0"
         x="0 15.648 28.704 41.088001 54.312 75.407997 96.503998 109.56 123.648 137.75999 150.81599 164.952 170.20799 182.616 188.952 200.664 213.72 219.24001 224.496 239.808">Recommended size: A0</tspan></text>
<g
       id="g550"><g
         clip-path="url(#clipPath556)"
         id="g552"><g
           transform="translate(1689.9756,66.0772)"
           id="g558"><path
             id="path560"
             style="fill:#231f20;fill-opacity:1;fill-rule:evenodd;stroke:none"
             d="m 0,0 -3.146,1.326 c -2.048,0.887 -3.071,2.124 -3.071,4.562 0,3.054 1.811,4.293 3.974,4.293 3.383,0 3.855,-2.789 3.855,-4.87 V 4.647 h 1.493 v 0.71 c 0,2.831 -0.785,6.329 -5.348,6.329 -3.268,0 -5.625,-2.124 -5.625,-5.978 0,-2.964 1.297,-4.646 3.851,-5.799 l 3.031,-1.37 c 2.285,-1.02 3.072,-2.525 3.072,-4.739 0,-2.567 -1.259,-4.823 -4.288,-4.823 -3.424,0 -4.605,2.389 -4.605,5.665 v 0.753 H -8.3 v -0.618 c 0,-2.703 0.39,-7.306 6.098,-7.306 3.264,0 5.938,2.479 5.938,6.372 C 3.736,-3.012 2.478,-1.064 0,0 m 14.276,12.04 c -2.477,0 -4.525,-1.415 -5.112,-3.806 H 9.083 v 10.181 h -2.36 v -30.414 h 2.36 V 3.806 c 0,3.63 1.851,6.02 4.605,6.02 2.401,0 3.579,-1.592 3.579,-4.824 v -17.001 h 2.362 V 5.756 c 0,4.425 -2.166,6.284 -5.353,6.284 m 9.792,-24.039 h 3.303 v 23.488 h -3.303 z m 0,26.429 h 3.303 v 3.979 h -3.303 z m 8.81,-0.73 V 11.489 H 29.926 V 7.591 h 2.952 v -19.59 h 4.251 v 19.59 h 3.461 v 3.898 h -3.461 v 2.079 c 0,1.592 0.706,2.26 2.282,2.26 h 1.179 v 3.671 c -0.63,0.091 -1.417,0.132 -2.32,0.132 -3.462,0 -5.392,-1.416 -5.392,-5.931 M 51.841,7.591 v 3.898 h -3.147 v 5.725 h -5.433 v -23.19 c 0,-4.83 0.788,-6.288 5.036,-6.288 1.261,0 2.363,0.134 3.544,0.265 v 4.251 c -0.355,-0.044 -0.788,-0.087 -1.221,-0.087 -1.574,0 -1.926,0.75 -1.926,2.612 V 7.591 Z" /></g><g
           transform="translate(1752.4473,92.5499)"
           id="g562"><path
             id="path564"
             style="fill:#231f20;fill-opacity:1;fill-rule:evenodd;stroke:none"
             d="m 0,0 c -4.501,-0.666 -7.742,-4.897 -7.742,-9.656 v -9.22 h 8.809 c 4.546,0 8.591,3.393 9.225,8.107 C 11.142,-4.449 6.038,0.893 0,0 M 5.306,-14.879 H 1.602 v 6.518 c 0,0.82 -0.248,1.06 -0.725,1.06 -0.501,0 -0.746,-0.44 -0.746,-1.06 v -6.518 h -3.709 v 10.178 h 3.597 v -1.241 h 0.036 c 0.556,1.062 1.489,1.521 2.733,1.521 1.319,0 2.518,-0.76 2.518,-2.742 z" /></g></g></g><text
       id="text570"
       style="font-variant:normal;font-weight:bold;font-stretch:normal;font-size:13.76099968px;font-family:'Akkurat Pro';-inkscape-font-specification:AkkuratPro-Bold;writing-mode:lr-tb;fill:#231f20;fill-opacity:1;fill-rule:nonzero;stroke:none"
       transform="matrix(1,0,0,-1,2237.1484,84.0605)"><tspan
         id="tspan566"
         y="0"
         x="0 8.3666878 16.609528 25.045019 32.764942 41.406849 53.489006 57.576023">SYSTEMIC</tspan><tspan
         id="tspan568"
         y="19.912167"
         x="0 9.4125242 17.999388 26.696341 30.783358 40.195881">DESIGN</tspan></text>
<text
       id="text574"
       style="font-variant:normal;font-weight:300;font-stretch:normal;font-size:13.76099968px;font-family:'Akkurat Light Pro';-inkscape-font-specification:AkkuratLightPro-Regular;writing-mode:lr-tb;fill:#231f20;fill-opacity:1;fill-rule:nonzero;stroke:none"
       transform="matrix(1,0,0,-1,2237.1484,44.236166)"><tspan
         id="tspan572"
         y="0"
         x="0 7.0043492 16.059088 25.113825 32.627331 41.640785 45.342495">TOOLKIT</tspan></text>
<g
       id="g576"><g
         clip-path="url(#clipPath582)"
         id="g578"><g
           transform="translate(2210.6406,82.5464)"
           id="g584"><path
             id="path586"
             style="fill:#f8c717;fill-opacity:1;fill-rule:nonzero;stroke:none"
             d="m 0,0 c 7.98,-7.98 7.98,-20.917 0,-28.897 -7.979,-7.98 -20.917,-7.98 -28.897,0 -7.979,7.98 -7.979,20.917 0,28.897 7.98,7.979 20.918,7.979 28.897,0 m 7.78,7.78 c -12.277,12.276 -32.18,12.276 -44.457,0 -12.276,-12.277 -12.276,-32.18 0,-44.457 12.277,-12.277 32.18,-12.277 44.457,0 12.277,12.276 12.277,32.18 0,44.457" /></g><g
           transform="translate(2202.8608,74.7662)"
           id="g588"><path
             id="path590"
             style="fill:#e2067f;fill-opacity:1;fill-rule:nonzero;stroke:none"
             d="m 0,0 c 3.683,-3.683 3.683,-9.654 0,-13.337 -3.683,-3.683 -9.654,-3.683 -13.337,0 -3.683,3.683 -3.683,9.654 0,13.337 C -9.654,3.683 -3.683,3.683 0,0 m 7.78,7.78 c -7.98,7.98 -20.917,7.98 -28.897,0 -7.98,-7.98 -7.98,-20.917 0,-28.897 7.98,-7.98 20.917,-7.98 28.897,0 7.98,7.98 7.98,20.917 0,28.897" /></g><g
           id="g592"><g
             id="g594" /><g
             id="g614"><g
               id="g612"
               clip-path="url(#clipPath598)"><g
                 id="g610"><g
                   id="g608"
                   clip-path="url(#clipPath602)"><g
                     id="g606"
                     transform="translate(2218.4204,90.3262)"><path
                       id="path604"
                       style="fill:#489bda;fill-opacity:1;fill-rule:nonzero;stroke:none"
                       d="m 0,0 c 8.227,-8.226 10.932,-19.875 8.133,-30.361 -10.486,-2.799 -22.135,-0.094 -30.361,8.132 -8.227,8.227 -10.932,19.876 -8.133,30.362 C -19.875,10.931 -8.226,8.226 0,0" /></g></g></g></g></g></g><g
           transform="translate(1824.7402,97.4493)"
           id="g616"><path
             id="path618"
             style="fill:#ffffff;fill-opacity:1;fill-rule:nonzero;stroke:none"
             d="m 0,0 c -13.986,0.001 -25.353,-11.343 -25.363,-25.312 -0.01,-13.992 11.333,-25.383 25.283,-25.391 14.036,-0.007 25.416,11.325 25.42,25.312 C 25.343,-11.368 14,-0.001 0,0" /></g><g
           transform="translate(1821.5107,71.7872)"
           id="g620"><path
             id="path622"
             style="fill:#231f20;fill-opacity:1;fill-rule:nonzero;stroke:none"
             d="M 0,0 C -0.062,0.014 -0.109,0.018 -0.151,0.034 -0.98,0.363 -1.838,0.428 -2.711,0.29 -3.85,0.109 -4.732,-0.431 -5.141,-1.566 -5.37,-2.203 -5.375,-2.864 -5.26,-3.523 c 0.187,-1.069 0.721,-1.89 1.781,-2.259 1.122,-0.39 2.193,-0.218 3.198,0.403 0.086,0.053 0.171,0.105 0.277,0.17 0.009,-0.205 0.017,-0.379 0.025,-0.558 h 3.038 c 0.012,0.05 0.024,0.078 0.024,0.104 0,2.125 0.033,4.251 -0.014,6.375 C 3.034,2.295 2.148,3.384 0.684,3.68 -1.165,4.053 -2.956,3.794 -4.671,3.014 -4.702,3 -4.725,2.969 -4.762,2.938 c 0.28,-0.707 0.554,-1.403 0.837,-2.117 0.133,0.061 0.236,0.105 0.335,0.155 0.841,0.425 1.734,0.564 2.665,0.488 0.551,-0.046 0.872,-0.34 0.922,-0.859 C 0.016,0.41 0,0.211 0,0 M 26.49,5.502 C 26.367,5.587 26.271,5.66 26.169,5.723 24.197,6.934 22.058,7.241 19.824,6.781 17.901,6.385 16.656,5.104 16.532,3.318 16.418,1.682 16.934,0.52 18.402,-0.2 c 0.16,-0.078 0.321,-0.166 0.491,-0.216 0.903,-0.267 1.811,-0.516 2.713,-0.787 0.377,-0.114 0.749,-0.251 1.111,-0.41 0.266,-0.117 0.43,-0.336 0.398,-0.653 -0.035,-0.34 -0.25,-0.518 -0.56,-0.593 -0.174,-0.042 -0.353,-0.066 -0.531,-0.079 -1.433,-0.105 -2.708,0.377 -3.924,1.071 -0.086,0.049 -0.173,0.097 -0.274,0.155 -0.57,-0.922 -1.124,-1.819 -1.687,-2.73 0.099,-0.066 0.174,-0.122 0.254,-0.169 1.997,-1.162 4.148,-1.568 6.429,-1.28 0.831,0.105 1.621,0.357 2.319,0.844 1.329,0.925 1.697,2.516 1.377,4.125 -0.217,1.092 -0.938,1.814 -1.923,2.22 -0.902,0.372 -1.854,0.62 -2.784,0.922 -0.466,0.15 -0.937,0.281 -1.396,0.45 -0.269,0.1 -0.417,0.311 -0.384,0.622 0.036,0.331 0.278,0.544 0.713,0.607 0.852,0.122 1.68,0 2.469,-0.318 0.538,-0.217 1.047,-0.508 1.601,-0.782 0.544,0.877 1.103,1.779 1.676,2.703 M 4.732,6.747 V -5.79 h 0.301 c 0.935,0 1.87,0.01 2.804,-0.006 0.28,-0.005 0.347,0.086 0.344,0.353 -0.013,1.198 -0.002,2.398 -0.01,3.597 -10e-4,0.206 0.057,0.291 0.272,0.28 0.273,-0.014 0.548,-0.013 0.821,0 0.196,0.01 0.302,-0.061 0.388,-0.244 0.577,-1.218 1.178,-2.425 1.746,-3.647 0.124,-0.268 0.273,-0.345 0.556,-0.34 1.058,0.017 2.115,0.007 3.173,0.007 h 0.368 c -0.85,1.624 -1.674,3.198 -2.5,4.779 0.084,0.047 0.149,0.084 0.213,0.121 0.074,0.041 0.149,0.082 0.222,0.125 0.88,0.526 1.468,1.282 1.661,2.287 0.106,0.55 0.138,1.126 0.111,1.686 -0.075,1.582 -0.95,2.734 -2.463,3.209 -0.595,0.186 -1.234,0.31 -1.855,0.324 C 8.911,6.784 6.937,6.763 4.964,6.765 4.891,6.765 4.818,6.754 4.732,6.747 m -17.749,-6.908 c -0.044,0.12 -0.093,0.294 -0.166,0.456 -0.937,2.101 -1.874,4.202 -2.823,6.297 -0.039,0.086 -0.198,0.165 -0.302,0.166 -0.916,0.013 -1.833,0.009 -2.749,0.007 -0.071,0 -0.143,-0.017 -0.218,-0.027 V -5.77 h 3.24 v 6.029 c 0.989,-2.128 1.993,-4.288 2.996,-6.448 l 0.087,0.001 c 1.005,2.162 2.01,4.325 2.994,6.443 v -6.026 h 3.241 V 6.766 h -0.332 c -0.831,0 -1.663,-0.012 -2.493,0.007 -0.259,0.006 -0.38,-0.078 -0.484,-0.31 -0.993,-2.218 -1.998,-4.43 -2.991,-6.624 M 3.229,25.662 C 17.23,25.661 28.573,14.294 28.569,0.271 28.566,-13.716 17.185,-25.049 3.15,-25.041 c -13.951,0.008 -25.294,11.399 -25.283,25.392 0.009,13.968 11.377,25.312 25.362,25.311" /></g><g
           transform="translate(1808.4937,71.6265)"
           id="g624"><path
             id="path626"
             style="fill:#ffffff;fill-opacity:1;fill-rule:nonzero;stroke:none"
             d="M 0,0 C 0.993,2.193 1.998,4.406 2.991,6.624 3.095,6.855 3.216,6.939 3.475,6.934 4.305,6.915 5.137,6.927 5.968,6.927 H 6.301 V -5.61 H 3.059 V 0.416 C 2.075,-1.703 1.07,-3.865 0.066,-6.028 h -0.088 c -1.003,2.16 -2.007,4.32 -2.996,6.448 v -6.029 h -3.24 V 6.899 c 0.076,0.01 0.147,0.026 0.218,0.026 0.916,0.002 1.832,0.007 2.748,-0.006 0.105,-0.002 0.264,-0.08 0.303,-0.167 C -2.04,4.658 -1.102,2.557 -0.166,0.456 -0.093,0.293 -0.043,0.121 0,0" /></g><g
           transform="translate(1829.7036,72.9908)"
           id="g628"><path
             id="path630"
             style="fill:#ffffff;fill-opacity:1;fill-rule:nonzero;stroke:none"
             d="M 0,0 C 0.684,0 1.352,-0.004 2.019,0.003 2.207,0.004 2.397,0.024 2.58,0.065 2.955,0.147 3.262,0.333 3.425,0.704 3.879,1.738 3.291,2.676 2.167,2.696 1.563,2.707 0.959,2.7 0.355,2.7 0.238,2.701 0.12,2.7 0,2.7 Z m -3.46,5.544 c 0.085,0.007 0.158,0.018 0.231,0.018 C -1.255,5.559 0.718,5.581 2.691,5.537 3.313,5.523 3.951,5.399 4.546,5.212 6.06,4.739 6.935,3.586 7.009,2.004 7.036,1.444 7.004,0.868 6.898,0.319 6.705,-0.687 6.117,-1.443 5.237,-1.968 5.165,-2.012 5.089,-2.052 5.016,-2.094 4.951,-2.131 4.886,-2.167 4.802,-2.215 5.629,-3.796 6.452,-5.37 7.302,-6.994 H 6.934 C 5.876,-6.994 4.819,-6.983 3.761,-7 3.479,-7.005 3.33,-6.928 3.206,-6.661 2.637,-5.439 2.037,-4.231 1.459,-3.013 1.373,-2.831 1.268,-2.76 1.071,-2.77 c -0.273,-0.013 -0.548,-0.014 -0.821,0 -0.215,0.012 -0.273,-0.073 -0.272,-0.28 0.008,-1.199 -0.003,-2.398 0.01,-3.597 0.003,-0.266 -0.064,-0.358 -0.343,-0.353 -0.935,0.017 -1.87,0.006 -2.805,0.006 h -0.3 z" /></g><g
           transform="translate(1848.0005,77.2896)"
           id="g632"><path
             id="path634"
             style="fill:#ffffff;fill-opacity:1;fill-rule:nonzero;stroke:none"
             d="m 0,0 c -0.573,-0.924 -1.132,-1.827 -1.675,-2.703 -0.554,0.273 -1.063,0.564 -1.601,0.782 -0.789,0.317 -1.618,0.44 -2.47,0.317 -0.435,-0.062 -0.677,-0.275 -0.712,-0.605 -0.034,-0.312 0.114,-0.524 0.383,-0.623 0.459,-0.169 0.93,-0.3 1.396,-0.451 0.93,-0.301 1.883,-0.55 2.784,-0.922 0.985,-0.406 1.706,-1.128 1.923,-2.219 0.321,-1.609 -0.048,-3.201 -1.377,-4.126 -0.698,-0.486 -1.488,-0.738 -2.318,-0.843 -2.282,-0.289 -4.433,0.118 -6.43,1.279 -0.08,0.047 -0.154,0.103 -0.254,0.17 0.563,0.91 1.117,1.807 1.687,2.73 0.101,-0.057 0.188,-0.106 0.274,-0.156 1.217,-0.693 2.491,-1.176 3.924,-1.07 0.178,0.013 0.358,0.036 0.531,0.078 0.31,0.075 0.525,0.253 0.56,0.593 0.032,0.317 -0.131,0.537 -0.398,0.654 -0.361,0.159 -0.734,0.296 -1.111,0.409 -0.902,0.272 -1.81,0.52 -2.713,0.788 -0.17,0.05 -0.33,0.138 -0.491,0.216 -1.468,0.719 -1.983,1.881 -1.87,3.517 0.124,1.787 1.37,3.067 3.292,3.463 2.234,0.461 4.374,0.154 6.345,-1.058 C -0.219,0.157 -0.123,0.084 0,0" /></g><g
           transform="translate(1821.5171,69.1856)"
           id="g636"><path
             id="path638"
             style="fill:#ffffff;fill-opacity:1;fill-rule:nonzero;stroke:none"
             d="m 0,0 c 0,0.122 -0.017,0.248 0.003,0.367 0.042,0.238 -0.071,0.361 -0.285,0.389 -0.417,0.056 -0.837,0.128 -1.256,0.128 -0.47,0.001 -0.733,-0.308 -0.79,-0.825 -0.058,-0.529 0.163,-0.938 0.581,-1.072 0.378,-0.121 0.748,-0.05 1.11,0.063 C -0.04,-0.763 0,-0.701 0,-0.085 Z m -0.006,2.601 c 0,0.212 0.016,0.411 -0.003,0.607 C -0.06,3.725 -0.38,4.02 -0.931,4.065 -1.862,4.142 -2.755,4.003 -3.596,3.578 c -0.1,-0.05 -0.202,-0.094 -0.335,-0.156 -0.283,0.715 -0.558,1.411 -0.837,2.117 0.037,0.031 0.06,0.063 0.09,0.077 1.716,0.78 3.507,1.038 5.356,0.665 1.464,-0.295 2.35,-1.384 2.385,-2.968 0.046,-2.124 0.013,-4.249 0.014,-6.375 0,-0.026 -0.013,-0.053 -0.024,-0.103 H 0.014 c -0.008,0.179 -0.015,0.353 -0.024,0.558 -0.106,-0.065 -0.192,-0.118 -0.277,-0.17 -1.005,-0.621 -2.076,-0.794 -3.199,-0.403 -1.059,0.369 -1.593,1.189 -1.781,2.258 -0.115,0.659 -0.109,1.32 0.12,1.957 0.409,1.136 1.291,1.675 2.43,1.857 0.872,0.138 1.731,0.073 2.56,-0.256 0.042,-0.017 0.089,-0.021 0.151,-0.035" /></g><g
           transform="translate(1829.7036,72.9908)"
           id="g640"><path
             id="path642"
             style="fill:#231f20;fill-opacity:1;fill-rule:nonzero;stroke:none"
             d="m 0,0 v 2.7 c 0.12,0 0.238,10e-4 0.355,0 0.604,0 1.208,0.007 1.812,-0.004 C 3.291,2.676 3.879,1.738 3.425,0.704 3.262,0.333 2.955,0.147 2.58,0.065 2.397,0.024 2.207,0.004 2.019,0.003 1.352,-0.004 0.684,0 0,0" /></g><g
           transform="translate(1821.5171,69.1856)"
           id="g644"><path
             id="path646"
             style="fill:#231f20;fill-opacity:1;fill-rule:nonzero;stroke:none"
             d="m 0,0 v -0.085 c 0,-0.616 -0.04,-0.678 -0.637,-0.865 -0.362,-0.113 -0.732,-0.184 -1.11,-0.063 -0.418,0.134 -0.639,0.543 -0.581,1.072 0.057,0.517 0.32,0.826 0.79,0.825 0.419,0 0.839,-0.072 1.256,-0.128 C -0.068,0.728 0.045,0.605 0.003,0.367 -0.017,0.248 0,0.122 0,0" /></g><path
           id="path648"
           style="fill:#ffffff;fill-opacity:1;fill-rule:nonzero;stroke:none"
           d="m 2024.582,73.303 h 104.196 V 54.838 h -104.196 z" /><g
           transform="translate(2026.5347,71.4405)"
           id="g650"><path
             id="path652"
             style="fill:#231f20;fill-opacity:1;fill-rule:nonzero;stroke:none"
             d="m 0,0 v -14.772 h 26.484 c 1.704,2.155 2.854,4.659 2.854,7.385 0,2.71 -1.129,5.241 -2.813,7.387 z" /></g><g
           transform="translate(2049.3711,64.0704)"
           id="g654"><path
             id="path656"
             style="fill:#231f20;fill-opacity:1;fill-rule:nonzero;stroke:none"
             d="m 0,0 c 0.002,-4.605 -3.945,-8.341 -8.818,-8.343 -4.871,-0.003 -8.825,3.727 -8.827,8.333 V 0 c -0.004,4.604 3.944,8.341 8.817,8.344 C -3.956,8.346 -0.003,4.615 0,0.009 Z" /></g><g
           transform="translate(2044.9131,65.0005)"
           id="g658"><path
             id="path660"
             style="fill:#ffffff;fill-opacity:1;fill-rule:nonzero;stroke:none"
             d="m 0,0 c -0.252,0.522 -0.624,0.782 -1.112,0.782 -0.91,0 -1.365,-0.568 -1.365,-1.702 0,-1.136 0.455,-1.702 1.365,-1.702 0.59,0 1.003,0.276 1.239,0.83 L 1.392,-2.415 C 0.802,-3.406 -0.08,-3.9 -1.257,-3.9 c -0.909,0 -1.634,0.264 -2.181,0.791 -0.546,0.526 -0.821,1.253 -0.821,2.179 0,0.909 0.279,1.632 0.832,2.166 0.556,0.536 1.261,0.803 2.12,0.803 1.244,0 2.136,-0.464 2.672,-1.392 z m -5.816,0 c -0.254,0.522 -0.632,0.782 -1.136,0.782 -0.892,0 -1.338,-0.568 -1.338,-1.702 0,-1.136 0.446,-1.702 1.338,-1.702 0.589,0 1.009,0.276 1.262,0.83 l 1.236,-0.623 C -5.042,-3.406 -5.927,-3.9 -7.106,-3.9 c -0.909,0 -1.639,0.264 -2.185,0.791 -0.548,0.526 -0.821,1.253 -0.821,2.179 0,0.909 0.282,1.632 0.846,2.166 0.564,0.536 1.268,0.803 2.11,0.803 1.246,0 2.137,-0.464 2.677,-1.392 z m -4.353,4.618 c -1.655,-1.579 -2.481,-3.43 -2.481,-5.551 0,-2.12 0.818,-3.955 2.456,-5.502 1.637,-1.547 3.585,-2.321 5.847,-2.321 2.261,0 4.226,0.782 5.897,2.344 1.587,1.453 2.379,3.278 2.379,5.479 0,2.184 -0.805,4.039 -2.417,5.562 -1.611,1.524 -3.566,2.285 -5.859,2.285 -2.295,0 -4.236,-0.765 -5.822,-2.296 M 2.808,5.861 C 4.763,4.012 5.743,1.748 5.743,-0.93 c 0,-2.678 -0.962,-4.92 -2.885,-6.721 -2.042,-1.897 -4.453,-2.847 -7.234,-2.847 -2.75,0 -5.121,0.942 -7.111,2.824 -1.99,1.88 -2.986,4.129 -2.986,6.744 0,2.614 0.996,4.879 2.986,6.791 1.941,1.851 4.311,2.775 7.111,2.775 2.833,0 5.228,-0.924 7.184,-2.775" /></g><g
           transform="translate(2107.9775,67.7632)"
           id="g662"><path
             id="path664"
             style="fill:#231f20;fill-opacity:1;fill-rule:nonzero;stroke:none"
             d="m 0,0 h 2.141 c 1.193,0 2.084,-0.082 2.666,-0.243 0.588,-0.158 1.09,-0.428 1.506,-0.811 0.37,-0.334 0.645,-0.717 0.822,-1.153 0.181,-0.435 0.271,-0.928 0.271,-1.48 0,-0.556 -0.09,-1.055 -0.271,-1.492 C 6.958,-5.615 6.683,-5.999 6.313,-6.333 5.893,-6.715 5.387,-6.988 4.797,-7.148 4.206,-7.307 3.321,-7.387 2.141,-7.387 H 0 V 0 m 2.03,-1.44 v -4.507 h 0.726 c 0.83,0 1.463,0.194 1.898,0.58 0.438,0.386 0.658,0.945 0.658,1.68 0,0.734 -0.217,1.292 -0.652,1.674 C 4.225,-1.63 3.59,-1.44 2.756,-1.44 H 2.03 M -9.042,0 h 2.265 l 2.861,-5.066 V 0 h 1.924 v -7.387 h -2.267 l -2.86,5.066 V -7.387 H -9.042 V 0 m -4.896,-3.751 h 3.311 V -5.19 h -3.311 z m -1.533,-3.229 c -0.375,-0.183 -0.762,-0.319 -1.166,-0.411 -0.404,-0.092 -0.826,-0.139 -1.263,-0.139 -1.312,0 -2.351,0.344 -3.117,1.029 -0.767,0.69 -1.149,1.624 -1.149,2.8 0,1.182 0.382,2.115 1.149,2.8 0.766,0.69 1.805,1.036 3.117,1.036 0.437,0 0.859,-0.048 1.263,-0.14 0.404,-0.093 0.791,-0.23 1.166,-0.411 v -1.529 c -0.378,0.241 -0.748,0.418 -1.113,0.53 -0.367,0.112 -0.751,0.169 -1.155,0.169 -0.723,0 -1.293,-0.218 -1.707,-0.653 -0.416,-0.437 -0.622,-1.037 -0.622,-1.802 0,-0.762 0.206,-1.36 0.622,-1.795 0.414,-0.435 0.984,-0.653 1.707,-0.653 0.404,0 0.788,0.056 1.155,0.169 0.365,0.111 0.735,0.289 1.113,0.527 V -6.98 M -30.755,0 h 2.265 l 2.862,-5.066 V 0 h 1.922 v -7.387 h -2.264 l -2.862,5.066 v -5.066 h -1.923 V 0 m -4.896,-3.751 h 3.309 V -5.19 h -3.309 z M -42.582,0 h 2.219 L -38.571,-2.632 -36.78,0 h 2.225 l -2.999,-4.274 v -3.113 h -2.03 v 3.113 L -42.582,0 m -1.192,-3.435 c 0.435,-0.117 0.772,-0.336 1.01,-0.658 0.24,-0.319 0.359,-0.711 0.359,-1.176 0,-0.711 -0.258,-1.243 -0.769,-1.592 -0.513,-0.351 -1.294,-0.526 -2.341,-0.526 h -3.367 V 0 h 3.046 c 1.092,0 1.883,-0.154 2.372,-0.465 0.492,-0.31 0.737,-0.806 0.737,-1.488 0,-0.36 -0.09,-0.668 -0.269,-0.922 -0.178,-0.25 -0.44,-0.437 -0.778,-0.56 m -1.888,-2.654 c 0.407,0 0.713,0.08 0.917,0.241 0.207,0.161 0.311,0.406 0.311,0.733 0,0.32 -0.103,0.559 -0.306,0.717 -0.203,0.162 -0.511,0.242 -0.922,0.242 h -1.191 v -1.933 h 1.191 m -0.069,3.23 c 0.32,0 0.563,0.066 0.728,0.196 0.164,0.133 0.246,0.327 0.246,0.586 0,0.253 -0.082,0.447 -0.246,0.577 -0.165,0.136 -0.408,0.205 -0.728,0.205 h -1.122 v -1.564 z" /></g><path
           id="path666"
           style="fill:none;stroke:#231f20;stroke-width:1;stroke-linecap:butt;stroke-linejoin:miter;stroke-miterlimit:10;stroke-dasharray:none;stroke-opacity:1"
           d="m 2026.535,71.456 h 100.288 V 56.685 h -100.288 z" /><path
           id="path668"
           style="fill:none;stroke:#231f20;stroke-width:1;stroke-linecap:butt;stroke-linejoin:miter;stroke-miterlimit:4;stroke-dasharray:none;stroke-opacity:1"
           d="m 2024.582,73.303 h 104.196 V 54.838 h -104.196 z" /><g
           transform="translate(1626.5873,72.5308)"
           id="g670"><path
             id="path672"
             style="fill:#231f20;fill-opacity:1;fill-rule:nonzero;stroke:none"
             d="m 0,0 c 0.329,0.183 0.805,0.293 1.171,0.33 0.878,-1.025 1.537,-1.794 2.672,-2.745 1.829,1.756 3.915,2.854 6.367,2.854 2.306,0 4.356,-0.768 5.526,-2.598 0.696,-1.135 0.879,-3.111 0.879,-4.831 0,-2.708 -0.073,-4.501 -0.073,-5.855 0,-1.647 -0.037,-3.075 0.11,-5.453 -0.696,-0.074 -1.428,-0.074 -2.123,-0.074 -0.696,0 -1.354,0 -2.123,0.074 -0.146,2.195 -0.146,4.135 -0.11,6.002 0,0.915 0.037,1.317 0.074,5.086 0,1.538 -0.22,2.892 -0.586,3.551 -0.695,1.207 -1.866,1.756 -3.221,1.756 -1.427,0 -3.001,-0.586 -4.318,-1.684 v -14.711 c -0.732,-0.074 -1.5,-0.074 -2.232,-0.074 -0.732,0 -1.428,0 -2.013,0.074 z m -22.068,7.686 c 1.464,0.987 1.94,1.354 3.147,2.305 0.293,-0.036 0.805,-0.183 1.098,-0.366 V -2.123 c 1.72,1.611 3.733,2.562 6.038,2.562 2.306,0 4.356,-0.768 5.527,-2.598 0.695,-1.135 0.878,-3.111 0.878,-4.831 0,-2.708 -0.073,-4.501 -0.073,-5.855 0,-1.647 -0.037,-3.075 0.109,-5.453 -0.695,-0.074 -1.427,-0.074 -2.122,-0.074 -0.695,0 -1.354,0 -2.123,0.074 -0.146,2.195 -0.146,4.135 -0.109,6.002 0,0.915 0.036,1.317 0.073,5.086 0,1.538 -0.22,2.892 -0.586,3.551 -0.695,1.207 -1.866,1.756 -3.22,1.756 -1.428,0 -3.001,-0.586 -4.319,-1.684 v -14.711 c -0.732,-0.074 -1.5,-0.074 -2.232,-0.074 -0.732,0 -1.427,0 -2.013,0.074 z m -12.59,-24.045 c 1.025,0.037 2.05,0.512 3.038,1.391 -0.073,0.915 -0.11,1.793 -0.11,2.781 0,0.952 0.037,2.16 0.073,3.367 -0.915,-0.512 -1.866,-0.988 -2.781,-1.464 -1.354,-0.695 -2.233,-1.061 -2.708,-1.83 -0.293,-0.439 -0.439,-0.988 -0.439,-1.683 0,-1.683 1.244,-2.598 2.927,-2.562 m -5.343,5.709 c 1.025,0.659 2.379,1.062 3.77,1.501 1.537,0.476 3.074,1.024 4.574,1.683 l 0.037,0.879 c 0.073,1.354 -0.219,2.415 -0.732,3.147 -0.695,0.988 -1.866,1.464 -2.964,1.464 -1.245,0 -2.489,-0.513 -4.063,-1.464 -0.366,0.256 -0.658,0.659 -0.768,0.951 2.122,1.977 4.538,2.892 6.661,2.892 1.829,0 3.549,-0.696 4.684,-2.05 0.952,-1.134 1.5,-2.781 1.427,-4.867 -0.073,-2.233 -0.146,-4.355 -0.146,-6.588 0,-1.463 0.036,-3.513 0.183,-5.196 -0.256,-0.147 -0.769,-0.293 -1.135,-0.293 -1.098,0.732 -1.866,1.464 -2.708,2.452 -1.647,-1.757 -3.842,-2.708 -5.892,-2.708 -2.781,0 -5.087,1.427 -5.087,4.318 0,1.537 0.842,3.038 2.159,3.879 M -74.768,0 c 0.366,0.22 0.732,0.293 1.171,0.33 0.805,-0.952 1.464,-1.684 2.452,-2.562 1.793,1.683 3.806,2.671 6.185,2.671 2.306,0 4.318,-0.805 5.526,-2.598 l 0.147,-0.22 c 1.793,1.757 3.879,2.818 6.331,2.818 2.305,0 4.355,-0.768 5.526,-2.598 0.696,-1.135 0.878,-3.111 0.878,-4.831 0,-2.708 -0.073,-4.501 -0.073,-5.855 0,-1.647 -0.036,-3.075 0.11,-5.453 -0.695,-0.074 -1.427,-0.074 -2.123,-0.074 -0.695,0 -1.354,0 -2.122,0.074 -0.147,2.195 -0.147,4.135 -0.11,6.002 0,0.915 0.037,1.317 0.073,4.72 0,1.538 -0.219,2.892 -0.585,3.55 -0.696,1.208 -1.867,1.757 -3.221,1.757 -1.427,0 -2.928,-0.293 -4.282,-1.39 0.256,-1.025 0.329,-2.197 0.329,-3.331 0,-2.708 -0.073,-4.501 -0.073,-5.855 0,-1.647 -0.036,-3.075 0.11,-5.453 -0.695,-0.074 -1.427,-0.074 -2.123,-0.074 -0.695,0 -1.354,0 -2.122,0.074 -0.147,2.195 -0.147,4.135 -0.11,6.002 0,0.915 0.037,1.683 0.073,4.72 0.037,1.538 -0.219,2.892 -0.585,3.55 -0.696,1.208 -1.867,1.757 -3.221,1.757 -1.281,0 -2.671,-0.476 -3.916,-1.39 v -14.639 c -0.732,-0.074 -1.5,-0.074 -2.232,-0.074 -0.732,0 -1.427,0 -2.013,0.074 z m -12.663,-16.359 c 1.025,0.037 2.05,0.512 3.038,1.391 -0.073,0.915 -0.11,1.793 -0.11,2.781 0,0.952 0.037,2.16 0.073,3.367 -0.914,-0.512 -1.866,-0.988 -2.781,-1.464 -1.354,-0.695 -2.232,-1.061 -2.708,-1.83 -0.293,-0.439 -0.439,-0.988 -0.439,-1.683 0,-1.683 1.244,-2.598 2.927,-2.562 m -5.343,5.709 c 1.025,0.659 2.379,1.062 3.77,1.501 1.537,0.476 3.074,1.024 4.574,1.683 l 0.037,0.879 c 0.073,1.354 -0.22,2.415 -0.732,3.147 -0.695,0.988 -1.866,1.464 -2.964,1.464 -1.245,0 -2.489,-0.513 -4.062,-1.464 -0.367,0.256 -0.659,0.659 -0.769,0.951 2.123,1.977 4.538,2.892 6.66,2.892 1.83,0 3.551,-0.696 4.685,-2.05 0.952,-1.134 1.501,-2.781 1.427,-4.867 -0.073,-2.233 -0.146,-4.355 -0.146,-6.588 0,-1.463 0.036,-3.513 0.183,-5.196 -0.256,-0.147 -0.769,-0.293 -1.134,-0.293 -1.099,0.732 -1.867,1.464 -2.709,2.452 -1.647,-1.757 -3.842,-2.708 -5.892,-2.708 -2.781,0 -5.087,1.427 -5.087,4.318 0,1.537 0.842,3.038 2.159,3.879 M -115.94,0 c 0.33,0.183 0.805,0.293 1.171,0.33 0.879,-1.025 1.538,-1.794 2.672,-2.745 1.83,1.756 3.916,2.854 6.368,2.854 2.305,0 4.355,-0.768 5.526,-2.598 0.696,-1.135 0.878,-3.111 0.878,-4.831 0,-2.708 -0.073,-4.501 -0.073,-5.855 0,-1.647 -0.036,-3.075 0.11,-5.453 -0.695,-0.074 -1.427,-0.074 -2.123,-0.074 -0.695,0 -1.354,0 -2.122,0.074 -0.147,2.195 -0.147,4.135 -0.11,6.002 0,0.915 0.037,1.317 0.073,5.086 0,1.538 -0.219,2.892 -0.585,3.551 -0.696,1.207 -1.867,1.756 -3.221,1.756 -1.427,0 -3.001,-0.586 -4.318,-1.684 v -14.711 c -0.732,-0.074 -1.501,-0.074 -2.233,-0.074 -0.732,0 -1.427,0 -2.013,0.074 z" /></g><g
           transform="translate(1896.7244,81.141)"
           id="g674"><path
             id="path676"
             style="fill:#231f20;fill-opacity:1;fill-rule:nonzero;stroke:none"
             d="m 0,0 c -0.685,-0.671 -1.748,-0.993 -2.811,-0.993 -1.203,0 -2.168,0.336 -2.84,0.951 -0.629,0.587 -1.063,1.441 -1.063,2.378 h 1.301 c 0,-0.588 0.294,-1.175 0.699,-1.567 0.448,-0.433 1.203,-0.615 1.903,-0.615 0.755,0 1.399,0.154 1.846,0.573 0.308,0.28 0.504,0.63 0.504,1.161 0,0.769 -0.49,1.413 -1.665,1.595 L -3.692,3.72 c -1.483,0.224 -2.644,1.049 -2.644,2.63 0,0.741 0.336,1.455 0.867,1.958 0.686,0.643 1.567,0.979 2.602,0.979 0.965,0 1.916,-0.322 2.573,-0.951 C 0.308,7.763 0.63,7.049 0.657,6.21 h -1.3 C -0.671,6.7 -0.853,7.133 -1.133,7.455 -1.51,7.888 -2.112,8.14 -2.881,8.14 -3.594,8.14 -4.21,7.944 -4.643,7.455 -4.895,7.161 -5.049,6.825 -5.049,6.378 c 0,-0.895 0.741,-1.301 1.482,-1.399 0.56,-0.07 1.105,-0.168 1.651,-0.251 C -0.266,4.49 0.839,3.483 0.839,1.916 0.839,1.091 0.49,0.475 0,0" /></g><g
           transform="translate(1904.1719,84.3579)"
           id="g678"><path
             id="path680"
             style="fill:#00adef;fill-opacity:1;fill-rule:nonzero;stroke:none"
             d="M 0,0 V -4.028 H -1.259 V 0 l -3.329,5.888 h 1.399 L -0.587,1.175 2,5.888 h 1.329 z" /></g><g
           transform="translate(1916.0276,81.141)"
           id="g682"><path
             id="path684"
             style="fill:#231f20;fill-opacity:1;fill-rule:nonzero;stroke:none"
             d="m 0,0 c -0.685,-0.671 -1.748,-0.993 -2.811,-0.993 -1.203,0 -2.168,0.336 -2.84,0.951 -0.629,0.587 -1.063,1.441 -1.063,2.378 h 1.301 c 0,-0.588 0.294,-1.175 0.7,-1.567 0.447,-0.433 1.203,-0.615 1.902,-0.615 0.755,0 1.399,0.154 1.846,0.573 0.308,0.28 0.504,0.63 0.504,1.161 0,0.769 -0.49,1.413 -1.665,1.595 L -3.692,3.72 c -1.483,0.224 -2.644,1.049 -2.644,2.63 0,0.741 0.336,1.455 0.867,1.958 0.686,0.643 1.567,0.979 2.602,0.979 0.965,0 1.916,-0.322 2.573,-0.951 C 0.308,7.763 0.63,7.049 0.657,6.21 h -1.3 C -0.671,6.7 -0.853,7.133 -1.133,7.455 -1.51,7.888 -2.112,8.14 -2.881,8.14 -3.594,8.14 -4.21,7.944 -4.643,7.455 -4.895,7.161 -5.049,6.825 -5.049,6.378 c 0,-0.895 0.741,-1.301 1.482,-1.399 0.56,-0.07 1.105,-0.168 1.651,-0.251 C -0.266,4.49 0.839,3.483 0.839,1.916 0.839,1.091 0.49,0.475 0,0" /></g><g
           transform="translate(1923.2062,89.0854)"
           id="g686"><path
             id="path688"
             style="fill:#231f20;fill-opacity:1;fill-rule:nonzero;stroke:none"
             d="M 0,0 V -8.756 H -1.259 V 0 H -4.21 V 1.161 H 2.951 L 2.951,0 Z" /></g><g
           transform="translate(1928.5753,80.3297)"
           id="g690"><path
             id="path692"
             style="fill:#231f20;fill-opacity:1;fill-rule:nonzero;stroke:none"
             d="M 0,0 V 9.917 H 6.63 V 8.77 H 1.245 V 5.748 H 5.972 V 4.574 H 1.245 V 1.147 H 6.63 V 0 Z" /></g><g
           transform="translate(1946.6918,80.3297)"
           id="g694"><path
             id="path696"
             style="fill:#231f20;fill-opacity:1;fill-rule:nonzero;stroke:none"
             d="M 0,0 V 8.364 L -3.077,0.14 H -4.056 L -7.133,8.434 V 0 h -1.189 v 9.917 h 1.79 l 2.993,-8.071 2.98,8.071 H 1.189 L 1.189,0 Z" /></g><path
           id="path698"
           style="fill:#231f20;fill-opacity:1;fill-rule:nonzero;stroke:none"
           d="m 1951.445,90.246 h 1.273 v -9.917 h -1.273 z" /><g
           transform="translate(1962.0922,81.197)"
           id="g700"><path
             id="path702"
             style="fill:#231f20;fill-opacity:1;fill-rule:nonzero;stroke:none"
             d="m 0,0 c -0.601,-0.601 -1.581,-1.063 -2.658,-1.063 -0.993,0 -1.972,0.364 -2.685,1.063 -1.077,1.049 -1.245,2.503 -1.245,4.084 0,1.581 0.168,3.035 1.245,4.084 0.713,0.699 1.692,1.063 2.685,1.063 1.077,0 2.043,-0.42 2.644,-1.021 C 0.559,7.623 0.923,6.867 0.965,5.944 h -1.287 c -0.014,0.546 -0.224,1.021 -0.545,1.385 -0.392,0.433 -1.035,0.727 -1.791,0.727 -0.671,0 -1.328,-0.265 -1.804,-0.755 -0.811,-0.839 -0.839,-2.182 -0.839,-3.217 0,-1.035 0.028,-2.378 0.839,-3.217 0.476,-0.489 1.133,-0.755 1.804,-0.755 0.756,0 1.413,0.322 1.805,0.755 0.321,0.364 0.531,0.881 0.545,1.427 H 0.979 C 0.937,1.371 0.573,0.587 0,0" /></g><g
           transform="translate(1895.3397,75.2026)"
           id="g704"><path
             id="path706"
             style="fill:#231f20;fill-opacity:1;fill-rule:nonzero;stroke:none"
             d="m 0,0 c -0.462,0.462 -1.119,0.686 -1.762,0.686 h -2.21 v -7.623 h 2.21 c 0.643,0 1.3,0.223 1.762,0.685 0.783,0.797 0.853,2.07 0.853,3.133 C 0.853,-2.056 0.783,-0.811 0,0 M 0.839,-7.091 C 0.14,-7.762 -0.797,-8.084 -1.762,-8.084 h -3.455 v 9.916 h 3.455 c 0.965,0 1.902,-0.335 2.601,-1.007 1.091,-1.035 1.273,-2.517 1.273,-3.944 0,-1.427 -0.196,-2.937 -1.273,-3.972" /></g><g
           transform="translate(1900.2277,67.1184)"
           id="g708"><path
             id="path710"
             style="fill:#00adef;fill-opacity:1;fill-rule:nonzero;stroke:none"
             d="M 0,0 V 9.917 H 6.63 V 8.77 H 1.245 V 5.748 H 5.972 V 4.574 H 1.245 V 1.147 H 6.63 V 0 Z" /></g><g
           transform="translate(1916.0276,67.9297)"
           id="g712"><path
             id="path714"
             style="fill:#231f20;fill-opacity:1;fill-rule:nonzero;stroke:none"
             d="m 0,0 c -0.685,-0.671 -1.748,-0.993 -2.811,-0.993 -1.203,0 -2.168,0.336 -2.84,0.951 -0.629,0.587 -1.063,1.441 -1.063,2.378 h 1.301 c 0,-0.588 0.294,-1.175 0.7,-1.567 0.447,-0.433 1.203,-0.615 1.902,-0.615 0.755,0 1.399,0.154 1.846,0.573 0.308,0.28 0.504,0.63 0.504,1.161 0,0.769 -0.49,1.413 -1.665,1.595 L -3.692,3.72 c -1.483,0.224 -2.644,1.049 -2.644,2.63 0,0.741 0.336,1.455 0.867,1.958 0.686,0.643 1.567,0.979 2.602,0.979 0.965,0 1.916,-0.322 2.573,-0.951 C 0.308,7.763 0.63,7.049 0.657,6.21 h -1.3 C -0.671,6.7 -0.853,7.133 -1.133,7.455 -1.51,7.888 -2.112,8.14 -2.881,8.14 -3.594,8.14 -4.21,7.944 -4.643,7.455 -4.895,7.161 -5.049,6.825 -5.049,6.378 c 0,-0.895 0.741,-1.301 1.482,-1.399 0.56,-0.07 1.105,-0.168 1.651,-0.251 C -0.266,4.49 0.839,3.483 0.839,1.916 0.839,1.091 0.49,0.475 0,0" /></g><path
           id="path716"
           style="fill:#231f20;fill-opacity:1;fill-rule:nonzero;stroke:none"
           d="m 1921.94,77.035 h 1.273 v -9.917 h -1.273 z" /><g
           transform="translate(1934.8903,67.1184)"
           id="g718"><path
             id="path720"
             style="fill:#231f20;fill-opacity:1;fill-rule:nonzero;stroke:none"
             d="m 0,0 -0.21,1.189 c -0.489,-0.811 -1.58,-1.385 -2.699,-1.385 -0.993,0 -1.958,0.322 -2.672,1.021 -1.007,0.979 -1.286,2.35 -1.286,4.126 0,1.581 0.209,3.035 1.286,4.084 0.714,0.7 1.679,1.063 2.672,1.063 1.119,0 2.154,-0.391 2.839,-1.119 0.476,-0.503 0.811,-1.133 0.853,-1.93 h -1.301 c -0.041,0.462 -0.195,0.784 -0.447,1.091 -0.448,0.532 -1.133,0.784 -1.944,0.784 -0.672,0 -1.329,-0.266 -1.804,-0.756 -0.812,-0.839 -0.868,-2.182 -0.868,-3.217 0,-0.993 0.07,-2.419 0.895,-3.259 0.476,-0.489 1.105,-0.713 1.777,-0.713 0.699,0 1.357,0.238 1.804,0.686 0.657,0.643 0.853,1.608 0.853,2.517 H -2.909 V 5.343 H 0.867 V 0 Z" /></g><g
           transform="translate(1944.4399,67.1184)"
           id="g722"><path
             id="path724"
             style="fill:#231f20;fill-opacity:1;fill-rule:nonzero;stroke:none"
             d="M 0,0 -4.867,7.972 V 0 H -6.07 v 9.917 h 1.398 L 0.196,1.916 V 9.917 H 1.399 L 1.399,0 Z" /></g><g
           transform="translate(1893.7521,62.5789)"
           id="g726"><path
             id="path728"
             style="fill:#231f20;fill-opacity:1;fill-rule:nonzero;stroke:none"
             d="m 0,0 -1.748,-5.147 h 3.51 z m 2.979,-8.672 -0.811,2.35 H -2.14 l -0.797,-2.35 h -1.259 l 3.497,9.917 h 1.454 l 3.511,-9.917 z" /></g><g
           transform="translate(1906.4797,54.7184)"
           id="g730"><path
             id="path732"
             style="fill:#00adef;fill-opacity:1;fill-rule:nonzero;stroke:none"
             d="m 0,0 c -0.685,-0.671 -1.748,-0.993 -2.811,-0.993 -1.203,0 -2.168,0.336 -2.84,0.951 -0.629,0.587 -1.063,1.441 -1.063,2.378 h 1.301 c 0,-0.588 0.294,-1.175 0.699,-1.567 0.448,-0.433 1.203,-0.615 1.903,-0.615 0.755,0 1.398,0.154 1.846,0.573 0.308,0.28 0.504,0.63 0.504,1.161 0,0.769 -0.49,1.413 -1.665,1.595 L -3.692,3.72 c -1.483,0.224 -2.644,1.049 -2.644,2.63 0,0.741 0.336,1.455 0.867,1.958 0.686,0.643 1.567,0.979 2.602,0.979 0.965,0 1.916,-0.322 2.573,-0.951 C 0.308,7.763 0.63,7.049 0.657,6.21 h -1.3 C -0.671,6.7 -0.853,7.133 -1.133,7.455 -1.51,7.888 -2.112,8.14 -2.881,8.14 -3.594,8.14 -4.21,7.944 -4.643,7.455 -4.895,7.161 -5.049,6.825 -5.049,6.378 c 0,-0.895 0.741,-1.301 1.482,-1.399 0.56,-0.07 1.105,-0.168 1.651,-0.251 C -0.266,4.49 0.839,3.483 0.839,1.916 0.839,1.091 0.49,0.475 0,0" /></g><g
           transform="translate(1916.0276,54.7184)"
           id="g734"><path
             id="path736"
             style="fill:#231f20;fill-opacity:1;fill-rule:nonzero;stroke:none"
             d="m 0,0 c -0.685,-0.671 -1.748,-0.993 -2.811,-0.993 -1.203,0 -2.168,0.336 -2.84,0.951 -0.629,0.587 -1.063,1.441 -1.063,2.378 h 1.301 c 0,-0.588 0.294,-1.175 0.7,-1.567 0.447,-0.433 1.203,-0.615 1.902,-0.615 0.755,0 1.399,0.154 1.846,0.573 0.308,0.28 0.504,0.63 0.504,1.161 0,0.769 -0.49,1.413 -1.665,1.595 L -3.692,3.72 c -1.483,0.224 -2.644,1.049 -2.644,2.63 0,0.741 0.336,1.455 0.867,1.958 0.686,0.643 1.567,0.979 2.602,0.979 0.965,0 1.916,-0.322 2.573,-0.951 C 0.308,7.763 0.63,7.049 0.657,6.21 h -1.3 C -0.671,6.7 -0.853,7.133 -1.133,7.455 -1.51,7.888 -2.112,8.14 -2.881,8.14 -3.594,8.14 -4.21,7.944 -4.643,7.455 -4.895,7.161 -5.049,6.825 -5.049,6.378 c 0,-0.895 0.741,-1.301 1.482,-1.399 0.56,-0.07 1.105,-0.168 1.651,-0.251 C -0.266,4.49 0.839,3.483 0.839,1.916 0.839,1.091 0.49,0.475 0,0" /></g><g
           transform="translate(1924.381,62.0754)"
           id="g738"><path
             id="path740"
             style="fill:#231f20;fill-opacity:1;fill-rule:nonzero;stroke:none"
             d="M 0,0 C -0.476,0.49 -1.133,0.741 -1.804,0.741 -2.476,0.741 -3.133,0.49 -3.609,0 -4.42,-0.839 -4.462,-2.182 -4.462,-3.217 c 0,-1.035 0.042,-2.378 0.853,-3.217 0.476,-0.489 1.133,-0.741 1.805,-0.741 0.671,0 1.328,0.252 1.804,0.741 0.811,0.839 0.853,2.182 0.853,3.217 C 0.853,-2.182 0.811,-0.839 0,0 M 0.867,-7.301 C 0.154,-8 -0.811,-8.364 -1.804,-8.364 c -0.993,0 -1.958,0.364 -2.672,1.063 -1.077,1.049 -1.273,2.503 -1.273,4.084 0,1.581 0.196,3.035 1.273,4.084 0.714,0.699 1.679,1.063 2.672,1.063 0.993,0 1.958,-0.364 2.671,-1.063 1.077,-1.049 1.273,-2.503 1.273,-4.084 0,-1.581 -0.196,-3.035 -1.273,-4.084" /></g><g
           transform="translate(1934.6946,54.7744)"
           id="g742"><path
             id="path744"
             style="fill:#231f20;fill-opacity:1;fill-rule:nonzero;stroke:none"
             d="m 0,0 c -0.601,-0.601 -1.581,-1.063 -2.658,-1.063 -0.993,0 -1.972,0.364 -2.685,1.063 -1.077,1.049 -1.245,2.503 -1.245,4.084 0,1.581 0.168,3.035 1.245,4.084 0.713,0.699 1.692,1.063 2.685,1.063 1.077,0 2.043,-0.42 2.644,-1.021 C 0.559,7.623 0.923,6.867 0.965,5.944 h -1.287 c -0.014,0.546 -0.223,1.021 -0.545,1.385 -0.392,0.433 -1.035,0.727 -1.791,0.727 -0.671,0 -1.328,-0.265 -1.804,-0.755 -0.811,-0.839 -0.839,-2.182 -0.839,-3.217 0,-1.035 0.028,-2.378 0.839,-3.217 0.476,-0.489 1.133,-0.755 1.804,-0.755 0.756,0 1.413,0.322 1.805,0.755 0.321,0.364 0.531,0.881 0.545,1.427 H 0.979 C 0.937,1.371 0.573,0.587 0,0" /></g><path
           id="path746"
           style="fill:#231f20;fill-opacity:1;fill-rule:nonzero;stroke:none"
           d="m 1938.37,63.824 h 1.273 v -9.917 h -1.273 z" /><g
           transform="translate(1946.2906,62.5789)"
           id="g748"><path
             id="path750"
             style="fill:#231f20;fill-opacity:1;fill-rule:nonzero;stroke:none"
             d="m 0,0 -1.748,-5.147 h 3.51 z m 2.979,-8.672 -0.811,2.35 H -2.14 l -0.797,-2.35 h -1.259 l 3.497,9.917 h 1.454 l 3.511,-9.917 z" /></g><g
           transform="translate(1954.5127,62.6628)"
           id="g752"><path
             id="path754"
             style="fill:#231f20;fill-opacity:1;fill-rule:nonzero;stroke:none"
             d="M 0,0 V -8.756 H -1.259 V 0 H -4.21 V 1.161 H 2.951 L 2.951,0 Z" /></g><path
           id="path756"
           style="fill:#231f20;fill-opacity:1;fill-rule:nonzero;stroke:none"
           d="m 1959.808,63.824 h 1.273 v -9.917 h -1.273 z" /><g
           transform="translate(1969.3345,62.0754)"
           id="g758"><path
             id="path760"
             style="fill:#231f20;fill-opacity:1;fill-rule:nonzero;stroke:none"
             d="M 0,0 C -0.476,0.49 -1.133,0.741 -1.804,0.741 -2.476,0.741 -3.133,0.49 -3.609,0 -4.42,-0.839 -4.462,-2.182 -4.462,-3.217 c 0,-1.035 0.042,-2.378 0.853,-3.217 0.476,-0.489 1.133,-0.741 1.805,-0.741 0.671,0 1.328,0.252 1.804,0.741 0.811,0.839 0.853,2.182 0.853,3.217 C 0.853,-2.182 0.811,-0.839 0,0 M 0.867,-7.301 C 0.154,-8 -0.811,-8.364 -1.804,-8.364 c -0.993,0 -1.958,0.364 -2.672,1.063 -1.077,1.049 -1.273,2.503 -1.273,4.084 0,1.581 0.196,3.035 1.273,4.084 0.714,0.699 1.679,1.063 2.672,1.063 0.993,0 1.958,-0.364 2.671,-1.063 1.077,-1.049 1.273,-2.503 1.273,-4.084 0,-1.581 -0.196,-3.035 -1.273,-4.084" /></g><g
           transform="translate(1979.9764,53.9071)"
           id="g762"><path
             id="path764"
             style="fill:#231f20;fill-opacity:1;fill-rule:nonzero;stroke:none"
             d="M 0,0 -4.867,7.972 V 0 H -6.07 v 9.917 h 1.398 L 0.196,1.916 V 9.917 H 1.399 L 1.399,0 Z" /></g></g></g></g></svg>