<?xml version="1.0" encoding="UTF-8" standalone="no"?>
<svg
   xmlns:dc="http://purl.org/dc/elements/1.1/"
   xmlns:cc="http://creativecommons.org/ns#"
   xmlns:rdf="http://www.w3.org/1999/02/22-rdf-syntax-ns#"
   xmlns:svg="http://www.w3.org/2000/svg"
   xmlns="http://www.w3.org/2000/svg"
   viewBox="0 0 3178.5867 4493.8535"
   height="4493.8535"
   width="3178.5867"
   xml:space="preserve"
   id="svg2"
   version="1.1"><metadata
     id="metadata8"><rdf:RDF><cc:Work
         rdf:about=""><dc:format>image/svg+xml</dc:format><dc:type
           rdf:resource="http://purl.org/dc/dcmitype/StillImage" /></cc:Work></rdf:RDF></metadata><defs
     id="defs6"><clipPath
       id="clipPath18"
       clipPathUnits="userSpaceOnUse"><path
         id="path16"
         d="M 0,3370.39 H 2383.94 V 0 H 0 Z" /></clipPath><clipPath
       id="clipPath26"
       clipPathUnits="userSpaceOnUse"><path
         id="path24"
         d="M 483.892,3177.46 H 1162.4 v -107.3 H 483.892 Z" /></clipPath><clipPath
       id="clipPath48"
       clipPathUnits="userSpaceOnUse"><path
         id="path46"
         d="M 0,3370.39 H 2383.94 V 0 H 0 Z" /></clipPath><clipPath
       id="clipPath140"
       clipPathUnits="userSpaceOnUse"><path
         id="path138"
         d="M 431.365,2260.31 H 1933.18 V 758.491 H 431.365 Z" /></clipPath><clipPath
       id="clipPath144"
       clipPathUnits="userSpaceOnUse"><path
         id="path142"
         d="M 431.365,2260.31 H 1933.18 V 758.491 H 431.365 Z" /></clipPath><clipPath
       id="clipPath168"
       clipPathUnits="userSpaceOnUse"><path
         id="path166"
         d="M 629.773,2094.09 H 1754.17 V 969.694 H 629.773 Z" /></clipPath><clipPath
       id="clipPath172"
       clipPathUnits="userSpaceOnUse"><path
         id="path170"
         d="M 629.773,2094.09 H 1754.17 V 969.694 H 629.773 Z" /></clipPath><clipPath
       id="clipPath196"
       clipPathUnits="userSpaceOnUse"><path
         id="path194"
         d="M 61.8824,2660.57 H 2322.06 V 400.474 H 61.8824 Z" /></clipPath><clipPath
       id="clipPath200"
       clipPathUnits="userSpaceOnUse"><path
         id="path198"
         d="M 61.8824,2660.57 H 2322.06 V 400.474 H 61.8824 Z" /></clipPath><clipPath
       id="clipPath224"
       clipPathUnits="userSpaceOnUse"><path
         id="path222"
         d="M 247.186,2445.16 H 2117.99 V 574.358 H 247.186 Z" /></clipPath><clipPath
       id="clipPath228"
       clipPathUnits="userSpaceOnUse"><path
         id="path226"
         d="M 247.186,2445.16 H 2117.99 V 574.358 H 247.186 Z" /></clipPath><clipPath
       id="clipPath252"
       clipPathUnits="userSpaceOnUse"><path
         id="path250"
         d="M 819.293,1904.57 H 1564.65 V 1159.21 H 819.293 Z" /></clipPath><clipPath
       id="clipPath256"
       clipPathUnits="userSpaceOnUse"><path
         id="path254"
         d="M 819.293,1904.57 H 1564.65 V 1159.21 H 819.293 Z" /></clipPath><clipPath
       id="clipPath280"
       clipPathUnits="userSpaceOnUse"><path
         id="path278"
         d="m 765.187,1862.08 h 96.599 V 1732.1 h -96.599 z" /></clipPath><clipPath
       id="clipPath284"
       clipPathUnits="userSpaceOnUse"><path
         id="path282"
         d="m 770.022,1860.89 h 90.602 v -126.64 h -90.602 z" /></clipPath><clipPath
       id="clipPath288"
       clipPathUnits="userSpaceOnUse"><path
         id="path286"
         d="m 765.187,1749.23 h 20.732 v -17.13 h -20.732 z" /></clipPath><clipPath
       id="clipPath292"
       clipPathUnits="userSpaceOnUse"><path
         id="path290"
         d="m 844.79,1862.08 h 16.996 v -17.02 H 844.79 Z" /></clipPath><clipPath
       id="clipPath340"
       clipPathUnits="userSpaceOnUse"><path
         id="path338"
         d="m 861.786,1201.71 h 129.979 v -96.6 H 861.786 Z" /></clipPath><clipPath
       id="clipPath344"
       clipPathUnits="userSpaceOnUse"><path
         id="path342"
         d="m 862.971,1200.55 h 126.637 v -90.61 H 862.971 Z" /></clipPath><clipPath
       id="clipPath348"
       clipPathUnits="userSpaceOnUse"><path
         id="path346"
         d="m 974.628,1125.84 h 17.137 v -20.73 h -17.137 z" /></clipPath><clipPath
       id="clipPath352"
       clipPathUnits="userSpaceOnUse"><path
         id="path350"
         d="m 861.786,1201.71 h 17.02 v -17 h -17.02 z" /></clipPath><clipPath
       id="clipPath400"
       clipPathUnits="userSpaceOnUse"><path
         id="path398"
         d="m 1517.31,1862.08 h 96.6 V 1732.1 h -96.6 z" /></clipPath><clipPath
       id="clipPath404"
       clipPathUnits="userSpaceOnUse"><path
         id="path402"
         d="m 1518.47,1860.89 h 90.6 v -126.64 h -90.6 z" /></clipPath><clipPath
       id="clipPath408"
       clipPathUnits="userSpaceOnUse"><path
         id="path406"
         d="m 1593.18,1749.23 h 20.73 v -17.13 h -20.73 z" /></clipPath><clipPath
       id="clipPath412"
       clipPathUnits="userSpaceOnUse"><path
         id="path410"
         d="m 1517.31,1862.08 h 17 v -17.02 h -17 z" /></clipPath><clipPath
       id="clipPath460"
       clipPathUnits="userSpaceOnUse"><path
         id="path458"
         d="m 1387.33,1201.7 h 129.98 v -96.59 h -129.98 z" /></clipPath><clipPath
       id="clipPath464"
       clipPathUnits="userSpaceOnUse"><path
         id="path462"
         d="m 1389.49,1200.55 h 126.64 v -90.61 h -126.64 z" /></clipPath><clipPath
       id="clipPath468"
       clipPathUnits="userSpaceOnUse"><path
         id="path466"
         d="m 1387.33,1125.84 h 17.14 v -20.73 h -17.14 z" /></clipPath><clipPath
       id="clipPath472"
       clipPathUnits="userSpaceOnUse"><path
         id="path470"
         d="m 1500.29,1201.7 h 17.02 v -16.99 h -17.02 z" /></clipPath><clipPath
       id="clipPath520"
       clipPathUnits="userSpaceOnUse"><path
         id="path518"
         d="M 995.336,1728.53 H 1388.6 V 1335.26 H 995.336 Z" /></clipPath><clipPath
       id="clipPath524"
       clipPathUnits="userSpaceOnUse"><path
         id="path522"
         d="M 997.462,1726.4 H 1386.48 V 1337.38 H 997.462 Z" /></clipPath><clipPath
       id="clipPath528"
       clipPathUnits="userSpaceOnUse"><path
         id="path526"
         d="M 995.336,1728.53 H 1388.6 V 1335.26 H 995.336 Z" /></clipPath><clipPath
       id="clipPath572"
       clipPathUnits="userSpaceOnUse"><path
         id="path570"
         d="M 0,3370.39 H 2383.94 V 0 H 0 Z" /></clipPath><clipPath
       id="clipPath782"
       clipPathUnits="userSpaceOnUse"><path
         id="path780"
         d="M 0,3370.39 H 2383.94 V 0 H 0 Z" /></clipPath><clipPath
       id="clipPath808"
       clipPathUnits="userSpaceOnUse"><path
         id="path806"
         d="M 0,3370.39 H 2383.94 V 0 H 0 Z" /></clipPath><clipPath
       id="clipPath824"
       clipPathUnits="userSpaceOnUse"><path
         id="path822"
         d="m 2186.67,100.347 h 40.63 V 59.719 h -40.63 z" /></clipPath><clipPath
       id="clipPath828"
       clipPathUnits="userSpaceOnUse"><path
         id="path826"
         d="m 2186.67,59.719 h 40.63 v 40.628 h -40.63 z" /></clipPath></defs><g
     transform="matrix(1.3333333,0,0,-1.3333333,0,4493.8533)"
     id="g10"><g
       id="g12"><g
         clip-path="url(#clipPath18)"
         id="g14"><g
           id="g20"><g
             id="g22" /><g
             id="g30"><g
               style="opacity:0.5"
               id="g28"
               clip-path="url(#clipPath26)" /></g></g></g></g><text
       id="text36"
       style="font-variant:normal;font-weight:bold;font-stretch:normal;font-size:92.20210266px;font-family:'Akkurat Pro';-inkscape-font-specification:AkkuratPro-Bold;writing-mode:lr-tb;fill:#231f20;fill-opacity:1;fill-rule:nonzero;stroke:none"
       transform="matrix(1,0,0,-1,501.7466,3134.6709)"><tspan
         id="tspan32"
         y="0"
         x="0 62.881832 129.45175 191.96477 223.95891 287.48615 342.8074">SOCIAL </tspan><tspan
         id="tspan34"
         y="110.64252"
         x="0 62.513023 125.02605 191.59596 254.4778 316.62201 379.50385 435.83932 498.35236 583.91589">ECOSYSTEM </tspan></text>
<text
       id="text40"
       style="font-variant:normal;font-weight:300;font-stretch:normal;font-size:63.08570099px;font-family:'Akkurat Light Pro';-inkscape-font-specification:AkkuratLightPro-Regular;writing-mode:lr-tb;fill:#231f20;fill-opacity:1;fill-rule:nonzero;stroke:none"
       transform="matrix(1,0,0,-1,503.5576,2941.3516)"><tspan
         id="tspan38"
         y="0"
         x="0 43.718391 80.497353 117.3394 151.34259 175.37825 207.67813 231.01984 266.41092 303.18988 340.03192 356.4342 393.21317 426.83786 440.40128 463.74298 500.52194 534.52515 548.08856 587.32788 617.5459 649.84583 673.1875 707.19067">Understanding the System</tspan></text>
<g
       id="g42"><g
         clip-path="url(#clipPath48)"
         id="g44"><g
           transform="translate(1740.7992,3269.7302)"
           id="g50"><path
             id="path52"
             style="fill:none;stroke:#15141b;stroke-width:2.5;stroke-linecap:butt;stroke-linejoin:miter;stroke-miterlimit:10;stroke-dasharray:none;stroke-opacity:1"
             d="M 0,0 C -12.423,12.423 -32.565,12.423 -44.988,0 -57.41,-12.423 -57.41,-32.564 -44.987,-44.988 -32.564,-57.41 -12.423,-57.41 0,-44.988 12.423,-32.565 12.423,-12.423 0,0" /></g><g
           transform="translate(1848.377,3269.7302)"
           id="g54"><path
             id="path56"
             style="fill:none;stroke:#4d48a6;stroke-width:2.5;stroke-linecap:butt;stroke-linejoin:miter;stroke-miterlimit:10;stroke-dasharray:none;stroke-opacity:1"
             d="M 0,0 C -12.423,12.423 -32.565,12.423 -44.988,0 -57.41,-12.423 -57.41,-32.564 -44.987,-44.988 -32.564,-57.41 -12.423,-57.41 0,-44.988 12.423,-32.565 12.423,-12.423 0,0" /></g><g
           transform="translate(2017.1093,3224.856)"
           id="g58"><path
             id="path60"
             style="fill:none;stroke:#15141b;stroke-width:2.5;stroke-linecap:butt;stroke-linejoin:miter;stroke-miterlimit:10;stroke-dasharray:none;stroke-opacity:1"
             d="M 0,0 C 12.423,-12.423 32.565,-12.423 44.988,0 57.411,12.423 57.411,32.564 44.987,44.988 32.565,57.41 12.423,57.41 0,44.988 -12.423,32.565 -12.423,12.423 0,0" /></g><g
           transform="translate(2168.9648,3269.7302)"
           id="g62"><path
             id="path64"
             style="fill:none;stroke:#15141b;stroke-width:2.5;stroke-linecap:butt;stroke-linejoin:miter;stroke-miterlimit:10;stroke-dasharray:none;stroke-opacity:1"
             d="M 0,0 C -12.423,12.423 -32.564,12.423 -44.988,0 -57.41,-12.423 -57.41,-32.564 -44.987,-44.988 -32.564,-57.41 -12.423,-57.41 0,-44.988 12.423,-32.565 12.423,-12.423 0,0" /></g><g
           transform="translate(2277.2578,3269.7302)"
           id="g66"><path
             id="path68"
             style="fill:none;stroke:#15141b;stroke-width:2.5;stroke-linecap:butt;stroke-linejoin:miter;stroke-miterlimit:10;stroke-dasharray:none;stroke-opacity:1"
             d="m 0,0 c -12.423,12.423 -32.565,12.423 -44.988,0 -12.423,-12.423 -12.423,-32.564 0,-44.988 12.424,-12.422 32.565,-12.422 44.988,0 C 12.423,-32.565 12.423,-12.423 0,0" /></g><g
           transform="translate(1955.4183,3269.7302)"
           id="g70"><path
             id="path72"
             style="fill:none;stroke:#15141b;stroke-width:2.5;stroke-linecap:butt;stroke-linejoin:miter;stroke-miterlimit:10;stroke-dasharray:none;stroke-opacity:1"
             d="M 0,0 C -12.423,12.423 -32.565,12.423 -44.988,0 -57.41,-12.423 -57.41,-32.564 -44.987,-44.988 -32.564,-57.41 -12.423,-57.41 0,-44.988 12.423,-32.565 12.423,-12.423 0,0" /></g><g
           transform="translate(1603.8372,3279.5215)"
           id="g74"><path
             id="path76"
             style="fill:none;stroke:#15141b;stroke-width:2.5;stroke-linecap:butt;stroke-linejoin:miter;stroke-miterlimit:10;stroke-dasharray:none;stroke-opacity:1"
             d="m 0,0 c -6.507,-1.091 -12.749,-4.147 -17.769,-9.168 -12.831,-12.83 -12.831,-33.633 0,-46.463 12.83,-12.831 33.633,-12.831 46.463,0 5.038,5.038 8.097,11.306 9.179,17.837 H 0 Z" /></g><g
           transform="translate(1603.8372,3279.5215)"
           id="g78"><path
             id="path80"
             style="fill:none;stroke:#15141b;stroke-width:2.5;stroke-linecap:butt;stroke-linejoin:miter;stroke-miterlimit:10;stroke-dasharray:none;stroke-opacity:1"
             d="m 0,0 c 10.121,1.698 20.884,-1.358 28.694,-9.168 7.792,-7.792 10.851,-18.524 9.179,-28.626 h 9.386 V 9.465 L 0,9.465 Z" /></g><g
           transform="translate(1632.5313,3270.3538)"
           id="g82"><path
             id="path84"
             style="fill:none;stroke:#15141b;stroke-width:2.5;stroke-linecap:butt;stroke-linejoin:miter;stroke-miterlimit:10;stroke-dasharray:none;stroke-opacity:1"
             d="M 0,0 C -7.81,7.81 -18.573,10.865 -28.694,9.168 V -28.626 H 9.178 C 10.851,-18.525 7.792,-7.792 0,0 Z" /></g><g
           transform="translate(1632.5313,3270.3538)"
           id="g86"><path
             id="path88"
             style="fill:none;stroke:#15141b;stroke-width:2.5;stroke-linecap:butt;stroke-linejoin:miter;stroke-miterlimit:10;stroke-dasharray:none;stroke-opacity:1"
             d="M 0,0 C -7.81,7.81 -18.573,10.865 -28.694,9.168 V -28.626 H 9.178 C 10.851,-18.525 7.792,-7.792 0,0 Z" /></g><g
           transform="translate(1691.9762,3287.8083)"
           id="g90"><path
             id="path92"
             style="fill:none;stroke:#15141b;stroke-width:2.5;stroke-linecap:butt;stroke-linejoin:miter;stroke-miterlimit:10;stroke-dasharray:none;stroke-opacity:1"
             d="M 0,0 8.167,-14.516 26.407,-46.936 44.595,-14.61 52.815,0 Z" /></g><g
           transform="translate(1866.3711,3264.1367)"
           id="g94"><path
             id="path96"
             style="fill:none;stroke:#4d48a6;stroke-width:2.5;stroke-linecap:butt;stroke-linejoin:miter;stroke-miterlimit:10;stroke-dasharray:none;stroke-opacity:1"
             d="M 0,0 C 0,13.097 -10.617,23.715 -23.715,23.715 -36.812,23.715 -47.43,13.097 -47.43,0 c 0,-13.097 10.618,-23.715 23.715,-23.715 C -10.617,-23.715 0,-13.097 0,0 Z" /></g><g
           transform="translate(1969.59,3283.9626)"
           id="g98"><path
             id="path100"
             style="fill:none;stroke:#15141b;stroke-width:2.5;stroke-linecap:butt;stroke-linejoin:miter;stroke-miterlimit:10;stroke-dasharray:none;stroke-opacity:1"
             d="m 0,0 c -5.18,5.18 -13.579,5.18 -18.76,0 -0.663,-0.663 -1.24,-1.379 -1.733,-2.134 l -3.396,-5.357 -28.39,-44.791 44.832,28.426 5.505,3.491 c 0.684,0.464 1.335,0.999 1.942,1.605 5.18,5.181 5.18,13.58 0,18.76 z" /></g><g
           transform="translate(2027.6193,3225.4468)"
           id="g102"><path
             id="path104"
             style="fill:none;stroke:#15141b;stroke-width:2.5;stroke-linecap:butt;stroke-linejoin:miter;stroke-miterlimit:10;stroke-dasharray:none;stroke-opacity:1"
             d="M 0,0 38.858,38.858 52.355,52.355 42.25,62.459 28.799,49.008 -10.105,10.104 Z" /></g><g
           transform="translate(2146.3611,3287.3979)"
           id="g106"><path
             id="path108"
             style="fill:none;stroke:#15141b;stroke-width:2.5;stroke-linecap:butt;stroke-linejoin:miter;stroke-miterlimit:10;stroke-dasharray:none;stroke-opacity:1"
             d="M 0,0 C -0.003,0 -0.006,0 -0.009,0 V -40.472 H 40.52 C 40.493,-18.115 22.363,0 0,0 Z" /></g><g
           transform="translate(2239.6875,3239.9558)"
           id="g110"><path
             id="path112"
             style="fill:none;stroke:#15141b;stroke-width:2.5;stroke-linecap:butt;stroke-linejoin:miter;stroke-miterlimit:10;stroke-dasharray:none;stroke-opacity:1"
             d="m 0,0 c -0.046,0 -0.092,0 -0.138,0 l 0.063,14.12 c 3.377,-0.014 6.558,0.984 9.724,3.053 3.542,2.315 6.49,5.182 8.764,8.52 l 4.369,6.412 c 1.755,2.576 4.693,6.888 10.111,10.201 5.782,3.536 13.138,5.269 22.488,5.298 l 0.043,-14.12 c -6.597,-0.02 -11.7,-1.105 -15.165,-3.224 -2.618,-1.6 -4.118,-3.625 -5.808,-6.105 L 30.083,17.743 C 26.756,12.86 22.481,8.692 17.374,5.354 11.938,1.801 6.094,0 0,0 Z" /></g><g
           transform="translate(327.4178,3160.7407)"
           id="g114"><path
             id="path116"
             style="fill:none;stroke:#4d48a6;stroke-width:11.4289999;stroke-linecap:butt;stroke-linejoin:miter;stroke-miterlimit:10;stroke-dasharray:none;stroke-opacity:1"
             d="m 0,0 c -56.79,56.79 -148.867,56.79 -205.657,0 -56.79,-56.79 -56.79,-148.866 0.001,-205.657 56.79,-56.79 148.866,-56.79 205.656,0 C 56.791,-148.867 56.791,-56.79 0,0" /></g><g
           transform="translate(409.6768,3135.1707)"
           id="g118"><path
             id="path120"
             style="fill:none;stroke:#4d48a6;stroke-width:11.4289999;stroke-linecap:butt;stroke-linejoin:miter;stroke-miterlimit:10;stroke-dasharray:none;stroke-opacity:1"
             d="m 0,0 c 0,59.874 -48.537,108.411 -108.411,108.411 -59.874,0 -108.411,-48.537 -108.411,-108.411 0,-59.874 48.537,-108.411 108.411,-108.411 C -48.537,-108.411 0,-59.874 0,0 Z" /></g><g
           transform="translate(1191.9636,1346.6038)"
           id="g122"><path
             id="path124"
             style="fill:#00adef;fill-opacity:1;fill-rule:nonzero;stroke:none"
             d="M 0,0 0.013,0.007 0,0.015 C 0,0.012 0,0.01 0,0.007 0,0.005 0,0.002 0,0" /></g><g
           transform="translate(1191.9636,1346.6038)"
           id="g126"><path
             id="path128"
             style="fill:none;stroke:#15141b;stroke-width:1;stroke-linecap:butt;stroke-linejoin:miter;stroke-miterlimit:10;stroke-dasharray:none;stroke-opacity:1"
             d="M 0,0 0.013,0.007 0,0.015 C 0,0.012 0,0.01 0,0.007 0,0.005 0,0.002 0,0 Z" /></g><g
           transform="translate(1186.916,2883.8708)"
           id="g130"><path
             id="path132"
             style="fill:#00adef;fill-opacity:1;fill-rule:nonzero;stroke:none"
             d="M 0,0 -0.007,0.013 -0.015,0 c 0.003,0 0.005,0 0.008,0 0.002,0 0.005,0 0.007,0" /></g><g
           id="g134"><g
             id="g136" /><g
             id="g160"><g
               id="g158"
               clip-path="url(#clipPath140)"><g
                 id="g156"><g
                   id="g146" /><g
                   id="g154"><g
                     id="g152"
                     clip-path="url(#clipPath144)"><g
                       id="g150"
                       transform="translate(1929.5776,1509.4298)"><path
                         id="path148"
                         style="fill:none;stroke:#15141b;stroke-width:7.08699989;stroke-linecap:butt;stroke-linejoin:miter;stroke-miterlimit:10;stroke-dasharray:none;stroke-opacity:1"
                         d="m 0,0 c 5.306,-407.475 -329.182,-741.963 -747.335,-747.335 -412.707,-5.301 -747.334,334.594 -747.334,747.335 0,412.742 334.593,747.335 747.334,747.335 C -334.593,747.335 -5.374,412.707 0,0 Z" /></g></g></g></g></g></g></g><g
           id="g162"><g
             id="g164" /><g
             id="g188"><g
               id="g186"
               clip-path="url(#clipPath168)"><g
                 id="g184"><g
                   id="g174" /><g
                   id="g182"><g
                     id="g180"
                     clip-path="url(#clipPath172)"><g
                       id="g178"
                       transform="translate(795.9397,1927.9215)"><path
                         id="path176"
                         style="fill:none;stroke:#15141b;stroke-width:4.25199986;stroke-linecap:butt;stroke-linejoin:miter;stroke-miterlimit:10;stroke-dasharray:none;stroke-opacity:1"
                         d="m 0,0 c 218.721,218.722 573.339,218.722 792.061,0 218.721,-218.721 218.721,-573.339 0,-792.061 -218.722,-218.721 -573.34,-218.721 -792.061,0 C -218.721,-573.339 -218.721,-218.721 0,0 Z" /></g></g></g></g></g></g></g><g
           id="g190"><g
             id="g192" /><g
             id="g216"><g
               id="g214"
               clip-path="url(#clipPath196)"><g
                 id="g212"><g
                   id="g202" /><g
                   id="g210"><g
                     id="g208"
                     clip-path="url(#clipPath200)"><g
                       id="g206"
                       transform="translate(1988.5299,2329.2305)"><path
                         id="path204"
                         style="fill:none;stroke:#15141b;stroke-width:7.08699989;stroke-linecap:butt;stroke-linejoin:miter;stroke-miterlimit:10;stroke-dasharray:none;stroke-opacity:1"
                         d="m 0,0 c 439.979,-428.668 439.98,-1141.722 0,-1593.152 -434.25,-445.551 -1153.215,-439.936 -1593.152,0 -439.936,439.937 -439.936,1153.215 0,1593.152 C -1153.215,439.937 -445.627,434.172 0,0 Z" /></g></g></g></g></g></g></g><g
           id="g218"><g
             id="g220" /><g
             id="g244"><g
               id="g242"
               clip-path="url(#clipPath224)"><g
                 id="g240"><g
                   id="g230" /><g
                   id="g238"><g
                     id="g236"
                     clip-path="url(#clipPath228)"><g
                       id="g234"
                       transform="translate(1182.5867,2443.0334)"><path
                         id="path232"
                         style="fill:none;stroke:#15141b;stroke-width:4.25199986;stroke-linecap:butt;stroke-linejoin:miter;stroke-miterlimit:10;stroke-dasharray:none;stroke-opacity:1"
                         d="m 0,0 c 515.433,0 933.275,-417.841 933.275,-933.275 0,-515.433 -417.842,-933.275 -933.275,-933.275 -515.434,0 -933.275,417.842 -933.275,933.275 C -933.275,-417.841 -515.434,0 0,0 Z" /></g></g></g></g></g></g></g><g
           id="g246"><g
             id="g248" /><g
             id="g272"><g
               id="g270"
               clip-path="url(#clipPath252)"><g
                 id="g268"><g
                   id="g258" /><g
                   id="g266"><g
                     id="g264"
                     clip-path="url(#clipPath256)"><g
                       id="g262"
                       transform="translate(930.9532,1792.9081)"><path
                         id="path260"
                         style="fill:none;stroke:#15141b;stroke-width:7.08699989;stroke-linecap:butt;stroke-linejoin:miter;stroke-miterlimit:10;stroke-dasharray:none;stroke-opacity:1"
                         d="m 0,0 c 144.156,144.156 377.878,144.156 522.034,0 144.155,-144.156 144.155,-377.878 0,-522.034 C 377.878,-666.189 144.156,-666.189 0,-522.034 -144.156,-377.878 -144.156,-144.156 0,0 Z" /></g></g></g></g></g></g></g><g
           id="g274"><g
             id="g276" /><g
             id="g332"><g
               id="g330"
               clip-path="url(#clipPath280)"><g
                 id="g304"><g
                   id="g294" /><g
                   id="g302"><g
                     id="g300"
                     clip-path="url(#clipPath284)"><g
                       id="g298"
                       transform="translate(771.2981,1734.8689)"><path
                         id="path296"
                         style="fill:none;stroke:#15141b;stroke-width:2.83500004;stroke-linecap:butt;stroke-linejoin:miter;stroke-miterlimit:10;stroke-dasharray:none;stroke-opacity:1"
                         d="M 0,0 C 21.764,45.102 51.203,87.429 88.317,125.026" /></g></g></g></g><g
                 id="g316"><g
                   id="g306" /><g
                   id="g314"><g
                     id="g312"
                     clip-path="url(#clipPath288)"><g
                       id="g310"
                       transform="translate(785.9191,1738.0566)"><path
                         id="path308"
                         style="fill:#15141b;fill-opacity:1;fill-rule:nonzero;stroke:none"
                         d="m 0,0 -0.991,2.658 -13.091,-4.897 -3.928,13.416 -2.722,-0.8 4.787,-16.338 z" /></g></g></g></g><g
                 id="g328"><g
                   id="g318" /><g
                   id="g326"><g
                     id="g324"
                     clip-path="url(#clipPath292)"><g
                       id="g322"
                       transform="translate(861.5333,1845.0552)"><path
                         id="path320"
                         style="fill:#15141b;fill-opacity:1;fill-rule:nonzero;stroke:none"
                         d="m 0,0 -2.837,0.04 0.211,13.975 -13.955,-0.812 -0.162,2.833 16.995,0.984 z" /></g></g></g></g></g></g></g><g
           id="g334"><g
             id="g336" /><g
             id="g392"><g
               id="g390"
               clip-path="url(#clipPath340)"><g
                 id="g364"><g
                   id="g354" /><g
                   id="g362"><g
                     id="g360"
                     clip-path="url(#clipPath344)"><g
                       id="g358"
                       transform="translate(988.9923,1111.2195)"><path
                         id="path356"
                         style="fill:none;stroke:#15141b;stroke-width:2.83500004;stroke-linecap:butt;stroke-linejoin:miter;stroke-miterlimit:10;stroke-dasharray:none;stroke-opacity:1"
                         d="M 0,0 C -45.102,21.763 -87.429,51.203 -125.026,88.317" /></g></g></g></g><g
                 id="g376"><g
                   id="g366" /><g
                   id="g374"><g
                     id="g372"
                     clip-path="url(#clipPath348)"><g
                       id="g370"
                       transform="translate(985.8046,1125.8405)"><path
                         id="path368"
                         style="fill:#15141b;fill-opacity:1;fill-rule:nonzero;stroke:none"
                         d="m 0,0 -2.658,-0.991 4.897,-13.091 -13.416,-3.928 0.8,-2.722 16.338,4.787 z" /></g></g></g></g><g
                 id="g388"><g
                   id="g378" /><g
                   id="g386"><g
                     id="g384"
                     clip-path="url(#clipPath352)"><g
                       id="g382"
                       transform="translate(878.806,1201.4547)"><path
                         id="path380"
                         style="fill:#15141b;fill-opacity:1;fill-rule:nonzero;stroke:none"
                         d="m 0,0 -0.04,-2.837 -13.975,0.211 0.812,-13.955 -2.833,-0.162 -0.984,16.995 z" /></g></g></g></g></g></g></g><g
           id="g394"><g
             id="g396" /><g
             id="g452"><g
               id="g450"
               clip-path="url(#clipPath400)"><g
                 id="g424"><g
                   id="g414" /><g
                   id="g422"><g
                     id="g420"
                     clip-path="url(#clipPath404)"><g
                       id="g418"
                       transform="translate(1607.7985,1734.8689)"><path
                         id="path416"
                         style="fill:none;stroke:#15141b;stroke-width:2.83500004;stroke-linecap:butt;stroke-linejoin:miter;stroke-miterlimit:10;stroke-dasharray:none;stroke-opacity:1"
                         d="M 0,0 C -21.763,45.102 -51.202,87.429 -88.317,125.026" /></g></g></g></g><g
                 id="g436"><g
                   id="g426" /><g
                   id="g434"><g
                     id="g432"
                     clip-path="url(#clipPath408)"><g
                       id="g430"
                       transform="translate(1613.912,1748.4344)"><path
                         id="path428"
                         style="fill:#15141b;fill-opacity:1;fill-rule:nonzero;stroke:none"
                         d="m 0,0 -2.722,0.8 -3.926,-13.414 -13.093,4.896 -0.991,-2.659 15.947,-5.959 z" /></g></g></g></g><g
                 id="g448"><g
                   id="g438" /><g
                   id="g446"><g
                     id="g444"
                     clip-path="url(#clipPath412)"><g
                       id="g442"
                       transform="translate(1534.3087,1861.0929)"><path
                         id="path440"
                         style="fill:#15141b;fill-opacity:1;fill-rule:nonzero;stroke:none"
                         d="m 0,0 -0.162,-2.833 -13.953,0.814 0.209,-13.977 -2.837,-0.04 -0.251,17.022 z" /></g></g></g></g></g></g></g><g
           id="g454"><g
             id="g456" /><g
             id="g512"><g
               id="g510"
               clip-path="url(#clipPath460)"><g
                 id="g484"><g
                   id="g474" /><g
                   id="g482"><g
                     id="g480"
                     clip-path="url(#clipPath464)"><g
                       id="g478"
                       transform="translate(1390.1044,1111.2195)"><path
                         id="path476"
                         style="fill:none;stroke:#15141b;stroke-width:2.83500004;stroke-linecap:butt;stroke-linejoin:miter;stroke-miterlimit:10;stroke-dasharray:none;stroke-opacity:1"
                         d="M 0,0 C 45.102,21.763 87.429,51.203 125.026,88.317" /></g></g></g></g><g
                 id="g496"><g
                   id="g486" /><g
                   id="g494"><g
                     id="g492"
                     clip-path="url(#clipPath468)"><g
                       id="g490"
                       transform="translate(1403.67,1105.1061)"><path
                         id="path488"
                         style="fill:#15141b;fill-opacity:1;fill-rule:nonzero;stroke:none"
                         d="m 0,0 0.8,2.722 -13.414,3.926 4.896,13.093 -2.659,0.991 -5.959,-15.947 z" /></g></g></g></g><g
                 id="g508"><g
                   id="g498" /><g
                   id="g506"><g
                     id="g504"
                     clip-path="url(#clipPath472)"><g
                       id="g502"
                       transform="translate(1516.3282,1184.7094)"><path
                         id="path500"
                         style="fill:#15141b;fill-opacity:1;fill-rule:nonzero;stroke:none"
                         d="m 0,0 -2.833,0.162 0.814,13.953 -13.977,-0.209 -0.04,2.837 17.023,0.251 z" /></g></g></g></g></g></g></g><g
           id="g514"><g
             id="g516" /><g
             id="g556"><g
               id="g554"
               clip-path="url(#clipPath520)"><g
                 id="g540"><g
                   id="g530" /><g
                   id="g538"><g
                     id="g536"
                     clip-path="url(#clipPath524)"><g
                       id="g534"
                       transform="translate(1054.4319,1669.4293)"><path
                         id="path532"
                         style="fill:#ffffff;fill-opacity:1;fill-rule:nonzero;stroke:none"
                         d="m 0,0 c 75.96,75.96 199.116,75.96 275.076,0 75.96,-75.96 75.96,-199.116 0,-275.076 -75.96,-75.96 -199.116,-75.96 -275.076,0 C -75.96,-199.116 -75.96,-75.96 0,0" /></g></g></g></g><g
                 id="g552"><g
                   id="g542" /><g
                   id="g550"><g
                     id="g548"
                     clip-path="url(#clipPath528)"><g
                       id="g546"
                       transform="translate(1054.4319,1669.4293)"><path
                         id="path544"
                         style="fill:none;stroke:#15141b;stroke-width:4.25199986;stroke-linecap:butt;stroke-linejoin:miter;stroke-miterlimit:10;stroke-dasharray:none;stroke-opacity:1"
                         d="m 0,0 c 75.96,75.96 199.116,75.96 275.076,0 75.96,-75.96 75.96,-199.116 0,-275.076 -75.96,-75.96 -199.116,-75.96 -275.076,0 C -75.96,-199.116 -75.96,-75.96 0,0 Z" /></g></g></g></g></g></g></g></g></g><text
       id="text560"
       style="font-variant:normal;font-weight:normal;font-stretch:normal;font-size:36px;font-family:'Akkurat Pro';-inkscape-font-specification:AkkuratPro-Regular;writing-mode:lr-tb;fill:#231f20;fill-opacity:1;fill-rule:nonzero;stroke:none"
       transform="matrix(1,0,0,-1,1121.1782,1547.4023)"><tspan
         id="tspan558"
         y="0"
         x="0 22.823999 45.324001 71.748001 91.115997 114.948">CENTRE</tspan></text>
<text
       id="text564"
       style="font-variant:normal;font-weight:normal;font-stretch:normal;font-size:30px;font-family:'Akkurat Pro';-inkscape-font-specification:AkkuratPro-Regular;writing-mode:lr-tb;fill:#231f20;fill-opacity:1;fill-rule:nonzero;stroke:none"
       transform="matrix(1,0,0,-1,1027.064,1511.4023)"><tspan
         id="tspan562"
         y="0"
         x="0 18.809999 35.34 46.860001 62.490002 79.230003 96.779999 105.6 112.5 130.11 146.88 173.22 181.41 190.14 205.08 213.89999 220.8 238.41 249.92999 258.12 274.64999 292.20001 310.04999">Person, Family, Friends</tspan></text>
<g
       id="g566"><g
         clip-path="url(#clipPath572)"
         id="g568"><path
           id="path574"
           style="fill:#ffffff;fill-opacity:1;fill-rule:nonzero;stroke:none"
           d="m 1374.873,1763.732 h -363.794 v 54.495 h 363.794 z" /><text
           id="text578"
           style="font-variant:normal;font-weight:normal;font-stretch:normal;font-size:36.00040054px;font-family:'Akkurat Pro';-inkscape-font-specification:AkkuratPro-Regular;writing-mode:lr-tb;fill:#231f20;fill-opacity:1;fill-rule:nonzero;stroke:none"
           transform="matrix(0.99998889,0,0,-1,1064.6143,1806.5968)"><tspan
             id="tspan576"
             y="0"
             x="0 31.680351 42.156467 64.980721 88.812988 112.93326 135.7935 156.16974 179.02998 198.39821 220.89845">MICROSYSTEM</tspan></text>
<text
           id="text582"
           style="font-variant:normal;font-weight:normal;font-stretch:normal;font-size:30.00029945px;font-family:'Akkurat Pro';-inkscape-font-specification:AkkuratPro-Regular;writing-mode:lr-tb;fill:#231f20;fill-opacity:1;fill-rule:nonzero;stroke:none"
           transform="matrix(0.99999,0,0,-1,1072.6577,1770.5964)"><tspan
             id="tspan580"
             y="0"
             x="0 16.320164 33.060329 49.020489 65.790657 74.520744 81.420815 97.380974 114.12114 140.46141 166.80167 184.26184 201.81201 210.00211 221.55222">Local community</tspan></text>
<path
           id="path584"
           style="fill:#ffffff;fill-opacity:1;fill-rule:nonzero;stroke:none"
           d="m 1374.873,1965.86 h -363.794 v 54.495 h 363.794 z" /><text
           id="text588"
           style="font-variant:normal;font-weight:normal;font-stretch:normal;font-size:36.00040054px;font-family:'Akkurat Pro';-inkscape-font-specification:AkkuratPro-Regular;writing-mode:lr-tb;fill:#231f20;fill-opacity:1;fill-rule:nonzero;stroke:none"
           transform="matrix(0.99998889,0,0,-1,1070.5,1994.7238)"><tspan
             id="tspan586"
             y="0"
             x="0 31.680351 54.180603 77.040855 101.16113 124.02138 144.3976 167.25786 186.62607 209.12633">MESOSYSTEM</tspan></text>
<text
           id="text592"
           style="font-variant:normal;font-weight:normal;font-stretch:normal;font-size:30.00029945px;font-family:'Akkurat Pro';-inkscape-font-specification:AkkuratPro-Regular;writing-mode:lr-tb;fill:#231f20;fill-opacity:1;fill-rule:nonzero;stroke:none"
           transform="matrix(0.99999,0,0,-1,919.1348,1958.7234)"><tspan
             id="tspan590"
             y="0"
             x="0 25.860258 42.600426 54.120541 70.470703 88.320885 97.050972 113.82114 129.7813 146.31146 161.94162 170.7617 177.66177 196.71196 212.67212 230.2823 247.02248 263.76263 272.49274 288.12289 296.94296 303.84305 323.70325 340.2334 348.9635 357.15356 373.35373 381.54382 398.284 415.74417 431.37433 438.27438 454.23453 470.76471 488.31488 499.86499 511.3851 527.91528">Workplaces, Schools, Religious centres</tspan></text>
<path
           id="path594"
           style="fill:#ffffff;fill-opacity:1;fill-rule:nonzero;stroke:none"
           d="m 1374.873,2149.163 h -363.794 v 54.495 h 363.794 z" /><text
           id="text598"
           style="font-variant:normal;font-weight:normal;font-stretch:normal;font-size:36.00040054px;font-family:'Akkurat Pro';-inkscape-font-specification:AkkuratPro-Regular;writing-mode:lr-tb;fill:#231f20;fill-opacity:1;fill-rule:nonzero;stroke:none"
           transform="matrix(0.99998889,0,0,-1,1087.2573,2176.0264)"><tspan
             id="tspan596"
             y="0"
             x="0 22.50025 43.524483 67.644753 90.505005 110.88123 133.74149 153.1097 175.60995">EXOSYSTEM</tspan></text>
<text
           id="text602"
           style="font-variant:normal;font-weight:normal;font-stretch:normal;font-size:30.00029945px;font-family:'Akkurat Pro';-inkscape-font-specification:AkkuratPro-Regular;writing-mode:lr-tb;fill:#231f20;fill-opacity:1;fill-rule:nonzero;stroke:none"
           transform="matrix(0.99999,0,0,-1,921.52,2140.0261)"><tspan
             id="tspan600"
             y="0"
             x="0 19.020189 35.760357 62.10062 79.950798 96.72097 114.27114 122.46123 138.99139 154.62155 163.44164 170.34171 179.07179 196.62196 212.25212 223.80223 231.99232 243.54243 261.00262 272.55273 280.7428 297.48297 315.03314 330.6633 339.4834 346.38345 366.48367 378.00378 394.20395 410.97412 428.52429 436.71436 452.34451 469.11469 480.66479 488.85489 505.59506 523.1452">Companies, Institutions, Organisations</tspan></text>
<path
           id="path604"
           style="fill:#ffffff;fill-opacity:1;fill-rule:nonzero;stroke:none"
           d="m 1374.873,2322.465 h -363.794 v 54.495 h 363.794 z" /><text
           id="text608"
           style="font-variant:normal;font-weight:normal;font-stretch:normal;font-size:36.00040054px;font-family:'Akkurat Pro';-inkscape-font-specification:AkkuratPro-Regular;writing-mode:lr-tb;fill:#231f20;fill-opacity:1;fill-rule:nonzero;stroke:none"
           transform="matrix(0.99998889,0,0,-1,1058.6743,2349.3281)"><tspan
             id="tspan606"
             y="0"
             x="0 31.680351 54.036602 76.860855 100.69312 124.81339 147.67365 168.04987 190.91013 210.27834 232.77858">MACROSYSTEM</tspan></text>
<text
           id="text612"
           style="font-variant:normal;font-weight:normal;font-stretch:normal;font-size:30.00029945px;font-family:'Akkurat Pro';-inkscape-font-specification:AkkuratPro-Regular;writing-mode:lr-tb;fill:#231f20;fill-opacity:1;fill-rule:nonzero;stroke:none"
           transform="matrix(0.99999,0,0,-1,962.9048,2313.3279)"><tspan
             id="tspan610"
             y="0"
             x="0 19.020189 36.480366 45.210453 56.760567 74.220741 85.74086 102.27102 111.09111 117.99118 138.39139 155.13155 169.7117 186.24187 197.76198 215.31215 241.65242 258.18259 275.73276 287.28287 296.10297 303.00302 325.02325 341.79343 353.34354 361.53363 378.27377 395.82394 412.59412 421.32422 429.51428 441.06442">Culture, Government, Nationality</tspan></text>
<path
           id="path614"
           style="fill:#ffffff;fill-opacity:1;fill-rule:nonzero;stroke:none"
           d="m 1374.873,2519.657 h -363.794 v 54.495 h 363.794 z" /><text
           id="text618"
           style="font-variant:normal;font-weight:normal;font-stretch:normal;font-size:36.00040054px;font-family:'Akkurat Pro';-inkscape-font-specification:AkkuratPro-Regular;writing-mode:lr-tb;fill:#231f20;fill-opacity:1;fill-rule:nonzero;stroke:none"
           transform="matrix(0.99998889,0,0,-1,1049.1699,2551.5205)"><tspan
             id="tspan616"
             y="0"
             x="0 24.048267 34.524384 58.644653 74.376823 96.877075 119.70133 143.82159 166.68185 187.05807 209.91833 229.28654 251.7868">BIO-ECOSYSTEM</tspan></text>
<text
           id="text622"
           style="font-variant:normal;font-weight:normal;font-stretch:normal;font-size:30.00029945px;font-family:'Akkurat Pro';-inkscape-font-specification:AkkuratPro-Regular;writing-mode:lr-tb;fill:#231f20;fill-opacity:1;fill-rule:nonzero;stroke:none"
           transform="matrix(0.99999,0,0,-1,954.0537,2515.5203)"><tspan
             id="tspan620"
             y="0"
             x="0 20.040201 28.230282 44.970451 56.490566 73.020729 89.220894 97.410973 114.15114 131.70132 147.33147 156.15157 163.05164 188.9119 205.68205 217.23218 233.76234 245.28246 260.9126 278.5228 295.05295 312.90314 328.53329 337.35336 344.25345 363.00363 378.96378 395.70395 407.25406 423.99423 441.5444 458.07458">Bioregions, Watersheds, Ecotones</tspan></text>
<g
           transform="translate(570.8995,1530.5211)"
           id="g624"><path
             id="path626"
             style="fill:none;stroke:#15141b;stroke-width:2.83500004;stroke-linecap:butt;stroke-linejoin:miter;stroke-miterlimit:10;stroke-dasharray:none;stroke-opacity:1"
             d="M 0,0 H 121.998" /></g><g
           transform="translate(580.292,1518.9279)"
           id="g628"><path
             id="path630"
             style="fill:#15141b;fill-opacity:1;fill-rule:nonzero;stroke:none"
             d="M 0,0 1.934,2.076 -8.305,11.59 1.934,21.108 0,23.184 -12.467,11.59 Z" /></g><g
           transform="translate(683.5051,1518.9279)"
           id="g632"><path
             id="path634"
             style="fill:#15141b;fill-opacity:1;fill-rule:nonzero;stroke:none"
             d="M 0,0 -1.934,2.076 8.305,11.59 -1.934,21.108 0,23.184 12.467,11.59 Z" /></g><g
           transform="translate(758.287,1530.5211)"
           id="g636"><path
             id="path638"
             style="fill:none;stroke:#15141b;stroke-width:2.83500004;stroke-linecap:butt;stroke-linejoin:miter;stroke-miterlimit:10;stroke-dasharray:none;stroke-opacity:1"
             d="M 0,0 H 121.998" /></g><g
           transform="translate(767.6796,1518.9279)"
           id="g640"><path
             id="path642"
             style="fill:#15141b;fill-opacity:1;fill-rule:nonzero;stroke:none"
             d="M 0,0 1.934,2.076 -8.305,11.59 1.934,21.108 0,23.184 -12.467,11.59 Z" /></g><g
           transform="translate(870.8926,1518.9279)"
           id="g644"><path
             id="path646"
             style="fill:#15141b;fill-opacity:1;fill-rule:nonzero;stroke:none"
             d="M 0,0 -1.934,2.076 8.305,11.59 -1.934,21.108 0,23.184 12.467,11.59 Z" /></g><g
           transform="translate(608.7419,2080.9294)"
           id="g648"><path
             id="path650"
             style="fill:none;stroke:#15141b;stroke-width:2.83500004;stroke-linecap:butt;stroke-linejoin:miter;stroke-miterlimit:10;stroke-dasharray:none;stroke-opacity:1"
             d="M 0,0 86.266,-86.266" /></g><g
           transform="translate(607.1858,2066.0901)"
           id="g652"><path
             id="path654"
             style="fill:#15141b;fill-opacity:1;fill-rule:nonzero;stroke:none"
             d="m 0,0 2.835,0.101 -0.512,13.967 13.97,-0.51 0.1,2.836 -17.013,0.617 z" /></g><g
           transform="translate(680.1685,1993.1073)"
           id="g656"><path
             id="path658"
             style="fill:#15141b;fill-opacity:1;fill-rule:nonzero;stroke:none"
             d="m 0,0 0.101,2.835 13.967,-0.512 -0.51,13.97 2.835,0.101 0.618,-17.014 z" /></g><g
           transform="translate(478.1917,2211.4797)"
           id="g660"><path
             id="path662"
             style="fill:none;stroke:#15141b;stroke-width:2.83500004;stroke-linecap:butt;stroke-linejoin:miter;stroke-miterlimit:10;stroke-dasharray:none;stroke-opacity:1"
             d="M 0,0 86.266,-86.266" /></g><g
           transform="translate(476.6357,2196.6404)"
           id="g664"><path
             id="path666"
             style="fill:#15141b;fill-opacity:1;fill-rule:nonzero;stroke:none"
             d="m 0,0 2.835,0.101 -0.512,13.967 13.97,-0.51 0.1,2.835 -17.013,0.618 z" /></g><g
           transform="translate(549.6183,2123.6577)"
           id="g668"><path
             id="path670"
             style="fill:#15141b;fill-opacity:1;fill-rule:nonzero;stroke:none"
             d="m 0,0 0.101,2.835 13.967,-0.512 -0.51,13.97 2.835,0.1 0.618,-17.013 z" /></g><g
           transform="translate(1813.0404,1530.5211)"
           id="g672"><path
             id="path674"
             style="fill:none;stroke:#15141b;stroke-width:2.83500004;stroke-linecap:butt;stroke-linejoin:miter;stroke-miterlimit:10;stroke-dasharray:none;stroke-opacity:1"
             d="M 0,0 H -121.998" /></g><g
           transform="translate(1803.6478,1542.1144)"
           id="g676"><path
             id="path678"
             style="fill:#15141b;fill-opacity:1;fill-rule:nonzero;stroke:none"
             d="M 0,0 -1.934,-2.076 8.305,-11.59 -1.934,-21.108 0,-23.184 12.467,-11.59 Z" /></g><g
           transform="translate(1700.4347,1542.1144)"
           id="g680"><path
             id="path682"
             style="fill:#15141b;fill-opacity:1;fill-rule:nonzero;stroke:none"
             d="M 0,0 1.934,-2.076 -8.304,-11.59 1.934,-21.108 0,-23.184 -12.467,-11.59 Z" /></g><g
           transform="translate(1625.653,1530.5211)"
           id="g684"><path
             id="path686"
             style="fill:none;stroke:#15141b;stroke-width:2.83500004;stroke-linecap:butt;stroke-linejoin:miter;stroke-miterlimit:10;stroke-dasharray:none;stroke-opacity:1"
             d="M 0,0 H -121.998" /></g><g
           transform="translate(1616.2604,1542.1144)"
           id="g688"><path
             id="path690"
             style="fill:#15141b;fill-opacity:1;fill-rule:nonzero;stroke:none"
             d="M 0,0 -1.934,-2.076 8.305,-11.59 -1.934,-21.108 0,-23.184 12.467,-11.59 Z" /></g><g
           transform="translate(1513.0472,1542.1144)"
           id="g692"><path
             id="path694"
             style="fill:#15141b;fill-opacity:1;fill-rule:nonzero;stroke:none"
             d="M 0,0 1.934,-2.076 -8.305,-11.59 1.934,-21.108 0,-23.184 -12.467,-11.59 Z" /></g><g
           transform="translate(1761.5165,2067.2478)"
           id="g696"><path
             id="path698"
             style="fill:none;stroke:#15141b;stroke-width:2.83500004;stroke-linecap:butt;stroke-linejoin:miter;stroke-miterlimit:10;stroke-dasharray:none;stroke-opacity:1"
             d="M 0,0 -86.266,-86.266" /></g><g
           transform="translate(1746.6771,2068.804)"
           id="g700"><path
             id="path702"
             style="fill:#15141b;fill-opacity:1;fill-rule:nonzero;stroke:none"
             d="m 0,0 0.101,-2.835 13.967,0.512 -0.51,-13.969 2.836,-0.101 0.617,17.013 z" /></g><g
           transform="translate(1673.6947,1995.8212)"
           id="g704"><path
             id="path706"
             style="fill:#15141b;fill-opacity:1;fill-rule:nonzero;stroke:none"
             d="m 0,0 2.835,-0.101 -0.512,-13.967 13.969,0.51 0.101,-2.835 -17.013,-0.618 z" /></g><g
           transform="translate(1892.7697,2198.5012)"
           id="g708"><path
             id="path710"
             style="fill:none;stroke:#15141b;stroke-width:2.83500004;stroke-linecap:butt;stroke-linejoin:miter;stroke-miterlimit:10;stroke-dasharray:none;stroke-opacity:1"
             d="M 0,0 -86.266,-86.266" /></g><g
           transform="translate(1877.9305,2200.0574)"
           id="g712"><path
             id="path714"
             style="fill:#15141b;fill-opacity:1;fill-rule:nonzero;stroke:none"
             d="m 0,0 0.101,-2.835 13.967,0.512 -0.51,-13.97 2.835,-0.101 0.618,17.014 z" /></g><g
           transform="translate(1804.9479,2127.0747)"
           id="g716"><path
             id="path718"
             style="fill:#15141b;fill-opacity:1;fill-rule:nonzero;stroke:none"
             d="m 0,0 2.835,-0.101 -0.512,-13.967 13.969,0.51 0.101,-2.836 -17.013,-0.617 z" /></g><g
           transform="translate(589.9675,961.3385)"
           id="g720"><path
             id="path722"
             style="fill:none;stroke:#15141b;stroke-width:2.83500004;stroke-linecap:butt;stroke-linejoin:miter;stroke-miterlimit:10;stroke-dasharray:none;stroke-opacity:1"
             d="M 0,0 86.266,86.266" /></g><g
           transform="translate(604.8068,959.7825)"
           id="g724"><path
             id="path726"
             style="fill:#15141b;fill-opacity:1;fill-rule:nonzero;stroke:none"
             d="m 0,0 -0.101,2.835 -13.967,-0.512 0.51,13.97 -2.835,0.1 -0.618,-17.013 z" /></g><g
           transform="translate(677.7894,1032.7651)"
           id="g728"><path
             id="path730"
             style="fill:#15141b;fill-opacity:1;fill-rule:nonzero;stroke:none"
             d="m 0,0 -2.835,0.101 0.512,13.967 -13.97,-0.51 -0.1,2.835 17.013,0.618 z" /></g><g
           transform="translate(459.4174,830.7883)"
           id="g732"><path
             id="path734"
             style="fill:none;stroke:#15141b;stroke-width:2.83500004;stroke-linecap:butt;stroke-linejoin:miter;stroke-miterlimit:10;stroke-dasharray:none;stroke-opacity:1"
             d="M 0,0 86.266,86.266" /></g><g
           transform="translate(474.2565,829.2322)"
           id="g736"><path
             id="path738"
             style="fill:#15141b;fill-opacity:1;fill-rule:nonzero;stroke:none"
             d="m 0,0 -0.101,2.835 -13.967,-0.512 0.51,13.97 -2.835,0.1 -0.618,-17.013 z" /></g><g
           transform="translate(547.2391,902.2148)"
           id="g740"><path
             id="path742"
             style="fill:#15141b;fill-opacity:1;fill-rule:nonzero;stroke:none"
             d="m 0,0 -2.835,0.101 0.512,13.967 -13.97,-0.51 -0.1,2.835 17.013,0.618 z" /></g><g
           transform="translate(1783.1061,971.2047)"
           id="g744"><path
             id="path746"
             style="fill:none;stroke:#15141b;stroke-width:2.83500004;stroke-linecap:butt;stroke-linejoin:miter;stroke-miterlimit:10;stroke-dasharray:none;stroke-opacity:1"
             d="M 0,0 -86.266,86.266" /></g><g
           transform="translate(1784.6622,986.0439)"
           id="g748"><path
             id="path750"
             style="fill:#15141b;fill-opacity:1;fill-rule:nonzero;stroke:none"
             d="m 0,0 -2.835,-0.101 0.512,-13.967 -13.969,0.51 -0.101,-2.835 17.013,-0.618 z" /></g><g
           transform="translate(1711.6796,1059.0266)"
           id="g752"><path
             id="path754"
             style="fill:#15141b;fill-opacity:1;fill-rule:nonzero;stroke:none"
             d="m 0,0 -0.101,-2.835 -13.967,0.512 0.51,-13.97 -2.835,-0.1 -0.618,17.013 z" /></g><g
           transform="translate(1907.476,846.8348)"
           id="g756"><path
             id="path758"
             style="fill:none;stroke:#15141b;stroke-width:2.83500004;stroke-linecap:butt;stroke-linejoin:miter;stroke-miterlimit:10;stroke-dasharray:none;stroke-opacity:1"
             d="M 0,0 -86.266,86.266" /></g><g
           transform="translate(1909.0321,861.6741)"
           id="g760"><path
             id="path762"
             style="fill:#15141b;fill-opacity:1;fill-rule:nonzero;stroke:none"
             d="m 0,0 -2.835,-0.101 0.512,-13.967 -13.969,0.51 -0.101,-2.835 17.013,-0.618 z" /></g><g
           transform="translate(1836.0494,934.6567)"
           id="g764"><path
             id="path766"
             style="fill:#15141b;fill-opacity:1;fill-rule:nonzero;stroke:none"
             d="m 0,0 -0.101,-2.835 -13.967,0.512 0.51,-13.97 -2.835,-0.1 -0.618,17.013 z" /></g></g></g><text
       id="text770"
       style="font-variant:normal;font-weight:bold;font-stretch:normal;font-size:24px;font-family:'Akkurat Pro';-inkscape-font-specification:AkkuratPro-Bold;writing-mode:lr-tb;fill:#231f20;fill-opacity:1;fill-rule:nonzero;stroke:none"
       transform="matrix(1,0,0,-1,82.9087,55.4678)"><tspan
         id="tspan768"
         y="0"
         x="0 18.408001 36.816002 55.223999 62.16 74.568001 87.192001 99.695999 109.176 122.664 144 150.96001 163.82401 178.368 191.856 204.45599 211.416 224.73599 239.03999 248.52 262.32001 276.12 283.48801 297.43201 304.392 314.56799 321.26401 335.064 344.448">www.systemicdesigntoolkit.org</tspan></text>
<text
       id="text774"
       style="font-variant:normal;font-weight:300;font-stretch:normal;font-size:24px;font-family:'Akkurat Light Pro';-inkscape-font-specification:AkkuratLightPro-Regular;writing-mode:lr-tb;fill:#231f20;fill-opacity:1;fill-rule:nonzero;stroke:none"
       transform="matrix(1,0,0,-1,1064.4127,55.1798)"><tspan
         id="tspan772"
         y="0"
         x="0 15.648 28.704 41.088001 54.312 75.407997 96.503998 109.56 123.648 137.75999 150.81599 164.952 170.20799 182.616 188.952 200.664 213.72 219.24001 224.496 239.808">Recommended size: A0</tspan></text>
<g
       id="g776"><g
         clip-path="url(#clipPath782)"
         id="g778"><g
           transform="translate(1689.6558,66.8983)"
           id="g784"><path
             id="path786"
             style="fill:#231f20;fill-opacity:1;fill-rule:evenodd;stroke:none"
             d="m 0,0 -3.146,1.326 c -2.048,0.887 -3.071,2.124 -3.071,4.562 0,3.054 1.811,4.293 3.974,4.293 3.383,0 3.855,-2.789 3.855,-4.87 V 4.647 h 1.493 v 0.71 c 0,2.831 -0.785,6.329 -5.348,6.329 -3.268,0 -5.625,-2.124 -5.625,-5.978 0,-2.964 1.297,-4.646 3.851,-5.799 l 3.031,-1.37 c 2.285,-1.02 3.072,-2.525 3.072,-4.739 0,-2.567 -1.259,-4.823 -4.288,-4.823 -3.424,0 -4.605,2.389 -4.605,5.665 v 0.753 H -8.3 v -0.618 c 0,-2.703 0.39,-7.306 6.098,-7.306 3.264,0 5.938,2.479 5.938,6.372 C 3.736,-3.012 2.478,-1.064 0,0 m 14.276,12.04 c -2.477,0 -4.525,-1.415 -5.112,-3.806 H 9.083 v 10.181 h -2.36 v -30.414 h 2.36 V 3.806 c 0,3.63 1.851,6.02 4.605,6.02 2.401,0 3.579,-1.592 3.579,-4.824 v -17.001 h 2.362 V 5.756 c 0,4.425 -2.166,6.284 -5.353,6.284 m 9.792,-24.039 h 3.303 v 23.488 h -3.303 z m 0,26.429 h 3.303 v 3.979 h -3.303 z m 8.81,-0.73 V 11.489 H 29.926 V 7.591 h 2.952 v -19.59 h 4.251 v 19.59 h 3.461 v 3.898 h -3.461 v 2.079 c 0,1.592 0.706,2.26 2.282,2.26 h 1.179 v 3.671 c -0.63,0.091 -1.417,0.132 -2.32,0.132 -3.462,0 -5.392,-1.416 -5.392,-5.931 M 51.841,7.591 v 3.898 h -3.147 v 5.725 h -5.433 v -23.19 c 0,-4.83 0.788,-6.288 5.036,-6.288 1.261,0 2.363,0.134 3.544,0.265 v 4.251 c -0.355,-0.044 -0.788,-0.087 -1.221,-0.087 -1.574,0 -1.926,0.75 -1.926,2.612 V 7.591 Z" /></g><g
           transform="translate(1752.1274,93.371)"
           id="g788"><path
             id="path790"
             style="fill:#231f20;fill-opacity:1;fill-rule:evenodd;stroke:none"
             d="m 0,0 c -4.501,-0.666 -7.742,-4.897 -7.742,-9.656 v -9.22 h 8.809 c 4.546,0 8.591,3.393 9.225,8.107 C 11.142,-4.449 6.038,0.893 0,0 M 5.306,-14.879 H 1.602 v 6.518 c 0,0.82 -0.248,1.06 -0.725,1.06 -0.501,0 -0.746,-0.44 -0.746,-1.06 v -6.518 h -3.709 v 10.178 h 3.597 v -1.241 h 0.036 c 0.556,1.062 1.489,1.521 2.733,1.521 1.319,0 2.518,-0.76 2.518,-2.742 z" /></g></g></g><text
       id="text796"
       style="font-variant:normal;font-weight:bold;font-stretch:normal;font-size:13.76099968px;font-family:'Akkurat Pro';-inkscape-font-specification:AkkuratPro-Bold;writing-mode:lr-tb;fill:#231f20;fill-opacity:1;fill-rule:nonzero;stroke:none"
       transform="matrix(1,0,0,-1,2236.8271,84.8818)"><tspan
         id="tspan792"
         y="0"
         x="0 8.3666878 16.609528 25.045019 32.764942 41.406849 53.489006 57.576023">SYSTEMIC</tspan><tspan
         id="tspan794"
         y="19.912167"
         x="0 9.4125242 17.999388 26.696341 30.783358 40.195881">DESIGN</tspan></text>
<text
       id="text800"
       style="font-variant:normal;font-weight:300;font-stretch:normal;font-size:13.76099968px;font-family:'Akkurat Light Pro';-inkscape-font-specification:AkkuratLightPro-Regular;writing-mode:lr-tb;fill:#231f20;fill-opacity:1;fill-rule:nonzero;stroke:none"
       transform="matrix(1,0,0,-1,2236.8271,45.057466)"><tspan
         id="tspan798"
         y="0"
         x="0 7.0043492 16.059088 25.113825 32.627331 41.640785 45.342495">TOOLKIT</tspan></text>
<g
       id="g802"><g
         clip-path="url(#clipPath808)"
         id="g804"><g
           transform="translate(2210.3208,83.3675)"
           id="g810"><path
             id="path812"
             style="fill:#f8c717;fill-opacity:1;fill-rule:nonzero;stroke:none"
             d="m 0,0 c 7.98,-7.98 7.98,-20.917 0,-28.897 -7.979,-7.98 -20.917,-7.98 -28.897,0 -7.979,7.98 -7.979,20.917 0,28.897 7.98,7.979 20.918,7.979 28.897,0 m 7.78,7.78 c -12.277,12.276 -32.18,12.276 -44.457,0 -12.276,-12.277 -12.276,-32.18 0,-44.457 12.277,-12.277 32.18,-12.277 44.457,0 12.277,12.276 12.277,32.18 0,44.457" /></g><g
           transform="translate(2202.541,75.5873)"
           id="g814"><path
             id="path816"
             style="fill:#e2067f;fill-opacity:1;fill-rule:nonzero;stroke:none"
             d="m 0,0 c 3.683,-3.683 3.683,-9.654 0,-13.337 -3.683,-3.683 -9.654,-3.683 -13.337,0 -3.683,3.683 -3.683,9.654 0,13.337 C -9.654,3.683 -3.683,3.683 0,0 m 7.78,7.78 c -7.98,7.98 -20.917,7.98 -28.897,0 -7.98,-7.98 -7.98,-20.917 0,-28.897 7.98,-7.98 20.917,-7.98 28.897,0 7.98,7.98 7.98,20.917 0,28.897" /></g><g
           id="g818"><g
             id="g820" /><g
             id="g840"><g
               id="g838"
               clip-path="url(#clipPath824)"><g
                 id="g836"><g
                   id="g834"
                   clip-path="url(#clipPath828)"><g
                     id="g832"
                     transform="translate(2218.1006,91.1473)"><path
                       id="path830"
                       style="fill:#489bda;fill-opacity:1;fill-rule:nonzero;stroke:none"
                       d="m 0,0 c 8.227,-8.226 10.932,-19.875 8.133,-30.361 -10.486,-2.799 -22.135,-0.094 -30.361,8.132 -8.227,8.227 -10.932,19.876 -8.133,30.362 C -19.875,10.931 -8.226,8.226 0,0" /></g></g></g></g></g></g><g
           transform="translate(1824.4204,98.2704)"
           id="g842"><path
             id="path844"
             style="fill:#ffffff;fill-opacity:1;fill-rule:nonzero;stroke:none"
             d="m 0,0 c -13.986,0.001 -25.353,-11.343 -25.363,-25.312 -0.01,-13.992 11.333,-25.383 25.283,-25.391 14.036,-0.007 25.416,11.325 25.42,25.312 C 25.343,-11.368 14,-0.001 0,0" /></g><g
           transform="translate(1821.1909,72.6083)"
           id="g846"><path
             id="path848"
             style="fill:#231f20;fill-opacity:1;fill-rule:nonzero;stroke:none"
             d="M 0,0 C -0.062,0.014 -0.109,0.018 -0.151,0.034 -0.98,0.363 -1.838,0.428 -2.711,0.29 -3.85,0.109 -4.732,-0.431 -5.141,-1.566 -5.37,-2.203 -5.375,-2.864 -5.26,-3.523 c 0.187,-1.069 0.721,-1.89 1.781,-2.259 1.122,-0.39 2.193,-0.218 3.198,0.403 0.086,0.053 0.171,0.105 0.277,0.17 0.009,-0.205 0.017,-0.379 0.025,-0.558 h 3.038 c 0.012,0.05 0.024,0.078 0.024,0.104 0,2.125 0.033,4.251 -0.014,6.375 C 3.034,2.295 2.148,3.384 0.684,3.68 -1.165,4.053 -2.956,3.794 -4.671,3.014 -4.702,3 -4.725,2.969 -4.762,2.938 c 0.28,-0.707 0.554,-1.403 0.837,-2.117 0.133,0.061 0.236,0.105 0.335,0.155 0.841,0.425 1.734,0.564 2.665,0.488 0.551,-0.046 0.872,-0.34 0.922,-0.859 C 0.016,0.41 0,0.211 0,0 M 26.49,5.502 C 26.367,5.587 26.271,5.66 26.169,5.723 24.197,6.934 22.058,7.241 19.824,6.781 17.901,6.385 16.656,5.104 16.532,3.318 16.418,1.682 16.934,0.52 18.402,-0.2 c 0.16,-0.078 0.321,-0.166 0.491,-0.216 0.903,-0.267 1.811,-0.516 2.713,-0.787 0.377,-0.114 0.749,-0.251 1.111,-0.41 0.266,-0.117 0.43,-0.336 0.398,-0.653 -0.035,-0.34 -0.25,-0.518 -0.56,-0.593 -0.174,-0.042 -0.353,-0.066 -0.531,-0.079 -1.433,-0.105 -2.708,0.377 -3.924,1.071 -0.086,0.049 -0.173,0.097 -0.274,0.155 -0.57,-0.922 -1.124,-1.819 -1.687,-2.73 0.099,-0.066 0.174,-0.122 0.254,-0.169 1.997,-1.162 4.148,-1.568 6.429,-1.28 0.831,0.105 1.621,0.357 2.319,0.844 1.329,0.925 1.697,2.516 1.377,4.125 -0.217,1.092 -0.938,1.814 -1.923,2.22 -0.902,0.372 -1.854,0.62 -2.784,0.922 -0.466,0.15 -0.937,0.281 -1.396,0.45 -0.269,0.1 -0.417,0.311 -0.384,0.622 0.036,0.331 0.278,0.544 0.713,0.607 0.852,0.122 1.68,0 2.469,-0.318 0.538,-0.217 1.047,-0.508 1.601,-0.782 0.544,0.877 1.103,1.779 1.676,2.703 M 4.732,6.747 V -5.79 h 0.301 c 0.935,0 1.87,0.01 2.804,-0.006 0.28,-0.005 0.347,0.086 0.344,0.353 -0.013,1.198 -0.002,2.398 -0.01,3.597 -10e-4,0.206 0.057,0.291 0.272,0.28 0.273,-0.014 0.548,-0.013 0.821,0 0.196,0.01 0.302,-0.061 0.388,-0.244 0.577,-1.218 1.178,-2.425 1.746,-3.647 0.124,-0.268 0.273,-0.345 0.556,-0.34 1.058,0.017 2.115,0.007 3.173,0.007 h 0.368 c -0.85,1.624 -1.674,3.198 -2.5,4.779 0.084,0.047 0.149,0.084 0.213,0.121 0.074,0.041 0.149,0.082 0.222,0.125 0.88,0.526 1.468,1.282 1.661,2.287 0.106,0.55 0.138,1.126 0.111,1.686 -0.075,1.582 -0.95,2.734 -2.463,3.209 -0.595,0.186 -1.234,0.31 -1.855,0.324 C 8.911,6.784 6.937,6.763 4.964,6.765 4.891,6.765 4.818,6.754 4.732,6.747 m -17.749,-6.908 c -0.044,0.12 -0.093,0.294 -0.166,0.456 -0.937,2.101 -1.874,4.202 -2.823,6.297 -0.039,0.086 -0.198,0.165 -0.302,0.166 -0.916,0.013 -1.833,0.009 -2.749,0.007 -0.071,0 -0.143,-0.017 -0.218,-0.027 V -5.77 h 3.24 v 6.029 c 0.989,-2.128 1.993,-4.288 2.996,-6.448 l 0.087,0.001 c 1.005,2.162 2.01,4.325 2.994,6.443 v -6.026 h 3.241 V 6.766 h -0.332 c -0.831,0 -1.663,-0.012 -2.493,0.007 -0.259,0.006 -0.38,-0.078 -0.484,-0.31 -0.993,-2.218 -1.998,-4.43 -2.991,-6.624 M 3.229,25.662 C 17.23,25.661 28.573,14.294 28.569,0.271 28.566,-13.716 17.185,-25.049 3.15,-25.041 c -13.951,0.008 -25.294,11.399 -25.283,25.392 0.009,13.968 11.377,25.312 25.362,25.311" /></g><g
           transform="translate(1808.1738,72.4476)"
           id="g850"><path
             id="path852"
             style="fill:#ffffff;fill-opacity:1;fill-rule:nonzero;stroke:none"
             d="M 0,0 C 0.993,2.193 1.998,4.406 2.991,6.624 3.095,6.855 3.216,6.939 3.475,6.934 4.305,6.915 5.137,6.927 5.968,6.927 H 6.301 V -5.61 H 3.059 V 0.416 C 2.075,-1.703 1.07,-3.865 0.066,-6.028 h -0.088 c -1.003,2.16 -2.007,4.32 -2.996,6.448 v -6.029 h -3.24 V 6.899 c 0.076,0.01 0.147,0.026 0.218,0.026 0.916,0.002 1.832,0.007 2.748,-0.006 0.105,-0.002 0.264,-0.08 0.303,-0.167 C -2.04,4.658 -1.102,2.557 -0.166,0.456 -0.093,0.293 -0.043,0.121 0,0" /></g><g
           transform="translate(1829.3838,73.8119)"
           id="g854"><path
             id="path856"
             style="fill:#ffffff;fill-opacity:1;fill-rule:nonzero;stroke:none"
             d="M 0,0 C 0.684,0 1.352,-0.004 2.019,0.003 2.207,0.004 2.397,0.024 2.58,0.065 2.955,0.147 3.262,0.333 3.425,0.704 3.879,1.738 3.291,2.676 2.167,2.696 1.563,2.707 0.959,2.7 0.355,2.7 0.238,2.701 0.12,2.7 0,2.7 Z m -3.46,5.544 c 0.085,0.007 0.158,0.018 0.231,0.018 C -1.255,5.559 0.718,5.581 2.691,5.537 3.313,5.523 3.951,5.399 4.546,5.212 6.06,4.739 6.935,3.586 7.009,2.004 7.036,1.444 7.004,0.868 6.898,0.319 6.705,-0.687 6.117,-1.443 5.237,-1.968 5.165,-2.012 5.089,-2.052 5.016,-2.094 4.951,-2.131 4.886,-2.167 4.802,-2.215 5.629,-3.796 6.452,-5.37 7.302,-6.994 H 6.934 C 5.876,-6.994 4.819,-6.983 3.761,-7 3.479,-7.005 3.33,-6.928 3.206,-6.661 2.637,-5.439 2.037,-4.231 1.459,-3.013 1.373,-2.831 1.268,-2.76 1.071,-2.77 c -0.273,-0.013 -0.548,-0.014 -0.821,0 -0.215,0.012 -0.273,-0.073 -0.272,-0.28 0.008,-1.199 -0.003,-2.398 0.01,-3.597 0.003,-0.266 -0.064,-0.358 -0.343,-0.353 -0.935,0.017 -1.87,0.006 -2.805,0.006 h -0.3 z" /></g><g
           transform="translate(1847.6807,78.1107)"
           id="g858"><path
             id="path860"
             style="fill:#ffffff;fill-opacity:1;fill-rule:nonzero;stroke:none"
             d="m 0,0 c -0.573,-0.924 -1.132,-1.827 -1.675,-2.703 -0.554,0.273 -1.063,0.564 -1.601,0.782 -0.789,0.317 -1.618,0.44 -2.47,0.317 -0.435,-0.062 -0.677,-0.275 -0.712,-0.605 -0.034,-0.312 0.114,-0.524 0.383,-0.623 0.459,-0.169 0.93,-0.3 1.396,-0.451 0.93,-0.301 1.883,-0.55 2.784,-0.922 0.985,-0.406 1.706,-1.128 1.923,-2.219 0.321,-1.609 -0.048,-3.201 -1.377,-4.126 -0.698,-0.486 -1.488,-0.738 -2.318,-0.843 -2.282,-0.289 -4.433,0.118 -6.43,1.279 -0.08,0.047 -0.154,0.103 -0.254,0.17 0.563,0.91 1.117,1.807 1.687,2.73 0.101,-0.057 0.188,-0.106 0.274,-0.156 1.217,-0.693 2.491,-1.176 3.924,-1.07 0.178,0.013 0.358,0.036 0.531,0.078 0.31,0.075 0.525,0.253 0.56,0.593 0.032,0.317 -0.131,0.537 -0.398,0.654 -0.361,0.159 -0.734,0.296 -1.111,0.409 -0.902,0.272 -1.81,0.52 -2.713,0.788 -0.17,0.05 -0.33,0.138 -0.491,0.216 -1.468,0.719 -1.983,1.881 -1.87,3.517 0.124,1.787 1.37,3.067 3.292,3.463 2.234,0.461 4.374,0.154 6.345,-1.058 C -0.219,0.157 -0.123,0.084 0,0" /></g><g
           transform="translate(1821.1973,70.0067)"
           id="g862"><path
             id="path864"
             style="fill:#ffffff;fill-opacity:1;fill-rule:nonzero;stroke:none"
             d="m 0,0 c 0,0.122 -0.017,0.248 0.003,0.367 0.042,0.238 -0.071,0.361 -0.285,0.389 -0.417,0.056 -0.837,0.128 -1.256,0.128 -0.47,0.001 -0.733,-0.308 -0.79,-0.825 -0.058,-0.529 0.163,-0.938 0.581,-1.072 0.378,-0.121 0.748,-0.05 1.11,0.063 C -0.04,-0.763 0,-0.701 0,-0.085 Z m -0.006,2.601 c 0,0.212 0.016,0.411 -0.003,0.607 C -0.06,3.725 -0.38,4.02 -0.931,4.065 -1.862,4.142 -2.755,4.003 -3.596,3.578 c -0.1,-0.05 -0.202,-0.094 -0.335,-0.156 -0.283,0.715 -0.558,1.411 -0.837,2.117 0.037,0.031 0.06,0.063 0.09,0.077 1.716,0.78 3.507,1.038 5.356,0.665 1.464,-0.295 2.35,-1.384 2.385,-2.968 0.046,-2.124 0.013,-4.249 0.014,-6.375 0,-0.026 -0.013,-0.053 -0.024,-0.103 H 0.014 c -0.008,0.179 -0.015,0.353 -0.024,0.558 -0.106,-0.065 -0.192,-0.118 -0.277,-0.17 -1.005,-0.621 -2.076,-0.794 -3.199,-0.403 -1.059,0.369 -1.593,1.189 -1.781,2.258 -0.115,0.659 -0.109,1.32 0.12,1.957 0.409,1.136 1.291,1.675 2.43,1.857 0.872,0.138 1.731,0.073 2.56,-0.256 0.042,-0.017 0.089,-0.021 0.151,-0.035" /></g><g
           transform="translate(1829.3838,73.8119)"
           id="g866"><path
             id="path868"
             style="fill:#231f20;fill-opacity:1;fill-rule:nonzero;stroke:none"
             d="m 0,0 v 2.7 c 0.12,0 0.238,10e-4 0.355,0 0.604,0 1.208,0.007 1.812,-0.004 C 3.291,2.676 3.879,1.738 3.425,0.704 3.262,0.333 2.955,0.147 2.58,0.065 2.397,0.024 2.207,0.004 2.019,0.003 1.352,-0.004 0.684,0 0,0" /></g><g
           transform="translate(1821.1973,70.0067)"
           id="g870"><path
             id="path872"
             style="fill:#231f20;fill-opacity:1;fill-rule:nonzero;stroke:none"
             d="m 0,0 v -0.085 c 0,-0.616 -0.04,-0.678 -0.637,-0.865 -0.362,-0.113 -0.732,-0.184 -1.11,-0.063 -0.418,0.134 -0.639,0.543 -0.581,1.072 0.057,0.517 0.32,0.826 0.79,0.825 0.419,0 0.839,-0.072 1.256,-0.128 C -0.068,0.728 0.045,0.605 0.003,0.367 -0.017,0.248 0,0.122 0,0" /></g><path
           id="path874"
           style="fill:#ffffff;fill-opacity:1;fill-rule:nonzero;stroke:none"
           d="m 2024.262,74.124 h 104.196 V 55.659 h -104.196 z" /><g
           transform="translate(2026.2148,72.2616)"
           id="g876"><path
             id="path878"
             style="fill:#231f20;fill-opacity:1;fill-rule:nonzero;stroke:none"
             d="m 0,0 v -14.772 h 26.484 c 1.704,2.155 2.854,4.659 2.854,7.385 0,2.71 -1.129,5.241 -2.813,7.387 z" /></g><g
           transform="translate(2049.0513,64.8915)"
           id="g880"><path
             id="path882"
             style="fill:#231f20;fill-opacity:1;fill-rule:nonzero;stroke:none"
             d="m 0,0 c 0.002,-4.605 -3.945,-8.341 -8.818,-8.343 -4.871,-0.003 -8.825,3.727 -8.827,8.333 V 0 c -0.004,4.604 3.944,8.341 8.817,8.344 C -3.956,8.346 -0.003,4.615 0,0.009 Z" /></g><g
           transform="translate(2044.5933,65.8216)"
           id="g884"><path
             id="path886"
             style="fill:#ffffff;fill-opacity:1;fill-rule:nonzero;stroke:none"
             d="m 0,0 c -0.252,0.522 -0.624,0.782 -1.112,0.782 -0.91,0 -1.365,-0.568 -1.365,-1.702 0,-1.136 0.455,-1.702 1.365,-1.702 0.59,0 1.003,0.276 1.239,0.83 L 1.392,-2.415 C 0.802,-3.406 -0.08,-3.9 -1.257,-3.9 c -0.909,0 -1.634,0.264 -2.181,0.791 -0.546,0.526 -0.821,1.253 -0.821,2.179 0,0.909 0.279,1.632 0.832,2.166 0.556,0.536 1.261,0.803 2.12,0.803 1.244,0 2.136,-0.464 2.672,-1.392 z m -5.816,0 c -0.254,0.522 -0.632,0.782 -1.136,0.782 -0.892,0 -1.338,-0.568 -1.338,-1.702 0,-1.136 0.446,-1.702 1.338,-1.702 0.589,0 1.009,0.276 1.262,0.83 l 1.236,-0.623 C -5.042,-3.406 -5.927,-3.9 -7.106,-3.9 c -0.909,0 -1.639,0.264 -2.185,0.791 -0.548,0.526 -0.821,1.253 -0.821,2.179 0,0.909 0.282,1.632 0.846,2.166 0.564,0.536 1.268,0.803 2.11,0.803 1.246,0 2.137,-0.464 2.677,-1.392 z m -4.353,4.618 c -1.655,-1.579 -2.481,-3.43 -2.481,-5.551 0,-2.12 0.818,-3.955 2.456,-5.502 1.637,-1.547 3.585,-2.321 5.847,-2.321 2.261,0 4.226,0.782 5.897,2.344 1.587,1.453 2.379,3.278 2.379,5.479 0,2.184 -0.805,4.039 -2.417,5.562 -1.611,1.524 -3.566,2.285 -5.859,2.285 -2.295,0 -4.236,-0.765 -5.822,-2.296 M 2.808,5.861 C 4.763,4.012 5.743,1.748 5.743,-0.93 c 0,-2.678 -0.962,-4.92 -2.885,-6.721 -2.042,-1.897 -4.453,-2.847 -7.234,-2.847 -2.75,0 -5.121,0.942 -7.111,2.824 -1.99,1.88 -2.986,4.129 -2.986,6.744 0,2.614 0.996,4.879 2.986,6.791 1.941,1.851 4.311,2.775 7.111,2.775 2.833,0 5.228,-0.924 7.184,-2.775" /></g><g
           transform="translate(2107.6577,68.5843)"
           id="g888"><path
             id="path890"
             style="fill:#231f20;fill-opacity:1;fill-rule:nonzero;stroke:none"
             d="m 0,0 h 2.141 c 1.193,0 2.084,-0.082 2.666,-0.243 0.588,-0.158 1.09,-0.428 1.506,-0.811 0.37,-0.334 0.645,-0.717 0.822,-1.153 0.181,-0.435 0.271,-0.928 0.271,-1.48 0,-0.556 -0.09,-1.055 -0.271,-1.492 C 6.958,-5.615 6.683,-5.999 6.313,-6.333 5.893,-6.715 5.387,-6.988 4.797,-7.148 4.206,-7.307 3.321,-7.387 2.141,-7.387 H 0 V 0 m 2.03,-1.44 v -4.507 h 0.726 c 0.83,0 1.463,0.194 1.898,0.58 0.438,0.386 0.658,0.945 0.658,1.68 0,0.734 -0.217,1.292 -0.652,1.674 C 4.225,-1.63 3.59,-1.44 2.756,-1.44 H 2.03 M -9.042,0 h 2.265 l 2.861,-5.066 V 0 h 1.924 v -7.387 h -2.267 l -2.86,5.066 V -7.387 H -9.042 V 0 m -4.896,-3.751 h 3.311 V -5.19 h -3.311 z m -1.533,-3.229 c -0.375,-0.183 -0.762,-0.319 -1.166,-0.411 -0.404,-0.092 -0.826,-0.139 -1.263,-0.139 -1.312,0 -2.351,0.344 -3.117,1.029 -0.767,0.69 -1.149,1.624 -1.149,2.8 0,1.182 0.382,2.115 1.149,2.8 0.766,0.69 1.805,1.036 3.117,1.036 0.437,0 0.859,-0.048 1.263,-0.14 0.404,-0.093 0.791,-0.23 1.166,-0.411 v -1.529 c -0.378,0.241 -0.748,0.418 -1.113,0.53 -0.367,0.112 -0.751,0.169 -1.155,0.169 -0.723,0 -1.293,-0.218 -1.707,-0.653 -0.416,-0.437 -0.622,-1.037 -0.622,-1.802 0,-0.762 0.206,-1.36 0.622,-1.795 0.414,-0.435 0.984,-0.653 1.707,-0.653 0.404,0 0.788,0.056 1.155,0.169 0.365,0.111 0.735,0.289 1.113,0.527 V -6.98 M -30.755,0 h 2.265 l 2.862,-5.066 V 0 h 1.922 v -7.387 h -2.264 l -2.862,5.066 v -5.066 h -1.923 V 0 m -4.896,-3.751 h 3.309 V -5.19 h -3.309 z M -42.582,0 h 2.219 L -38.571,-2.632 -36.78,0 h 2.225 l -2.999,-4.274 v -3.113 h -2.03 v 3.113 L -42.582,0 m -1.192,-3.435 c 0.435,-0.117 0.772,-0.336 1.01,-0.658 0.24,-0.319 0.359,-0.711 0.359,-1.176 0,-0.711 -0.258,-1.243 -0.769,-1.592 -0.513,-0.351 -1.294,-0.526 -2.341,-0.526 h -3.367 V 0 h 3.046 c 1.092,0 1.883,-0.154 2.372,-0.465 0.492,-0.31 0.737,-0.806 0.737,-1.488 0,-0.36 -0.09,-0.668 -0.269,-0.922 -0.178,-0.25 -0.44,-0.437 -0.778,-0.56 m -1.888,-2.654 c 0.407,0 0.713,0.08 0.917,0.241 0.207,0.161 0.311,0.406 0.311,0.733 0,0.32 -0.103,0.559 -0.306,0.717 -0.203,0.162 -0.511,0.242 -0.922,0.242 h -1.191 v -1.933 h 1.191 m -0.069,3.23 c 0.32,0 0.563,0.066 0.728,0.196 0.164,0.133 0.246,0.327 0.246,0.586 0,0.253 -0.082,0.447 -0.246,0.577 -0.165,0.136 -0.408,0.205 -0.728,0.205 h -1.122 v -1.564 z" /></g><path
           id="path892"
           style="fill:none;stroke:#231f20;stroke-width:1;stroke-linecap:butt;stroke-linejoin:miter;stroke-miterlimit:10;stroke-dasharray:none;stroke-opacity:1"
           d="m 2026.215,72.277 h 100.288 V 57.506 h -100.288 z" /><path
           id="path894"
           style="fill:none;stroke:#231f20;stroke-width:1;stroke-linecap:butt;stroke-linejoin:miter;stroke-miterlimit:4;stroke-dasharray:none;stroke-opacity:1"
           d="m 2024.262,74.124 h 104.196 V 55.659 h -104.196 z" /><g
           transform="translate(1626.2676,73.3519)"
           id="g896"><path
             id="path898"
             style="fill:#231f20;fill-opacity:1;fill-rule:nonzero;stroke:none"
             d="m 0,0 c 0.329,0.183 0.805,0.293 1.171,0.33 0.878,-1.025 1.537,-1.794 2.672,-2.745 1.829,1.756 3.915,2.854 6.367,2.854 2.306,0 4.355,-0.768 5.526,-2.598 0.696,-1.135 0.879,-3.111 0.879,-4.831 0,-2.708 -0.073,-4.501 -0.073,-5.855 0,-1.647 -0.037,-3.075 0.109,-5.453 -0.695,-0.074 -1.427,-0.074 -2.122,-0.074 -0.696,0 -1.354,0 -2.123,0.074 -0.146,2.195 -0.146,4.135 -0.11,6.002 0,0.915 0.037,1.317 0.074,5.086 0,1.538 -0.22,2.892 -0.586,3.551 -0.695,1.207 -1.866,1.756 -3.221,1.756 -1.427,0 -3.001,-0.586 -4.318,-1.684 v -14.711 c -0.732,-0.074 -1.5,-0.074 -2.232,-0.074 -0.732,0 -1.428,0 -2.013,0.074 z m -22.068,7.686 c 1.464,0.987 1.94,1.354 3.147,2.305 0.293,-0.036 0.805,-0.183 1.098,-0.366 V -2.123 c 1.72,1.611 3.733,2.562 6.038,2.562 2.306,0 4.356,-0.768 5.527,-2.598 0.695,-1.135 0.878,-3.111 0.878,-4.831 0,-2.708 -0.073,-4.501 -0.073,-5.855 0,-1.647 -0.037,-3.075 0.109,-5.453 -0.695,-0.074 -1.427,-0.074 -2.122,-0.074 -0.695,0 -1.354,0 -2.123,0.074 -0.146,2.195 -0.146,4.135 -0.109,6.002 0,0.915 0.036,1.317 0.073,5.086 0,1.538 -0.22,2.892 -0.586,3.551 -0.695,1.207 -1.866,1.756 -3.22,1.756 -1.428,0 -3.001,-0.586 -4.319,-1.684 v -14.711 c -0.732,-0.074 -1.5,-0.074 -2.232,-0.074 -0.732,0 -1.428,0 -2.013,0.074 z m -12.59,-24.045 c 1.025,0.037 2.05,0.512 3.038,1.391 -0.073,0.915 -0.11,1.793 -0.11,2.781 0,0.952 0.037,2.16 0.073,3.367 -0.915,-0.512 -1.866,-0.988 -2.781,-1.464 -1.354,-0.695 -2.233,-1.061 -2.708,-1.83 -0.293,-0.439 -0.439,-0.988 -0.439,-1.683 0,-1.683 1.244,-2.598 2.927,-2.562 m -5.343,5.709 c 1.025,0.659 2.379,1.062 3.77,1.501 1.537,0.476 3.074,1.024 4.574,1.683 l 0.037,0.879 c 0.073,1.354 -0.219,2.415 -0.732,3.147 -0.696,0.988 -1.867,1.464 -2.964,1.464 -1.245,0 -2.489,-0.513 -4.063,-1.464 -0.366,0.256 -0.658,0.659 -0.768,0.951 2.122,1.977 4.538,2.892 6.661,2.892 1.829,0 3.549,-0.696 4.684,-2.05 0.952,-1.134 1.5,-2.781 1.427,-4.867 -0.073,-2.233 -0.146,-4.355 -0.146,-6.588 0,-1.463 0.036,-3.513 0.183,-5.196 -0.256,-0.147 -0.769,-0.293 -1.135,-0.293 -1.098,0.732 -1.866,1.464 -2.708,2.452 -1.647,-1.757 -3.843,-2.708 -5.892,-2.708 -2.781,0 -5.087,1.427 -5.087,4.318 0,1.537 0.842,3.038 2.159,3.879 M -74.768,0 c 0.366,0.22 0.732,0.293 1.171,0.33 0.805,-0.952 1.464,-1.684 2.452,-2.562 1.793,1.683 3.806,2.671 6.185,2.671 2.306,0 4.318,-0.805 5.526,-2.598 l 0.147,-0.22 c 1.793,1.757 3.879,2.818 6.331,2.818 2.305,0 4.355,-0.768 5.526,-2.598 0.695,-1.135 0.878,-3.111 0.878,-4.831 0,-2.708 -0.073,-4.501 -0.073,-5.855 0,-1.647 -0.037,-3.075 0.11,-5.453 -0.696,-0.074 -1.427,-0.074 -2.123,-0.074 -0.695,0 -1.354,0 -2.122,0.074 -0.147,2.195 -0.147,4.135 -0.11,6.002 0,0.915 0.036,1.317 0.073,4.72 0,1.538 -0.219,2.892 -0.585,3.55 -0.696,1.208 -1.867,1.757 -3.221,1.757 -1.427,0 -2.928,-0.293 -4.282,-1.39 0.256,-1.025 0.329,-2.197 0.329,-3.331 0,-2.708 -0.073,-4.501 -0.073,-5.855 0,-1.647 -0.036,-3.075 0.11,-5.453 -0.695,-0.074 -1.427,-0.074 -2.123,-0.074 -0.695,0 -1.354,0 -2.122,0.074 -0.147,2.195 -0.147,4.135 -0.11,6.002 0,0.915 0.037,1.683 0.073,4.72 0.037,1.538 -0.219,2.892 -0.585,3.55 -0.696,1.208 -1.867,1.757 -3.221,1.757 -1.281,0 -2.671,-0.476 -3.916,-1.39 v -14.639 c -0.732,-0.074 -1.5,-0.074 -2.232,-0.074 -0.732,0 -1.427,0 -2.013,0.074 z m -12.663,-16.359 c 1.025,0.037 2.05,0.512 3.038,1.391 -0.073,0.915 -0.11,1.793 -0.11,2.781 0,0.952 0.037,2.16 0.073,3.367 -0.915,-0.512 -1.866,-0.988 -2.781,-1.464 -1.354,-0.695 -2.232,-1.061 -2.708,-1.83 -0.293,-0.439 -0.439,-0.988 -0.439,-1.683 0,-1.683 1.244,-2.598 2.927,-2.562 m -5.343,5.709 c 1.025,0.659 2.379,1.062 3.77,1.501 1.537,0.476 3.074,1.024 4.574,1.683 l 0.037,0.879 c 0.073,1.354 -0.22,2.415 -0.732,3.147 -0.695,0.988 -1.866,1.464 -2.964,1.464 -1.245,0 -2.489,-0.513 -4.063,-1.464 -0.366,0.256 -0.658,0.659 -0.768,0.951 2.122,1.977 4.538,2.892 6.66,2.892 1.83,0 3.551,-0.696 4.685,-2.05 0.952,-1.134 1.501,-2.781 1.427,-4.867 -0.073,-2.233 -0.146,-4.355 -0.146,-6.588 0,-1.463 0.036,-3.513 0.183,-5.196 -0.256,-0.147 -0.769,-0.293 -1.135,-0.293 -1.098,0.732 -1.866,1.464 -2.708,2.452 -1.647,-1.757 -3.843,-2.708 -5.892,-2.708 -2.781,0 -5.087,1.427 -5.087,4.318 0,1.537 0.842,3.038 2.159,3.879 M -115.94,0 c 0.33,0.183 0.805,0.293 1.171,0.33 0.879,-1.025 1.538,-1.794 2.672,-2.745 1.83,1.756 3.916,2.854 6.368,2.854 2.305,0 4.355,-0.768 5.526,-2.598 0.695,-1.135 0.878,-3.111 0.878,-4.831 0,-2.708 -0.073,-4.501 -0.073,-5.855 0,-1.647 -0.036,-3.075 0.11,-5.453 -0.695,-0.074 -1.427,-0.074 -2.123,-0.074 -0.695,0 -1.354,0 -2.122,0.074 -0.147,2.195 -0.147,4.135 -0.11,6.002 0,0.915 0.036,1.317 0.073,5.086 0,1.538 -0.219,2.892 -0.586,3.551 -0.695,1.207 -1.866,1.756 -3.22,1.756 -1.427,0 -3.001,-0.586 -4.318,-1.684 v -14.711 c -0.732,-0.074 -1.501,-0.074 -2.233,-0.074 -0.732,0 -1.427,0 -2.013,0.074 z" /></g><g
           transform="translate(1896.4047,81.9621)"
           id="g900"><path
             id="path902"
             style="fill:#231f20;fill-opacity:1;fill-rule:nonzero;stroke:none"
             d="m 0,0 c -0.685,-0.671 -1.748,-0.993 -2.811,-0.993 -1.203,0 -2.168,0.336 -2.84,0.951 -0.629,0.587 -1.063,1.441 -1.063,2.378 h 1.301 c 0,-0.588 0.294,-1.175 0.699,-1.567 0.448,-0.433 1.203,-0.615 1.903,-0.615 0.755,0 1.398,0.154 1.846,0.573 0.308,0.28 0.504,0.63 0.504,1.161 0,0.769 -0.49,1.413 -1.665,1.595 L -3.692,3.72 c -1.483,0.224 -2.644,1.049 -2.644,2.63 0,0.741 0.336,1.455 0.867,1.958 0.686,0.643 1.567,0.979 2.602,0.979 0.965,0 1.916,-0.322 2.573,-0.951 C 0.308,7.763 0.63,7.049 0.657,6.21 h -1.3 C -0.671,6.7 -0.853,7.133 -1.133,7.455 -1.51,7.888 -2.112,8.14 -2.881,8.14 -3.594,8.14 -4.21,7.944 -4.644,7.455 -4.895,7.161 -5.049,6.825 -5.049,6.378 c 0,-0.895 0.741,-1.301 1.482,-1.399 0.56,-0.07 1.105,-0.168 1.651,-0.251 C -0.266,4.49 0.839,3.483 0.839,1.916 0.839,1.091 0.49,0.475 0,0" /></g><g
           transform="translate(1903.8522,85.179)"
           id="g904"><path
             id="path906"
             style="fill:#00adef;fill-opacity:1;fill-rule:nonzero;stroke:none"
             d="M 0,0 V -4.028 H -1.259 V 0 l -3.329,5.888 h 1.399 L -0.587,1.175 2,5.888 h 1.329 z" /></g><g
           transform="translate(1915.7079,81.9621)"
           id="g908"><path
             id="path910"
             style="fill:#231f20;fill-opacity:1;fill-rule:nonzero;stroke:none"
             d="m 0,0 c -0.685,-0.671 -1.748,-0.993 -2.811,-0.993 -1.203,0 -2.168,0.336 -2.84,0.951 -0.629,0.587 -1.063,1.441 -1.063,2.378 h 1.301 c 0,-0.588 0.294,-1.175 0.699,-1.567 0.448,-0.433 1.203,-0.615 1.903,-0.615 0.755,0 1.398,0.154 1.846,0.573 0.308,0.28 0.504,0.63 0.504,1.161 0,0.769 -0.49,1.413 -1.665,1.595 L -3.692,3.72 c -1.483,0.224 -2.644,1.049 -2.644,2.63 0,0.741 0.336,1.455 0.867,1.958 0.686,0.643 1.567,0.979 2.602,0.979 0.965,0 1.916,-0.322 2.573,-0.951 C 0.308,7.763 0.63,7.049 0.657,6.21 h -1.3 C -0.671,6.7 -0.853,7.133 -1.133,7.455 -1.51,7.888 -2.112,8.14 -2.881,8.14 -3.594,8.14 -4.21,7.944 -4.643,7.455 -4.895,7.161 -5.049,6.825 -5.049,6.378 c 0,-0.895 0.741,-1.301 1.482,-1.399 0.56,-0.07 1.105,-0.168 1.651,-0.251 C -0.266,4.49 0.839,3.483 0.839,1.916 0.839,1.091 0.49,0.475 0,0" /></g><g
           transform="translate(1922.8864,89.9065)"
           id="g912"><path
             id="path914"
             style="fill:#231f20;fill-opacity:1;fill-rule:nonzero;stroke:none"
             d="M 0,0 V -8.756 H -1.259 V 0 H -4.21 V 1.161 H 2.951 L 2.951,0 Z" /></g><g
           transform="translate(1928.2556,81.1508)"
           id="g916"><path
             id="path918"
             style="fill:#231f20;fill-opacity:1;fill-rule:nonzero;stroke:none"
             d="M 0,0 V 9.917 H 6.63 V 8.77 H 1.245 V 5.748 H 5.972 V 4.574 H 1.245 V 1.147 H 6.63 V 0 Z" /></g><g
           transform="translate(1946.3721,81.1508)"
           id="g920"><path
             id="path922"
             style="fill:#231f20;fill-opacity:1;fill-rule:nonzero;stroke:none"
             d="M 0,0 V 8.364 L -3.077,0.14 H -4.056 L -7.133,8.434 V 0 h -1.189 v 9.917 h 1.79 L -3.539,1.846 -0.56,9.917 H 1.189 L 1.189,0 Z" /></g><path
           id="path924"
           style="fill:#231f20;fill-opacity:1;fill-rule:nonzero;stroke:none"
           d="m 1951.125,91.067 h 1.273 V 81.15 h -1.273 z" /><g
           transform="translate(1961.7723,82.0181)"
           id="g926"><path
             id="path928"
             style="fill:#231f20;fill-opacity:1;fill-rule:nonzero;stroke:none"
             d="m 0,0 c -0.601,-0.601 -1.581,-1.063 -2.657,-1.063 -0.994,0 -1.973,0.364 -2.686,1.063 -1.077,1.049 -1.245,2.503 -1.245,4.084 0,1.581 0.168,3.035 1.245,4.084 0.713,0.699 1.692,1.063 2.686,1.063 1.076,0 2.042,-0.42 2.643,-1.021 C 0.559,7.623 0.923,6.867 0.965,5.944 h -1.287 c -0.014,0.546 -0.223,1.021 -0.545,1.385 -0.392,0.433 -1.035,0.727 -1.79,0.727 -0.672,0 -1.329,-0.265 -1.805,-0.755 -0.811,-0.839 -0.839,-2.182 -0.839,-3.217 0,-1.035 0.028,-2.378 0.839,-3.217 0.476,-0.489 1.133,-0.755 1.805,-0.755 0.755,0 1.412,0.322 1.804,0.755 0.321,0.364 0.531,0.881 0.545,1.427 H 0.979 C 0.937,1.371 0.573,0.587 0,0" /></g><g
           transform="translate(1895.02,76.0237)"
           id="g930"><path
             id="path932"
             style="fill:#231f20;fill-opacity:1;fill-rule:nonzero;stroke:none"
             d="m 0,0 c -0.462,0.462 -1.119,0.685 -1.762,0.685 h -2.21 v -7.622 h 2.21 c 0.643,0 1.3,0.223 1.762,0.685 0.783,0.797 0.853,2.07 0.853,3.133 C 0.853,-2.056 0.783,-0.811 0,0 M 0.839,-7.091 C 0.14,-7.762 -0.797,-8.084 -1.762,-8.084 h -3.455 v 9.916 h 3.455 c 0.965,0 1.902,-0.335 2.601,-1.007 1.091,-1.035 1.273,-2.517 1.273,-3.944 0,-1.427 -0.196,-2.937 -1.273,-3.972" /></g><g
           transform="translate(1899.9078,67.9395)"
           id="g934"><path
             id="path936"
             style="fill:#00adef;fill-opacity:1;fill-rule:nonzero;stroke:none"
             d="M 0,0 V 9.917 H 6.63 V 8.77 H 1.245 V 5.748 H 5.972 V 4.574 H 1.245 V 1.147 H 6.63 V 0 Z" /></g><g
           transform="translate(1915.7079,68.7508)"
           id="g938"><path
             id="path940"
             style="fill:#231f20;fill-opacity:1;fill-rule:nonzero;stroke:none"
             d="m 0,0 c -0.685,-0.671 -1.748,-0.993 -2.811,-0.993 -1.203,0 -2.168,0.336 -2.84,0.951 -0.629,0.587 -1.063,1.441 -1.063,2.378 h 1.301 c 0,-0.588 0.294,-1.175 0.699,-1.567 0.448,-0.433 1.203,-0.615 1.903,-0.615 0.755,0 1.398,0.154 1.846,0.573 0.308,0.28 0.504,0.63 0.504,1.161 0,0.769 -0.49,1.413 -1.665,1.595 L -3.692,3.72 c -1.483,0.224 -2.644,1.049 -2.644,2.63 0,0.741 0.336,1.455 0.867,1.958 0.686,0.643 1.567,0.979 2.602,0.979 0.965,0 1.916,-0.322 2.573,-0.951 C 0.308,7.763 0.63,7.049 0.657,6.21 h -1.3 C -0.671,6.7 -0.853,7.133 -1.133,7.455 -1.51,7.888 -2.112,8.14 -2.881,8.14 -3.594,8.14 -4.21,7.944 -4.643,7.455 -4.895,7.161 -5.049,6.825 -5.049,6.378 c 0,-0.895 0.741,-1.301 1.482,-1.399 0.56,-0.07 1.105,-0.168 1.651,-0.251 C -0.266,4.49 0.839,3.483 0.839,1.916 0.839,1.091 0.49,0.475 0,0" /></g><path
           id="path942"
           style="fill:#231f20;fill-opacity:1;fill-rule:nonzero;stroke:none"
           d="m 1921.62,77.856 h 1.273 v -9.917 h -1.273 z" /><g
           transform="translate(1934.5706,67.9395)"
           id="g944"><path
             id="path946"
             style="fill:#231f20;fill-opacity:1;fill-rule:nonzero;stroke:none"
             d="m 0,0 -0.21,1.189 c -0.489,-0.811 -1.58,-1.385 -2.699,-1.385 -0.993,0 -1.958,0.322 -2.672,1.021 -1.007,0.979 -1.287,2.35 -1.287,4.126 0,1.581 0.21,3.035 1.287,4.084 0.714,0.7 1.679,1.063 2.672,1.063 1.119,0 2.154,-0.391 2.839,-1.119 C 0.406,8.476 0.741,7.846 0.783,7.049 H -0.518 C -0.56,7.511 -0.713,7.833 -0.965,8.14 -1.413,8.672 -2.098,8.924 -2.909,8.924 -3.581,8.924 -4.238,8.658 -4.714,8.168 -5.525,7.329 -5.581,5.986 -5.581,4.951 c 0,-0.993 0.07,-2.419 0.895,-3.259 0.476,-0.489 1.105,-0.713 1.777,-0.713 0.699,0 1.356,0.238 1.804,0.685 0.657,0.644 0.853,1.609 0.853,2.518 H -2.909 V 5.343 H 0.867 V 0 Z" /></g><g
           transform="translate(1944.1201,67.9395)"
           id="g948"><path
             id="path950"
             style="fill:#231f20;fill-opacity:1;fill-rule:nonzero;stroke:none"
             d="M 0,0 -4.867,7.972 V 0 H -6.07 v 9.917 h 1.398 L 0.196,1.916 V 9.917 H 1.399 L 1.399,0 Z" /></g><g
           transform="translate(1893.4323,63.4)"
           id="g952"><path
             id="path954"
             style="fill:#231f20;fill-opacity:1;fill-rule:nonzero;stroke:none"
             d="m 0,0 -1.748,-5.147 h 3.51 z m 2.979,-8.672 -0.811,2.35 H -2.14 l -0.797,-2.35 h -1.259 l 3.497,9.917 h 1.454 l 3.511,-9.917 z" /></g><g
           transform="translate(1906.1599,55.5395)"
           id="g956"><path
             id="path958"
             style="fill:#00adef;fill-opacity:1;fill-rule:nonzero;stroke:none"
             d="m 0,0 c -0.685,-0.671 -1.748,-0.993 -2.811,-0.993 -1.203,0 -2.168,0.336 -2.84,0.951 -0.629,0.587 -1.063,1.441 -1.063,2.378 h 1.301 c 0,-0.588 0.294,-1.175 0.7,-1.567 0.447,-0.433 1.203,-0.615 1.902,-0.615 0.755,0 1.399,0.154 1.846,0.573 0.308,0.28 0.504,0.63 0.504,1.161 0,0.769 -0.49,1.413 -1.665,1.595 L -3.692,3.72 c -1.483,0.224 -2.644,1.049 -2.644,2.63 0,0.741 0.336,1.455 0.867,1.958 0.686,0.643 1.567,0.979 2.602,0.979 0.965,0 1.916,-0.322 2.573,-0.951 C 0.308,7.763 0.63,7.049 0.657,6.21 h -1.3 C -0.671,6.7 -0.853,7.133 -1.133,7.455 -1.51,7.888 -2.112,8.14 -2.881,8.14 -3.594,8.14 -4.21,7.944 -4.643,7.455 -4.895,7.161 -5.049,6.825 -5.049,6.378 c 0,-0.895 0.741,-1.301 1.482,-1.399 0.56,-0.07 1.105,-0.168 1.651,-0.252 C -0.266,4.49 0.839,3.483 0.839,1.916 0.839,1.091 0.49,0.475 0,0" /></g><g
           transform="translate(1915.7079,55.5395)"
           id="g960"><path
             id="path962"
             style="fill:#231f20;fill-opacity:1;fill-rule:nonzero;stroke:none"
             d="m 0,0 c -0.685,-0.671 -1.748,-0.993 -2.811,-0.993 -1.203,0 -2.168,0.336 -2.84,0.951 -0.629,0.587 -1.063,1.441 -1.063,2.378 h 1.301 c 0,-0.588 0.294,-1.175 0.699,-1.567 0.448,-0.433 1.203,-0.615 1.903,-0.615 0.755,0 1.398,0.154 1.846,0.573 0.308,0.28 0.504,0.63 0.504,1.161 0,0.769 -0.49,1.413 -1.665,1.595 L -3.692,3.72 c -1.483,0.224 -2.644,1.049 -2.644,2.63 0,0.741 0.336,1.455 0.867,1.958 0.686,0.643 1.567,0.979 2.602,0.979 0.965,0 1.916,-0.322 2.573,-0.951 C 0.308,7.763 0.63,7.049 0.657,6.21 h -1.3 C -0.671,6.7 -0.853,7.133 -1.133,7.455 -1.51,7.888 -2.112,8.14 -2.881,8.14 -3.594,8.14 -4.21,7.944 -4.643,7.455 -4.895,7.161 -5.049,6.825 -5.049,6.378 c 0,-0.895 0.741,-1.301 1.482,-1.399 0.56,-0.07 1.105,-0.168 1.651,-0.252 C -0.266,4.49 0.839,3.483 0.839,1.916 0.839,1.091 0.49,0.475 0,0" /></g><g
           transform="translate(1924.0613,62.8965)"
           id="g964"><path
             id="path966"
             style="fill:#231f20;fill-opacity:1;fill-rule:nonzero;stroke:none"
             d="M 0,0 C -0.476,0.49 -1.133,0.741 -1.804,0.741 -2.476,0.741 -3.133,0.49 -3.609,0 -4.42,-0.839 -4.462,-2.182 -4.462,-3.217 c 0,-1.035 0.042,-2.378 0.853,-3.217 0.476,-0.489 1.133,-0.741 1.805,-0.741 0.671,0 1.328,0.252 1.804,0.741 0.811,0.839 0.853,2.182 0.853,3.217 C 0.853,-2.182 0.811,-0.839 0,0 M 0.867,-7.301 C 0.154,-8 -0.811,-8.364 -1.804,-8.364 c -0.993,0 -1.959,0.364 -2.672,1.063 -1.077,1.049 -1.273,2.503 -1.273,4.084 0,1.581 0.196,3.035 1.273,4.084 0.713,0.699 1.679,1.063 2.672,1.063 0.993,0 1.958,-0.364 2.671,-1.063 1.077,-1.049 1.273,-2.503 1.273,-4.084 0,-1.581 -0.196,-3.035 -1.273,-4.084" /></g><g
           transform="translate(1934.3749,55.5955)"
           id="g968"><path
             id="path970"
             style="fill:#231f20;fill-opacity:1;fill-rule:nonzero;stroke:none"
             d="m 0,0 c -0.601,-0.601 -1.581,-1.063 -2.658,-1.063 -0.993,0 -1.972,0.364 -2.685,1.063 -1.077,1.049 -1.245,2.503 -1.245,4.084 0,1.581 0.168,3.035 1.245,4.084 0.713,0.699 1.692,1.063 2.685,1.063 1.077,0 2.043,-0.42 2.644,-1.021 C 0.559,7.623 0.923,6.867 0.965,5.944 h -1.287 c -0.014,0.546 -0.224,1.021 -0.545,1.385 -0.392,0.433 -1.035,0.727 -1.791,0.727 -0.671,0 -1.328,-0.265 -1.804,-0.755 -0.811,-0.839 -0.839,-2.182 -0.839,-3.217 0,-1.035 0.028,-2.378 0.839,-3.217 0.476,-0.489 1.133,-0.755 1.804,-0.755 0.756,0 1.413,0.322 1.805,0.755 0.321,0.364 0.531,0.881 0.545,1.427 H 0.979 C 0.937,1.371 0.573,0.587 0,0" /></g><path
           id="path972"
           style="fill:#231f20;fill-opacity:1;fill-rule:nonzero;stroke:none"
           d="m 1938.05,64.645 h 1.273 v -9.917 h -1.273 z" /><g
           transform="translate(1945.9708,63.4)"
           id="g974"><path
             id="path976"
             style="fill:#231f20;fill-opacity:1;fill-rule:nonzero;stroke:none"
             d="m 0,0 -1.748,-5.147 h 3.51 z m 2.979,-8.672 -0.811,2.35 H -2.14 l -0.797,-2.35 h -1.259 l 3.497,9.917 h 1.454 l 3.511,-9.917 z" /></g><g
           transform="translate(1954.193,63.4839)"
           id="g978"><path
             id="path980"
             style="fill:#231f20;fill-opacity:1;fill-rule:nonzero;stroke:none"
             d="M 0,0 V -8.756 H -1.259 V 0 H -4.21 V 1.161 H 2.951 L 2.951,0 Z" /></g><path
           id="path982"
           style="fill:#231f20;fill-opacity:1;fill-rule:nonzero;stroke:none"
           d="m 1959.488,64.645 h 1.273 v -9.917 h -1.273 z" /><g
           transform="translate(1969.0148,62.8965)"
           id="g984"><path
             id="path986"
             style="fill:#231f20;fill-opacity:1;fill-rule:nonzero;stroke:none"
             d="M 0,0 C -0.476,0.49 -1.133,0.741 -1.804,0.741 -2.476,0.741 -3.133,0.49 -3.609,0 -4.42,-0.839 -4.462,-2.182 -4.462,-3.217 c 0,-1.035 0.042,-2.378 0.853,-3.217 0.476,-0.489 1.133,-0.741 1.805,-0.741 0.671,0 1.328,0.252 1.804,0.741 0.811,0.839 0.853,2.182 0.853,3.217 C 0.853,-2.182 0.811,-0.839 0,0 M 0.867,-7.301 C 0.154,-8 -0.811,-8.364 -1.804,-8.364 c -0.993,0 -1.959,0.364 -2.672,1.063 -1.077,1.049 -1.273,2.503 -1.273,4.084 0,1.581 0.196,3.035 1.273,4.084 0.713,0.699 1.679,1.063 2.672,1.063 0.993,0 1.958,-0.364 2.671,-1.063 1.077,-1.049 1.273,-2.503 1.273,-4.084 0,-1.581 -0.196,-3.035 -1.273,-4.084" /></g><g
           transform="translate(1979.6567,54.7282)"
           id="g988"><path
             id="path990"
             style="fill:#231f20;fill-opacity:1;fill-rule:nonzero;stroke:none"
             d="M 0,0 -4.867,7.972 V 0 H -6.07 v 9.917 h 1.398 L 0.196,1.916 V 9.917 H 1.399 L 1.399,0 Z" /></g><g
           transform="translate(4392.4697,2230.8462)"
           id="g992"><path
             id="path994"
             style="fill:none;stroke:#231f20;stroke-width:6;stroke-linecap:butt;stroke-linejoin:miter;stroke-miterlimit:10;stroke-dasharray:none;stroke-opacity:1"
             d="m 0,0 c 439.979,-428.668 439.979,-1141.722 0,-1593.152 -434.25,-445.551 -1153.215,-439.936 -1593.152,0 -439.936,439.937 -439.936,1153.215 0,1593.152 C -1153.215,439.937 -445.627,434.172 0,0 Z" /></g></g></g></g></svg>