<svg height="2048" width="2048" xmlns="http://www.w3.org/2000/svg"><path d="m9.9179325 1032.7348c-4.6270392-.056-8.92271005 3.7569-9.40491998 8.3632-.51158626 3.9182 1.63951988 8.0511 5.22822668 9.7587 3.3886815 1.7027 7.7828498 1.1899 10.5932408-1.3943 2.838084-2.4891 4.023843-6.7245 2.710832-10.2918-1.19766-3.4828-4.521147-6.1493-8.21891-6.4002-.302055-.026-.605315-.038-.9084695-.036zm.1750395 1.0328c4.254501-.059 8.172263 3.5711 8.42065 7.8242.334545 3.7677-2.103675 7.6172-5.731776 8.7803-3.4680372 1.1987-7.6601014-.072-9.7400778-3.1327-2.17453673-3.0452-2.08059614-7.5437.3966916-10.3922 1.6189339-1.9368 4.1191016-3.1387 6.6545122-3.0796zm-.2480347.9303c-3.9293939-.015-7.4593313 3.5133-7.4460632 7.445-.095146 3.5678 2.6110772 7.0133 6.1570528 7.6184 3.2352191.637 6.8012611-1.043 8.2396741-4.039 1.515778-2.983.828925-6.955-1.766359-9.1228-1.414522-1.2423-3.297189-1.9561-5.1843047-1.9016zm.3033667 1.0123c3.481338-.016 6.587514 3.1807 6.453926 6.6652-.01449 3.1699-2.580044 6.141-5.763786 6.4619-3.0357297.3986-6.2364562-1.5479-7.1092328-4.5177-.9181888-2.8382.2953921-6.257 2.9461791-7.7077 1.0459098-.6106 2.2614246-.9303 3.4729137-.9017z" transform="matrix(96.752895 0 0 96.752895 55.328158 -99820.70216999998)"/></svg>